<svg xmlns="http://www.w3.org/2000/svg" width="24" height="24" viewBox="0 0 24 24">
    <path d="M13.5 16.5h-2.25a.75.75 0 1 1 0-1.5h3a.75.75 0 0 1 .75.75v2.69l3.22-3.22a.75.75 0 0 1 .53-.22h3a.75.75 0 0 0 .75-.75v-12a.75.75 0 0 0-.75-.75h-12a.75.75 0 0 0-.75.75.75.75 0 0 1-1.5 0A2.25 2.25 0 0 1 9.75 0h12A2.25 2.25 0 0 1 24 2.25v12a2.25 2.25 0 0 1-2.25 2.25h-2.69l-4.28 4.28a.75.75 0 0 1-1.28-.53V16.5zm-9-6a3.75 3.75 0 1 1 0-7.5 3.75 3.75 0 0 1 0 7.5zm0-1.5a2.25 2.25 0 1 0 0-4.5 2.25 2.25 0 0 0 0 4.5zm-2.912 9H.75a.75.75 0 0 1-.75-.75V15a4.5 4.5 0 1 1 9 0v2.25a.75.75 0 0 1-.75.75h-.838l-.668 5.343A.75.75 0 0 1 6 24H3a.75.75 0 0 1-.744-.657L1.588 18zM7.5 16.5V15a3 3 0 0 0-6 0v1.5h.75a.75.75 0 0 1 .744.657l.668 5.343h1.676l.668-5.343a.75.75 0 0 1 .744-.657h.75zm7.125-4.875a1.125 1.125 0 1 1 2.25 0 1.125 1.125 0 0 1-2.25 0zM16.5 9A.75.75 0 1 1 15 9V5.25a.75.75 0 1 1 1.5 0V9z"/>
</svg>
