<?xml version="1.0" encoding="iso-8859-1"?>
<!-- Generator: Adobe Illustrator 19.0.0, SVG Export Plug-In . SVG Version: 6.00 Build 0)  -->
<svg version="1.1" id="Layer_1" xmlns="http://www.w3.org/2000/svg" xmlns:xlink="http://www.w3.org/1999/xlink" x="0px" y="0px"
	 viewBox="0 0 392.663 392.663" style="enable-background:new 0 0 392.663 392.663;" xml:space="preserve">
<g>
	<g>
		<path d="M269.576,42.795L77.382,147.199H10.925C4.913,147.199,0,152.047,0,158.124v76.283c0,6.012,4.848,10.925,10.925,10.925
			h30.448c-2.263,30.966,15.515,60.897,45.188,73.18c9.115,3.814,51.2,14.675,85.463-21.786l97.616,53.01
			c12.283,4.525,16.162-5.818,16.162-9.568V52.362C285.737,48.548,282.117,38.657,269.576,42.795z M21.851,223.546v-54.562h47.451
			v54.562H21.851z M94.966,298.407c-21.333-8.792-33.939-30.707-31.612-53.01h14.158l74.925,40.727
			C137.891,301.38,115.071,306.746,94.966,298.407z M91.087,228.007v-63.354l172.865-93.996v251.151L91.087,228.007z"/>
	</g>
</g>
<g>
	<g>
		<path d="M356.59,105.954c-4.202-4.331-11.055-4.59-15.451-0.388l-32.711,31.224c-4.331,4.202-4.784,11.378-0.388,15.451
			c5.301,4.719,13.382,2.327,15.451,0.259l32.711-31.095C360.533,117.203,360.792,110.35,356.59,105.954z"/>
	</g>
</g>
<g>
	<g>
		<path d="M381.737,185.34h-45.059c-6.012,0-10.925,4.848-10.925,10.925c0,6.012,4.848,10.925,10.925,10.925h45.059
			c6.012,0,10.925-4.848,10.925-10.925S387.749,185.34,381.737,185.34z"/>
	</g>
</g>
<g>
	<g>
		<path d="M356.202,271.191l-32.711-31.095c-4.331-4.202-11.313-4.008-15.451,0.388c-4.202,4.331-4.008,11.313,0.388,15.451
			l32.711,31.095c2.069,2.004,10.602,4.461,15.451-0.388C360.857,282.374,360.598,275.328,356.202,271.191z"/>
	</g>
</g>
<g>
</g>
<g>
</g>
<g>
</g>
<g>
</g>
<g>
</g>
<g>
</g>
<g>
</g>
<g>
</g>
<g>
</g>
<g>
</g>
<g>
</g>
<g>
</g>
<g>
</g>
<g>
</g>
<g>
</g>
</svg>
