<?xml version="1.0" encoding="utf-8"?>
<!-- Generator: Adobe Illustrator 24.1.3, SVG Export Plug-In . SVG Version: 6.00 Build 0)  -->
<svg version="1.1" id="Layer_1" xmlns="http://www.w3.org/2000/svg" xmlns:xlink="http://www.w3.org/1999/xlink" x="0px" y="0px"
    viewBox="0 0 75 32.1" style="enable-background:new 0 0 75 32.1;" xml:space="preserve">
    <g>

	<path class="st0" d="M0.1,5.8c0.9,0,1.8,0,2.7,0c1.3,0,2.6,0,3.9,0C6.9,5.8,6.9,5.8,7,6c1.8,4.9,3.9,9.7,6,14.5c0,0,0,0.1,0.1,0.2
		c0-0.1,0.1-0.1,0.1-0.1c1.4-3.5,2.9-7,4.3-10.5c0.5-1.3,0.9-2.7,1.4-4c0.1-0.2,0.1-0.2,0.3-0.2c2.1,0,4.1,0,6.2,0
		c0.1,0,0.2,0,0.2,0c0,0.1,0,0.2,0,0.3c-0.1,0-0.1,0-0.2,0.1c-1.3,0.3-1.9,0.9-2.1,2.3C23.1,9.2,23,10,23,10.7
		c-0.1,3.6-0.1,7.3,0,11c0,0.6,0.1,1.3,0.1,1.9c0.2,1.3,0.9,2,2.1,2.2c0.2,0,0.3,0.1,0.2,0.3c-3.1,0-6.2,0-9.3,0
		c-0.1-0.2,0-0.3,0.2-0.3c1.3-0.3,2-1,2.1-2.4c0.1-1.9,0.2-3.9,0.2-5.8c0-2.9,0-5.9,0-8.8c0-0.1,0-0.1,0-0.2
		c-0.1,0.2-0.2,0.5-0.3,0.7c-2.3,5.6-4.5,11.1-6.8,16.7c-0.1,0.2-0.1,0.3-0.3,0.2c-0.2,0-0.4,0-0.5-0.2c-2.5-5.7-5-11.5-7.4-17.2
		c0-0.1-0.1-0.2-0.1-0.2c0,0.1,0,0.1,0,0.2c0,4.2,0,8.4,0,12.6c0,0.7,0,1.4,0.1,2.1c0.2,1.4,0.8,2,2.2,2.3c0.2,0,0.3,0.1,0.2,0.4
		c-1.9,0-3.9,0-5.8,0c0-0.2,0-0.3,0.2-0.4c1.3-0.3,1.9-1.2,2.2-2.4c0.2-1.3,0.2-2.6,0.3-3.9c0.1-3.3,0.1-6.6-0.1-9.9
		c0-0.4-0.1-0.9-0.2-1.3C2.2,7.1,1.5,6.4,0.3,6.1C0,6.1,0,6.1,0.1,5.8z"  fill="#37374B" />
        <path class="st0" d="M58,10.7c0.1,0,0.2,0,0.2,0c1.8,0,3.6,0,5.4,0c0.4,0,0.4,0,0.4,0.4c0,1-0.1,2-0.1,3c0,0.1,0,0.2,0.1,0.2
		c0-0.1,0.1-0.2,0.1-0.3c0.3-1.1,0.8-2.1,1.8-2.8c0.9-0.6,1.8-0.8,2.9-0.8c0.7,0,1.4,0.1,2,0.3c1.1,0.4,1.8,1.2,2.1,2.4
		c0.2,0.7,0.3,1.4,0.3,2.1c0,2.2,0,4.4,0,6.6c0,0.8,0.1,1.5,0.1,2.3c0.1,0.8,0.5,1.4,1.3,1.6c0.1,0,0.1,0,0.2,0.1
		c0.1,0,0.1,0,0.2,0.1c0,0.1,0,0.2,0,0.2c-2.6,0-5.2,0-7.9,0c0-0.1-0.1-0.2,0.1-0.3c1.3-0.3,1.7-1,1.7-2.3c0.1-2.2,0.1-4.3,0.1-6.5
		c0-1.1-0.1-2.1-0.1-3.2c0-0.3-0.1-0.6-0.2-0.9c-0.3-1-1.1-1.4-2.1-1.3c-0.9,0.1-1.5,0.7-1.9,1.5c-0.5,0.9-0.7,1.9-0.7,3
		c-0.1,2.5-0.1,5,0,7.4c0,0.2,0.1,0.5,0.1,0.7c0.2,0.8,0.7,1.3,1.5,1.5c0.2,0,0.3,0.1,0.2,0.3c-2.6,0-5.2,0-7.9,0
		c0-0.1,0-0.2,0.2-0.3c1.1-0.3,1.5-0.8,1.6-2c0.1-1,0.1-2.1,0.1-3.1c0-2,0-4,0-5.9c0-0.7-0.1-1.3-0.2-2c-0.1-0.9-0.7-1.5-1.5-1.9
		C57.9,11,57.9,10.9,58,10.7z"  fill="#37374B" />
        <path class="st0" d="M42.1,24.4c0.1,0,0.1,0.1,0.2,0.1c-0.4,0.9-1,1.5-1.9,1.8c-0.9,0.3-1.8,0.3-2.7,0c-1-0.3-1.5-1-1.7-2
		c0-0.1,0-0.1,0-0.2c0,0,0,0,0,0c0,0,0,0-0.1,0.1c-0.7,1.2-1.7,1.9-3.1,2.1c-1.1,0.2-2.2,0.1-3.3-0.3c-1.5-0.7-2.1-1.9-2.1-3.5
		c0-1.5,0.8-2.6,2.1-3.4c1.1-0.6,2.2-1,3.4-1.1c1-0.1,2-0.2,3-0.3c0,0,0-0.1,0-0.1c0-1.4,0-2.8-0.1-4.2c0-0.3-0.1-0.7-0.2-1
		c-0.3-0.8-0.8-1.3-1.7-1.4c-0.7-0.1-1.4,0-2.1,0.3c-0.1,0-0.2,0.1-0.3,0.2c-0.8,0.5-0.9,1.2-0.2,1.8c0.3,0.3,0.6,0.6,0.7,1.1
		c0.2,1.1-0.5,2.1-1.6,2.3c-1.7,0.3-2.9-1-2.5-2.8c0.2-1,0.9-1.7,1.7-2.2c1.1-0.7,2.3-1.1,3.6-1.2s2.5,0,3.8,0.4
		c1.8,0.6,2.8,1.9,2.9,3.7c0.1,0.8,0,1.7,0,2.5c0,1.9,0,3.8,0,5.6c0,0.4,0,0.8,0.1,1.3c0.1,0.4,0.2,0.9,0.7,1
		C41.3,25.1,41.7,24.9,42.1,24.4C42,24.5,42,24.5,42.1,24.4z M35.9,18.1c-1,0.1-1.9,0.2-2.7,0.7c-0.7,0.4-1.1,0.9-1.3,1.6
		c-0.2,0.8-0.2,1.5-0.1,2.3c0,0.4,0.2,0.9,0.3,1.3c0.3,0.7,0.9,1.1,1.7,1c0.9,0,1.6-0.6,2-1.4c0.1-0.2,0.2-0.5,0.2-0.7
		c0-1.5,0-3,0-4.5C35.9,18.3,35.9,18.2,35.9,18.1z"  fill="#37374B" />
        <path class="st0" d="M41.5,10.7c2.6,0,5.1,0,7.7,0c0.1,0.1,0,0.3-0.2,0.3c-0.1,0-0.3,0.1-0.4,0.2c-0.8,0.4-1.2,1-0.9,1.9
		c0.3,0.9,0.6,1.8,0.9,2.7c0.8,1.9,1.6,3.8,2.3,5.7c0,0,0,0.1,0.1,0.1c0-0.1,0.1-0.1,0.1-0.2c1-2.4,2-4.9,2.9-7.3
		c0.1-0.3,0.2-0.7,0.3-1.1c0.1-0.7-0.2-1.3-0.8-1.7c-0.3-0.2-0.5-0.3-0.8-0.4c-0.2-0.1-0.2-0.1-0.2-0.3c1.6,0,3.1,0,4.7,0
		c0,0.1,0.1,0.2-0.1,0.3c-1.1,0.6-1.8,1.6-2.2,2.7c-1.7,4.1-3.4,8.2-5.1,12.3c-0.1,0.3-0.3,0.4-0.6,0.3c-0.1,0-0.1-0.1-0.2-0.2
		c-1-2.2-2-4.4-3-6.6c-1-2.2-2-4.4-2.9-6.6c-0.3-0.6-0.6-1.3-1.2-1.7c-0.1,0-0.1-0.1-0.2-0.1C41.5,11,41.5,10.9,41.5,10.7z"  fill="#37374B" />
</g>
</svg>
