<?xml version="1.0" encoding="UTF-8"?>
<svg width="75px" height="26px" viewBox="0 0 75 26" version="1.1" xmlns="http://www.w3.org/2000/svg" xmlns:xlink="http://www.w3.org/1999/xlink">
    <!-- Generator: Sketch 62 (91390) - https://sketch.com -->
    <title>iPhone 8</title>
    <desc>Created with Sketch.</desc>
    <g id="iPhone-8" stroke="none" stroke-width="1" fill="none" fill-rule="evenodd">
        <g id="Group" fill="#FFFFFF">
            <g id="logo_updated-copy_5_">
                <g id="Group_5_">
                    <g id="Group" transform="translate(0.325306, 0.478681)">
                        <path d="M71.8846892,13.2293753 C71.8846892,8.5590627 69.1396891,5.33750013 64.9650015,5.33750013 C60.9428139,5.33750013 57.8928139,8.5590627 57.8928139,12.8290628 C57.8928139,17.2515629 60.8665639,20.3206255 65.212814,20.3206255 C67.4621891,20.3206255 69.5590641,19.5962505 70.8362517,18.3953129 L70.9887517,18.2428129 L69.2159391,15.4978129 L69.0634391,15.6503129 C68.1865641,16.5271879 66.6425016,16.9465629 65.6893765,16.9465629 C63.840314,16.9465629 62.467814,15.8981254 62.0675015,14.2015628 L71.9609392,14.2015628 L71.9609392,13.2293753 L71.8846892,13.2293753 L71.8846892,13.2293753 Z M68.0150016,11.3803128 L61.972189,11.3803128 C62.2200015,10.0840627 63.0968765,8.80687521 65.022189,8.80687521 C66.013439,8.7115627 67.7862516,9.28343772 68.0150016,11.3803128 L68.0150016,11.3803128 Z" id="Shape"></path>
                        <polygon id="Path" points="11.9331253 16.0506254 4.1365626 16.0506254 4.1365626 0.114375003 0.114375003 0.114375003 0.114375003 19.9775005 13.4581253 19.9775005"></polygon>
                        <polygon id="Path" points="57.3971888 19.9775005 51.8500012 12.3334378 57.2446888 5.81406264 52.4028137 5.81406264 47.9803136 11.3040628 47.9803136 0.114375003 43.958126 0.114375003 43.958126 19.9775005 47.9803136 19.9775005 47.9803136 13.4581253 52.9746887 19.9775005"></polygon>
                        <polygon id="Path" points="41.9565635 19.9775005 36.3903134 12.3334378 41.785001 5.81406264 36.9621884 5.81406264 32.5396883 11.3040628 32.5396883 0.114375003 28.5175007 0.114375003 28.5175007 19.9775005 32.5396883 19.9775005 32.5396883 13.4581253 37.5340634 19.9775005"></polygon>
                        <polygon id="Path" points="22.322188 5.58531263 19.1006254 14.1062503 15.8790629 5.58531263 11.5328128 5.58531263 17.0037504 19.348438 14.8306253 24.9718756 19.0243754 24.9718756 26.7446881 5.58531263"></polygon>
                    </g>
                </g>
            </g>
        </g>
    </g>
</svg>