<svg xmlns="http://www.w3.org/2000/svg" width="24" height="24" viewBox="0 0 24 24">
    <g fill="#242635">
        <path d="M9.668 10.871c.293.293.283.778-.023 1.084-.306.306-.79.316-1.084.023L6.582 10c-1.088 2.235-.805 4.886.8 6.738 1.812 2.089 4.853 2.64 7.416 1.345a.743.743 0 0 1 1.018.33c.178.375.011.838-.373 1.032-3.193 1.614-6.981.927-9.237-1.675-1.802-2.08-2.267-4.967-1.349-7.554l-1.881 1.88c-.306.307-.79.317-1.084.024-.293-.293-.282-.778.023-1.084l3.406-3.405c.305-.306.79-.316 1.083-.023zM9.142 4.62c3.193-1.616 6.983-.93 9.24 1.673 1.802 2.078 2.267 4.966 1.349 7.553l1.88-1.88c.305-.305.79-.315 1.083-.023.293.293.283.778-.023 1.084l-3.406 3.406c-.305.305-.79.316-1.083.023l-3.264-3.264c-.293-.293-.282-.778.023-1.084.306-.305.791-.316 1.084-.023l1.98 1.98c1.09-2.236.806-4.888-.8-6.74-1.812-2.09-4.854-2.64-7.418-1.344a.743.743 0 0 1-1.018-.329c-.178-.376-.01-.838.373-1.032z"/>
    </g>
</svg>
