<?xml version="1.0" encoding="utf-8"?><!-- Generator: Adobe Illustrator 24.1.0, SVG Export Plug-In . SVG Version: 6.00 Build 0)  -->
<svg version="1.1" id="Layer_1" xmlns="http://www.w3.org/2000/svg" x="0px" y="0px"
    viewBox="0 0 75 26" style="enable-background:new 0 0 75 26;" xml:space="preserve">

<desc>Created with Sketch.</desc>
    <g>
	<path class="st0" d="M22.1,11.8c0.1-1.2,0.6-1.7,1.6-2c0,0,0.1,0,0.2,0c0.1,0,0.2-0.1,0.2-0.2c0-0.1-0.1-0.1-0.2-0.1
		c-0.5,0-0.9,0-1.4,0c-1.2,0-2.4,0-3.6,0c-0.2,0-0.2,0-0.3,0.2c-0.1,0.3-0.2,0.7-0.3,1c-0.6,2-3.6,9-4.3,10.7c0-0.1,0-0.1-0.1-0.1
		c-1.6-3.8-3.3-7.6-4.8-11.6C9.2,9.5,9.1,9.5,8.9,9.5c-1.7,0-3.3,0-5,0c0,0-0.1,0-0.1,0c-0.1,0-0.1,0-0.1,0.1c0,0.2,0.1,0.2,0.2,0.2
		c1,0.2,1.5,0.8,1.7,1.7c0.1,0.4,0.1,0.7,0.1,1.1c0.1,2.6,0.1,5.3,0.1,7.9c0,1,0,2.1-0.2,3.1c-0.2,1-0.7,1.7-1.8,1.9
		c-0.1,0-0.1,0.1-0.1,0.2c0,0.1,0.1,0.1,0.2,0.1c1.1,0,2.1-0.1,3.2,0c0.4,0,0.8,0,1.2,0c0.1,0,0.2,0,0.2-0.2c0-0.1-0.1-0.1-0.2-0.1
		c-1.2-0.2-1.6-0.7-1.8-1.9c-0.1-0.6-0.1-1.1-0.1-1.7c0-3.3,0-6.7,0-10c0-0.1,0-0.1,0-0.2c0.1,0,0.1,0.1,0.1,0.2c2,4.6,4,9.2,6,13.8
		c0.1,0.2,0.2,0.2,0.4,0.2c0.2,0,0.2-0.1,0.3-0.2c1.9-4.6,3.7-9.2,5.6-13.7c0-0.1,0-0.1,0.1-0.2c0,0,0,0.1,0,0.1
		c0,2.4,0,10.2-0.2,11.7c-0.1,1.2-0.6,1.7-1.7,2c-0.1,0-0.1,0.1-0.1,0.2c0,0.1,0.1,0.1,0.2,0.1c2.2-0.1,4.3-0.1,6.5,0
		c0.2,0,0.4,0,0.7,0c0.1,0,0.1,0,0.2-0.2c0-0.1-0.1-0.1-0.2-0.2c-1-0.2-1.6-0.8-1.7-1.8c-0.1-0.7-0.1-1.4-0.1-2.1
		C22,19.4,22,17.2,22,15C22,13.9,22,12.9,22.1,11.8z" fill="#37374B" />
        <path class="st0" d="M63.5,25.6c-0.1,0-0.2,0-0.2-0.1c-0.6-0.2-1-0.6-1.1-1.3c0-0.3-0.1-0.6-0.1-0.9c-0.1-2.1-0.1-4.1,0-6.1
		c0-0.5,0-0.9-0.1-1.4c-0.2-0.9-0.6-1.7-1.4-2.1c-0.5-0.2-0.9-0.4-1.4-0.4c-0.8-0.1-1.6,0-2.3,0.3c-1,0.4-1.6,1.2-1.9,2.2
		c-0.1,0.2-0.1,0.4-0.2,0.6c0,0,0,0,0,0c0-0.1,0-0.1,0-0.2c0-0.8,0-1.6,0.1-2.4c0-0.2,0-0.3-0.2-0.3c-0.4,0-0.8,0-1.2,0
		c-1.1,0-2.1,0-3.2,0c-0.1,0-0.2,0-0.2,0.1c0,0.1,0,0.2,0.1,0.2c0,0,0,0,0.1,0c0.7,0.3,1.1,0.8,1.2,1.5c0.1,0.5,0.1,0.9,0.1,1.4
		c0.1,2.2,0.1,4.4,0,6.5c0,0.4,0,0.8-0.1,1.1c-0.1,0.6-0.5,1.1-1.1,1.3c-0.1,0-0.1,0-0.2,0.1c-0.1,0-0.1,0.1-0.1,0.2
		c0,0.1,0.1,0.1,0.2,0.1c0.5,0,1,0,1.5,0c1.5,0,3,0,4.5,0c0.1,0,0.2,0,0.2-0.1c0-0.1,0-0.2-0.1-0.2c-0.1,0-0.1,0-0.2-0.1
		c-0.6-0.2-0.9-0.6-1-1.2c0-0.2-0.1-0.4-0.1-0.6c-0.1-1.8-0.1-3.6-0.1-5.4c0-0.7,0.1-1.3,0.3-2c0.2-0.7,0.5-1.3,1-1.8
		c1-0.8,2.3-0.4,2.6,0.9c0.1,0.5,0.1,1,0.1,1.6c0,1.5,0,3,0,4.5c0,0.8,0,1.6-0.1,2.4c-0.1,0.8-0.5,1.3-1.3,1.5c0,0,0,0,0,0
		c-0.1,0-0.2,0.1-0.1,0.2c0,0.1,0.1,0.1,0.2,0.1c1.6,0,3.2-0.1,4.9,0c0.4,0,0.8,0,1.2,0c0.1,0,0.1,0,0.1-0.1
		C63.6,25.7,63.6,25.6,63.5,25.6z" fill="#37374B" />
        <path class="st0" d="M49.2,13.4c-1.2,0.1-2.3,0.1-3.5,0c-0.1,0-0.2,0-0.2,0.1c0,0.1,0,0.2,0.1,0.2c0.2,0.1,0.5,0.2,0.7,0.3
		c0.5,0.3,0.7,0.7,0.7,1.3c0,0.3-0.1,0.6-0.2,0.9c-0.6,1.5-1.2,3.1-1.9,4.6c-0.2,0.5-0.4,0.9-0.6,1.4c-0.7-1.6-2.5-6.1-2.7-6.9
		c-0.2-0.7,0.1-1.2,0.7-1.5c0.1,0,0.2-0.1,0.4-0.1c0.1,0,0.2-0.1,0.1-0.2c0-0.1-0.1-0.1-0.2-0.1c-1.9,0.1-3.9,0.1-5.8,0
		c-0.1,0-0.2,0-0.2,0.1c0,0.1,0,0.2,0.1,0.2c0.2,0.1,0.3,0.2,0.4,0.3c0.4,0.3,0.6,0.8,0.8,1.2c1,2.3,4.2,9.4,4.7,10.5
		c0,0.1,0,0.2,0.1,0.2c0.2,0,0.3,0,0.4-0.2c1.4-3.3,2.7-6.5,4.1-9.8c0.3-0.7,0.6-1.3,1.2-1.7c0.2-0.2,0.4-0.3,0.6-0.5
		c0.1,0,0.1-0.1,0.1-0.2C49.4,13.4,49.3,13.4,49.2,13.4z" fill="#37374B" />
        <path class="st0" d="M37.4,24.4c-0.1-0.1-0.2,0-0.2,0.1c-0.2,0.3-0.6,0.4-1,0.3c-0.4-0.1-0.5-0.4-0.5-0.7c-0.1-0.4-0.1-0.7-0.1-1.1
		c0-1.5,0-3,0-4.5c0-0.7,0-1.3,0-2c-0.2-1.5-0.9-2.5-2.4-3c-1-0.3-2-0.4-3-0.3c-1,0.1-2,0.3-2.9,0.9c-0.7,0.4-1.2,1-1.4,1.8
		c-0.3,1.5,0.6,2.5,2,2.3c0.9-0.2,1.4-0.9,1.3-1.9c-0.1-0.4-0.3-0.6-0.6-0.9c-0.5-0.5-0.5-1.1,0.2-1.5c0.1,0,0.2-0.1,0.2-0.1
		c0.5-0.2,1-0.3,1.6-0.2c0.7,0.1,1.2,0.5,1.5,1.2c0.1,0.2,0.1,0.5,0.1,0.7c0.1,1.1,0,2.3,0,3.4c0,0.1,0,0.1-0.1,0.1
		c-0.8,0-1.5,0.1-2.3,0.2c-0.9,0.2-1.9,0.4-2.7,0.9c-1,0.6-1.6,1.5-1.7,2.7c0,1.4,0.6,2.4,1.8,2.9c0.8,0.3,1.7,0.4,2.5,0.2
		c1.1-0.2,1.9-0.7,2.4-1.7c0,0,0,0,0.1-0.1c0,0.1,0,0.1,0,0.2c0.2,0.9,0.7,1.5,1.7,1.6c0.4,0.1,0.7,0.1,1.1,0
		c0.9-0.1,1.7-0.5,2.1-1.4C37.4,24.6,37.5,24.5,37.4,24.4z M32.2,23.8c-0.3,0.7-0.8,1.1-1.6,1.1c-0.6,0-1.1-0.2-1.3-0.8
		c-0.2-0.3-0.2-0.7-0.2-1c0-0.6,0-1.1,0.1-1.7c0.2-1,0.9-1.5,1.8-1.8c0.4-0.1,0.9-0.2,1.3-0.3c0.1,0,0.2,0,0.2,0.2c0,0.7,0,1.3,0,2
		c0,0.6,0,1.2,0,1.7C32.3,23.4,32.3,23.6,32.2,23.8z" fill="#37374B" />
</g>
    <path class="st1" d="M65.9,0c-3,0-5.5,2.4-5.5,5.5s2.4,5.5,5.5,5.5s5.5-2.4,5.5-5.5S68.9,0,65.9,0z M63.2,5c0-0.2,0.2-0.3,0.3-0.3
	h1.5c0.2,0,0.3,0.2,0.3,0.3c0,0.2-0.2,0.4-0.3,0.3h-1.5C63.3,5.3,63.2,5.2,63.2,5z M67.4,7.5c-0.1,0.1-0.4,0.1-0.5,0l-1.1-1.1
	l-1.1,1.1c-0.1,0.1-0.2,0.1-0.2,0.1c-0.1,0-0.2,0-0.2-0.1c-0.1-0.1-0.1-0.4,0-0.5l1.4-1.4c0.1-0.1,0.4-0.1,0.5,0L67.4,7
	C67.6,7.2,67.6,7.4,67.4,7.5z M68.2,5.3h-1.9c-0.2,0-0.3-0.2-0.3-0.3V3.1c0-0.2,0.2-0.3,0.3-0.3c0.2,0,0.3,0.2,0.3,0.3v1.5h1.6
	c0.2,0,0.3,0.2,0.3,0.4C68.5,5.2,68.4,5.3,68.2,5.3z" fill="#6B4D6A" />
</svg>
