<?xml version="1.0" encoding="UTF-8"?>
<svg width="1088px" height="1088px" viewBox="0 0 1088 1088" version="1.1" xmlns="http://www.w3.org/2000/svg" xmlns:xlink="http://www.w3.org/1999/xlink">
    <!-- Generator: Sketch 59.1 (86144) - https://sketch.com -->
    <title>Large 7</title>
    <desc>Created with Sketch.</desc>
    <g id="Large-7" stroke="none" stroke-width="1" fill="none" fill-rule="evenodd">
        <g id="Group-2" transform="translate(38.000000, 228.000000)">
            <path d="M775.742007,537.567177 C775.742007,537.567177 889.107444,544.662755 905.687166,551.789953 C938.825408,566.019053 945.440335,602.371769 851.750066,616.858047 C758.059797,631.344325 328.110722,633.793838 246.781039,630.971207 C165.430153,628.148575 7.07472953,623.253764 0.989844452,600.377587 C-8.27529415,565.584802 49.9657488,553.231835 72.9483809,548.273784 C114.885324,539.224076 158.98484,535.010155 201.600237,530.600188 C216.82305,529.023393 232.088267,527.695343 247.374686,526.607607 C278.371557,524.404732 309.495638,523.359157 340.556114,524.413164 C458.03468,528.403636 775.742007,537.567177 775.742007,537.567177" id="Fill-163" fill="#F0DCC0"></path>
            <path d="M910.421475,41.1413641 C908.673495,34.1370791 905.371757,27.9015571 899.84728,23.1452268 C881.91431,7.68246564 847.343168,19.6368342 835.538914,36.9621269 C825.28842,51.9873806 830.467617,71.3022902 824.83524,87.7025672 C819.353923,103.64867 817.692264,118.592672 824.31732,134.85128 C829.539678,147.65983 843.35087,158.324593 857.313123,155.559963 C864.261879,154.18494 870.174796,149.795283 875.246093,144.988951 C887.374047,133.467924 896.157102,118.890594 901.767899,103.377832 C907.572916,87.3629781 915.384872,61.1229516 910.421475,41.1413641" id="Fill-164" fill="#75A2A5"></path>
            <path d="M860.008803,472 C859.341752,472 858.733558,471.503784 858.576604,470.767941 C858.400032,469.923949 840.350407,385.902211 835.798763,353.08831 C830.73702,316.737276 830.73702,253.730515 835.779144,184.546495 C841.21365,110.050415 860.479663,78.0338534 861.303667,76.7063684 C861.754908,75.9768879 862.677008,75.7817943 863.34406,76.2652872 C864.011111,76.7509007 864.207303,77.7390924 863.756062,78.4706935 C863.55987,78.7887809 844.078047,111.242183 838.722017,184.796724 C833.699513,253.753841 833.679894,316.491289 838.702398,352.61754 C843.254043,385.306327 861.264429,469.205072 861.441001,470.049064 C861.617574,470.903659 861.127095,471.758254 860.342329,471.957588 L860.008803,472" id="Fill-165" fill="#2F6A6E"></path>
            <path d="M1010.53285,141.960551 C1013.31918,129.857308 1012.39738,117.058307 1005.50489,106.975074 C998.675247,96.988532 986.985244,91.1702309 975.106693,89.00098 C947.72527,83.9982501 917.913667,98.144625 904.401029,122.559208 C897.634235,134.784367 894.785059,148.84456 888.416312,161.284121 C883.660701,170.574905 876.956757,178.942917 873.793333,188.895827 C864.344961,218.680988 893.988965,249.067317 921.558937,254.627074 C937.732203,257.883052 954.848211,255.203018 969.743537,248.121423 C984.722663,240.99989 998.4029,227.904509 999.995086,211.351358 C1001.29398,198.134062 994.75763,184.630895 998.172452,171.79616 C1000.93783,161.303039 1008.10267,152.579792 1010.53285,141.960551" id="Fill-166" fill="#75A2A5"></path>
            <path d="M846.536717,232.430919 C845.345838,223.712331 843.214791,215.462054 839.370548,209.082909 C834.732387,201.35157 826.876761,196.569321 820.776116,190.175409 C813.463699,182.53056 808.386792,172.366961 799.194038,167.215548 C785.864546,159.747898 768.147604,166.099619 758.39075,177.917071 C749.156211,189.076356 745.437325,203.889306 743.640559,218.016666 C741.613975,233.700841 739.274002,249.735195 740.214169,265.600787 C741.070767,280.548745 745.123935,295.688668 754.233118,307.512448 C762.151421,317.815274 773.579685,325.101507 785.885439,329.042064 C798.295656,333.012154 812.43996,333.53953 823.847331,327.170932 C833.457937,321.785364 840.143575,311.990929 843.695321,301.472933 C847.247067,290.952828 847.957416,279.679629 847.978308,268.562533 C848,258.278693 848.22902,244.877003 846.536717,232.430919" id="Fill-167" fill="#75A2A5"></path>
            <path d="M981.025967,311.335056 C973.289626,303.06622 962.600976,297.032205 952.882063,296.127428 C929.048099,293.909965 899.912909,321.081477 893.361801,342.678956 C892.00417,347.120391 891.508527,351.904643 892.586012,356.417678 C894.439286,364.178798 900.882645,370.269226 908.231092,373.233076 C915.601088,376.199095 923.789973,376.407389 931.677162,375.580722 C950.145252,373.647494 968.00995,366.138063 982.383598,354.267477 C997.748532,341.572395 992.749002,323.884767 981.025967,311.335056" id="Fill-168" fill="#75A2A5"></path>
            <path d="M850.461535,440 C849.708189,440 849.056647,439.414287 848.954843,438.610782 C848.914122,438.232289 844.068277,400.182103 820.40915,357.302429 C796.118841,313.268245 787.363742,227.140977 788.035645,225.081467 C788.300334,224.250474 789.175844,223.806432 789.969911,224.081315 C790.682536,224.32871 791.11011,225.077238 790.987946,225.827881 C790.886143,229.991305 799.580159,313.143491 823.05604,355.725022 C847.040938,399.188294 851.947866,437.830537 851.988587,438.215373 C852.09039,439.082313 851.49993,439.875245 850.665142,439.987313 L850.461535,440" id="Fill-169" fill="#2F6A6E"></path>
            <path d="M862.149154,444 C861.383689,444 860.721665,443.427871 860.618224,442.640672 C860.576847,442.304494 856.356443,408.770227 870.548586,376.580672 C884.864858,344.155165 943.474684,324.88027 945.977963,324.076366 C946.784804,323.809094 947.653711,324.26638 947.922658,325.089076 C948.191606,325.91386 947.736464,326.795022 946.908934,327.060206 C946.308975,327.252308 887.140566,346.710953 873.382877,377.854389 C859.563123,409.20872 863.638709,441.89941 863.680085,442.227236 C863.804215,443.083341 863.204255,443.872628 862.356037,443.985384 L862.149154,444" id="Fill-170" fill="#2F6A6E"></path>
            <path d="M862.157314,456 C861.424194,456 860.77486,455.481857 860.628236,454.728001 C859.978901,451.50447 844.750956,375.2737 856.334249,333.429382 C863.183682,308.707151 875.374417,291.111515 888.298271,272.481715 C897.493688,259.201108 907.003299,245.466063 915.277079,228.191081 C935.008475,187.019925 956.750713,129.599455 956.960176,129.023976 C957.27437,128.202167 958.17506,127.7902 958.991965,128.106607 C959.80887,128.420891 960.206849,129.342506 959.892655,130.164316 C959.683192,130.741918 937.878115,188.2898 918.104827,229.581998 C909.726315,247.088446 900.132919,260.927544 890.853717,274.312205 C878.118379,292.712662 866.074269,310.091698 859.371459,334.289414 C847.976683,375.396865 863.539769,453.30523 863.707339,454.088816 C863.874909,454.948849 863.330306,455.791893 862.492455,455.968147 L862.157314,456" id="Fill-171" fill="#2F6A6E"></path>
            <path d="M786.103333,428.666954 C779.840379,441.285987 788.049926,536.577972 804.278594,549.86229 C820.507261,563.146607 893.568001,562.733745 906.22086,552.358714 C918.87372,541.983684 932.73262,442.0347 926.42735,429.939767 C920.143237,417.844834 792.387445,416.047922 786.103333,428.666954" id="Fill-172" fill="#FFFFFF"></path>
            <path d="M903.789686,442.09991 C903.493577,441.736763 903.213053,441.357109 902.885775,441.01322 C902.574082,440.677584 902.20005,440.412101 901.810433,440.146619 C901.46757,439.911398 900.953276,439.995307 900.594829,440.146619 L900.579244,440.152121 C900.32989,440.258039 900.189628,440.423106 900.127289,440.608806 C900.002612,440.838524 899.955858,441.109509 900.049366,441.343354 C900.345474,442.115041 900.79743,442.71616 901.327308,443.3723 C901.763679,443.908768 902.589666,444.214141 903.275392,443.823483 C903.883194,443.483721 904.257226,442.670766 903.789686,442.09991" id="Fill-173" fill="#FFFFFF"></path>
            <path d="M915.782696,474.100318 C915.487134,473.737241 915.207127,473.356285 914.880453,473.012462 C914.569334,472.67689 914.195992,472.412834 913.807094,472.146027 C913.464864,471.912227 912.951518,471.994745 912.593732,472.146027 L912.593732,472.152904 C912.344837,472.258801 912.189278,472.423836 912.127054,472.609501 C912.002607,472.839175 911.955939,473.108732 912.049274,473.343907 C912.344837,474.115446 912.811515,474.715074 913.32486,475.371088 C913.760426,475.908828 914.600446,476.214143 915.284907,475.82356 C915.876032,475.483862 916.26493,474.669689 915.782696,474.100318" id="Fill-174" fill="#FFFFFF"></path>
            <path d="M895.78923,542.100149 C895.493157,541.73704 895.212666,541.35605 894.885428,541.012196 C894.573772,540.676595 894.199785,540.412516 893.810215,540.147061 C893.467394,539.911865 892.953162,539.99439 892.594757,540.147061 L892.579175,540.152562 C892.345433,540.258469 892.189605,540.423519 892.127274,540.6092 C892.002611,540.838894 891.955863,541.108476 892.04936,541.343671 C892.345433,542.113904 892.797334,542.71496 893.327149,543.371032 C893.763467,543.90882 894.589355,544.214162 895.29058,543.823544 C895.882727,543.483816 896.256714,542.670946 895.78923,542.100149" id="Fill-175" fill="#FFFFFF"></path>
            <path d="M871.782696,434.100417 C871.487134,433.737358 871.207127,433.356422 870.880453,433.012617 C870.569334,432.677063 870.195992,432.413021 869.807094,432.147603 C869.464864,431.911065 868.951518,431.994954 868.593732,432.147603 L868.578176,432.153104 C868.344837,432.258996 868.189278,432.422647 868.127054,432.609677 C868.002607,432.839339 867.955939,433.108883 868.049274,433.344045 C868.344837,434.114169 868.811515,434.715141 869.32486,435.371121 C869.760426,435.908832 870.58489,436.214131 871.284907,435.823569 C871.876032,435.482514 872.26493,434.671134 871.782696,434.100417" id="Fill-176" fill="#FFFFFF"></path>
            <path d="M835.793449,458.09953 C835.49826,457.737824 835.203071,457.356864 834.892346,457.013037 C834.566085,456.677461 834.208751,456.413402 833.804809,456.146592 C833.463011,455.911415 832.950315,455.995308 832.608517,456.146592 L832.592981,456.153469 C832.344401,456.257992 832.189038,456.423029 832.126893,456.610071 C832.002603,456.838372 831.955995,457.109308 832.049212,457.344486 C832.344401,458.114659 832.810488,458.715668 833.323185,459.371691 C833.7582,459.909436 834.597157,460.213379 835.280752,459.824167 C835.87113,459.483091 836.259536,458.670283 835.793449,458.09953" id="Fill-177" fill="#FFFFFF"></path>
            <path d="M807.789949,434.100417 C807.49421,433.737358 807.214036,433.356422 806.887167,433.012617 C806.560298,432.677063 806.202299,432.413021 805.813169,432.147603 C805.455169,431.911065 804.957083,431.994954 804.599084,432.147603 L804.583518,432.153104 C804.334475,432.258996 804.194389,432.422647 804.116563,432.609677 C803.992041,432.839339 803.960911,433.108883 804.054302,433.344045 C804.334475,434.114169 804.801431,434.715141 805.330648,435.371121 C805.750908,435.908832 806.591429,436.214131 807.276297,435.823569 C807.88334,435.482514 808.256905,434.671134 807.789949,434.100417" id="Fill-178" fill="#FFFFFF"></path>
            <path d="M863.793449,482.099893 C863.49826,481.736828 863.203071,481.35726 862.87681,481.013448 C862.566085,480.676513 862.208751,480.412465 861.804809,480.147043 C861.463011,479.911876 860.950315,479.99439 860.608517,480.147043 L860.592981,480.152544 C860.344401,480.258438 860.189038,480.423467 860.126893,480.609126 C860.002603,480.838792 859.955995,481.10834 860.049212,481.344883 C860.344401,482.115021 860.810488,482.716004 861.323185,483.371996 C861.7582,483.908343 862.597157,484.213648 863.280752,483.824453 C863.87113,483.483391 864.259536,482.670621 863.793449,482.099893" id="Fill-179" fill="#FFFFFF"></path>
            <path d="M891.793094,506.100149 C891.497398,505.73704 891.217265,505.357426 890.890443,505.012196 C890.563621,504.676595 890.205673,504.412516 889.8166,504.147061 C889.458652,503.911865 888.960638,503.99439 888.60269,504.147061 L888.587127,504.152562 C888.33812,504.258469 888.198053,504.423519 888.120239,504.6092 C887.995735,504.838894 887.964609,505.108476 888.042424,505.343671 C888.33812,506.113904 888.805008,506.71496 889.334148,507.371032 C889.754348,507.90882 890.594747,508.214162 891.279517,507.823544 C891.870909,507.483816 892.259982,506.670946 891.793094,506.100149" id="Fill-180" fill="#FFFFFF"></path>
            <path d="M823.793449,498.099807 C823.482724,497.736757 823.203071,497.357204 822.87681,497.013407 C822.566085,496.67786 822.208751,496.412449 821.804809,496.147037 C821.463011,495.911879 820.950315,495.994391 820.608517,496.147037 L820.592981,496.152538 C820.344401,496.258427 820.189038,496.42345 820.126893,496.609101 C820.002603,496.838758 819.955995,497.10967 820.049212,497.344828 C820.344401,498.114934 820.810488,498.715892 821.323185,499.371858 C821.7582,499.908183 822.597157,500.21485 823.280752,499.822921 C823.87113,499.483249 824.259536,498.670511 823.793449,498.099807" id="Fill-181" fill="#FFFFFF"></path>
            <path d="M851.793449,526.099676 C851.49826,525.737945 851.203071,525.356958 850.87681,525.013107 C850.566085,524.677508 850.208751,524.412055 849.804809,524.146602 C849.463011,523.911408 848.950315,523.995308 848.608517,524.146602 L848.592981,524.153479 C848.344401,524.25801 848.189038,524.423059 848.126893,524.610114 C848.002603,524.838431 847.955995,525.109385 848.049212,525.344579 C848.344401,526.114806 848.810488,526.715857 849.323185,527.371925 C849.7582,527.908332 850.597157,528.213672 851.280752,527.824433 C851.87113,527.483332 852.259536,526.670469 851.793449,526.099676" id="Fill-182" fill="#FFFFFF"></path>
            <path d="M819.782696,538.100417 C819.487134,537.737358 819.207127,537.356422 818.880453,537.012617 C818.569334,536.677063 818.195992,536.413021 817.807094,536.147603 C817.464864,535.911065 816.951518,535.994954 816.593732,536.147603 L816.593732,536.153104 C816.344837,536.258996 816.189278,536.424022 816.127054,536.609677 C816.002607,536.839339 815.955939,537.108883 816.049274,537.344045 C816.344837,538.114169 816.811515,538.715141 817.32486,539.371121 C817.760426,539.908832 818.600446,540.214131 819.284907,539.823569 C819.876032,539.483889 820.26493,538.671134 819.782696,538.100417" id="Fill-183" fill="#FFFFFF"></path>
            <path d="M921.620856,216 C920.909415,216 920.284209,215.586023 920.068621,214.942494 C919.809916,214.163588 920.305768,213.345443 921.168121,213.115891 L969.934154,200.060886 C970.796507,199.829372 971.680418,200.278665 971.939124,201.059533 C972.176271,201.838438 971.701977,202.656584 970.839625,202.886135 L922.073591,215.941141 L921.620856,216" id="Fill-184" fill="#2F6A6E"></path>
            <path d="M945.945549,168 C945.067204,168 944.271204,167.605979 943.996721,166.983108 L936.119062,149.968579 C935.734786,149.186508 936.3112,148.340757 937.409131,148.078076 C938.479615,147.815396 939.659891,148.237277 940.016719,149.017358 L947.894378,166.031887 C948.251206,166.813958 947.674792,167.659709 946.604308,167.92239 L945.945549,168" id="Fill-185" fill="#2F6A6E"></path>
            <path d="M853.519129,104 C852.950389,104 852.401961,103.694823 852.137903,103.172208 C851.792596,102.456951 852.117591,101.606271 852.86914,101.272484 L873.831283,92.1343504 C874.582833,91.8005634 875.49688,92.1095548 875.862498,92.8305346 C876.207805,93.5457924 875.882811,94.3964723 875.110949,94.7302593 L854.169118,103.868393 C853.945684,103.958038 853.742563,104 853.519129,104" id="Fill-186" fill="#2F6A6E"></path>
            <path d="M801.42586,312 C801.142589,312 800.859319,311.911448 800.613818,311.728165 C799.971739,311.246276 799.801777,310.284558 800.25501,309.580259 L813.417631,288.66958 C813.870863,287.967341 814.739558,287.788177 815.381637,288.272125 C816.023716,288.754014 816.193678,289.715732 815.759331,290.417972 L802.577825,311.328651 C802.31344,311.765234 801.860207,312 801.42586,312" id="Fill-187" fill="#2F6A6E"></path>
            <path d="M794.468473,264 C794.223935,264 793.979398,263.936783 793.73486,263.80163 L764.797914,247.07316 C764.064302,246.643722 763.779008,245.651872 764.18657,244.858393 C764.594133,244.064913 765.511149,243.766268 766.244762,244.197886 L795.202086,260.926356 C795.935698,261.355794 796.220992,262.347644 795.81343,263.141124 C795.528136,263.688276 795.018682,264 794.468473,264" id="Fill-188" fill="#2F6A6E"></path>
            <path d="M938.412451,348 L938.053587,347.962816 L913.207576,342.751447 C912.363192,342.572962 911.835452,341.821841 912.046548,341.072579 C912.236534,340.323317 913.102028,339.858514 913.946413,340.038857 L938.792424,345.250227 C939.636808,345.428711 940.164548,346.179832 939.953452,346.929094 C939.784575,347.570522 939.130177,348 938.412451,348" id="Fill-189" fill="#2F6A6E"></path>
            <path d="M792,396 C792,396 786.866955,301.435519 771.402847,290.877704 C755.938738,280.319888 652,276 652,276 C652,276 655.378713,323.03281 657.804455,326.391528 C660.230198,329.752397 709.048267,357.260774 726.439975,364.143781 C743.853342,371.024638 776.081064,372.944828 776.644183,374.385507 C777.207302,375.824036 792,396 792,396" id="Fill-190" fill="#333333"></path>
            <path d="M782.731198,556.279175 C768.537706,566.648762 149.320121,576.040205 140.804026,570.207181 C132.309114,564.353076 121.907615,464.059626 103.92213,394.442784 C85.9578289,324.825942 39.1193041,213.543134 62.3161312,198.769793 C70.4720932,193.573405 83.3521579,189.207595 99.7911879,185.518476 C220.690085,158.39818 533.052839,169.107166 554.999791,175.996332 C603.236481,191.165991 670.200107,322.9076 681.533716,330.943556 L681.872665,331.150147 C694.307859,339.093348 772.414436,345.641007 782.731198,362.807006 C793.132698,380.103705 796.903506,545.92856 782.731198,556.279175" id="Fill-191" fill="#323332"></path>
            <path d="M769.383054,547.760393 C765.601706,552.665519 268.322788,561.581058 258.774356,559.757951 C249.225925,557.934844 212.194067,346.393422 212.194067,346.393422 C212.194067,346.393422 161.325433,307.282943 149.368769,284.372008 C137.412106,261.48002 112.210162,216.521283 112.210162,216.521283 C112.210162,216.521283 106.569828,204.437412 100,189.494675 C220.559507,162.411225 604.461367,173.105662 626.367834,179.985468 C674.447987,195.134516 673.201621,332.844329 684.52454,340.869367 C695.63621,347.271292 712.28259,346.88604 724.556127,350.165948 C740.08289,354.311094 763.045599,361.830883 767.883189,379.061978 C770.270297,387.478583 769.9323,397.415146 770.397046,406.069639 C771.896911,433.993065 772.108159,462.00912 771.960285,489.964123 C771.875786,503.193225 771.727912,516.434958 771.157541,529.653534 C770.967417,533.897625 772.192658,544.091023 769.383054,547.760393" id="Fill-192" fill="#E0B69E"></path>
            <path d="M221.062215,360 C220.488995,360 220.021926,359.537697 220,358.957129 C219.979466,358.361511 220.446534,357.866953 221.040985,357.849751 L678.916555,344 C679.426084,344.019352 679.978074,344.449402 680,345.042871 C680.020534,345.636339 679.553466,346.130896 678.959015,346.150249 L221.104676,360 L221.062215,360" id="Fill-193" fill="#382732"></path>
            <path d="M220,412 C220,412 215.013614,317.435519 199.970297,306.877704 C184.94802,296.319888 84,292 84,292 C84,292 87.2821782,339.03281 89.6175743,342.391528 C91.9740099,345.752397 139.397277,373.262924 156.313119,380.143781 C173.207921,387.026789 204.535891,388.944828 205.061881,390.385507 C205.608911,391.826187 220,412 220,412" id="Fill-194" fill="#333333"></path>
            <path d="M226.94892,544 C226.467893,544 226.049609,543.677498 225.924124,543.19269 C225.798639,542.59195 211.514228,482.642329 202.521114,442.597221 C193.507086,402.537359 180.163815,329.974309 180.017416,329.24499 C179.912845,328.67376 180.289301,328.123609 180.874899,328.018216 C181.418669,327.910715 181.983352,328.290129 182.087923,328.863467 C182.213409,329.590679 195.55668,402.111571 204.549793,442.131385 C213.542907,482.163845 227.827318,542.100819 227.973717,542.701559 C228.099202,543.266465 227.764575,543.835587 227.199891,543.972598 L226.94892,544" id="Fill-195" fill="#2B2A2A"></path>
            <path d="M145.069519,560 C144.491979,560 144,559.281804 144,558.396135 C144,557.507246 144.470588,556.782609 145.069519,556.779388 L246.909091,556 L246.930481,556 C247.508021,556 247.97861,556.714976 248,557.600644 C248,558.489533 247.508021,559.214171 246.930481,559.220612 L145.069519,560" id="Fill-196" fill="#382732"></path>
            <path d="M265.056413,544 C264.486324,544 264.021807,543.616405 264,543.132897 C263.979578,542.640468 264.444095,542.230111 265.035298,542.215838 C267.674599,542.155176 530.506764,536.028363 590.323885,534.565349 C650.119891,533.10412 757.803378,528.053157 758.880213,528.0032 C759.471416,527.96038 759.957048,528.352896 760,528.843541 C760.020391,529.335969 759.576988,529.755248 758.985785,529.783794 C757.90895,529.833751 650.225464,534.886499 590.387228,536.349512 C530.548993,537.810741 267.737943,543.939338 265.077527,544 L265.056413,544" id="Fill-197" fill="#382732"></path>
            <path d="M280.829299,105.223964 C282.867183,104.157994 311.733712,103.559084 314.65398,104.390406 C317.574248,105.223964 317.175074,132.241949 298.539986,131.998363 C279.106551,131.741368 278.791414,106.287699 280.829299,105.223964" id="Fill-198" fill="#382732"></path>
            <path d="M304.32967,132 L291.692308,132 C289.648352,132 288,130.776375 288,129.267617 L288,128.34053 C288,128.153157 288.21978,128 288.461538,128 L307.56044,128 C307.802198,128 308,128.153157 308,128.34053 L308,129.267617 C308,130.776375 306.351648,132 304.32967,132" id="Fill-199" fill="#382732"></path>
            <path d="M308.542056,128 L308,124.025438 C308.130841,124.005365 320.261682,121.949834 320.261682,115.819374 C320.261682,113.551063 319.476636,112.912725 319.214953,112.701953 C317.813084,111.591886 315.158879,112.099746 314.336449,112.366724 L313.252336,108.520633 C313.775701,108.35603 318.317757,106.991029 321.439252,109.482156 C322.616822,110.417583 324,112.278401 324,115.819374 C324,125.512888 309.158879,127.90164 308.542056,128" id="Fill-200" fill="#382732"></path>
            <path d="M298.001833,100 C297.763889,100 297.525946,99.8951232 297.342913,99.6853696 C296.317926,98.4961064 294.963478,95.2567987 297.251396,91.5128952 C299.283067,88.1548591 297.342913,85.7525869 297.269699,85.6516678 C296.940239,85.2460122 296.958542,84.6226879 297.324609,84.2566086 C297.708979,83.8944868 298.276383,83.9162537 298.624146,84.3179516 C299.667437,85.5448122 301.040187,88.8553569 298.770573,92.5972816 C296.720599,95.9929151 298.660753,98.3120773 298.679056,98.335823 C299.02682,98.7355421 299.008517,99.3608452 298.624146,99.7348398 C298.459416,99.9109537 298.239776,100 298.001833,100" id="Fill-201" fill="#FAEDDC"></path>
            <path d="M306.750786,104 C306.400491,104 306.075217,103.859144 305.825006,103.577433 C304.423826,101.980182 302.597288,97.6296018 305.699901,92.6013192 C306.075217,91.9847433 306.85087,91.8173111 307.426355,92.2159593 C308.001839,92.6199228 308.176987,93.4437957 307.801671,94.057714 C304.97429,98.6182493 307.626523,101.733021 307.651544,101.764912 C308.126945,102.301759 308.101924,103.141578 307.601502,103.643874 C307.351292,103.880406 307.051039,104 306.750786,104" id="Fill-202" fill="#FAEDDC"></path>
            <path d="M290.75523,104 C290.404369,104 290.07857,103.859144 289.827955,103.577433 C288.424511,101.980182 286.595021,97.6296018 289.702647,92.6013192 C290.07857,91.9847433 290.855476,91.8173111 291.431891,92.2159593 C292.008305,92.6199228 292.183736,93.4437957 291.782752,94.057714 C288.975864,98.6182493 291.632383,101.733021 291.657444,101.764912 C292.133613,102.301759 292.108551,103.141578 291.607321,103.643874 C291.356706,103.880406 291.055968,104 290.75523,104" id="Fill-203" fill="#FAEDDC"></path>
            <path d="M211.984745,116.929958 C211.551189,101.079694 209.218245,82.8961847 204.1188,67.9754756 C204.056864,67.4618289 204.015572,66.9481822 203.93299,66.4345355 C204.634938,66.359672 204.738166,65.5840031 204.738166,65.5840031 C204.738166,65.5840031 197.512232,57.5153827 179.819016,60.7761035 C178.683512,60.9840577 177.568654,61.2939093 176.453796,61.6141587 C167.163309,64.3238011 157.955405,68.9882123 151.2869,76.1813458 C144.453231,83.5346039 141.026074,93.4810502 142.017059,103.539792 C143.069981,114.135055 146.331974,124.514046 146.682948,135.190411 C147.219731,152.117877 135.678882,168.735492 141.789958,185.733663 C142.017059,186.390798 142.553842,186.7464 143.111272,186.83374 C144.969369,189.541303 147.632642,191.269402 151.10109,191.762253 C156.097307,192.475536 163.426469,191.425368 168.402041,190.695449 C170.549175,190.381438 172.758247,189.822041 174.926027,189.05677 C179.901598,190.077825 185.785573,189.774212 190.513399,188.663737 C191.607612,188.403794 191.93794,187.189342 192.970216,186.804627 C199.205165,184.506734 197.801269,186.819184 201.269718,185.717027 C204.30461,184.745881 206.080125,182.556124 207.380793,179.623971 C209.734383,174.256674 209.961484,167.123848 211.138279,161.328166 C212.583466,154.103839 210.684077,147.023001 210.456977,139.788277 C210.229876,132.108531 212.191201,124.632579 211.984745,116.929958" id="Fill-204" fill="#331F17"></path>
            <path d="M242.893039,159.004098 L260,208 L206.235267,167.870432 C206.235267,167.870432 194.470177,142.193527 190.18803,136.360017 C178.898733,127.360418 162.202686,118.494084 160.364391,105.139772 C157.033832,80.9416641 176.952303,55.305598 203.012843,60.7350189 C207.641022,61.6936577 212.117812,63.5550507 215.81603,66.549185 C216.226943,66.8952407 216.637856,67.2412964 217.070396,67.5852027 C218.346389,68.7179441 219.64401,69.9259151 220.876749,71.232759 C232.533704,83.2630317 242.222602,98.9924466 239.302957,114.917458 C237.767439,123.227094 227.494612,129.449649 227.494612,129.449649 L242.893039,159.004098" id="Fill-205" fill="#FF9A75"></path>
            <path d="M508,444.412822 C508,444.412822 472.51957,350.17379 469.887428,345.818268 C469.545035,345.249876 468.624855,345.555602 468.560656,346.167054 C468.38946,347.538516 468.41086,348.942273 468.496458,350.354643 C463.981156,347.1682 456.769512,344.849417 454.073171,344.358533 C446.968525,343.068885 439.970877,345.323078 434.77079,350.079058 C434.471197,349.758261 434.171603,349.431005 433.786411,349.170492 C433.615215,349.868064 433.551017,350.593626 433.551017,351.332105 C433.165825,351.739023 432.759234,352.122257 432.395442,352.557163 C431.261266,353.948002 432.780633,355.995507 434.257201,355.681168 C435.262979,358.98172 437.08194,362.275812 438.323113,364.872332 C441.511644,371.494965 445.277962,377.835555 448.894483,384.234275 C454.864954,394.837808 460.942422,405.393975 466.784495,416.068557 C471.727788,425.06595 489.575,452 489.575,452 L508,444.412822" id="Fill-206" fill="#FF9A75"></path>
            <path d="M476,545.662937 C476,545.662937 466.142869,448.343789 464.657548,443.586121 C464.477509,442.96374 463.46479,443.011776 463.217236,443.567325 C462.67712,444.809999 462.294537,446.125772 462.001974,447.466607 C458.311176,443.322967 451.627231,439.28793 449.039171,438.130886 C442.197692,435.089989 434.478523,435.38656 427.884598,438.492201 C427.659549,438.114177 427.457005,437.729888 427.141937,437.389458 C426.759354,437.993043 426.489296,438.655106 426.286752,439.346409 C425.791645,439.626272 425.274033,439.881072 424.778926,440.194352 C423.226091,441.198934 424.216305,443.508846 425.81415,443.600741 C425.90417,446.944475 426.826869,450.497061 427.389491,453.247653 C428.784792,460.267196 430.85524,467.17187 432.723144,474.089076 C435.85132,485.555095 439.092021,496.996053 442.062663,508.495489 C444.583208,518.18626 455.228009,548 455.228009,548 L476,545.662937" id="Fill-207" fill="#FF9A75"></path>
            <path d="M311.987177,259.227188 C311.127203,248.84923 306.289851,238.749158 304.225914,228.493043 C301.946984,217.213026 302.204976,205.648711 300.012044,194.413583 C297.217129,180.230731 286.058971,169.594126 276.018778,159.312359 C275.696288,158.68391 275.395297,158.117451 275.158805,157.640771 C271.310423,150.486286 256.905864,142.374165 248.757613,144.283025 C240.609363,146.191885 230.074686,144 230.074686,144 C230.074686,144 248.521121,194.881713 245.640209,197.983344 C242.759297,201.082837 191.805858,147.795071 191.805858,147.795071 C190.4299,146.598025 181.59367,148.917301 180.024218,149.15671 C175.380361,149.853562 170.758002,150.702182 166.157143,151.676919 C159.126858,153.171088 152.22557,155.289431 145.474777,157.726274 C139.47646,159.893782 133.048157,161.864632 127.759319,165.534859 C124.964405,167.475783 122.255488,169.889112 118.686597,170.596651 C114.128737,171.498711 109.355883,170.169135 104.86252,171.688956 C101.530122,172.819736 98.4127179,175.023582 95.3383121,176.573329 C89.8129813,179.343634 85.5561117,186.051365 89.5979879,192.177673 C90.3934635,193.404645 90.801951,193.391819 91.8984175,194.334493 C96.9937614,198.716534 99.1436955,204.797953 104.56153,208.637049 C107.979925,211.058929 110.452349,214.329429 113.612752,216.975754 C114.601722,217.798723 115.65519,218.489162 116.923651,218.841863 C124.018434,220.831951 132.338679,215.545712 139.79895,216.088658 C144.657802,216.441359 149.323159,217.460985 154.203509,216.548238 C159.384851,215.575639 164.501694,213.200786 169.876529,213.944664 C173.595915,221.007233 177.014311,228.044151 179.594232,234.215348 C188.301465,255.208535 207.242385,284.548977 215.175642,289.320058 C223.0874,294.09114 230.053186,296 230.053186,296 L311.148702,269.045099 C311.148702,269.045099 310.783214,266.279069 310.116734,262.127886 C311.256199,261.77091 312.116173,260.826099 311.987177,259.227188" id="Fill-215" fill="#FFFFFF"></path>
            <path d="M195.060498,60.2102078 C194.97817,60.1829528 189.523974,59.6902667 187.136476,60.3150346 C182.3409,61.1976764 177.339505,62.9357051 174.355133,66.1832401 L174.293387,66.2146881 L174.396297,65.8498908 C174.602116,64.9630559 173.387785,64.365543 172.914402,65.2125437 C172.379273,66.1874331 171.967636,67.1769983 171.57658,68.1728532 C165.772492,72.6573446 161.100407,78.7226245 158.754073,85.7963385 C156.284248,93.2117878 154.226061,103.522554 158.363017,110.617233 C160.380041,114.089098 162.726375,117.514838 165.340273,120.567395 C166.534021,121.978364 167.830679,123.299182 169.27141,124.458567 C171.453089,126.202885 174.437461,127.24696 176.08401,129.611853 C176.41332,130.089864 176.907285,130.234525 177.339505,130.171629 C177.915797,131.029112 178.471508,131.886596 179.006636,132.739886 C179.459438,133.458998 186.148546,135.997903 186.148546,136 C186.025055,135.955973 185.778073,133.702196 185.736909,133.507218 C185.263526,131.450516 184.501997,129.45671 183.472903,127.615951 C182.073336,125.064466 180.138639,122.823268 177.83347,121.070564 C175.034335,118.944676 171.411925,118.210888 169.230247,115.28622 C168.756863,114.636294 168.345226,113.927664 168.036498,113.175008 C167.027986,110.778667 167.027986,108.019625 167.95417,105.602318 C168.777445,103.468044 170.423995,101.767753 170.547486,99.3860876 C170.670978,96.901692 169.189083,94.6542049 168.839191,92.2327053 C167.974752,86.3393414 169.291992,79.1503179 171.700071,73.7706054 C174.54037,67.4013277 183.349412,63.1327796 189.915029,62.1369247 C191.561579,61.8853404 193.249293,61.7113278 195.019334,61.6673006 C196.480647,61.6295629 196.151337,60.570812 195.060498,60.2102078" id="Fill-216" fill="#331F17"></path>
            <path d="M339.70453,209.818284 C338.328008,202.576135 332.542316,198.524465 326.520035,195.188674 C315.443338,189.055607 305.033394,181.621133 298.645474,170.560242 C283.267147,144 257.715467,144 257.715467,144 C257.715467,144 247.305523,146.542979 248.0368,146.617773 C254.231147,147.265271 259.930806,147.637101 265.307843,149.04963 C265.200302,156.507611 268.318984,164.153644 269.695506,171.415025 C271.760288,182.292137 271.308617,193.987704 274.40579,204.56778 C274.64238,205.388371 275.373657,205.589245 275.975885,205.367002 C280.44958,213.335715 283.417704,221.285196 291.074605,227.161829 C298.882063,233.145309 308.130567,241.498675 318.024316,243.584345 C324.003581,244.84515 331.122778,243.274487 335.144802,238.368033 C337.919353,234.972408 337.833321,231.369498 338.155943,227.255855 C338.607614,221.627109 340.779937,215.479083 339.70453,209.818284" id="Fill-217" fill="#FFFFFF"></path>
            <path d="M319.16817,191.055021 C318.883866,194.842016 318.555823,198.62486 318.20591,202.403555 C317.396737,210.697592 315.297261,219.087083 316.237651,227.445448 C316.587564,230.580872 317.26552,233.340709 319.627431,235.704209 C322.885993,238.968287 327.915988,240.557788 332.59607,239.823214 C340.425367,238.594775 345.739666,232.27205 347.139317,225.167025 C349.107576,215.094657 347.117448,203.714996 346.876883,193.520199 C346.417622,174.545798 341.212671,128 341.212671,128 L322.251776,133.727181 C322.251776,133.727181 320.436604,169.905951 320.196039,174.5956 C319.911735,180.084149 319.583691,185.572697 319.16817,191.055021" id="Fill-218" fill="#FF9A75"></path>
            <path d="M344,126.97553 C344,126.97553 343.700103,117.473516 342.80041,114.190258 C340.058491,104.172743 332.218314,94.6482268 322.257435,103.516091 C319.94394,105.5781 316.837859,108.529963 316.966387,111.821403 C317.009229,112.586474 317.394812,113.453827 318.165977,113.805677 L318.423031,113.89364 C318.144555,114.198441 317.8875,114.507333 317.609024,114.816225 C316.366592,116.211354 315.359793,118.099483 316.495119,119.572346 C315.424057,121.76323 316.366592,123.221774 317.416233,125.318559 C318.615823,127.701733 319.237039,129.111181 321.82901,130.471534 C324.442402,131.844161 327.955486,135.659286 330.93304,135.955904 C338.730373,136.733249 344,126.97553 344,126.97553" id="Fill-219" fill="#FF9A75"></path>
            <path d="M306.958058,236 C306.538401,236 306.16071,235.764237 305.992847,235.373366 C305.950882,235.307186 303.118198,228.736832 299.131457,217.062407 C296.634499,209.745469 289.940972,192.003238 281.505868,185.279844 C273.952045,179.269946 260.690887,154.564421 260.124351,153.515895 C259.851574,153.011278 260.040419,152.384644 260.56499,152.117859 C261.068579,151.85521 261.719047,152.045476 261.970841,152.550092 C262.117721,152.804468 275.609689,177.927749 282.827788,183.670863 C291.682548,190.735493 298.564921,208.916161 301.124827,216.402683 C305.069602,227.990248 307.881303,234.494423 307.923269,234.558534 C308.133097,235.083832 307.902286,235.691853 307.356732,235.915208 L306.958058,236" id="Fill-223" fill="#F0DCC0"></path>
            <path d="M316.238539,240 C315.862046,240 315.485554,239.818377 315.286234,239.495945 C314.976182,239.028623 308,227.955743 308,217.99913 C308,199.685819 318.098854,196.196209 318.519639,196.05744 C319.117598,195.871736 319.737703,196.151313 319.937022,196.679856 C320.136342,197.21044 319.848436,197.790001 319.272624,197.979787 C319.117598,198.030805 310.214661,201.302059 310.214661,217.99913 C310.214661,227.392508 317.124403,238.353149 317.190843,238.463347 C317.500895,238.946995 317.323723,239.573492 316.792204,239.859191 L316.238539,240" id="Fill-224" fill="#F0DCC0"></path>
            <path d="M250.921876,208 L250.467686,207.904812 C250.337917,207.846401 247.093703,206.375313 240.821555,202.271411 C236.625704,199.519611 224.600483,187.361503 215.797847,178.480891 C212.423864,175.054122 209.201278,171.798259 208.249642,170.967527 C206.930328,171.209823 202.215403,172.786916 198.690023,173.95946 C190.882281,176.561987 189.368314,176.98168 188.697843,176.836734 C187.984116,176.678809 187.010851,176.462472 180.046604,153.394517 C179.87358,152.823389 180.198001,152.21981 180.760332,152.046741 C181.34429,151.873672 181.949877,152.196013 182.122902,152.769304 C184.934554,162.095569 188.330165,172.497025 189.454826,174.66688 C190.622743,174.366172 194.688826,173.014069 197.997924,171.906427 C207.254749,168.825796 208.27127,168.596479 208.963369,168.853919 C209.439187,169.031315 210.066402,169.59379 217.35507,176.960046 C225.573747,185.271693 237.988274,197.836514 242.0111,200.460675 C248.110223,204.456409 251.33281,205.918843 251.354438,205.931824 C251.916768,206.178447 252.154677,206.818803 251.89514,207.361807 C251.722115,207.76203 251.33281,208 250.921876,208" id="Fill-225" fill="#F0DCC0"></path>
            <path d="M274.928751,268 C274.437511,268 273.988988,267.650419 273.882196,267.149213 C273.860838,267.031282 271.447354,255.139213 264.698141,242.042564 C261.836134,236.516659 259.315858,232.382759 257.308181,229.061741 C254.382098,224.270797 252.26763,220.808683 251.263791,216.66636 C250.217236,212.448224 249.918221,208.13111 249.576488,203.559181 C249.384264,200.669874 249.149323,197.683695 248.743516,194.640656 C247.846469,188.030208 242.677768,173.672119 240.734166,168.266251 C240.413792,167.388087 240.178851,166.760526 240.072059,166.459381 C239.922552,165.985551 240.007985,165.503298 240.307,165.134764 C241.097256,164.212376 242.784559,164.359789 247.803752,165.052633 C250.879343,165.478027 256.603358,166.269849 257.500405,165.381155 C257.970287,164.050221 252.993811,156.866965 246.607689,149.751098 C246.22324,149.31728 246.265957,148.651813 246.693122,148.266432 C247.141646,147.878945 247.82511,147.918957 248.209559,148.35488 C254.552965,155.409676 261.558476,164.347154 259.016842,166.870033 C257.479047,168.386287 253.463693,167.963 247.504736,167.137483 C245.774717,166.899516 243.532099,166.589947 242.378752,166.585735 C242.485544,166.859503 242.592335,167.188025 242.741843,167.560771 C244.706803,173.023499 249.939579,187.533213 250.857984,194.36057 C251.28515,197.468892 251.498732,200.488766 251.712315,203.411768 C252.032689,207.891036 252.331705,212.123914 253.335543,216.171471 C254.275307,220.00212 256.197551,223.175725 259.123634,227.979303 C261.174027,231.327699 263.715661,235.495293 266.599027,241.088588 C273.497747,254.459004 275.953948,266.622735 275.975306,266.742772 C276.103456,267.313474 275.719007,267.867328 275.142334,267.978941 L274.928751,268" id="Fill-226" fill="#F0DCC0"></path>
            <path d="M232,295.293069 L310.58801,261.477614 C343.930935,251.127686 371.702638,242.719703 406.079616,236.537489 C435.434053,231.262226 445.858993,266.020912 452.189928,288.107872 C460.18801,316.012131 496,416.510999 496,416.510999 L428.280096,440 C428.280096,440 413.571223,402.998474 406.501679,394.899922 C399.432134,386.803504 395.190408,362.988 392.847962,350.128481 C390.484412,337.268963 390.906475,324.100013 374.994724,327.081219 C359.104077,330.062425 320.61199,358.888575 278.701199,361.419506 C236.621583,363.958973 232,295.293069 232,295.293069" id="Fill-227" fill="#323332"></path>
            <path d="M292,361.575922 C292,361.575922 373.130586,356.40296 377.330238,356.40296 C380.92397,356.409279 383.117818,398.584929 384.308764,403.47776 C387.902496,418.373195 392.164829,440.124491 395.361579,455.125239 C398.934417,471.899454 396.761463,476.284677 397.84794,493.204224 C398.78816,507.777402 406.706907,520 406.706907,520 L472,516.707923 C472,516.707923 459.401045,375.207605 453.341846,350.292714 C447.282647,325.377823 410.906558,292 409.506674,292 C408.10679,292 335.438189,301.872017 326.537435,311.27434 C317.63668,320.676662 292,361.575922 292,361.575922" id="Fill-228" fill="#323332"></path>
            <path d="M249.164725,284 C245.256178,284 235.646766,283.268094 223.100546,277.190176 C206.969691,269.387051 192.782312,250.311023 192.177675,249.503603 C191.853762,249.056327 191.983327,248.456087 192.479994,248.161775 C192.97666,247.865528 193.64608,247.987512 193.991587,248.434788 C194.121152,248.628414 208.481284,267.915493 224.115472,275.488204 C239.64169,283.004763 250.697912,282.01727 250.805883,282.003717 C251.388926,281.949501 251.928781,282.327072 251.993563,282.857607 C252.058346,283.388142 251.626462,283.866398 251.043419,283.926422 C250.935448,283.93804 250.287623,284 249.164725,284" id="Fill-229" fill="#F0DCC0"></path>
            <path d="M488,447.768394 L506.219733,440 C506.219733,440 515.453263,450.164196 520.358575,453.830779 C525.263888,457.495309 550.264494,466.811633 551.789676,472.921237 C553.314857,479.03084 546.266046,483.003314 539.670668,483.918934 C533.075289,484.834553 518.359351,477.733371 510.383065,475.746107 C502.40678,473.760897 497.666351,471.547808 493.977062,469.256707 C490.308382,466.965605 488,447.768394 488,447.768394" id="Fill-230" fill="#FFFFFF"></path>
            <path d="M457.338617,547.036333 L477.186838,544 C477.186838,544 495.139682,555.458541 503.232305,557.137109 C511.303631,558.817936 514.945311,560.83538 515.903648,565.710682 C516.840688,570.583725 510.83511,574.352031 502.593413,574.821939 C494.351716,575.289589 460.660851,577.221184 458.55251,574.821939 C453.633048,569.239515 457.338617,547.036333 457.338617,547.036333" id="Fill-231" fill="#FFFFFF"></path>
            <path d="M462.953253,420 C462.433119,420 461.996206,419.606339 461.93379,419.067195 C461.829763,418.37187 453.049898,349.357148 447.328422,334.104933 C441.835805,319.47744 426.731108,312.094162 416.6197,314.614446 C410.773391,316.069279 381.521045,326.661749 329.653264,346.098749 C327.031788,347.076483 325.492191,347.654137 325.367358,347.696927 C324.826419,347.878781 324.243869,347.581396 324.05662,347.020857 C323.869372,346.462458 324.160647,345.85699 324.722392,345.666578 C324.86803,345.615231 326.386821,345.043995 328.945882,344.089796 C380.876079,324.624983 410.211646,314.008979 416.120371,312.53489 C427.084799,309.80066 443.375402,317.671735 449.263321,333.332588 C455.088824,348.824422 463.619024,415.941443 463.993521,418.791205 C464.055937,419.377417 463.660635,419.912282 463.09889,419.989303 L462.953253,420" id="Fill-232" fill="#2B2A2A"></path>
            <path d="M130.653781,226.316336 C129.457567,222.706517 128.281978,219.088371 127.147638,215.455653 C124.672714,207.484489 123.290882,198.94708 119.26913,191.55049 C117.763551,188.775468 116.134226,186.468847 113.164318,185.148994 C109.060069,183.325349 104.089596,183.695907 100.294713,186.094126 C97.1804334,188.063496 94.9323775,191.252794 93.612418,194.71897 C90.0031538,204.228574 93.0761845,214.899815 96.7266974,224.392765 C107.451368,252.24916 134.634283,296 134.634283,296 L152,286.265563 C152,286.265563 137.645441,246.359784 136.057365,241.931822 C134.201172,236.748172 132.386227,231.543704 130.653781,226.316336" id="Fill-233" fill="#FF9A75"></path>
            <path d="M179.135305,317.442193 C182.276253,313.754399 176.015437,307.01399 173.802017,304.450295 C171.736158,302.037036 169.628139,299.89331 167.351479,297.97524 C164.927257,295.933894 162.313313,294.145367 159.277766,292.56369 C156.115737,290.92142 152.637506,288.614721 149.117114,288.010884 C148.864152,287.967007 148.65335,288.06103 148.505789,288.19893 C147.072336,288.207288 145.027557,289.157965 144.374072,289.389889 C140.8326,290.628904 132,298.142392 132,298.142392 C132,298.142392 135.773354,306.815497 140.010472,309.723944 C142.645496,311.533366 147.325298,313.8923 149.7706,316.006774 C151.98402,317.90604 154.092039,319.96619 156.516261,321.608459 C158.371318,322.868368 162.397634,325.041346 162.924639,321.169685 C163.219761,318.992529 161.153903,317.636507 159.69937,316.407939 C158.835082,315.659933 157.970794,314.918196 157.085426,314.17228 C158.012955,314.529567 158.919403,314.911928 159.67829,315.421742 C163.325162,317.857984 166.845554,323.066862 171.230234,323.971572 C171.989121,324.124099 172.916649,323.651894 172.937729,322.818223 C173.485814,323.200583 174.054979,323.488921 174.666305,323.610106 C176.837564,324.036344 177.638611,322.803597 177.554291,320.776878 C177.51213,319.75516 177.280248,318.785678 176.921885,317.857984 C177.111607,318.334367 178.861263,317.759782 179.135305,317.442193" id="Fill-234" fill="#FF9A75"></path>
            <path d="M587.14324,6.05117156 C582.532944,4.25797893 576.987542,3.8253631 571.398646,4.4483299 C553.631612,1.09339412 536.647458,17.1045061 532.863536,34.534598 C529.688522,49.1786439 536.234271,61.0993732 536.995405,75.3973265 C537.713045,88.6483494 533.668163,104.648646 543.019234,115.90531 C544.128315,117.257234 546.781409,116.55856 547.085862,114.836749 C547.259836,113.811449 547.346823,112.876999 547.390316,111.979321 C549.347517,115.771199 551.696158,119.415987 554.457986,122.883403 C556.610907,125.587252 561.395175,122.920176 560.742775,119.775059 L560.916748,119.632295 C561.395175,119.093689 561.721375,118.585365 561.982336,118.083531 C563.635083,118.976882 565.940231,118.224131 566.853591,116.632105 C567.505991,115.489999 567.940925,114.20513 568.223632,112.844553 C569.550179,112.156694 570.463539,110.696615 570.028606,108.648179 C569.680659,106.967467 569.115245,105.602564 568.354112,104.360956 C567.679965,98.9857047 565.940231,93.472016 564.744163,89.4811349 C564.004776,87.0087354 560.829762,86.4766179 559.090028,87.7182254 C559.068281,87.3029142 559.068281,86.9243753 559.046534,86.5934242 C558.981294,84.4216927 557.285054,83.3423162 555.610559,83.3574578 C555.371346,82.6933925 555.132133,82.0293272 554.892919,81.3393049 C554.175279,79.375229 551.239478,79.1372903 550.630571,81.3393049 C550.369611,82.2240043 550.217384,83.0849098 550.086904,83.9349999 C549.695464,83.0784206 548.847343,82.6414786 547.95573,82.5657708 C547.542543,73.2342473 545.085168,65.1443312 543.345434,55.9123094 C540.996793,43.2734378 542.519061,28.8327213 551.804891,19.1572682 C562.156309,8.35701395 574.660648,12.4387443 587.14324,8.36350318 C588.339307,7.97414894 588.230574,6.47729815 587.14324,6.05117156" id="Fill-235" fill="#783B36"></path>
            <path d="M568.194103,124 L599.198293,118.569438 C599.198293,118.569438 596.350351,88.038446 597.138079,81.0795596 C598.834726,76.7117257 601.016128,72.0641166 602.995548,67.3580471 C603.41971,63.8232752 603.904466,60.292679 603.985259,56.7453799 C604.18724,48.6527775 602.248216,40.629075 602.167423,32.4947152 C594.956677,23.3623512 582.575199,15.0755765 573.08206,12.4803482 C570.860261,11.8748646 568.699057,11.8727767 566.67924,12.300791 C564.114073,12.1922215 561.38732,12.7768264 558.458585,14.2884477 C557.973829,14.5369048 557.509271,14.8020649 557.064912,15.0797522 C552.075964,15.7938054 548.561483,20.2430664 546.198297,24.4877157 C538.341209,38.5913093 539.512703,52.7909452 541.350736,68.5564871 C542.219257,75.9621787 545.289379,81.5221891 549.975354,87.3452716 C555.065293,93.6569169 564.457442,96.8200471 564.457442,96.8200471 L568.194103,124" id="Fill-236" fill="#FF9A75"></path>
            <path d="M568.2986,102.244534 C568.2986,102.244534 568.958796,106.964403 562.645668,111.070808 C556.332539,115.179212 552,116.739846 552,116.739846 C552,116.739846 569.227001,124.32121 571.764631,125.436234 C574.302261,126.551258 592.251352,129.003112 597.09967,127.55438 C601.927356,126.105648 616.65799,113.61658 615.977162,113.61658 C615.275703,113.61658 608.797526,110.709125 604.815716,106.378915 C600.833906,102.050704 600.421283,96 600.421283,96 C600.421283,96 580.512234,101.04958 579.35689,100.867739 C578.201546,100.6839 568.2986,102.244534 568.2986,102.244534" id="Fill-237" fill="#FF9A75"></path>
            <polyline id="Fill-238" fill="#FF9A75" points="431.582062 56 460 124.108167 436.138696 136 416 66.8473834 431.582062 56"></polyline>
            <path d="M711.442692,364 C711.442692,364 611.127194,363.949045 606.132854,363.086723 C605.489806,362.975013 605.446936,362.091133 605.98281,361.834396 C607.204601,361.258208 608.512132,360.817248 609.862533,360.431163 C605.296892,357.597259 600.581206,352.166591 599.1665,350.010786 C595.458256,344.342979 595.072427,337.620787 597.666055,331.639408 C597.258791,331.478703 596.851527,331.329756 596.487133,331.090658 C597.065876,330.710452 597.708925,330.420398 598.394842,330.17934 C598.652062,329.718782 598.866411,329.252344 599.145065,328.805504 C600.023898,327.374834 602.46748,328.023535 602.703264,329.397371 C606.132854,329.193549 609.841098,329.683505 612.713379,329.920643 C620.001257,330.522309 627.246265,331.702122 634.469839,332.734949 C646.473403,334.443914 658.455531,336.244991 670.459095,337.824608 C680.59782,339.155328 712,345.789328 712,345.789328 L711.442692,364" id="Fill-239" fill="#FF9A75"></path>
            <path d="M708,346.114265 L709.331381,367.006327 C709.331381,367.006327 723.976573,370.213931 729.724758,372.828991 C735.494076,375.444052 756.436912,393.657645 762.69229,391.877829 C768.926535,390.095827 768.947668,381.500673 766.432837,374.928037 C763.939139,368.357587 750.160401,358.474582 744.348817,352.146834 C738.558366,345.819087 734.183828,342.587431 730.274217,340.38562 C726.364606,338.185995 708,346.114265 708,346.114265" id="Fill-240" fill="#FFFFFF"></path>
            <path d="M569.039634,96 C568.478232,96 568,95.5223645 568,94.933352 C568,94.3421977 568.457439,93.8624203 569.039634,93.8581366 C569.08122,93.8581366 573.801159,93.7788877 581.286526,89.775745 C588.917442,85.6976372 594.177991,80.3643973 594.240369,80.3108508 C594.63543,79.8931874 595.300796,79.8974711 595.695857,80.3172764 C596.111711,80.7370816 596.090918,81.4139104 595.695857,81.8315738 C595.467137,82.0586113 590.14421,87.4496814 582.24299,91.6777197 C574.258598,95.9485953 569.247561,96 569.039634,96" id="Fill-243" fill="#F07A50"></path>
            <path d="M699.369104,360.234347 C700.259052,352.646498 700.068349,344.985998 699.644564,337.374645 C699.432671,333.560421 699.157211,329.754745 698.924129,325.942658 C698.712237,322.416905 697.737532,320.540776 694.220117,319.367662 C691.190055,318.363357 687.481936,319.271505 684.367117,318.805679 C680.468296,318.222327 676.823745,316.478681 672.924924,315.863277 C669.767726,315.367535 665.635823,315.207274 661.419163,315.611133 C661.588677,310.813971 661.652245,303.993242 661.080135,298.520845 C660.063051,289.035501 652.964654,271.287073 649.70151,272.022139 C646.459555,272.757206 606.136419,280.684808 606.136419,280.684808 C601.051,279.569388 536.699258,275.152581 523.667872,301.897021 C510.636485,328.641461 534.304874,360.93736 563.546034,365.939656 C590.668269,370.580829 685.278255,366.027266 698.860562,365.343483 C699.030076,363.610522 699.1784,361.896793 699.369104,360.234347" id="Fill-249" fill="#F0DCC0"></path>
            <path d="M574.707809,280.019201 C574.707809,280.019201 512.852024,278.665289 482.960295,298.695417 C453.089498,318.723386 473.477834,357.360632 496.105957,361.65126 C518.73408,365.941888 588,363.041881 588,363.041881 L574.707809,280.019201" id="Fill-250" fill="#F0DCC0"></path>
            <path d="M552,115.719979 L562.631914,112 C562.631914,112 569.431142,117.798618 582.401645,118.237878 C595.3938,118.675177 607.433198,113.557018 607.433198,113.557018 C607.433198,113.557018 609.078871,120.973445 606.761937,124.146311 C604.445002,127.319177 606.588708,131.476455 594.592618,133.337425 C582.574873,135.196435 573.15556,138.261447 565.057117,133.337425 C556.958673,128.413404 552,115.719979 552,115.719979" id="Fill-251" fill="#FFFFFF"></path>
            <polyline id="Fill-252" fill="#FFFFFF" points="464 115.245747 457.010239 108 432 114.62949 434.140614 124 464 115.245747"></polyline>
            <path d="M662.874233,263.558104 C662.321971,253.866721 661.557299,244.185944 660.601459,234.526378 C659.773065,226.179783 659.050875,217.818341 657.882627,209.509926 C656.799342,201.878148 654.675254,195.219962 652.508684,187.891503 C651.085545,183.046872 650.108465,178.08558 648.918976,173.179437 C646.709924,163.999243 645.053135,154.683298 643.991091,145.301598 C643.077734,137.158631 642.419266,128.517201 637.68255,121.831441 C631.607659,113.285461 629.653498,111.170708 619.160503,110.950111 C608.667509,110.731636 605.778749,129.195958 570.964948,122.578074 C559.855968,120.46332 560.450712,110.557705 550.212608,108.245687 C539.974504,105.935791 483.83486,120.588466 474.085296,123.958921 C472.49223,119.426094 469.688434,115.879587 464.803032,115.359913 C458.600695,114.700246 452.547044,117.355884 446.769525,119.118532 C442.478867,120.431504 436.871275,119.332765 433.685143,123.191077 C431.136238,126.266696 431.837187,130.2247 433.430253,133.540006 C436.319012,139.506707 439.313976,146.251859 441.183174,152.72975 C443.307262,160.143053 450.847774,170.549252 458.558213,172.859148 C461.192082,173.652446 463.974637,173.839104 466.714711,174.197573 C482.751575,176.288994 488.146758,178.170425 503.525155,183.159292 C505.054498,183.657754 524.617348,186.512777 526.231655,186.773675 C527.654794,198.671019 532.221583,230.076275 533.34735,233.665204 C537.276913,246.309182 535.216547,257.945629 536.894577,270.687177 C538.317716,281.377606 549.639105,282.571795 549.639105,282.571795 C549.639105,282.571795 567.927502,288.082457 576.933635,289.240586 C586.576994,290.483561 596.114149,292.017128 605.608822,294.195515 C613.744079,296.059977 621.943058,297.73778 629.22868,301.984256 C638.107368,307.13857 647.602041,313.400107 657.733941,311.722304 C659.41197,311.446558 661.11124,310.903552 662.279489,309.66482 C663.893796,307.927626 664,305.31441 664,302.94088 C664,289.806925 663.638905,276.672969 662.874233,263.558104" id="Fill-253" fill="#D96249"></path>
            <path d="M687.197389,198.767805 C686.038258,189.263573 681.949688,173.894229 676.533386,163.277001 C655.33183,121.720995 627.112265,112 627.112265,112 C627.112265,112 615.563107,116.308168 616.954064,116.900099 C624.583252,120.122367 631.369436,123.432174 637.460141,127.694489 C636.806813,128.373958 636.511762,129.303539 636.912189,130.297731 C648.440271,158.226835 647.428666,189.194792 655.184304,218.314009 C655.24753,218.532856 655.33183,218.728777 655.416131,218.926782 C654.615277,218.87676 653.793348,219.0435 653.076794,219.458269 L652.697442,219.6792 C651.24326,220.529579 650.632082,222.096944 650.779608,223.685151 C637.628742,220.954768 625.320881,213.516039 612.085715,211.592266 C608.418647,211.058695 606.416512,215.298083 609.556702,217.532411 C617.944594,223.499651 628.545372,226.999126 638.303145,230.140109 C647.070389,232.964283 662.370915,241.657737 671.707187,239.721458 C689.621026,236.003136 688.862322,212.690672 687.197389,198.767805" id="Fill-254" fill="#D96249"></path>
            <path d="M431.604746,48.8111258 C431.043379,46.9920398 429.837481,45.4539015 428.527626,44.0390568 C428.215756,43.7055577 427.883094,43.3781223 427.571224,43.0567504 C424.452522,39.9238801 421.146698,36.9708971 417.674543,34.2180136 C416.23994,33.0800743 414.597423,31.9158592 412.746993,32.0047923 C412.019296,32.041174 411.250016,32.334249 410.958937,32.9729503 C410.68865,33.6136728 411.00052,34.3473708 411.374764,34.9476692 C411.728217,35.5540312 416.780515,40.6595993 414.909293,40.8314018 L414.368718,40.7707656 C409.649083,39.7359078 405.366065,37.5105593 401.083047,35.2932956 C400.563264,34.9375632 400.064271,34.5575763 399.544488,34.2240772 C397.340605,32.8435931 393.348666,30.3069787 391.976437,33.7389876 C391.290323,33.4701671 390.541834,33.3569796 389.85572,33.5045277 C388.753778,33.7389876 388.233994,34.7051244 388.254786,35.6854097 C387.797376,36.5039984 387.984498,37.6277893 388.587447,38.3897842 C388.961692,38.8546617 389.439893,39.2103941 389.980468,39.5095327 C386.425147,40.4493938 388.587447,44.7303095 390.624999,46.1997268 C391.1032,46.5352471 391.664567,46.9031067 392.267516,47.2729875 C391.789315,47.6752076 391.456653,48.2613576 391.394279,48.871762 C391.269531,50.1026769 392.01802,51.2850828 392.974422,52.0854806 C393.951615,52.8838572 395.136722,53.3810741 396.259455,53.9369059 C400.729594,56.1319364 404.555202,59.3739519 408.609515,62.2157684 C412.684619,65.0555638 417.237924,67.5760085 422.227848,67.962059 C425.388133,68.2106674 429.04741,67.2586791 430.44043,64.4795199 C430.981005,63.3921107 431.105753,62.1571535 431.230501,60.9545355 C431.417624,58.8605654 431.625537,56.7665953 431.83345,54.6726251 C432,52.7120547 432.186903,50.6969116 431.604746,48.8111258" id="Fill-255" fill="#FF9A75"></path>
            <path d="M566.890076,364 L566.845708,363.997915 C566.690421,363.993745 550.296499,363.432836 535.211428,361.591639 C526.515329,360.530292 517.597391,354.416599 512.517271,346.015484 C506.926922,336.788645 506.505427,325.874911 511.363707,315.286462 C522.167279,291.692863 564.494212,291.972274 566.246742,292.003552 C566.867892,292.009807 567.355939,292.485224 567.355939,293.058643 C567.333755,293.634148 566.779156,294.026158 566.224558,294.088713 C565.803064,294.092883 523.631419,293.79679 513.404628,316.112186 C508.834739,326.083427 509.189682,336.338251 514.447273,344.985414 C519.194633,352.836047 527.469238,358.543133 535.49982,359.525244 C550.47397,361.351845 566.756973,361.908583 566.934444,361.914839 C567.53341,361.93569 568.021456,362.419448 567.999272,362.992867 C567.977089,363.555861 567.489042,364 566.890076,364" id="Fill-256" fill="#FFFFFF"></path>
            <path d="M654.927089,316 L654.646522,315.954727 C654.430701,315.882823 633.647163,309.003995 621.45329,307.909454 C609.173089,306.814913 601.144558,306.663116 601.058229,306.663116 C600.453931,306.652463 599.979126,306.047936 600.000708,305.312916 C600.000708,304.583222 600.475513,304 601.079811,304 C601.16614,304 609.259418,304.151798 621.604365,305.254328 C634.014058,306.364847 654.344373,313.094541 655.207656,313.382157 C655.790372,313.573901 656.114103,314.303595 655.963028,315.014647 C655.833536,315.608522 655.401894,316 654.927089,316" id="Fill-257" fill="#FFFFFF"></path>
            <path d="M588.602257,41.9918887 C592.927541,48.8948659 593.733232,56.6769366 594.093672,64.5887783 C594.538922,74.3090409 594.750946,84.3160554 593.690827,94.0991104 C592.651911,103.614251 587.732959,111.915406 585.973162,121.294496 C584.531401,129.036798 582.750401,136.714215 581.351044,144.45861 C580.206116,148.052428 579.548842,151.817879 579.061188,155.520537 C578.870366,156.971041 578.658342,158.494804 578.764354,159.974611 C578.912771,162.132576 579.252009,162.699801 581.245032,162.829572 C589.471554,163.37168 597.676874,164.072861 605.860991,165.031492 C606.687884,165.127773 607.790407,165.548483 608.596097,165.489876 C611.288799,165.29522 611.458418,152.102538 611.437216,150.001086 C611.479621,153.090472 611.56443,156.177764 611.64924,159.265057 C611.691644,160.924869 611.734049,162.586775 611.755251,164.24868 C611.797656,165.92733 616.377369,168.757174 617.925143,167.811102 C619.027666,167.122479 618.476405,162.90283 618.561214,161.613492 C618.709631,159.097611 618.921654,156.588008 619.23969,154.084684 C620.427023,144.326746 622.928904,134.727882 626.766534,125.646009 C628.907974,120.543081 631.537068,115.442245 631.939913,109.830698 C632.130735,107.143184 631.855104,104.390784 631.28264,101.699083 C630.561759,94.2749291 627.126974,86.6686771 625.345974,79.4768549 C624.879522,77.6056416 624.455475,75.728149 624.010225,73.8527495 C623.52257,68.9737805 622.971308,64.0989976 622.441249,59.2284009 C621.953594,54.9103773 621.677963,50.4290934 621.211511,45.9833919 C621.084297,44.3466035 620.93588,42.7056289 620.787464,41.0604682 C620.723856,40.1416062 620.617845,39.2248372 620.511833,38.3080683 C620.49063,37.9627101 620.448226,37.619445 620.405821,37.2740869 C620.342214,36.805237 620.278607,36.3363871 620.214999,35.8675372 C619.23969,28.5982711 617.289072,21.2138855 613.218215,14.982787 C610.165073,10.2963813 605.9458,7.59630834 600.984444,5.24368665 C589.810792,-0.0476190913 572.806487,-2.18465357 560.148668,2.88059955 C556.289836,4.29342842 552.706634,6.13743172 549.929123,8.04422742 C541.978232,13.5092588 535.469102,23.1499844 533.857722,32.5416334 C533.815317,32.8032684 533.900127,33.0439726 534.027341,33.238629 C533.221651,34.8000665 532.564377,36.4410411 532.05552,38.1929489 C531.61027,39.8025273 533.963734,40.8051125 534.811829,39.3357705 C535.659924,37.8622423 536.592828,36.5456951 537.568138,35.2793818 C535.89315,38.3645814 534.748222,41.7281607 534.11215,45.2696517 C534.048543,45.6526853 534.5574,45.9122272 534.790626,45.5459382 C538.098197,40.1081169 539.243125,34.4212191 543.907648,29.6845795 C547.109207,26.4340266 550.88323,24.1128011 554.508836,21.5194752 C559.046145,23.5539488 563.859084,24.661188 568.884047,25.9275012 C577.704236,28.150352 583.852925,34.3961021 588.602257,41.9918887" id="Fill-258" fill="#783B36"></path>
            <path d="M556.942506,20 L556.486794,19.8822133 C556.031082,19.6276419 555.860189,19.0520066 556.126022,18.5903586 C556.277926,18.3167894 559.847672,11.8594158 562.619922,9.24151033 C565.145328,6.85537877 570.234115,4 571.050599,4 C571.563276,4 572,4.42555213 572,4.94989314 C572,5.41344099 571.658216,5.80099739 571.221491,5.88458798 C570.575899,6.12016148 566.341572,8.32961292 563.911107,10.6245547 C561.366713,13.0372833 557.815955,19.4433626 557.777979,19.5079554 C557.607087,19.8214201 557.28429,20 556.942506,20" id="Fill-259" fill="#331F17"></path>
            <path d="M613.02773,148 L612.865024,147.987244 C612.315894,147.900078 611.929468,147.357945 612.010821,146.777544 C612.031159,146.62022 614.349711,130.868612 618.722419,117.955228 C622.098556,107.954477 622.851069,99.0507478 620.918942,91.4927826 C620.512178,89.8344949 619.983386,88.1783331 619.454593,86.5753217 C618.803772,84.4897059 618.112274,82.3360579 617.624157,80.0973695 C616.729278,75.917634 616.017442,71.7804187 615.447973,68.2873844 C614.614107,63.1870866 613.861595,58.114427 613.210773,53.2097221 C613.129421,52.6271954 613.536184,52.0914409 614.085315,52.0106526 C614.614107,51.9277382 615.163238,52.3380581 615.224253,52.9205848 C615.875074,57.8040296 616.607249,62.8511771 617.441114,67.9259627 C618.010583,71.3934849 618.722419,75.496684 619.617299,79.6296473 C620.085077,81.7641612 620.756237,83.8689111 621.38672,85.9035025 C621.915513,87.5362782 622.444305,89.226456 622.891745,90.9485241 C624.925563,98.9274393 624.152712,108.252119 620.634207,118.663189 C616.322514,131.391611 614.044638,146.941247 614.0243,147.096446 C613.942948,147.623696 613.515846,148 613.02773,148" id="Fill-260" fill="#331F17"></path>
            <path d="M599.081633,88 L599.029323,87.9956743 C598.663148,87.9416024 598.401595,87.416024 598.440828,86.8212336 C598.440828,86.7152528 599.003167,76.0977037 598.42775,61.2409213 C597.865411,46.6891042 596.113005,41.6885392 596.099927,41.640956 C595.903762,41.1305177 596.008383,40.4665154 596.309169,40.1572244 C596.623033,39.8500962 597.015363,40.0058232 597.211528,40.5119357 C597.289994,40.7238974 599.147022,45.8823522 599.735516,61.1024974 C600.324011,76.1387983 599.748594,86.9099114 599.735516,87.0158923 C599.709361,87.5782395 599.421653,88 599.081633,88" id="Fill-261" fill="#331F17"></path>
            <path d="M597.147475,160 L596.988452,159.991689 C596.375075,159.914807 595.920722,159.391185 596.011593,158.823927 C596.03431,158.659776 598.465099,142.290341 604.848758,124.773923 C611.096112,107.639833 609.551312,97.2941333 609.528594,97.19024 C609.437724,96.6229823 609.869359,96.097282 610.482735,96.0120895 C611.096112,95.9248191 611.686771,96.3196138 611.777641,96.8868714 C611.845794,97.3232235 613.43603,107.772816 607.006935,125.430529 C600.691429,142.753705 598.283358,158.936132 598.26064,159.098206 C598.192487,159.61975 597.692699,160 597.147475,160" id="Fill-262" fill="#331F17"></path>
            <path d="M520.829508,173.047343 C522.867907,172.1355 551.741728,171.62211 554.662733,172.334726 C557.562724,173.047343 557.184465,196.209291 538.544669,195.998571 C519.106325,195.780188 518.791109,173.959185 520.829508,173.047343" id="Fill-263" fill="#382732"></path>
            <path d="M545.063736,200 L534.953846,200 C533.318681,200 532,198.776375 532,197.267617 L532,196.3389 C532,196.151527 532.175824,196 532.369231,196 L547.630769,196 C547.841758,196 548,196.151527 548,196.3389 L548,197.267617 C548,198.776375 546.681319,200 545.063736,200" id="Fill-264" fill="#382732"></path>
            <path d="M552.523364,196 L552,191.232935 C552.130841,191.208847 564.261682,188.739801 564.261682,181.385657 C564.261682,178.661276 563.476636,177.89527 563.214953,177.642343 C561.813084,176.310263 559.158879,176.919695 558.336449,177.240069 L557.252336,172.62476 C557.775701,172.427236 562.317757,170.789235 565.439252,173.778587 C566.616822,174.9011 568,177.134081 568,181.385657 C568,193.015466 553.158879,195.884376 552.523364,196" id="Fill-265" fill="#382732"></path>
            <path d="M542.003791,168 C541.766081,168 541.510085,167.895099 541.345516,167.687277 C540.321534,166.497741 538.968414,163.25967 541.235804,159.512929 C543.283769,156.154123 541.345516,153.753279 541.272375,153.652337 C540.924952,153.246588 540.961523,152.623121 541.327231,152.256958 C541.711224,151.892774 542.278072,151.918504 542.625495,152.316335 C543.667763,153.545457 545.039168,156.854781 542.771778,160.597564 C540.742098,163.950432 542.607209,166.248354 542.680351,166.343359 C543.009488,166.747128 542.991203,167.372574 542.625495,167.738738 C542.442641,167.914892 542.223216,168 542.003791,168" id="Fill-266" fill="#FFFFFF"></path>
            <path d="M546.730169,172 C546.404369,172 546.07857,171.859091 545.827955,171.579933 C544.424511,169.982082 542.595021,165.632526 545.702647,160.599696 C546.07857,159.982889 546.855476,159.818052 547.431891,160.21685 C548.008305,160.618307 548.183736,161.442489 547.782752,162.056638 C545.025987,166.560396 547.557198,169.647092 547.657444,169.774707 C548.133613,170.317073 548.108551,171.157207 547.58226,171.649058 C547.356706,171.885678 547.030907,172 546.730169,172" id="Fill-267" fill="#FFFFFF"></path>
            <path d="M534.75523,172 C534.404369,172 534.07857,171.859123 533.827955,171.577368 C532.424511,169.979871 530.595021,165.631279 533.702647,160.599563 C534.07857,159.982892 534.855476,159.818092 535.431891,160.216802 C536.008305,160.61817 536.183736,161.44217 535.782752,162.056182 C532.975864,166.620078 535.632383,169.735329 535.657444,169.764568 C536.133613,170.301497 536.108551,171.141445 535.607321,171.643819 C535.356706,171.883045 535.055968,172 534.75523,172" id="Fill-268" fill="#FFFFFF"></path>
            <path d="M587.260068,187.441528 C585.574896,181.804249 581.307253,175.893146 578.243304,173.248362 C576.71133,171.916191 575.069929,170.705719 573.384757,169.538711 C569.029573,166.489712 564.871357,168.393435 560.931994,171.583691 C559.027969,173.13101 553.972454,177.683863 556.883205,180.452519 C557.123944,180.685051 557.430339,180.835002 557.758619,180.954528 C556.883205,181.991144 556.57681,183.486305 557.51788,184.581598 L557.123944,184.918444 C556.357957,185.73122 556.314186,187.067738 556.86132,188.002214 C557.364683,188.810644 558.283867,189.282228 559.137396,189.695136 C559.618874,191.577127 562.376427,192.831063 564.521191,193.213546 C570.255152,194.23495 575.945343,201.745528 582.335864,199.624485 C588.201138,197.683818 588.835813,192.681112 587.260068,187.441528" id="Fill-269" fill="#FF9A75"></path>
            <polyline id="Fill-270" fill="#FF9A75" points="585.888594 180 656 197.655771 649.527851 224 584 199.041647 585.888594 180"></polyline>
            <polyline id="Fill-271" fill="#FFFFFF" points="636 192.456282 626.276129 192 620 215.421038 629.00129 224 636 192.456282"></polyline>
            <path d="M628,182.317486 C628,182.317486 639.207836,189.981575 636.869359,199.212497 C634.509814,208.443418 631.581451,207.365556 630.064601,221.086507 C628.526684,234.807458 628.063202,237.258691 632.592685,239.80134 C637.1011,242.341863 668.617871,219.802427 670.492866,212.922818 C672.367861,206.043209 673.779374,191.724863 666.490068,183.937468 C659.200761,176.150074 628,182.317486 628,182.317486" id="Fill-272" fill="#D96249"></path>
            <path d="M461.086954,156 C460.802335,156 460.517715,155.89193 460.298777,155.679868 C459.882794,155.272057 459.904688,154.625676 460.342564,154.238255 C460.364458,154.219904 463.320124,151.416201 466.779348,141.023131 C470.304253,130.493444 469.778801,125.175585 469.778801,125.122569 C469.71312,124.563868 470.150996,124.064299 470.764023,124.007206 C471.333263,123.939917 471.902502,124.351806 471.94629,124.912547 C471.990077,125.140921 472.537423,130.6321 468.881155,141.628731 C465.181099,152.678377 461.984601,155.600345 461.853238,155.720649 C461.6343,155.906203 461.34968,156 461.086954,156" id="Fill-273" fill="#382732"></path>
            <path d="M461.125619,144 L460.569889,143.875345 C460.036387,143.618592 459.836324,143.04927 460.147533,142.604603 L469.928395,128.464583 C470.239604,128.016196 470.92871,127.869214 471.439983,128.125967 C471.973484,128.38272 472.151318,128.952042 471.862338,129.396708 L462.081476,143.536728 C461.881413,143.834413 461.503516,144 461.125619,144" id="Fill-274" fill="#382732"></path>
        </g>
    </g>
</svg>