<?xml version="1.0" encoding="UTF-8"?>
<svg width="23px" height="20px" viewBox="0 0 23 20" version="1.1" xmlns="http://www.w3.org/2000/svg" xmlns:xlink="http://www.w3.org/1999/xlink">
    <!-- Generator: Sketch 63.1 (92452) - https://sketch.com -->
    <title>bell-01</title>
    <desc>Created with Sketch.</desc>
    <g id="Icons" stroke="none" stroke-width="1" fill="none" fill-rule="evenodd">
        <g transform="translate(-950.000000, -132.000000)" fill-rule="nonzero" id="bell-01">
            <g transform="translate(949.000000, 130.000000)">
                <rect id="Rectangle" fill="#FFFFFF" opacity="0" x="0" y="0" width="24" height="24"></rect>
                <path d="M3.56,15.55 L20.61,15.55 C20.8585281,15.55 21.06,15.3485281 21.06,15.1 C21.06,14.8514719 20.8585281,14.65 20.61,14.65 L20.14,14.65 C20.0111898,10.5990428 16.9919284,7.22556643 12.98,6.65 L12.98,5.65 L13.88,5.65 C14.1285281,5.65 14.33,5.44852814 14.33,5.2 L14.33,4.78 C14.3190405,3.79370673 13.5163542,3 12.53,3 L11.64,3 C10.6497796,3 9.84550122,3.79979492 9.84,4.79 L9.84,5.24 C9.84,5.48852814 10.0414719,5.69 10.29,5.69 L11.19,5.69 L11.19,6.69 C7.17807158,7.26556643 4.15881023,10.6390428 4.03,14.69 L3.56,14.69 C3.31147186,14.69 3.11,14.8914719 3.11,15.14 C3.11,15.3885281 3.31147186,15.59 3.56,15.59 L3.56,15.55 Z M10.74,4.78 C10.74,4.54130516 10.8348212,4.31238664 11.0036039,4.1436039 C11.1723866,3.97482116 11.4013052,3.88 11.64,3.88 L12.53,3.88 C12.7686948,3.88 12.9976134,3.97482116 13.1663961,4.1436039 C13.3351788,4.31238664 13.43,4.54130516 13.43,4.78 L10.74,4.78 L10.74,4.78 Z M12.08,7.47 C15.9933209,7.58531567 19.1356006,10.7363727 19.24,14.65 L4.93,14.65 C5.03413956,10.7401159 8.17058623,7.59050934 12.08,7.47 L12.08,7.47 Z" id="Shape" stroke="#000000" stroke-width="0.6" fill="#000000"></path>
                <path d="M12.08,8.47 C9.81833158,8.50256468 7.75013131,9.75265986 6.67,11.74 C6.57131804,11.880249 6.56092666,12.0643941 6.64320375,12.2148547 C6.72548084,12.3653153 6.88612237,12.4559336 7.05744993,12.448532 C7.22877748,12.4411304 7.38100543,12.3369957 7.45,12.18 C8.37180183,10.4751471 10.1421406,9.40070823 12.08,9.37 C12.3285281,9.37 12.53,9.16852814 12.53,8.92 C12.53,8.80065258 12.4825894,8.68619332 12.3981981,8.60180195 C12.3138067,8.51741058 12.1993474,8.47 12.08,8.47 Z" id="Path" stroke="#000000" stroke-width="0.6" fill="#000000"></path>
                <path d="M21.06,17.9 L21.06,17.45 C21.06,17.2014719 20.8585281,17 20.61,17 L3.61,17 C3.36147186,17 3.16,17.2014719 3.16,17.45 L3.16,17.9 C2.1714103,17.9 1.37,18.7014103 1.37,19.69 L1.37,21.04 C1.37,21.2885281 1.57147186,21.49 1.82,21.49 L22.4,21.49 C22.6485281,21.49 22.85,21.2885281 22.85,21.04 L22.85,19.69 C22.85,18.7014103 22.0485897,17.9 21.06,17.9 Z M22,20.56 L2.22,20.56 L2.22,19.66 C2.22,19.1684666 2.61846657,18.77 3.11,18.77 L3.56,18.77 C3.79340808,18.7653284 3.98448309,18.5829386 4,18.35 L4,17.9 L20.16,17.9 L20.16,18.35 C20.16,18.5985281 20.3614719,18.8 20.61,18.8 L21.06,18.8 C21.5515334,18.8 21.95,19.1984666 21.95,19.69 L22,20.56 Z" id="Shape" stroke="#000000" stroke-width="0.6" fill="#000000"></path>
            </g>
        </g>
    </g>
</svg>