<svg xmlns="http://www.w3.org/2000/svg" width="32" height="32" viewBox="0 0 32 32">
    <path fill="#007AFF" fill-rule="evenodd" d="M31.188 22.406c.414 0 .756.31.806.71l.006.103v3.593a5.194 5.194 0 0 1-4.969 5.183l-.218.005h-3.594a.813.813 0 0 1-.102-1.619l.102-.006h3.593a3.567 3.567 0 0 0 3.558-3.374l.005-.189V23.22c0-.449.364-.813.813-.813zm-30.375 0c.414 0 .756.31.806.71l.006.103v3.593a3.567 3.567 0 0 0 3.374 3.558l.189.005H8.78a.813.813 0 0 1 .102 1.619L8.781 32H5.187a5.194 5.194 0 0 1-5.182-4.969L0 26.813v-3.594c0-.449.364-.813.813-.813zm21.41-3.256a.585.585 0 0 1-.582.592.586.586 0 0 1-.58-.592c0-3.912-3.96-6.386-7.346-4.342-1.896 1.145-2.61 3.185-2.237 5.696.326 2.184 1.485 4.45 2.767 5.566a.598.598 0 0 1 .064.834.573.573 0 0 1-.818.066c-1.503-1.308-2.794-3.833-3.16-6.29-.44-2.947.444-5.472 2.792-6.888 4.18-2.522 9.1.55 9.1 5.358zm-5.636-.928a.567.567 0 0 1 .4.19c.103.116.158.27.152.427-.038 1.283.585 2.942 1.612 3.86.917.816 2.324 1.151 4.167.92a.559.559 0 0 1 .422.125.596.596 0 0 1 .211.398.594.594 0 0 1-.498.667c-2.134.269-3.853-.141-5.037-1.196-1.24-1.107-1.984-2.98-2.015-4.563l.001-.247a.583.583 0 0 1 .585-.58zm1.701.993v.031l.001.028.005.05c.1.686 1.143.65 1.143-.108l-1.149-.001zm1.148-.029v.03h.002v-.007l-.002-.023zm-1.149-.008l-.001-.021-.001.049-.004-.148c-.075-1.098-.925-1.977-1.989-2.055l-.153-.005c-1.16 0-2.085.975-2.146 2.248-.049.992.284 2.399.98 3.633.92 1.626 2.38 2.86 4.433 3.512a.6.6 0 0 1 .382.744.58.58 0 0 1-.278.35.568.568 0 0 1-.441.045c-2.337-.742-4.028-2.17-5.09-4.052-.81-1.431-1.196-3.069-1.137-4.292.09-1.89 1.504-3.38 3.297-3.38 1.761 0 3.2 1.427 3.294 3.223l.003.101v.004l.006.158c.08 1.15 1.013 2.06 2.148 2.06 1.186 0 2.147-.992 2.147-2.218 0-4.085-3.216-7.72-7.585-7.72-2.317 0-4.56 1.097-5.946 2.99-1.581 2.158-1.972 5.173-.882 8.784a.6.6 0 0 1-.38.745.572.572 0 0 1-.721-.39c-1.196-3.963-.752-7.38 1.065-9.858 1.609-2.2 4.195-3.463 6.864-3.463 5.03 0 8.737 4.192 8.737 8.912 0 1.884-1.477 3.41-3.3 3.41-1.761 0-3.204-1.427-3.298-3.223l-.002-.047v-.012l-.003-.046.001-.001h.001l-.001-.029v-.008zm-2.28-11.621h.33l.333.01c3.557.163 6.89 2.007 8.837 4.94l.178.277a.624.624 0 0 1-.173.84.563.563 0 0 1-.803-.18C23 10.687 19.919 8.93 16.619 8.78c-3.492-.16-6.744 1.47-8.891 4.734a.564.564 0 0 1-.809.156.623.623 0 0 1-.15-.843c2.242-3.408 5.603-5.224 9.238-5.271zM5.187 0h3.594a.813.813 0 0 1 .102 1.619l-.102.006H5.187A3.567 3.567 0 0 0 1.63 4.999l-.005.189V8.78a.813.813 0 0 1-1.619.102L0 8.781V5.187A5.194 5.194 0 0 1 4.969.005L5.187 0h3.594zM23.22 0h3.593a5.194 5.194 0 0 1 5.183 4.969l.005.218v3.594a.813.813 0 0 1-1.619.102l-.006-.102V5.187a3.567 3.567 0 0 0-3.374-3.557l-.189-.005H23.22a.813.813 0 0 1-.102-1.619L23.219 0h3.593zm-.369 6.409c.266.191.34.573.169.862a.568.568 0 0 1-.36.27.538.538 0 0 1-.434-.086c-3.338-2.365-8.22-2.335-11.562 0a.538.538 0 0 1-.434.086.569.569 0 0 1-.36-.273.658.658 0 0 1 .172-.862c3.72-2.6 9.09-2.632 12.81.003zM19.436 19.13l-.001-.022-.006-.082c-.1-.685-1.143-.65-1.143.108l1.149-.001.001.001v-.004z"/>
</svg>
