<svg xmlns="http://www.w3.org/2000/svg" width="24" height="24" viewBox="0 0 24 24">
    <path fill="#242635"
          d="M6 3.25h2.536l.878-1.756A2.25 2.25 0 0 1 11.427.25h5.646a2.25 2.25 0 0 1 2.013 1.244l.878 1.756h1.786A2.25 2.25 0 0 1 24 5.5v12a2.25 2.25 0 0 1-2.25 2.25H2.25A2.25 2.25 0 0 1 0 17.5v-12a2.25 2.25 0 0 1 2.25-2.25H4.5V2.5a.75.75 0 0 1 1.5 0v.75zm8.25 13.5a6 6 0 1 1 0-12 6 6 0 0 1 0 12zm0-1.5a4.5 4.5 0 1 0 0-9 4.5 4.5 0 0 0 0 9zm4.58-10.915l-1.086-2.17a.75.75 0 0 0-.671-.415h-5.646a.75.75 0 0 0-.671.414L9.67 4.335A.75.75 0 0 1 9 4.75H2.25a.75.75 0 0 0-.75.75v12c0 .414.336.75.75.75h19.5a.75.75 0 0 0 .75-.75v-12a.75.75 0 0 0-.75-.75H19.5a.75.75 0 0 1-.67-.415zM3 7.375a1.125 1.125 0 1 1 2.25 0 1.125 1.125 0 0 1-2.25 0z"/>
</svg>
