<svg xmlns="http://www.w3.org/2000/svg" width="36" height="36" viewBox="0 0 36 36">
    <path fill="#60616C" fill-rule="evenodd" d="M20.607 3.042C16.593 2.061 12.445 1.063 6 2.445v3.087c6.127-1.437 9.924-.547 13.893.426 2.607.636 5.262 1.286 8.568 1.286 1.379 0 2.89-.133 4.539-.407v17.949c-5.268.968-8.758.147-12.393-.744-4.014-.98-8.162-1.98-14.607-.597v3.085c6.127-1.437 9.924-.545 13.893.428 2.607.636 5.262 1.286 8.568 1.286 2.168 0 4.642-.306 7.539-1.053V3.096c-7.046 1.972-11.108.996-15.393-.054zm3.09 8.517l-2.122-2.118-4.931 4.938-2.221-2.214-2.118 2.124 4.345 4.332 7.047-7.062zM0 36h3V0H0v36z"/>
</svg>
