<?xml version="1.0" encoding="UTF-8"?>
<svg width="21px" height="21px" viewBox="0 0 21 21" version="1.1" xmlns="http://www.w3.org/2000/svg" xmlns:xlink="http://www.w3.org/1999/xlink">
    <!-- Generator: Sketch 63.1 (92452) - https://sketch.com -->
    <title>ContactUs</title>
    <desc>Created with Sketch.</desc>
    <defs>
        <rect id="path-1" x="0" y="0" width="24" height="24"></rect>
    </defs>
    <g id="Icons" stroke="none" stroke-width="1" fill="none" fill-rule="evenodd">
        <g transform="translate(-1011.000000, -129.000000)" id="ContactUs">
            <g transform="translate(1009.000000, 128.000000)">
                <mask id="mask-2" fill="white">
                    <use xlink:href="#path-1"></use>
                </mask>
                <g id="Mask"></g>
                <g mask="url(#mask-2)" id="Path" stroke="#000000" stroke-linecap="round" stroke-linejoin="round" stroke-width="1.89473684">
                    <g transform="translate(3.000000, 2.000000)">
                        <path d="M18.9473684,14.1347368 L18.9473684,16.9768421 C18.9495339,17.510348 18.726677,18.0200448 18.3335475,18.3807141 C17.9404179,18.7413834 17.41345,18.9195993 16.8821053,18.8715789 C13.9668952,18.5548176 11.1666308,17.5586632 8.70631579,15.9631579 C6.41731085,14.5086289 4.47663424,12.5679523 3.02210526,10.2789474 C1.42103184,7.8074564 0.424651265,4.99357379 0.113684211,2.06526316 C0.0658167256,1.53556326 0.242784008,1.01013387 0.601357054,0.617325211 C0.959930101,0.224516546 1.46708928,0.000500864437 1.99894737,-9.31442618e-05 L4.84105263,-9.31442618e-05 C5.79208174,-0.00936014888 6.60268501,0.687758668 6.73578947,1.62947368 C6.85574812,2.53901032 7.07821527,3.43205705 7.39894737,4.29157895 C7.65922263,4.98398687 7.49275112,5.7645533 6.97263158,6.29052632 L5.76947368,7.49368421 C7.11810518,9.86546447 9.08190395,11.8292632 11.4536842,13.1778947 L12.6568421,11.9747368 C13.1828151,11.4546173 13.9633815,11.2881458 14.6557895,11.5484211 C15.5153114,11.8691531 16.4083581,12.0916203 17.3178947,12.2115789 C18.2705331,12.3459729 18.9712326,13.1729614 18.9473684,14.1347368 Z"></path>
                    </g>
                </g>
            </g>
        </g>
    </g>
</svg>