<?xml version="1.0" encoding="UTF-8"?>
<svg width="20px" height="20px" viewBox="0 0 20 20" version="1.1" xmlns="http://www.w3.org/2000/svg" xmlns:xlink="http://www.w3.org/1999/xlink">
    <!-- Generator: Sketch 63.1 (92452) - https://sketch.com -->
    <title>paste</title>
    <desc>Created with Sketch.</desc>
    <defs>
        <rect id="path-1" x="0" y="0" width="24" height="24"></rect>
    </defs>
    <g id="Icons" stroke="none" stroke-width="1" fill="none" fill-rule="evenodd">
        <g transform="translate(-502.000000, -201.000000)" id="paste">
            <g transform="translate(500.000000, 199.000000)">
                <mask id="mask-2" fill="white">
                    <use xlink:href="#path-1"></use>
                </mask>
                <g id="Mask"></g>
                <g id="clipboard" mask="url(#mask-2)" fill="#000000" fill-rule="nonzero">
                    <g transform="translate(2.000000, 2.000000)">
                        <path d="M18.359375,14.4921875 C18.7908594,14.4921875 19.140625,14.1424219 19.140625,13.7109375 L19.140625,10.1171875 C19.140625,8.82484375 18.0892188,7.7734375 16.796875,7.7734375 L15.2734375,7.7734375 L15.2734375,4.6875 C15.2734375,2.964375 13.8715625,1.5625 12.1484375,1.5625 L10.2916797,1.5625 C9.989375,0.634804688 9.12511719,0 8.13699219,0 L7.13644531,0 C6.14832031,0 5.2840625,0.634804688 4.98175781,1.5625 L3.125,1.5625 C1.401875,1.5625 0,2.964375 0,4.6875 L0,16.875 C0,18.598125 1.401875,20.0000391 3.125,20.0000391 L6.5625,20.0000391 C6.99398438,20.0000391 7.34375,19.6502344 7.34375,19.21875 C7.34375,18.7872656 6.99398438,18.4375 6.5625,18.4375 L3.125,18.4375 C2.2634375,18.4375 1.5625,17.7365625 1.5625,16.875 L1.5625,4.6875 C1.5625,3.8259375 2.2634375,3.125 3.125,3.125 L3.203125,3.125 L3.203125,5.4296875 C3.203125,5.86117188 3.55289063,6.2109375 3.984375,6.2109375 L11.3671875,6.2109375 C11.7986719,6.2109375 12.1484375,5.86117188 12.1484375,5.4296875 L12.1484375,3.125 C13.01,3.125 13.7109375,3.8259375 13.7109375,4.6875 L13.7109375,7.7734375 L11.1716016,7.7734375 C9.87945312,7.7734375 8.828125,8.82472656 8.828125,10.1169141 L8.828125,17.6565625 C8.828125,18.94875 9.87953125,20.0000391 11.1722656,20.0000391 L16.796875,19.9971094 C18.0892188,19.9971094 19.140625,18.9458203 19.140625,17.6536719 C19.140625,17.2221875 18.7908594,16.8724219 18.359375,16.8724219 C17.9278906,16.8724219 17.578125,17.2221875 17.578125,17.6536719 C17.578125,18.0842969 17.2276562,18.4346094 16.7964844,18.4346094 L11.171875,18.4375 C10.7410937,18.4375 10.390625,18.0871484 10.390625,17.6565234 L10.390625,10.1169141 C10.390625,9.68628906 10.7409766,9.3359375 11.1716016,9.3359375 L16.796875,9.3359375 C17.2276562,9.3359375 17.578125,9.68640625 17.578125,10.1171875 L17.578125,13.7109375 C17.578125,14.1424219 17.9279297,14.4921875 18.359375,14.4921875 Z M10.5859375,4.6484375 L4.765625,4.6484375 L4.765625,3.125 L5.5859375,3.125 C5.94441406,3.125 6.25691406,2.88101562 6.34386719,2.53324219 L6.45316406,2.09597656 C6.53167969,1.781875 6.81265625,1.5625 7.13644531,1.5625 L8.13699219,1.5625 C8.46078125,1.5625 8.74171875,1.781875 8.82027344,2.09597656 L8.92957031,2.53324219 C9.01652344,2.88101562 9.32902344,3.125 9.6875,3.125 L10.5859375,3.125 L10.5859375,4.6484375 Z" id="Shape"></path>
                        <path d="M15.234375,10.8984375 L12.734375,10.8984375 C12.3028906,10.8984375 11.953125,11.2482031 11.953125,11.6796875 C11.953125,12.1111719 12.3028906,12.4609375 12.734375,12.4609375 L15.234375,12.4609375 C15.6658594,12.4609375 16.015625,12.1111719 16.015625,11.6796875 C16.015625,11.2482031 15.6658984,10.8984375 15.234375,10.8984375 Z" id="Path"></path>
                        <path d="M15.234375,13.6328125 L12.734375,13.6328125 C12.3028906,13.6328125 11.953125,13.9825781 11.953125,14.4140625 C11.953125,14.8455469 12.3028906,15.1953125 12.734375,15.1953125 L15.234375,15.1953125 C15.6658594,15.1953125 16.015625,14.8455469 16.015625,14.4140625 C16.015625,13.9825781 15.6658984,13.6328125 15.234375,13.6328125 Z" id="Path"></path>
                    </g>
                </g>
            </g>
        </g>
    </g>
</svg>