<svg xmlns="http://www.w3.org/2000/svg" width="24" height="24" viewBox="0 0 24 24">
    <path fill="none" d="M-2 0h24v24H-2z" />
    <path d="M2.421.241A.759.759 0 0 1 2.5.237h15a2.25 2.25 0 0 1 2.25 2.25v15.75a2.25 2.25 0 0 1-2.25 2.25h-2.25v1.026a2.25 2.25 0 0 1-2.85 2.169L1.9 20.765A2.25 2.25 0 0 1 .25 18.6V2.487c0-.703.328-1.365.887-1.79.373-.284.819-.44 1.284-.456zm5.074 1.496L13.6 3.709a2.25 2.25 0 0 1 1.65 2.168v13.11h2.25a.75.75 0 0 0 .75-.75V2.487a.75.75 0 0 0-.75-.75H7.495zm-5.01 0a.75.75 0 0 0-.735.75v16.111a.75.75 0 0 0 .55.721l10.5 2.917a.75.75 0 0 0 .95-.723V5.877c0-.337-.225-.632-.58-.731L2.7 1.764a.75.75 0 0 0-.178-.027h-.038z"/>
</svg>
