<svg height="512pt" viewBox="0 -3 512 512" width="512pt" xmlns="http://www.w3.org/2000/svg"><path d="m496.65625 315.722656h-145.09375v-65.21875c0-8.472656-6.871094-15.34375-15.34375-15.34375h-160.4375c-8.472656 0-15.34375 6.871094-15.34375 15.34375v112.003906h-145.09375c-8.472656 0-15.34375 6.871094-15.34375 15.347657v113.582031c0 8.476562 6.871094 15.34375 15.34375 15.34375h481.3125c8.472656 0 15.34375-6.867188 15.34375-15.34375v-160.367188c0-8.476562-6.871094-15.347656-15.34375-15.347656zm-465.964844 77.476563h129.746094v82.894531h-129.746094zm160.433594-15.34375v-112.007813h129.75v210.246094h-129.75zm290.183594 98.238281h-129.746094v-129.679688h129.746094zm0 0"/><path d="m256 138.90625h-26.125c-8.472656 0-15.34375 6.871094-15.34375 15.347656 0 8.472656 6.871094 15.34375 15.34375 15.34375h10.78125v9.246094c0 8.472656 6.871094 15.34375 15.34375 15.34375s15.34375-6.871094 15.34375-15.34375v-12.375c15.292969-6.476562 26.125-22.316406 26.125-40.796875 0-24.21875-18.601562-43.921875-41.46875-43.921875-5.945312 0-10.78125-5.9375-10.78125-13.234375s4.835938-13.234375 10.78125-13.234375h26.125c8.472656 0 15.34375-6.871094 15.34375-15.347656 0-8.472656-6.871094-15.34375-15.34375-15.34375h-10.78125v-9.246094c0-8.472656-6.871094-15.34375-15.34375-15.34375s-15.34375 6.871094-15.34375 15.34375v12.378906c-15.292969 6.472656-26.125 22.3125-26.125 40.792969 0 24.21875 18.601562 43.921875 41.46875 43.921875 5.945312 0 10.78125 5.9375 10.78125 13.234375 0 7.300781-4.835938 13.234375-10.78125 13.234375zm0 0"/></svg>