<svg xmlns="http://www.w3.org/2000/svg" width="80" height="80" viewBox="0 0 80 80">
    <g fill="none" fill-rule="evenodd">
        <path fill="#BDBDC2" d="M38.39 12.338l-3.94-1.56 3.94-1.56 1.56-3.94 1.56 3.94 3.94 1.56-3.94 1.56-1.56 3.94zM3.957 32.77l-2.507-.992 2.507-.992.993-2.508.992 2.508 2.508.992-2.508.993-.992 2.507z"/>
        <path fill="#60616C" d="M36.502 21a19.498 19.498 0 0 1 14.803 32.19l13.257 13.258a1.495 1.495 0 1 1-2.114 2.114L49.191 55.305A19.5 19.5 0 1 1 36.502 21zm0 2.98a16.519 16.519 0 1 0-.004 33.039 16.519 16.519 0 0 0 .004-33.038z"/>
        <path fill="#BDBDC2" d="M71.673 44.054l-3.223-1.276 3.223-1.276 1.277-3.224 1.276 3.224 3.224 1.276-3.224 1.276-1.276 3.224z"/>
    </g>
</svg>
