<svg xmlns="http://www.w3.org/2000/svg" width="24" height="24" viewBox="0 0 24 24">
    <path fill="#242635" fill-rule="evenodd" d="M6.75 1.5a.75.75 0 0 1 .102 1.493L6.75 3H4.983a1.983 1.983 0 0 0-1.978 1.835L3 4.983V18h10.5v-3a.75.75 0 0 1 .648-.743l.102-.007a.75.75 0 0 1 .743.648L15 15v5.518a3.482 3.482 0 0 1-3.27 3.476l-.213.006H4.983a3.482 3.482 0 0 1-3.477-3.27l-.006-.212V4.983a3.483 3.483 0 0 1 3.292-3.478l.191-.005H6.75zm6.75 18H3v1.018c0 .467.165.918.463 1.273l.118.129c.33.33.766.532 1.228.572l.174.008h6.534a1.982 1.982 0 0 0 1.975-1.808l.008-.174V19.5zM15.75 0a6.75 6.75 0 1 1 0 13.5 6.75 6.75 0 0 1 0-13.5zm0 1.5a5.25 5.25 0 1 0 0 10.5 5.25 5.25 0 0 0 0-10.5zm0 1.5a.75.75 0 0 1 .75.75V6h2.25a.75.75 0 1 1 0 1.5h-3a.75.75 0 0 1-.75-.75v-3a.75.75 0 0 1 .75-.75z"/>
</svg>
