<svg xmlns="http://www.w3.org/2000/svg" width="24" height="27" viewBox="0 0 24 27">
    <path fill="#242635" fill-rule="nonzero" d="M12.958 3a4.613 4.613 0 0 0-.43 1.5H2.15c-.282 0-.6.4-.645.987l-.005.138v18.75c0 .614.299 1.058.584 1.118l.066.007h18.2c.282 0 .6-.4.645-.986l.005-.139V19.75h-4.75a1.25 1.25 0 0 1-1.244-1.122L15 18.5v-5c0-.647.492-1.18 1.122-1.244l.128-.006H21V9.191a5.334 5.334 0 0 0 1.502-1.318L22.5 12.25h.25c.647 0 1.18.492 1.244 1.122L24 13.5v5a1.25 1.25 0 0 1-1.122 1.244l-.128.006h-.25v4.625c0 1.351-.833 2.523-1.996 2.619L20.35 27H2.15C.959 27 .076 25.884.005 24.55L0 24.375V5.625c0-1.351.833-2.523 1.996-2.619L2.15 3h10.808zM22.5 13.75h-6v4.5h6v-4.5zM19.25 15a1 1 0 1 1 0 2 1 1 0 0 1 0-2zM17.451.654a.75.75 0 0 1 .15 1.05l-1.35 1.8h6a.75.75 0 0 1 0 1.5H16.25l1.35 1.8a.75.75 0 1 1-1.2.9l-2.25-3-.023-.035a.768.768 0 0 1-.028-.044l.051.079a.753.753 0 0 1-.082-.137c-.003-.011-.008-.023-.013-.034a.467.467 0 0 1-.024-.066l-.006-.026a.412.412 0 0 1-.013-.053l-.007-.053A.535.535 0 0 1 14 4.238a.811.811 0 0 1 .032-.2.75.75 0 0 1 .129-.248L16.4.804a.75.75 0 0 1 1.05-.15z"/>
</svg>
