<svg xmlns="http://www.w3.org/2000/svg" width="24" height="24" viewBox="0 0 24 24">
    <path fill="#FFF" fill-rule="nonzero" d="M.68 10c1 2.12 3 3.594 5.32 3.92.33.057.665.084 1 .08.335.004.67-.023 1-.08A6.952 6.952 0 0 0 13.32 10c.307-.63.51-1.305.6-2 .057-.33.084-.665.08-1a5.474 5.474 0 0 0-.08-1 6.444 6.444 0 0 0-.6-2c-1-2.12-3-3.594-5.32-3.92A5.48 5.48 0 0 0 7 0a5.48 5.48 0 0 0-1 .08A6.952 6.952 0 0 0 .68 4a6.444 6.444 0 0 0-.6 2c-.057.33-.084.665-.08 1-.004.335.023.67.08 1 .09.695.293 1.37.6 2zM8 2.1A5.009 5.009 0 0 1 11 4H8V2.1zM8 6h3.9c.133.66.133 1.34 0 2H8V6zm0 4h3a5.008 5.008 0 0 1-3 1.9V10zm-2 1.9A5.008 5.008 0 0 1 3 10h3v1.9zm0-9.8V4H3a5.009 5.009 0 0 1 3-1.9zM2.1 6H6v2H2.1a5.051 5.051 0 0 1 0-2zM24 5v19H3.5A3.5 3.5 0 0 1 0 20.5v-7.849a8.93 8.93 0 0 0 2 1.826V20.5A1.5 1.5 0 0 0 3.5 22H22v-5h-6.5a2.5 2.5 0 1 1 0-5H22V7h-6a7.459 7.459 0 0 0-.1-1.308c-.031-.234-.1-.462-.15-.692H17V2h-2.529a8.963 8.963 0 0 0-1.824-2H19v5h5z"/>
</svg>
