<svg height="24" viewBox="0 0 24 24" width="24" xmlns="http://www.w3.org/2000/svg">
    <path d="M24 2V0H0v2h20.952c-.238 4.007-1.875 7.393-4.511 9.171-.676.456-.676 1.202 0 1.658 2.929 1.975 4.334 4.842 4.521 9.171H3.048c.238-4.007 1.875-7.393 4.511-9.171.676-.456.676-1.202 0-1.658C5.376 9.699 3.894 7.116 3.308 4H1.275c.545 3.283 1.967 6.113 4.097 8-2.554 2.262-4.108 5.868-4.327 10H0v2h24v-2h-1.036c-.18-4.462-1.56-7.704-4.32-10.015C21.188 9.722 22.736 6.122 22.956 2H24zm-5.251 18H5.335c.534-2.433 1.719-4.418 3.342-5.513.883-.595 1.389-1.502 1.389-2.487 0-.985-.506-1.892-1.389-2.487A6.29 6.29 0 0 1 8.026 9h7.948c-.209.186-.424.36-.651.513-.883.595-1.389 1.502-1.389 2.487 0 .985.506 1.892 1.389 2.487 1.907 1.286 2.986 2.992 3.426 5.513z" fill="#30302E"
        fill-rule="evenodd" />
</svg>
