<svg xmlns="http://www.w3.org/2000/svg" width="100" height="100" viewBox="0 0 100 100">
    <g fill="none" fill-rule="nonzero">
        <path fill="#333" d="M69.67 95.34l-.39.143c-.096-.058-.073-.155-.072-.242.013-.972.032-1.945.037-2.917.003-.71.007-1.42-.028-2.128-.03-.627-.198-1.236-.345-1.846-.162-.606-.29-1.22-.38-1.84a11.625 11.625 0 0 1-.094-1.645c.01-.503.002-1.005.002-1.506-.07-.055-.132-.014-.196.002-1.066.266-2.117.594-3.192.827a9.587 9.587 0 0 1-1.938.277c-.427.004-.857.068-1.29.066a7.048 7.048 0 0 1-1.464-.14 1.108 1.108 0 0 0-.42-.018c.072.416.183.808.28 1.204.127.521.323 1.02.462 1.538.169.623.13 1.267.166 1.903.033.55.032 1.102.063 1.652.054.64.163 1.273.328 1.893.116.523.205 1.051.266 1.584.075.6.158 1.2.235 1.8.087.692.212 1.378.307 2.068a.231.231 0 0 1-.034.197l-.587.197c-.1-.04-.121-.121-.134-.22-.043-.328-.098-.655-.144-.984-.084-.6-.214-1.193-.263-1.797a17.147 17.147 0 0 0-.415-2.715 13.655 13.655 0 0 1-.393-3.464 8.427 8.427 0 0 0-.148-1.71c-.084-.438-.22-.865-.32-1.3-.135-.577-.272-1.156-.378-1.74-.047-.26-.19-.5-.178-.764.025-.547-.118-1.072-.195-1.604a24.022 24.022 0 0 1-.23-2.05c-.054-.915-.062-1.833-.151-2.746-.066-.662-.162-1.32-.253-1.978-.089-.638-.207-1.269-.324-1.9-.025-.135-.03-.251.104-.331.23.04.223.235.255.399.182.933.377 1.865.538 2.802.148.858.284 1.718.377 2.585.082.764.105 1.535.245 2.293.09.403.15.812.177 1.223.01.36.14.687.155 1.014.677.241 1.313.448 2.005.492a14.172 14.172 0 0 0 3.831-.326c.766-.16 1.524-.358 2.282-.553.184-.048.386-.061.558-.18.003-.063.01-.12.008-.176-.019-.755-.04-1.51-.057-2.266-.027-1.188-.051-2.376-.074-3.565-.018-.98-.038-1.96-.047-2.94-.007-.605.005-1.21.05-1.816.063-.787.082-1.577.059-2.366a.352.352 0 0 0-.19-.328c-.254-.158-.5-.327-.752-.487a7.82 7.82 0 0 1-2.166-1.99 10.825 10.825 0 0 1-1.61-3.247c-.169-.558-.342-1.114-.519-1.692-.297.05-.588.108-.883.146-1.04.134-2.085.188-3.132.237a23.85 23.85 0 0 1-3.1-.013 10.19 10.19 0 0 0-1.032-.068 6.16 6.16 0 0 1-1.845-.238 3.368 3.368 0 0 1-.114-.667c.049-.019.081-.045.11-.041.423.046.85.076 1.267.15.383.067.78.063 1.148.209.323-.125.656-.011.98-.009.708.006 1.419.049 2.129.034a44.41 44.41 0 0 0 2.003-.087c.215-.015.425-.086.608.04.135-.075.231-.165.369-.164.346.002.68-.085 1.021-.127a13.75 13.75 0 0 0 2.94-.709 4.73 4.73 0 0 0 1.278-.684c-.262-.163-.414-.362-.349-.668-.573.15-1.107.324-1.651.463-.826.211-1.665.34-2.5.483-1.205.206-2.429.15-3.645.179-.28.007-.557-.013-.84.019-.572.061-1.148 0-1.718-.032-.444-.025-.89-.041-1.335-.08-.469-.041-.941-.054-1.411-.093a2.028 2.028 0 0 1-.642-.11c-.044-.304-.153-.596-.129-.922.252.026.481.044.708.073.558.073 1.109.196 1.671.232.424.027.849.04 1.273.06.3.014.599.046.897.042.31-.004.615.056.925.025.288-.029.568.087.867.02.402-.092.821-.047 1.232-.069a57.65 57.65 0 0 0 2.922-.232c.698-.062 1.39-.18 2.069-.355.49-.119.966-.289 1.42-.507.058-.807.045-1.617-.038-2.422a7.719 7.719 0 0 1 .072-1.636c.075-.447.107-.9.094-1.352-.047-.673-.059-1.347-.119-2.018a5.252 5.252 0 0 1 .007-.826c.019-.27-.084-.53.016-.819.092-.269.077-.588.076-.879-.002-.618.076-1.23.123-1.842.043-.57.05-1.138.052-1.708.002-.652 0-1.303 0-2.018.246.162.442.296.642.424.174.099.265.298.227.495-.033.15-.036.304-.01.455 1.578 1.128 2.593 2.672 3.427 4.394.089-.315-.09-1.242-.324-2.003-.197-.641-.53-1.226-.78-1.87.338.047.555.17.698.461.211.417.4.845.566 1.282.113.31.23.619.355.956.038-.056.072-.115.101-.177a7.897 7.897 0 0 1 1.29-2.264c.396-.476.766-.973 1.108-1.489a3.07 3.07 0 0 0 .471-2.027c-.022-.225-.018-.456-.22-.623a.371.371 0 0 1-.078-.19c-.086-.343-.194-.681-.269-1.03-.108-.5-.249-.994-.39-1.547a.427.427 0 0 1-.494.169c-.04.2-.056.403-.047.606 0 .09-.03.157-.134.167a.152.152 0 0 1-.184-.155c-.037-.307-.082-.614-.113-.922-.016-.16.079-.225.233-.173.107.036.202.115.34.086.15-.153.171-.353.172-.58-.433-.277-.836-.6-1.288-.852-.68-.38-1.393-.683-2.168-.758a5.891 5.891 0 0 0-2.251.178 4.253 4.253 0 0 0-1.682 1.011c.01.17.035.337.075.501.353 1.041.578 2.12.97 3.15a4.733 4.733 0 0 0 1.624 2.175c.453.315.956.55 1.488.696a.608.608 0 0 1 .457.496c.057.286-.095.436-.388.369-.511-.117-.932-.422-1.36-.696-.927-.593-1.563-1.44-1.996-2.436-.093-.213-.269-.364-.34-.59-.263-.842-.57-1.671-.814-2.517-.174-.6-.463-1.05-1.083-1.257-.243-.081-.453-.258-.718-.323-.012.282.025.547-.044.815l-.199.044a.184.184 0 0 1-.163-.04c-.077-.793-.153-1.617-.582-2.352-.432-.74-1.048-1.294-1.747-1.774-.173.171-.37.318-.584.435a1.063 1.063 0 0 0-.022.353c-.01.736.003 1.473-.055 2.208a.538.538 0 0 1-.144.373c-.668.669-1.362 1.278-2.305 1.566-1.12.341-2.103.17-2.98-.6l-.572-.497c.235 1.516 1.121 2.581 2.126 3.58-.1.143-.214.274-.343.39-.141-.086-.263-.2-.358-.334-.201-.251-.393-.51-.602-.754-.9-1.052-1.256-2.31-1.349-3.649-.06-.868-.084-1.74-.167-2.607l-.075-.822a6.084 6.084 0 0 1-.922.291 8.267 8.267 0 0 0-1.773.631c-.788.403-1.407 1.025-2.02 1.647a2.92 2.92 0 0 0-.512.616l2.358-.91c-.045.144-.083.238-.104.335a.718.718 0 0 1-.506.547c-.74.285-1.46.621-2.201.902-.645.245-1.218.625-1.85.891a1.606 1.606 0 0 0-.195.14.18.18 0 0 0-.08.21c.139.438.165.9.291 1.34.23.736.52 1.45.87 2.135.006.01.038.009.059.013l.075-.1c.163.308.346.606.547.891.054.06.09.133.104.213.017.228.054.455.06.683.026.836.25 1.631.544 2.4.317.799.534 1.634.645 2.486.049.304.06.612.034.918-.066.5-.047 1.003-.119 1.5a4.56 4.56 0 0 0-.047.756c.014.62.094 1.232.145 1.848.037.365.037.734 0 1.1.115.093.247.164.389.208a3.277 3.277 0 0 1 1.449 1.266c.28.464.472.975.566 1.509.1.483.166.971.28 1.452.085.368.217.732.223 1.111.015.375.074.747.175 1.109.071.217.118.442.14.67.02.362.068.723.144 1.078.08.473.201.939.286 1.41.23 1.285.45 2.57.675 3.855.088.507.201 1.01.261 1.52.048.407.215.795.176 1.213.232.576.248 1.2.4 1.795.164.64.208 1.305.348 1.954.115.534.183 1.078.273 1.618.146.868.328 1.73.438 2.603a.73.73 0 0 0 .182.464c.027-.256.076-.51.146-.757.117-.524.23-1.05.326-1.577a.62.62 0 0 1 .253-.389.66.66 0 0 1-.05-.566c.09-.32.142-.647.228-.968.065-.214.116-.432.154-.653a33.07 33.07 0 0 1 .384-2.342c.097-.394.278-.763.53-1.081.257.055.236.244.214.407-.045.33-.113.656-.172.984-.107.15-.055.332-.09.497-.121.57-.206 1.148-.304 1.723-.097.564-.187 1.129-.305 1.689-.059.278-.127.555-.18.832-.053.275-.046.57-.105.845-.114.524-.133 1.062-.256 1.582-.106.447-.133.906-.245 1.353-.093.372-.182.763-.102 1.157.097.47.179.941.244 1.418.11.812-.273 1.575-1.022 1.907-.293.094-.578.245-.934.14-.107-.5-.236-1.008-.295-1.53a1.927 1.927 0 0 0-.069-.441c-.157-.433-.17-.893-.262-1.338a34.542 34.542 0 0 1-.297-1.65c-.115-.74-.286-1.471-.39-2.215-.076-.529-.225-1.048-.288-1.578-.108-.893-.355-1.76-.463-2.652-.09-.747-.307-1.472-.415-2.215-.067-.46-.183-.91-.21-1.379a6.323 6.323 0 0 0-.186-.906c-.143-.68-.2-1.372-.36-2.05-.143-.608-.184-1.24-.32-1.85-.14-.635-.229-1.279-.356-1.916-.095-.479-.159-.964-.243-1.445-.048-.27-.124-.536-.16-.807-.13-1.008-.37-1.997-.524-3a6.562 6.562 0 0 0-.277-.953c-.069-.219-.17-.426-.242-.644-.145-.438-.489-.735-.867-.944a1.622 1.622 0 0 0-.807-.137c-.321.01-.644.048-.963.03-.505-.027-1.01-.04-1.515-.039-1.045.006-2.09.022-3.135 0-.614-.014-1.227.005-1.84 0-.732-.006-1.464-.012-2.196-.01-.39 0-.78-.09-1.171 0a.308.308 0 0 1-.197-.05.393.393 0 0 0-.231-.057c-.728.12-1.465.027-2.196.078-.477.033-.96-.018-1.44-.023-.343-.004-.687.016-1.03.006-.468-.014-.936.001-1.405-.022-.412-.021-.826.025-1.24.004-.47-.023-.943.048-1.411-.058-.105-.023-.227.044-.34.041-.215-.004-.439.06-.644-.064a.211.211 0 0 0-.131-.021c-.673.104-1.35.021-2.022.052-.65.029-1.297-.005-1.945-.009-.514-.003-1.029.023-1.543.007-.394-.013-.79-.011-1.183-.02-.434-.01-.871.009-1.307.007-.588-.002-1.183.051-1.76-.024a5.659 5.659 0 0 0-1.078-.027c-.49.03-.977-.002-1.466.02a5.21 5.21 0 0 1-.854-.005c-.337-.04-.684.006-1.026-.014-.398-.025-.794.085-1.193-.005-.152-.035-.31.017-.471.012-.9-.026-1.8-.01-2.7-.026-.331-.007-.66-.013-.99.005a.465.465 0 0 1-.271-.039.41.41 0 0 0-.268-.038c-.637.076-1.275.043-1.914.05-.295.003-.597.03-.886.005a17.108 17.108 0 0 0-1.726-.044c-.473.008-.945.038-1.418.058-.044.002-.09-.006-.142-.009 0-.218.178-.348.236-.53.048-.05.1-.095.144-.148.537-.649 1.263-.887 2.072-.948.37.201.768-.116 1.14.058.258-.053.522-.062.782-.026.615.056 1.233.063 1.849.02.323-.029.644.043.96.02.483-.037.964-.01 1.445-.017.344-.005.691.035 1.028.027.4-.01.805.004 1.205-.03.231-.019.463.085.678.038.31-.066.62.097.919-.034.404.148.814-.061 1.216.017.248.048.493-.004.744.03.398.06.803.073 1.204.037.651-.066 1.3-.019 1.95-.036.682-.018 1.364.006 2.047-.003.629-.008 1.257.089 1.886.014.41.157.846-.088 1.257.074a.102.102 0 0 0 .068-.004c.378-.153.77.021 1.153-.052.137-.022.276-.022.413 0 .64.082 1.286.086 1.927.013.216-.023.435-.017.65.017.102.02.206.026.31.015a6.657 6.657 0 0 1 1.046-.013c.475.003.953.03 1.422.01.704-.03 1.405.037 2.109-.001.46-.025.927.07 1.392 0 .057 0 .114.004.172.01.608-.02 1.213.073 1.821.063.707-.012 1.414-.031 2.12-.05.797-.02 1.593.049 2.39.008.608-.032 1.217.083 1.826.007.41.158.844-.071 1.255.08a.158.158 0 0 0 .1.005c.4-.151.808-.028 1.21-.035.596-.01 1.198.094 1.786.035.655-.066 1.306.027 1.956-.038.181-.017.368.036.546-.033a.648.648 0 0 0 .075-.365c.002-.348-.098-.68-.162-1.016a5.862 5.862 0 0 1-.146-1.503c.042-.605.124-1.207.244-1.802.089-.43.012-.84-.033-1.255-.067-.634-.338-1.208-.585-1.783a5.357 5.357 0 0 1-.492-2.059 1.077 1.077 0 0 0-.09-.532c-.265-.005-.45.175-.67.266-.538.224-1.053.5-1.577.754-.327.158-.66.312-.99.457-.575.253-1.139.531-1.707.796-.468.218-.94.434-1.396.679-.46.247-.953.426-1.422.659-.944.469-1.89.926-2.774 1.502a2.4 2.4 0 0 1-1.685.38c-.791-.1-1.588-.16-2.386-.18-.755-.03-1.511-.052-2.267-.088-1.23-.059-2.458-.13-3.688-.188-.863-.04-1.727-.062-2.59-.094-.238-.009-.471-.055-.713.017a.403.403 0 0 1-.488-.217c-.178-.325-.225-.689-.32-1.04a4.866 4.866 0 0 1 .27-3.324.896.896 0 0 0 .126-.353c.122-.099.156-.25.221-.382a.333.333 0 0 1 .323-.209c.608-.014 1.216-.038 1.825-.056.965-.03 1.931-.037 2.895-.093 1.124-.066 2.249-.078 3.373-.127.872-.038 1.748-.02 2.614-.164a.826.826 0 0 1 .17-.002c.343 0 .686-.018 1.028-.054.138 0 .276-.03.402-.087.883-.469 1.763-.943 2.646-1.41 1.484-.785 2.97-1.567 4.456-2.348.196-.103.389-.21.643-.347-.809-.072-1.541-.144-2.276-.203-.49-.039-.984-.05-1.474-.093-.785-.068-1.569-.147-2.355-.192-.688-.04-1.375-.102-2.064-.111-1.041-.014-2.08-.14-3.122-.104-.578.02-1.153-.052-1.734-.012-.364.03-.73.037-1.094.022-.217 0-.432.016-.646.049-.47.046-.938.12-1.408.137-.557.023-1.112.065-1.663.142-.542.076-1.089.078-1.632.146-.384.047-.775.087-1.166.102-.552.021-1.102.069-1.652.115-.162.013-.315-.033-.478-.02-.377.028-.758.037-1.136.028-.617-.015-1.233-.057-1.85-.073-.597-.016-1.194-.038-1.793-.03a15.864 15.864 0 0 0-2.5.192c-.95.165-1.91.262-2.869.356-.75.074-1.507.076-2.262.086-1.058.015-2.116.008-3.173.009-.725 0-1.45.007-2.173-.008-.315-.007-.65.078-.931-.158a.522.522 0 0 1-.584.11.483.483 0 0 0-.17-.004.245.245 0 0 1-.179-.086c.462-1.561.82-3.175 1.349-4.746.667-.145 1.317-.294 1.972-.426.697-.14 1.395-.289 2.1-.386.565-.078 1.117-.224 1.688-.285.403-.043.805-.16 1.21-.22.806-.12 1.615-.215 2.421-.333a87.256 87.256 0 0 0 3.358-.57c1.245-.231 2.488-.474 3.728-.728 1.252-.254 2.52-.409 3.784-.578 1.335-.178 2.673-.342 4.005-.538a28.606 28.606 0 0 0 3.305-.713c1.632-.443 3.258-.91 4.898-1.326a70.944 70.944 0 0 0 5.062-1.489c.839-.283 1.682-.561 2.467-.98a16.97 16.97 0 0 0 1.98-1.194 5.635 5.635 0 0 1 2.537-1.009c.899-.131 1.792-.298 2.688-.446.124-.024.251-.034.378-.028.186.012.25.136.247.323a2.069 2.069 0 0 1-.175.684c-.175.468-.29.955-.447 1.427-.265.85-.574 1.687-.926 2.505.16.052.218-.069.294-.143.237-.234.466-.477.707-.708a22.246 22.246 0 0 1 2.665-2.178c.016-.181-.044-.366.022-.546.152-.02.306-.013.454.024-.105.943-.022 1.882.08 2.837l.7-.088a.926.926 0 0 1 .113.497c-.175.091-.368.036-.545.083-.295.078-.495.28-.475.585.04.602.258 1.12.822 1.422a.29.29 0 0 1 .168.193c.047.178.1.354.146.532.077.302.154.602.4.825.084.097.12.227.097.354-.009.32-.023.642-.018.963.01.696.032 1.392.05 2.088.015.512.036 1.025.046 1.537 0 .115.047.225.128.306.555.608 1.216.996 2.063 1.029.207-.014.415 0 .619.038.115.034.192-.061.291-.078.654-.11 1.174-.49 1.715-.831.222-.149.43-.316.624-.5l-.233-2.265a3.6 3.6 0 0 1-1.153-.1 1.926 1.926 0 0 1-.017-.595c.142-.097.282-.03.415-.025.554.02 1.064-.073 1.503-.45.189-.15.346-.336.464-.547.424-.813.749-1.674.965-2.564a3.55 3.55 0 0 0 .027-1.425c-.138-.786-.128-1.575-.132-2.364 0-.355-.053-.708-.16-1.046a.726.726 0 0 1-.032-.404c.171-.703.007-1.34-.366-1.943-.331-.535-.486-.678-1.098-.76-.49-.066-.965-.205-1.459-.248-1.065-.091-2.129-.202-3.199-.048-.889.127-1.494.605-1.846 1.42a3.548 3.548 0 0 0-.247.68c-.172.035-.35.029-.52-.017.047-.35.17-.686.358-.985.312-.548.82-.957 1.42-1.146a9.378 9.378 0 0 1 2.276-.52c.772-.064 1.55-.122 2.304.013.564.1 1.03-.063 1.517-.245.895-.336 1.807-.308 2.726-.136.247.054.497.095.749.121.579.042 1.078-.163 1.557-.458.634-.39 1.107-.955 1.612-1.48.492-.51.949-1.053 1.424-1.58.247-.273.473-.295.787-.09.738.49 1.502.937 2.289 1.343.388.197.803.342 1.205.515.325.14.657.276.987.381.413.131.836.24 1.255.36a8.27 8.27 0 0 1 2.751 1.376c.4.304.796.622 1.303.757.277.075.56.126.845.152.583.049 1.169.065 1.752.11.401.033.797.116 1.176.249 1.136.397 2.14 1.037 3.166 1.726.1-.459.126-.918.183-1.393-.301-.11-.596-.237-.901-.325-.621-.18-1.199-.459-1.786-.72-.819-.364-1.628-.754-2.475-1.05a8.627 8.627 0 0 0-1.71-.383c-.8-.108-1.6-.211-2.353-.526-.593-.248-1.179-.512-1.775-.749-.438-.174-.884-.323-1.32-.502-.69-.283-1.393-.534-2.056-.883-.468-.246-.942-.48-1.398-.747-.5-.295-1.032-.544-1.504-.877-.618-.436-1.298-.77-1.912-1.215-.683-.496-1.391-.963-2.081-1.453a18.284 18.284 0 0 1-2.324-1.977c-.365-.363-.665-.78-.99-1.177-.268-.327-.512-.672-.793-1.02-.288.279-.574.541-.843.82a24 24 0 0 1-1.575 1.489c-1.012.875-2.034 1.745-2.916 2.762-.174.2-.32.454-.59.566-.062.025-.059.09-.082.14a.604.604 0 0 1-.123.203c-.326.293-.555.668-.848.99-.601.658-1.189 1.33-1.881 1.898-.452.37-.912.73-1.381 1.079-.16.119-.256.308-.434.39-.203.095-.317.266-.46.418-.148.155-.331.276-.494.418-.465.402-.916.82-1.442 1.148-.403.25-.778.546-1.176.803a7.096 7.096 0 0 1-.668.348c-.04.02-.096.017-.129.044-.673.554-1.494.835-2.265 1.205-.161.078-.313.201-.516.162a.112.112 0 0 0-.088.037c-.18.225-.457.235-.699.328a9.117 9.117 0 0 0-.97.429c-.696.35-1.412.66-2.144.93-1.14.445-2.345.644-3.506 1.008a.533.533 0 0 1-.17.022.135.135 0 0 1-.13-.096.156.156 0 0 1 .048-.156.174.174 0 0 1 .06-.035c.464-.197.897-.47 1.39-.592.148-.037.218-.16.35-.208.325-.116.645-.25.959-.388.299-.131.643-.179.898-.418-.297-.71-.664-1.39-1.096-2.027a11.099 11.099 0 0 0-.817-1.059c-.023-.026-.06-.048-.068-.077-.117-.438-.539-.598-.82-.883a7.334 7.334 0 0 0-.957-.829c-.292-.208-.568-.44-.916-.586-.387-.162-.751-.368-1.166-.48A6.463 6.463 0 0 0 32 18.55c-.378-.008-.754.061-1.128.073-.399.011-.741.15-1.107.268-.446.146-.882.322-1.305.525a8.37 8.37 0 0 0-1.024.598c-.507.335-.997.692-1.495 1.038-.31.216-.619.433-.927.65-.235.167-.49.304-.758.408-.27.104-.532.129-.787-.038-.037-.025-.07-.071-.118-.057-.364.108-.618-.12-.875-.3-.336-.237-.646-.511-.975-.76a3.395 3.395 0 0 0-1.361-.589c-.762-.163-1.502-.039-2.224.22-.237.085-.463.238-.706.27-.363.047-.65.263-.988.348-.59.15-1.18.304-1.802.23a1.02 1.02 0 0 0-.27.038c-.11.018-.209.072-.334.02a.426.426 0 0 0-.3.04c-.457.18-.91.348-1.316.652-.51.381-1.019.775-1.615 1.034-.419.186-.858.324-1.308.41a.656.656 0 0 1-.24.007 7.647 7.647 0 0 1-1.23-.321c.04-.261.166-.502.355-.687.268-.295.46-.658.692-.986.413-.578.835-1.148 1.263-1.714.325-.43.64-.869.976-1.292.423-.53.878-1.032 1.313-1.552a37.298 37.298 0 0 1 2.747-2.901c.529-.51 1.046-1.038 1.605-1.513 1.023-.87 2.029-1.762 3.12-2.553.8-.579 1.585-1.18 2.408-1.725a45.466 45.466 0 0 1 4.197-2.511c1.11-.573 2.223-1.146 3.375-1.638 1.12-.48 2.25-.933 3.39-1.36.44-.164.891-.301 1.34-.441.733-.228 1.467-.455 2.204-.67 1.127-.33 2.28-.554 3.426-.81 1.575-.35 3.176-.532 4.775-.72C45.757.15 46.53.12 47.3.068 48.22.003 49.14-.003 50.063 0c1.229.006 2.459.018 3.683.125 1.135.1 2.27.217 3.397.373.886.122 1.766.292 2.642.48.597.127 1.2.225 1.794.37.682.164 1.353.367 2.033.54 1.166.31 2.315.678 3.443 1.106 1.152.424 2.295.872 3.414 1.385 1.455.666 2.888 1.373 4.268 2.18.556.326 1.127.623 1.667.976 1.348.881 2.704 1.75 3.963 2.76.671.54 1.362 1.055 2.018 1.613.954.813 1.866 1.673 2.771 2.539.04.038.082.075.153.139.02-.427.033-.807.055-1.186a.356.356 0 0 1 .153-.325c.183-.115.32-.075.336.14.016.24.014.482-.005.722a5.55 5.55 0 0 0 .106 1.732c.125.524.222 1.056.289 1.591 0 .058.011.115.032.168.352.624.507 1.32.706 1.995.143.483.47.825.759 1.203.028.036.06.07.096.1.256.186.327.539.16.81-.197-.114-.29-.346-.528-.466.016.266-.09.507-.091.733 0 .216-.026.427-.032.64-.013.412-.09.817-.11 1.228a.265.265 0 0 0 .044.187c.643.91 1.532 1.343 2.647 1.39.042-.171.055-.349.037-.525-.002-.742.072-1.483.04-2.226a1.478 1.478 0 0 0-.02-.272 1.46 1.46 0 0 1 .078-.836c.383-1.093.861-2.147 1.31-3.214.238-.567.46-1.155.512-1.778a5.5 5.5 0 0 0 .017-.917c-.034-.41-.056-.821-.104-1.23-.074-.623-.222-1.201-.674-1.684a3.473 3.473 0 0 1-.587-1.01c-.225-.516-.584-.93-.975-1.322a.24.24 0 0 0-.176-.087c-.164.046-.226.218-.297.368-.161.368-.29.748-.384 1.138-.29 1.05-.505 2.12-.645 3.2a.621.621 0 0 1-.19.421c-.132.123-.184.338-.255.518a.388.388 0 0 1-.415.287.418.418 0 0 1-.395-.324 3.54 3.54 0 0 1-.153-.596c-.1-.612-.243-1.216-.429-1.807a6.807 6.807 0 0 1-.045-.167c-.037-.143-.047-.277.13-.336.185-.061.342-.015.405.15.128.319.238.645.329.976.115.441.196.891.306 1.406.144-.352.321-.612.345-.957.037-.547.091-1.092.162-1.638.058-.44.074-.891.184-1.322.137-.54.228-1.097.582-1.564.38-.5.868-.553 1.261-.074.34.415.766.763 1.027 1.24a8.034 8.034 0 0 0 1.164 1.527c.192.21.278.496.36.773.118.429.181.87.19 1.315.01.277.081.543.08.82 0 .284.023.569.002.854a4.97 4.97 0 0 1-.24 1.1 17.73 17.73 0 0 1-.81 2.039c.017.457-.25.815-.424 1.205-.06.136-.124.27-.191.402-.088.17-.056.3.061.464.43.607.84 1.227 1.22 1.867.3.503.627.989.898 1.508.047.091.129.164.179.254.068.121.228.163.26.312a.925.925 0 0 0 .148.405 10.12 10.12 0 0 1-1.623-.51c-.507-.189-.97-.463-1.461-.716-.117.295-.047.581-.049.863 0 .072.056.115.129.144.139.054.269.134.41.18.415.138.821.296 1.226.463.47.193.978.26 1.469.383.111.028.224.054.33.079.26.352.41.749.584 1.135.184.407.405.797.596 1.2.437.924.813 1.872 1.182 2.824.216.555.446 1.105.627 1.673.221.698.495 1.386.635 2.1.1.508.255.99.402 1.48.011.067.013.136.005.203-.894.07-1.788.146-2.683.204-.391.025-.785.003-1.176.02-.632.026-1.264.012-1.895.013-.7.002-1.402.007-2.103-.02a.266.266 0 0 0-.256.13c-.212.294-.325.64-.493.956-.29.545-.598 1.078-.915 1.605-.395.655-.839 1.281-1.236 1.935-.15.247-.368.437-.511.687a12.33 12.33 0 0 1-.822 1.23c-.323.43-.646.866-.943 1.309-.343.513-.711 1.008-1.057 1.518-.18.266-.416.49-.576.77-.125.192-.253.383-.376.576a1.127 1.127 0 0 1-.272.305c-.168.126-.517.137-.67.001-.114-.104-.19-.233-.1-.396.049-.115.11-.225.184-.327.298-.332.551-.7.842-1.036.593-.683 1.047-1.475 1.69-2.116a.218.218 0 0 0 .045-.093c.061-.161.153-.31.27-.437.386-.497.79-.98 1.144-1.502.47-.69 1.048-1.307 1.42-2.064.105-.215.21-.43.313-.647.25-.527.529-1.044.738-1.587.144-.376.311-.74.485-1.1.282-.535.45-1.123.49-1.727.015-.41.054-.82.046-1.233-.01-.558.026-1.117.03-1.675.005-1.09 0-2.182 0-3.273-.38.093-.777.097-1.16.012a3.152 3.152 0 0 1-1.083-.487c-.323-.233-.518-.584-.84-.901 0 .395-.075.712-.093 1.042-.033.626-.163 1.244-.185 1.874-.036.983-.233 1.947-.35 2.92a5.02 5.02 0 0 1-.28 1.274c-.287.726-.624 1.417-1.136 2.02-.415.477-.864.923-1.344 1.334-.997.879-1.962 1.793-2.983 2.645-.159.132-.355.222-.493.368-.292.31-.626.571-.935.86-.309.29-.669.52-.957.849.175.336.158.702.184 1.052.028.381.033.775-.137 1.146-.185.404-.49.716-.759 1.056-.262.331-.548.64-.757 1.017-.135.246-.32.471-.446.728a.629.629 0 0 1-.29.248.864.864 0 0 1-.246.652c-.16.182-.289.387-.383.61-.105.19-.228.368-.369.533-.295.4-.636.76-.956 1.139a2.028 2.028 0 0 1-.812.605c-.718.286-1.426.142-2.115-.097a8.154 8.154 0 0 1-1.028-.477c-.338-.173-.642-.41-1.006-.532a.194.194 0 0 1-.079-.065c-.175-.219-.441-.298-.671-.432a2.244 2.244 0 0 0-.657-.271c.074.292.247.497.39.716a6.66 6.66 0 0 0 2.002 2.054c.7.443 1.435.752 2.28.788.46.018.92 0 1.376-.051.294-.032.328.006.285.323a.829.829 0 0 1-.16.048 10.94 10.94 0 0 1-1.758.091c-1.195-.073-2.22-.535-3.127-1.292a8.885 8.885 0 0 1-1.306-1.303c.037.385.097.686.153.989.072.288.108.585.107.882-.053.765-.112 1.53-.123 2.296-.005.32.004.64.008.96.008.555.306 1.004.57 1.455.605 1.04 1.309 2.017 1.993 3.006.3.433.625.853.851 1.326.18.378.403.735.518 1.152.084.302.228.593.306.905.14.555.247 1.113.332 1.68.127.848.182 1.706.164 2.564-.019.649 0 1.298.059 1.944.07.711.283 1.391.441 2.083.155.694.21 1.406.167 2.115-.024.44-.105.88.022 1.323.06.212.02.443-.005.727a3.365 3.365 0 0 1-.443-.463c-.293-.52-.245-1.084-.205-1.644a1.98 1.98 0 0 0 .015-.307c-.063-.753-.123-1.502-.338-2.236a9.882 9.882 0 0 1-.42-2.505c-.004-.166.093-.32.05-.47-.085-.297-.048-.594-.054-.891.007-.23 0-.46-.02-.688-.081-.576-.134-1.157-.252-1.73-.09-.518-.218-1.03-.38-1.53-.174-.488-.263-1.017-.622-1.427a.2.2 0 0 1-.015-.03c-.32-.54-.619-1.095-.968-1.616a62.715 62.715 0 0 1-1.078-1.674c-.26-.415-.479-.855-.724-1.297-.203.381-.111.814-.294 1.179-.016.032.023.086.025.131.008.231.185.384.275.577.212.456.398.922.58 1.39.292.714.453 1.474.474 2.244.007.657-.156 1.297-.142 1.959.013.663.017 1.317.216 1.96.414 1.335.412 2.709.34 4.084a39.771 39.771 0 0 0-.07 2.016c-.001.57-.015 1.138-.002 1.708.02.47.015.94-.014 1.409a3.2 3.2 0 0 0 0 .709c.058.377.005.748.034 1.121.03.373.001.757.03 1.128.047.615.05 1.232.094 1.847.064.927.025 1.857.062 2.787.016.71.082 1.418.197 2.12.123.686.346 1.352.456 2.044.035.222.133.433.092.666.236.34.133.738.16 1.103.022.479.014.958-.024 1.436-.05.951-.007 1.906-.062 2.859-.01.192-.072.3-.248.357a.54.54 0 0 0-.113.071zM47.225 42.687a17.075 17.075 0 0 1-1.122-2.04 14.718 14.718 0 0 1-.79-2.218c-.43.234-.823.448-1.216.66-.384.208-.767.42-1.154.621-.387.202-.807.334-1.152.612-.008.007-.022.007-.032.012l-2.002 1.069c-.344.183-.694.357-1.03.555-.327.191-.722.293-.93.654-.754.456-1.532.84-2.44.888-.742.04-1.487.043-2.229.107-.489.041-.982.045-1.473.063-.77.028-1.537.092-2.306.11-.263.007-.526.024-.788.036-.549.026-1.098.05-1.646.078-.454.022-.911.002-1.326.087-.559 1.464-.88 2.91-.069 4.383.374.054.789.01 1.203.018 1.22.024 2.44.038 3.66.052.886.01 1.772.008 2.658.03.575.013 1.15-.007 1.724.04.513.042 1.023.028 1.478-.272a.847.847 0 0 1 .128-.046c.39-.17.813-.294 1.161-.527.378-.24.769-.456 1.172-.648.806-.41 1.623-.797 2.425-1.213.814-.422 1.656-.787 2.458-1.233.461-.255.963-.437 1.423-.692.602-.333 1.236-.603 1.834-.942.126-.071.292-.08.381-.244zm27.546-2.654c.317-.048.502.141.688.36.208.228.436.438.68.628.326.275.762.45.922.9.007.02.025.047.042.05.276.05.405.277.567.49 1.845-1.423 3.562-2.968 5.299-4.528-.247-.108-.464-.031-.677-.036-1.29-.03-2.574.056-3.86.122a42.74 42.74 0 0 1-3.352.016 2.007 2.007 0 0 0-.486.014c-.039.338-.166.66-.072.992.091.322.05.679.25.992zm-6.734 28.498a1.569 1.569 0 0 0-.108-.463 5.277 5.277 0 0 1-.221-2.476c.068-.454.091-.91.145-1.365a4.54 4.54 0 0 0-.197-1.894c-.182-.588-.415-1.154-.636-1.755-.54.297-1.103.552-1.682.765-.578.222-1.187.348-1.767.526a.334.334 0 0 0 .015.22c.1.281.211.56.288.848.271.97.669 1.901 1.182 2.769a6.48 6.48 0 0 0 2.081 2.262c.288.186.541.428.9.563zm2.93-19.121c-.38-.774-.557-1.641-1.163-2.326-.038.165-.055.289-.073.413-.139.974-.064 1.94.067 2.908 0 .117.08.22.193.25.525.164 1.013.427 1.562.526.709.128 1.315-.024 1.803-.569a21.7 21.7 0 0 0 1.079-1.321c.594-.78 1.024-1.647 1.496-2.503-.431-.808-.849-1.619-1.439-2.315-.105.045-.173.087-.182.18a.587.587 0 0 1-.163.296c-.302.401-.603.804-.893 1.213a9.252 9.252 0 0 0-.938 1.713c-.215.501-.382 1.021-.69 1.49-.218.033-.439.048-.66.045zm-.371-19.264c.255-.009.454.044.635.034.66-.037 1.22.217 1.734.564a5.275 5.275 0 0 1 1.547 1.684c.117.195.211.404.33.592.386.618.626 1.315.704 2.039 1.05.337 2.687.186 3.15-.291-.946-.317-1.53-.79-2.056-1.667a15.42 15.42 0 0 1-1.097-2.368 5.198 5.198 0 0 0-.717-1.33c-.54-.692-1.233-1.052-2.134-.954-.319.051-.624.167-.896.341-.538.31-.959.786-1.2 1.356zm1.938 3.503a5.312 5.312 0 0 0-1.53-.694 4.548 4.548 0 0 0-1.847-.127 7.506 7.506 0 0 0-1.724.485.349.349 0 0 0-.262.273c-.067.314-.155.625-.197.941-.054.402-.127.806-.075 1.221.853-.25 1.638-.603 2.556-.58a6.44 6.44 0 0 1 2.588.644l.49-2.163zm-6.486.108c.49-.456 1.075-.753 1.667-1.025a4.28 4.28 0 0 1 1.876-.411c1.045.02 2.057.209 2.988.705.792.422 1.427 1.004 1.771 1.853.095.233.167.475.252.723a.582.582 0 0 0 .225-.661c-.184-.805-.404-1.594-.84-2.31-.363-.598-.81-1.112-1.43-1.454a2.97 2.97 0 0 0-2.324-.296c-.917.265-1.776.682-2.632 1.1-.764.37-1.333.923-1.553 1.776zm21.146-9.173c-.051.023-.048.07-.053.115-.067.672-.137 1.343-.202 2.015a.59.59 0 0 0 .055.37c.342.575.706 1.128 1.316 1.47.429.239.864.341 1.345.172.267-.094.27-.083.271-.38.002-.365 0-.729.011-1.093.014-.454.025-.908.001-1.343a.43.43 0 0 0-.283-.086 3.409 3.409 0 0 1-1.688-.55c-.258-.162-.537-.317-.661-.628a.11.11 0 0 0-.112-.062zM76.222 46.42c.11-.152.185-.277.277-.388.34-.408.705-.794.877-1.325.165-.436.091-.926-.193-1.295-.136-.188-.325-.324-.47-.497-.402-.475-.938-.807-1.348-1.272a.173.173 0 0 0-.182-.082c.1.853-.056 1.717-.45 2.48.675.697 1.106 1.502 1.489 2.379zm-6.842 3.9c-.028-.432-.068-.785-.07-1.14a12.76 12.76 0 0 1 .187-2.122c.032-.203.061-.388-.125-.565a15.793 15.793 0 0 0-1.35-1.121.399.399 0 0 0-.288-.135 79.665 79.665 0 0 1-.223 3.653c.282.112.527.3.71.544.274.387.697.613 1.16.886zm-44.135-6.337c-.206 0-.367-.008-.527.003-.172.011-.343.06-.514.059-.71-.005-.555-.067-.785.595a4.645 4.645 0 0 0-.194 2.44c.083.432.278.82.43 1.259h1.292c-.7-1.491-.386-2.913.298-4.355zm47.196-7.974c.031.042.067.08.107.115.419.302.853.582 1.301.838.198.114.367.218.406.484a.758.758 0 0 0-.01-.413c-.11-.617-.26-1.226-.45-1.824a3.13 3.13 0 0 0-.814-1.206c-.065-.065-.132-.16-.254-.15-.106.715-.23 1.424-.286 2.156zm-5.528-2.425a4.875 4.875 0 0 0-.419.276c-.282.233-.583.46-.607.872-.018.304-.139.59-.148.896-.01.307-.041.61.07.934.211-.168.404-.326.6-.478.087-.067.08-.16.095-.249.053-.293.119-.584.153-.879.052-.442.184-.87.256-1.372z"/>
        <path fill="#333" d="M14.989 85.276a24.82 24.82 0 0 0-1.677-.008c-1.01.02-2.021-.012-3.032-.019-.355-.002-.711.01-1.067.005-.868-.012-1.737-.01-2.604-.056a1.748 1.748 0 0 1-1.257-.644c-.532-.62-.722-1.375-.882-2.142a10.607 10.607 0 0 1-.19-1.11c-.064-.633-.26-1.242-.317-1.879-.024-.258-.11-.535-.15-.796-.096-.627-.268-1.24-.319-1.875a6.719 6.719 0 0 0-.25-1.313c-.105-.369-.136-.76-.22-1.138-.068-.298-.105-.603-.158-.905-.093-.524-.22-1.044-.27-1.572-.034-.36-.116-.71-.169-1.063a8.546 8.546 0 0 0-.21-1.059 6.752 6.752 0 0 1-.19-1.105c-.049-.456-.123-.908-.222-1.355-.15-.685-.273-1.377-.402-2.067-.125-.67-.266-1.338-.357-2.012-.06-.448-.14-.894-.21-1.34-.056-.367-.156-.731-.21-1.103-.055-.373-.116-.745-.163-1.12a2.069 2.069 0 0 0-.063-.3 13.354 13.354 0 0 1-.4-2.496.488.488 0 0 1 .116-.036 59.364 59.364 0 0 0 2.63-.085c.046-.002.104-.016.137.005.26.174.528.048.795.032.648-.04 1.296.006 1.944.014.351.004.707.069 1.051.016.443-.07.878-.025 1.317-.005.07.003.139.002.208-.003.705-.047 1.41-.013 2.116.003.664.015 1.328 0 1.993-.002a.397.397 0 0 1 .137.003c.518.205 1.035-.062 1.553.001.455.055.912 0 1.373.043.358.049.722.054 1.082.016.505-.076 1 .002 1.498-.011.456-.013.912-.037 1.367-.018.55.022 1.098-.002 1.648.022.35.016.703.008 1.052-.024a.475.475 0 0 1 .207-.002c.538.218 1.083-.04 1.623.03.409.052.825-.042 1.231.06.068.01.137.001.2-.024a.662.662 0 0 1 .472.017.378.378 0 0 0 .272.016c.407-.125.823-.046 1.233-.056.664-.016 1.33.01 1.994.015.375.003.752.032 1.124.021.47-.013.94-.007 1.41-.021.07-.003.16-.028.204.005.258.196.527.06.791.042.35-.023.697-.072 1.05 0 .185.039.379-.033.573-.033.311 0 .625.154.934-.004.537.19 1.08-.028 1.627.032.609.068 1.23.009 1.847.009.94 0 1.88.003 2.82.004.516.191 1.035-.035 1.553.014.489.046.985-.07 1.471.058.414-.124.831.022 1.257-.033a4.334 4.334 0 0 1 1.666.105c.4.093.737.363.916.732.064.132.153.256.053.418a.176.176 0 0 0 .077.242c.142.077.167.205.198.34.168.736.384 1.464.496 2.208.114.757.28 1.504.391 2.261.063.426.122.856.183 1.281.072.502.232.983.28 1.49.047.507.216 1.005.263 1.513.072.774.274 1.522.399 2.285.106.652.237 1.303.343 1.955.067.414.087.847.186 1.25.105.435.125.879.239 1.31.112.37.184.753.215 1.14.025.528.21 1.017.265 1.53.071.671.275 1.317.337 1.99.03.316.133.628.146.944.014.312.138.6.153.902.023.5.207.967.258 1.462.058.497.143.991.255 1.48.12.55.19 1.108.3 1.679-.284.075-.557.016-.825.025-1.215.04-2.431.036-3.647-.001-.355-.011-.712 0-1.068.012-.265.009-.518-.117-.787-.06a.525.525 0 0 0-.2.048c-.446-.008-.892-.018-1.339-.023-.397-.004-.795.02-1.19-.012-.17-.019-.34-.02-.51-.003-.158.03-.32.03-.478-.001a1.965 1.965 0 0 0-.675-.023c-.636.035-1.275.023-1.912.052-.746.035-1.49-.068-2.238-.026-.248.027-.499.027-.747 0a1.748 1.748 0 0 0-.404-.055c-.792.062-1.585.006-2.377.013-.668.006-1.337-.025-2.005-.02-.206.002-.408.033-.616.026-.549-.016-1.1-.013-1.649.002-.575.016-1.146-.042-1.721-.032a6.797 6.797 0 0 1-1.222-.032c-.322-.051-.682-.004-1.026 0-.87.013-1.74-.01-2.61-.016-.395-.002-.798-.07-1.186-.023-.631.075-1.258-.008-1.886.028-.563.032-1.135-.055-1.69-.013-.69.051-1.375-.12-2.06.008-.011 0-.023-.001-.034-.004-.81-.09-1.625-.023-2.438-.036zm29.151-10.65c.231.007.462-.007.69-.043.773-.097 1.094-.883 1.049-1.415-.055-.5-.14-.997-.251-1.488-.23-1.131-.421-2.27-.638-3.403-.148-.775-.258-1.556-.439-2.325-.074-.316-.234-.602-.548-.7-.778-.242-1.54-.15-2.194.34-.354.266-.623.622-.512 1.149.047.219.098.443.128.67.074.566.175 1.129.265 1.692.073.46.182.92.268 1.38.178.957.324 1.92.527 2.87.104.48.285.955.856 1.103a.288.288 0 0 1 .142.092c.072.077.18.108.283.08.103-.008.207-.002.374-.002z"/>
        <path fill="#D0B858" d="M1.432 39.085a.483.483 0 0 1 .17.003.522.522 0 0 0 .584-.109c.28.235.616.151.93.158.725.015 1.45.008 2.174.008 1.057-.001 2.115.005 3.173-.01.754-.01 1.512-.012 2.262-.085.958-.094 1.918-.191 2.869-.356.827-.13 1.663-.194 2.5-.193.599-.008 1.196.015 1.793.03.617.016 1.234.06 1.85.074.379.008.758 0 1.136-.029.163-.013.316.034.478.02.55-.046 1.1-.093 1.652-.114.39-.015.782-.055 1.166-.103.543-.067 1.09-.069 1.632-.145.551-.077 1.106-.12 1.663-.142.47-.019.939-.091 1.408-.137.214-.033.43-.05.645-.05.365.015.73.008 1.095-.021.581-.04 1.156.032 1.734.012 1.043-.036 2.08.09 3.122.103.688.01 1.376.072 2.064.111.786.046 1.57.126 2.354.193.491.042.985.054 1.475.093.734.059 1.466.13 2.275.203-.253.138-.447.244-.642.347l-4.456 2.348c-.884.467-1.763.941-2.646 1.41a.965.965 0 0 1-.403.087 9.939 9.939 0 0 1-1.027.054.826.826 0 0 0-.17.002c-.866.144-1.742.126-2.614.164-1.124.048-2.25.06-3.373.126-.964.057-1.93.064-2.895.094-.608.018-1.217.042-1.825.056a.333.333 0 0 0-.323.209c-.065.131-.099.283-.221.382l-.84.027c.019-.135.02-.266-.169-.258-.339.013-.516-.21-.681-.45a8.383 8.383 0 0 0-.562-.823 2.236 2.236 0 0 1-.53-1.281 6.425 6.425 0 0 1-.002-.928c.006-.179-.026-.319-.212-.383l-.138-.109c-.189-.287-.252-.302-.508-.117-.074.054-.151.104-.221.163-.455.382-.721.856-.72 1.461 0 .23.01.46.003.69-.006.23-.053.267-.272.328-.421.117-.845.075-1.267.027a.467.467 0 0 0-.39.08c-.5.425-1.044.796-1.51 1.264a1.28 1.28 0 0 0-.375.995c.01.394.152.769.184 1.153.068.807.368 1.538.673 2.267a1.88 1.88 0 0 0 1.103 1.083c.142.047.28.105.415.173.371.206.776.344 1.196.409a2.055 2.055 0 0 0 1.448-.29c.177-.108.301-.308.508-.342.28-.047.541-.162.843-.139.397.03.796-.049 1.2-.099l-.016-.191.764.007a.403.403 0 0 0 .488.218c.242-.073.475-.026.713-.017.863.032 1.727.054 2.59.094 1.23.056 2.459.128 3.688.187.756.036 1.512.06 2.268.09.797.018 1.594.079 2.385.18a2.4 2.4 0 0 0 1.685-.381c.885-.577 1.83-1.034 2.774-1.502.469-.234.962-.413 1.422-.66.456-.245.928-.46 1.396-.678.569-.265 1.132-.543 1.707-.796.33-.145.663-.3.99-.458.525-.254 1.039-.53 1.578-.754.22-.091.404-.271.67-.266.074.167.105.35.09.533.025.712.192 1.412.491 2.058.247.575.518 1.15.586 1.784.044.415.12.824.032 1.254-.12.595-.202 1.197-.244 1.803-.016.505.033 1.01.146 1.502.063.337.163.668.162 1.016a.648.648 0 0 1-.075.366c-.178.069-.364.015-.546.033-.65.064-1.3-.029-1.956.038-.588.059-1.19-.045-1.786-.035-.402.007-.81-.117-1.21.034a.158.158 0 0 1-.1-.005c-.41-.15-.846.079-1.255-.08-.61.077-1.219-.038-1.825-.007-.798.041-1.594-.028-2.39-.007-.707.018-1.414.037-2.12.05-.609.01-1.213-.084-1.822-.063a1.602 1.602 0 0 0-.172-.01c-.465.07-.932-.026-1.392 0-.704.038-1.405-.029-2.109 0-.47.02-.947-.006-1.422-.01a6.657 6.657 0 0 0-1.047.014 1.01 1.01 0 0 1-.308-.016 2.504 2.504 0 0 0-.651-.017c-.64.073-1.288.07-1.927-.013a1.298 1.298 0 0 0-.413 0c-.383.074-.775-.1-1.153.053a.102.102 0 0 1-.068.003c-.411-.16-.846.084-1.257-.074-.63.075-1.257-.021-1.886-.013-.682.008-1.365-.016-2.047.002-.65.018-1.299-.03-1.95.037a5.103 5.103 0 0 1-1.204-.037c-.25-.035-.496.017-.744-.03-.402-.079-.812.13-1.216-.018-.3.132-.609-.032-.919.035-.215.046-.447-.057-.678-.038-.4.034-.804.02-1.205.03-.337.008-.684-.033-1.027-.027-.482.007-.963-.02-1.446.016-.316.024-.637-.049-.96-.02-.616.043-1.234.037-1.849-.02a2.323 2.323 0 0 0-.781.027c-.373-.174-.77.143-1.141-.058-.81.058-1.535.296-2.073.946-.044.052-.096.098-.144.147-.09-.924-.186-1.846-.228-2.775a57.093 57.093 0 0 1-.04-3.437c.008-.618.058-1.236.1-1.854.03-.469.075-.938.101-1.407.03-.548.113-1.094.169-1.64.09-.88.277-1.741.387-2.616.046-.375.134-.745.21-1.116a.467.467 0 0 1 .093-.22c.235-.252.265-.574.332-.885zM83.6 47.772c.16-.28.396-.505.576-.77.346-.51.714-1.006 1.057-1.519.297-.442.62-.878.943-1.308.298-.394.573-.804.822-1.23.144-.25.36-.44.51-.688.398-.654.842-1.28 1.237-1.935.317-.527.626-1.06.915-1.605.168-.315.28-.661.493-.956a.266.266 0 0 1 .256-.13c.7.027 1.403.022 2.103.02.631-.001 1.263.013 1.895-.013.391-.016.785.006 1.176-.02.895-.058 1.789-.134 2.683-.203.145.275.253.568.32.872.242 1.063.495 2.123.659 3.201.165 1.088.348 2.173.464 3.268.046.433.093.866.102 1.304.014.688.122 1.37.128 2.059.006.64.094 1.28.047 1.921-.065.893-.004 1.79-.066 2.681-.04.56-.073 1.12-.159 1.676-.066.429-.028.871-.1 1.304-.131.78-.17 1.572-.327 2.35-.172.852-.282 1.718-.47 2.566a54.96 54.96 0 0 1-.961 3.694c-.173.581-.34 1.166-.546 1.736-.48 1.336-.939 2.681-1.53 3.975-.491 1.075-.964 2.16-1.53 3.198-.369.676-.715 1.365-1.105 2.027-.253.43-.475.89-.814 1.268.087-.708-.08-1.405-.103-2.11-.03-.983-.032-1.968-.154-2.949-.052-.418-.046-.85-.14-1.26-.096-.422-.035-.85-.158-1.275-.195-.676-.369-1.36-.572-2.034-.132-.437-.285-.87-.442-1.3-.173-.47-.355-.937-.547-1.401-.156-.38-.353-.742-.52-1.114-.22-.49-.466-.97-.736-1.434-.425-.731-.823-1.478-1.256-2.206-.415-.697-.835-1.395-1.21-2.117-.373-.717-.807-1.402-1.151-2.137a10.472 10.472 0 0 1-.644-1.81c-.21-.834-.322-1.69-.333-2.55-.016-.677-.013-1.354-.032-2.03-.004-.132.028-.31-.173-.382a.545.545 0 0 0-.21.45 1.9 1.9 0 0 1-.056.646c-.108-.578-.184-1.162-.341-1.73zM14.989 85.276c.813.013 1.628-.053 2.441.037a.125.125 0 0 0 .035.004c.684-.127 1.369.043 2.059-.008.555-.041 1.127.046 1.69.013.628-.036 1.255.047 1.886-.028.387-.046.791.02 1.185.024.87.006 1.741.028 2.612.016.343-.005.703-.053 1.025 0 .405.047.814.058 1.222.032.575-.01 1.147.047 1.722.031.55-.015 1.1-.018 1.648-.001.208.006.41-.025.616-.026.668-.005 1.337.026 2.005.02.792-.008 1.585.05 2.377-.014.136.003.272.021.404.055.248.027.5.027.748 0 .747-.042 1.49.061 2.237.027.637-.03 1.276-.017 1.912-.052.225-.032.453-.024.675.022.158.031.32.031.478.001.17-.016.34-.015.51.003.395.032.793.009 1.19.013.447.004.893.015 1.34.022.01.268-.021.535-.091.794-.295.02-.3.02-.347.263-.096.495-.158.996-.184 1.5-.035.674-.023 1.354-.105 2.023a18.982 18.982 0 0 0-.064 3.945c.094 1.096.181 2.193.22 3.292.016.664.083 1.325.201 1.979-.06.02-.069.044-.066.12.01.319-.184.528-.5.517a22.324 22.324 0 0 1-1.307-.093c-.963-.089-1.917-.245-2.87-.397a38.95 38.95 0 0 1-2.135-.395 64.63 64.63 0 0 1-2.815-.674 45.067 45.067 0 0 1-3.52-1.101 55.64 55.64 0 0 1-3.462-1.375 51.367 51.367 0 0 1-3.231-1.546c-1-.517-1.963-1.099-2.927-1.68-.6-.363-1.18-.754-1.77-1.13-.347-.22-.685-.46-1.017-.707a.616.616 0 0 1-.294-.368c-.02-.11-.134-.152-.219-.21a26.468 26.468 0 0 1-4.237-3.593c-.428-.449-.852-.903-1.277-1.355z"/>
        <path fill="#333" d="M83.94 49.502a1.9 1.9 0 0 0 .057-.647.545.545 0 0 1 .21-.449c.201.072.169.25.173.381.02.677.016 1.354.032 2.03.011.86.123 1.717.332 2.55.16.623.375 1.229.644 1.811.345.734.779 1.419 1.152 2.138.375.721.794 1.42 1.21 2.116.433.728.83 1.475 1.256 2.206.27.465.516.943.736 1.434.167.372.364.735.52 1.114.19.463.373.93.546 1.401.158.43.31.863.443 1.3.203.674.376 1.358.572 2.034.122.425.062.854.158 1.275.094.41.088.842.14 1.26.121.98.124 1.966.154 2.949.022.704.19 1.402.102 2.11-.188.475-.507.874-.787 1.292-.44.657-.904 1.298-1.365 1.94-.402.56-.833 1.098-1.267 1.633a115.49 115.49 0 0 1-1.453 1.746c-.713.844-1.495 1.622-2.273 2.404a36.495 36.495 0 0 1-1.924 1.829c-.893.775-1.773 1.568-2.722 2.275-1.041.775-2.073 1.567-3.171 2.265-.727.461-1.462.912-2.195 1.362a1.3 1.3 0 0 1-.41.18 17.564 17.564 0 0 0-.112-.02l-.02-.014a.452.452 0 0 0-.025-.1 11.217 11.217 0 0 1-1.034-2.796c-.135-.627-.31-1.247-.416-1.878-.203-1.207-.373-2.42-.548-3.631-.051-.35-.073-.705-.113-1.057a29.51 29.51 0 0 1-.166-2.053c-.029-.661-.024-1.326-.045-1.987-.025-.78.05-1.557.023-2.335a.404.404 0 0 1 .159-.393c.187.027.22.147.237.318.038.383-.004.776.107 1.155.342-.007.573-.111.716-.442.216-.495.498-.959.84-1.377.694-.855 1.608-1.383 2.647-1.708.415-.13.854-.167 1.278-.26.773-.168 1.555-.15 2.334-.197.57-.034 1.145-.01 1.716-.039.55-.028 1.1-.088 1.648-.141a7.66 7.66 0 0 0 1.605-.373 9.906 9.906 0 0 0 2.13-1.037 10.284 10.284 0 0 0 1.613-1.221A12.33 12.33 0 0 0 90.88 70.1c.048-.065.107-.124.091-.214-.088-.495-.125-1.006-.277-1.481-.276-.868-.533-1.745-.86-2.597-.27-.703-.513-1.416-.84-2.095-.412-.853-.89-1.67-1.346-2.5-.51-.93-1.064-1.834-1.555-2.773-.318-.608-.648-1.208-.922-1.839a15.96 15.96 0 0 1-.799-2.184c-.287-1.062-.376-2.143-.431-3.23-.03-.56-.001-1.123 0-1.685z"/>
        <path fill="#D0B858" d="M72.512 77.177a.404.404 0 0 0-.159.394c.027.778-.047 1.554-.023 2.335.02.66.016 1.325.044 1.987.03.686.09 1.37.167 2.053.04.351.062.706.112 1.056.175 1.212.346 2.425.549 3.632.106.631.28 1.25.416 1.877.219.974.567 1.915 1.034 2.797.012.032.02.065.025.1l-.26.014c-.136.454-.563.599-.931.794-.73.388-1.47.755-2.216 1.11-.306.129-.619.243-.937.34a.65.65 0 0 1-.135.025c-.38.047-.413.026-.529-.351a.544.544 0 0 1 .114-.072c.176-.057.237-.165.248-.357.055-.953.012-1.907.062-2.86.038-.477.046-.956.024-1.434-.027-.366.076-.765-.16-1.104.041-.233-.057-.444-.092-.666-.11-.692-.333-1.358-.457-2.045-.114-.7-.18-1.409-.196-2.12-.037-.928.002-1.859-.063-2.785-.043-.616-.046-1.232-.094-1.848-.028-.37 0-.754-.029-1.128-.03-.373.024-.744-.034-1.12a3.2 3.2 0 0 1 0-.71c.029-.469.033-.939.014-1.408-.013-.57 0-1.14.002-1.709.002-.672.033-1.344.069-2.016.073-1.375.075-2.749-.339-4.084-.199-.642-.203-1.296-.216-1.96-.014-.661.15-1.302.142-1.959a6.374 6.374 0 0 0-.475-2.243 22.52 22.52 0 0 0-.58-1.39c-.09-.194-.266-.347-.275-.578-.001-.044-.04-.1-.024-.13.183-.366.091-.798.294-1.18.245.443.465.883.724 1.298.352.562.708 1.122 1.078 1.673.349.521.647 1.075.968 1.616a.2.2 0 0 0 .015.03c.359.41.448.939.623 1.427.161.5.288 1.012.379 1.53.118.573.17 1.154.253 1.73.02.229.026.459.019.688.006.297-.03.594.054.89.043.152-.054.306-.05.47.032.85.173 1.692.42 2.506.214.735.275 1.483.338 2.236a1.98 1.98 0 0 1-.015.307c-.04.56-.088 1.124.205 1.644-.109.222-.09.463-.103.698zM55.286 85.304c.749-.331 1.132-1.095 1.022-1.906a21.657 21.657 0 0 0-.243-1.42c-.08-.393.008-.783.102-1.156.112-.447.138-.906.244-1.352.123-.52.142-1.059.256-1.583.06-.275.052-.57.105-.845.054-.277.121-.554.18-.832.118-.56.208-1.125.305-1.688.098-.575.183-1.153.304-1.724.035-.165-.017-.346.09-.497.148.249.253.52.313.804-.133.08-.129.196-.104.33.117.633.235 1.264.324 1.9.092.66.187 1.317.253 1.98.09.913.098 1.83.15 2.744.04.685.132 1.37.23 2.051.078.532.22 1.057.196 1.604-.013.265.131.505.178.765.106.583.243 1.162.377 1.74.101.434.237.861.321 1.298.107.564.157 1.137.148 1.71a13.655 13.655 0 0 0 .393 3.465c.21.893.35 1.8.415 2.715.05.604.18 1.197.263 1.797.046.329.101.656.144.985.012.098.034.179.133.219-.152.133-.355.201-.463.394-.051.091-.177.107-.274.126-1.054.207-2.104.43-3.17.576-.406.056-.813.075-1.22.114a1.16 1.16 0 0 1-.532-.117 3.18 3.18 0 0 0 .048-1.025 14.84 14.84 0 0 0-.116-1.09c-.096-.656-.139-1.317-.215-1.975-.113-1.07-.101-2.15.036-3.218.099-.726.15-1.458.155-2.19-.012-.963-.08-1.924-.128-2.886-.011-.218-.05-.434-.063-.651-.008-.134-.08-.178-.197-.188.083-.318.097-.65.04-.974z"/>
        <path fill="#333" d="M55.246 86.28c.117.008.19.053.198.187.014.218.052.434.063.651.048.962.115 1.924.128 2.886a17.024 17.024 0 0 1-.156 2.19 13.867 13.867 0 0 0-.036 3.219c.077.657.12 1.318.216 1.974.053.362.09.726.116 1.09.04.342.023.688-.048 1.025-.059.036-.12.067-.183.093-.284.094-.439-.011-.455-.313-.018-.33-.024-.66-.044-.99-.053-.87-.215-1.727-.3-2.593a15.63 15.63 0 0 1-.007-2.979c.076-.832.166-1.665.186-2.502.027-1.134.077-2.267.13-3.399.008-.189-.061-.428.192-.54zM46.636 99.263a12.864 12.864 0 0 1-.201-1.98c-.04-1.099-.126-2.195-.22-3.292a18.982 18.982 0 0 1 .064-3.945c.082-.668.07-1.348.105-2.023.026-.504.087-1.005.183-1.5.047-.243.053-.242.347-.263.082.1.12.227.105.355-.057.882.038 1.765-.02 2.647-.05.788-.115 1.576-.177 2.364a12.99 12.99 0 0 0 .01 2.365c.16 1.538.28 3.078.325 4.624.006.204.055.407.081.61.019.125.03.251.035.377.005.389-.086.456-.486.357a2.713 2.713 0 0 1-.151-.697zM89.3 18.257l-.349.387a4.437 4.437 0 0 1-.845-1.202c.135-.08.286-.129.441-.146.19.364.445.69.753.961z"/>
        <path fill="#D0B858" d="M74.697 93.422l.113.019c-.049.058-.082.03-.113-.019zM74.772 40.034c-.2-.313-.159-.67-.25-.992-.093-.332.034-.654.072-.992.161-.025.325-.03.487-.014a42.74 42.74 0 0 0 3.351-.016c1.286-.066 2.571-.151 3.86-.122.213.005.43-.072.678.036-1.737 1.56-3.454 3.105-5.3 4.529-.16-.214-.29-.44-.566-.491-.017-.003-.035-.03-.042-.05-.16-.449-.596-.624-.923-.9-.244-.19-.47-.4-.68-.628-.186-.219-.37-.408-.688-.36z"/>
        <path fill="#333" d="M19.907 39.673a1.832 1.832 0 0 0-.768.811c-.112.24-.145.508-.093.767.047.249.04.505.07.754.056.454-.274.803-.776.944-.36.102-.729.06-1.09.003a.69.69 0 0 0-.521.103c-.25.162-.534.274-.78.442-.267.172-.5.394-.685.653-.194.29-.142.612-.09.933.052.328.13.651.176.981.072.514.297.983.508 1.452.107.238.192.488.383.688.237.267.568.433.923.464.295.027.585.11.879.157.51.086 1.034-.03 1.46-.323.3-.196.635-.354 1.025-.325.387.03.777.022 1.163-.026a.458.458 0 0 1 .362.053l.147.383.016.19c-.404.05-.802.13-1.2.1-.301-.023-.563.092-.843.139-.206.034-.33.234-.508.342-.43.273-.946.376-1.448.29a3.597 3.597 0 0 1-1.196-.41 3.04 3.04 0 0 0-.415-.172 1.88 1.88 0 0 1-1.103-1.083c-.304-.73-.605-1.46-.672-2.267-.032-.385-.175-.76-.184-1.154a1.28 1.28 0 0 1 .375-.994c.466-.468 1.01-.839 1.508-1.265a.467.467 0 0 1 .39-.08c.423.05.847.091 1.268-.026.22-.062.266-.1.273-.328.006-.228-.003-.46-.004-.69-.001-.605.266-1.08.72-1.461.07-.059.148-.109.222-.163.256-.184.32-.17.508.118z"/>
        <path fill="#333" d="M22.202 43.905a.6.6 0 0 0-.05.09c-.11.3-.24.368-.538.266a1.335 1.335 0 0 1-.77-.65c-.23-.446-.523-.858-.706-1.326a3.084 3.084 0 0 1-.192-1.369c.021-.289-.014-.586.022-.88a.394.394 0 0 1 .077-.255c.186.065.218.205.212.384-.022.309-.021.619.002.928.036.472.222.921.53 1.281.203.263.39.538.561.822.166.241.343.464.682.45.189-.007.188.124.17.259zM50.749 40.591c1.917.104 3.654.6 5.07 1.957a1.5 1.5 0 0 1-.444.285c-.386-.256-.76-.52-1.15-.759a4.496 4.496 0 0 0-.904-.42c-.877-.3-1.77-.483-2.709-.376-.575.066-.672-.051-.497-.535.391-1.076.808-2.142 1.384-3.138.417-.712.882-1.396 1.39-2.046a.608.608 0 0 1 .094-.077c.189.065.37.15.539.255a21.046 21.046 0 0 0-2.773 4.854z"/>
        <path fill="#333" d="M53.76 45.364l-.387-.36c.28-.323.607-.6.971-.824.863-.57 1.747-1.11 2.593-1.703 1.093-.765 2.113-1.618 2.962-2.658.778-.955 1.175-2.034 1.12-3.272-.017-.398-.002-.797-.002-1.267.167.194.277.431.317.684a5.31 5.31 0 0 1 .02 1.98c-.067.29-.158.574-.272.848-.15.38-.341.741-.572 1.078a8.7 8.7 0 0 1-.898 1.083 12.186 12.186 0 0 1-1.698 1.501c-.547.404-1.088.814-1.658 1.188-.843.552-1.71 1.076-2.496 1.722z"/>
        <path fill="#333" d="M61.079 34.332a5.431 5.431 0 0 1 1.364 1.82c.398.873.41 1.776.18 2.692a7.306 7.306 0 0 1-1.026 2.2c-.28.43-.546.871-.875 1.3a1.479 1.479 0 0 1-.317-.298c.104-.126.202-.249.304-.368a7.158 7.158 0 0 0 1.382-2.276c.323-.919.439-1.843.087-2.783-.199-.532-.464-1.037-.882-1.419-.28-.257-.285-.514-.217-.868zM43.906 67.131c-.009.439-.383.956-.943.938a.94.94 0 0 1-.88-.89c-.006-.496.397-.93.855-.94.543-.01.971.386.968.892zm-.879-.208a.247.247 0 0 0-.239.208c0 .12.093.219.213.227.108-.008.206-.056.21-.182a.241.241 0 0 0-.184-.253z"/>
    </g>
</svg>
