<svg xmlns="http://www.w3.org/2000/svg" width="24" height="24" viewBox="0 0 24 24">
    <path fill="#242635" fill-rule="evenodd" d="M20.667 0a6.864 6.864 0 0 0 2.5 3 6.864 6.864 0 0 0-2.5 3 6.878 6.878 0 0 0-2.5-3 6.878 6.878 0 0 0 2.5-3zm0 16A9.164 9.164 0 0 0 24 20a9.164 9.164 0 0 0-3.333 4 9.16 9.16 0 0 0-3.334-4 9.16 9.16 0 0 0 3.334-4zM12.33 4.31c-.19.37-.4.73-.62 1.09-.16.27-.33.53-.5.8 1.52 2.16 3.35 4.11 5.42 5.8A29.484 29.484 0 0 0 10 19.63c-1.75-2.9-3.99-5.48-6.63-7.63a29.61 29.61 0 0 0 3.56-3.43A30.13 30.13 0 0 0 10 4.37c.41-.68.79-1.36 1.13-2.06C10.71 1.56 10.34.79 10 0 7.9 4.88 4.42 9.05 0 12c4.42 2.95 7.9 7.12 10 12 2.1-4.88 5.58-9.05 10-12a27.662 27.662 0 0 1-7.67-7.69z"/>
</svg>
