<svg xmlns="http://www.w3.org/2000/svg" width="20" height="20" viewBox="0 0 20 20">
    <g fill="none" fill-rule="evenodd">
        <path fill="#242635" d="M19.6 10.227c0-.709-.064-1.39-.182-2.045H10v3.873h5.382a4.611 4.611 0 0 1-2.01 3.009v2.518h3.246c1.891-1.746 2.982-4.31 2.982-7.355z"/>
        <path fill="#242635" d="M10 20c2.7 0 4.964-.89 6.618-2.418l-3.245-2.518c-.891.6-2.028.963-3.373.963-2.6 0-4.81-1.754-5.6-4.118H1.073v2.582C2.718 17.755 6.09 20 10 20z"/>
        <path fill="#242635" d="M4.4 11.9c-.2-.6-.318-1.236-.318-1.9 0-.664.118-1.3.318-1.9V5.518H1.073A9.877 9.877 0 0 0 0 10c0 1.618.39 3.136 1.073 4.482l2.59-2.018.737-.564z"/>
        <path fill="#242635" d="M10 3.982c1.473 0 2.782.509 3.827 1.49l2.864-2.863C14.955.991 12.7 0 10 0 6.09 0 2.718 2.245 1.073 5.518L4.4 8.1c.79-2.364 3-4.118 5.6-4.118z"/>
        <path d="M0 0h20v20H0z"/>
    </g>
</svg>
