<svg xmlns:xlink="http://www.w3.org/1999/xlink" height="40" viewBox="0 0 40 40"
    width="40" xmlns="http://www.w3.org/2000/svg">

        <path d="M39.866 14.914L21.753 1.247a1.25 1.25 0 0 0-1.505 0L2.118 14.913c-.71.646-1.078 1.43-1.124 2.263L.992 38.115a2.886 2.886 0 0 0 2.876 2.88h10.874c.69 0 1.25-.56 1.25-1.25V31a5 5 0 0 1 10 0v8.75c0 .69.56 1.25 1.25 1.25H38.11a2.887 2.887 0 0 0 2.882-2.875v-20.88c-.05-.903-.418-1.685-1.03-2.25l-.096-.081zm-1.372 2.402l-.002 20.804c-.001.207-.173.38-.386.38h-9.614V31a7.5 7.5 0 1 0-15 0v7.495h-9.62a.384.384 0 0 1-.38-.384V17.245a.704.704 0 0 1 .226-.415L20.999 3.81l17.299 13.052a.718.718 0 0 1 .196.454z"
            id="a" fill-rule="evenodd" transform="translate(-1 -1)"/>

</svg>
