<svg xmlns="http://www.w3.org/2000/svg" width="24" height="24" viewBox="0 0 24 24">
    <path d="M15 22.5h5.25a2.25 2.25 0 0 0 2.25-2.25V3.75a2.25 2.25 0 0 0-2.25-2.25H3.75A2.25 2.25 0 0 0 1.5 3.75v16.5a2.25 2.25 0 0 0 2.25 2.25H9V18h6v4.5zM3.75 0h16.5A3.75 3.75 0 0 1 24 3.75v16.5A3.75 3.75 0 0 1 20.25 24H3.75A3.75 3.75 0 0 1 0 20.25V3.75A3.75 3.75 0 0 1 3.75 0zm6.75 19.5v3h3v-3h-3zM4 4h5v5H4V4zm1.5 1.5v2h2v-2h-2zM4 11h5v5H4v-5zm1.5 1.5v2h2v-2h-2zM15 4h5v5h-5V4zm1.5 1.5v2h2v-2h-2zM15 11h5v5h-5v-5zm1.5 1.5v2h2v-2h-2z"/>
</svg>
