<svg xmlns="http://www.w3.org/2000/svg" width="133" height="100" viewBox="0 0 133 100">
    <g fill="none" fill-rule="nonzero">
        <path fill="#333" d="M9.078 41.51c-.433-.165-.866-.328-1.298-.496-1.08-.42-2.182-.398-3.293-.153a4.33 4.33 0 0 0-.713.187c1.348 1.171 2.933 1.69 4.732 1.829-.276.21-.538.271-.773.383a9.957 9.957 0 0 0-1.988 1.185c-.524.42-1.326 1.398-1.554 1.949a7.578 7.578 0 0 0 2.771-.684c.877-.408 1.629-1.002 2.39-1.634.027.16.023.324-.013.483a46.776 46.776 0 0 0-.396 3.888 19.773 19.773 0 0 0 .204 4.228c.103.655.196 1.311.358 1.956.109.43.233.852.38 1.27.036.1.108.197.07.327-.338.039-.68.01-1.007-.083a10.526 10.526 0 0 1-1.847-.599 6.218 6.218 0 0 1-1.458-.834 8.037 8.037 0 0 1-1.595-1.662c-.05-.072-.093-.168-.164-.203-.255-.126-.336-.366-.44-.598a9.43 9.43 0 0 0-.302-.623c-.316-.582-.55-1.199-.806-1.808-.31-.739-.501-1.52-.815-2.257a2.936 2.936 0 0 1-.18-.7c-.042-.251-.1-.499-.173-.742a22.35 22.35 0 0 1-.669-3.261c-.098-.742-.164-1.49-.24-2.234-.016-.154-.015-.308-.022-.462-.008-.444-.013-.888-.027-1.331-.004-.14-.08-.291-.046-.416.148-.545.052-1.098.082-1.645.103-.654.084-1.318.179-1.974.114-.795.24-1.589.376-2.38.058-.34.2-.656.249-.991.085-.582.274-1.135.427-1.698.124-.456.317-.893.436-1.345.192-.728.538-1.392.784-2.096.264-.76.673-1.457 1.015-2.183.377-.799.866-1.535 1.3-2.302.223-.393.462-.778.71-1.155.319-.487.66-.96.981-1.445.196-.296.46-.535.661-.825A23.165 23.165 0 0 1 9.6 15.695c.311-.328.657-.62.965-.95.27-.29.536-.584.826-.856.49-.458.996-.898 1.488-1.353a30.14 30.14 0 0 1 2.127-1.779c.55-.42 1.136-.791 1.7-1.192.584-.415 1.207-.768 1.787-1.188.337-.229.687-.437 1.05-.625.545-.306 1.073-.644 1.623-.94.512-.276 1.048-.507 1.567-.77.57-.288 1.138-.584 1.727-.833.586-.247 1.177-.484 1.767-.723a38.077 38.077 0 0 1 2.656-.993c.447-.144.92-.22 1.353-.396.657-.267 1.353-.386 2.022-.602.576-.183 1.16-.336 1.752-.456.871-.182 1.732-.412 2.613-.552.673-.107 1.34-.261 2.013-.366.387-.06.776-.12 1.169-.158.435-.043.865-.135 1.304-.163.357-.023.718-.046 1.07-.095.314-.043.63-.065.944-.085.88-.056 1.761-.082 2.642-.106.535-.015 1.07-.021 1.606 0 .283.01.564.018.848.046.422.04.85.013 1.275.033.815.04 1.63.1 2.445.137.704.033 1.397.16 2.095.244.393.047.781.146 1.175.168.84.048 1.657.233 2.48.372.716.12 1.435.224 2.15.348.163.029.373.015.476.11.216.202.447.196.7.175.077 0 .154.008.23.023.482.055.937.228 1.405.346.464.116.914.284 1.37.43.04.02.08.034.122.043.461.006.863.238 1.275.387.44.16.895.295 1.324.492.387.176.764.372 1.148.553.275.13.521.305.802.427.363.158.773.272 1.007.646a.176.176 0 0 0 .148.062c.22.032.429.117.61.246.403.242.799.5 1.187.765.355.242.691.51 1.045.755.19.132.411.219.595.358.62.473 1.262.92 1.858 1.426.146.124.265.295.452.36.232-.197.45-.375.788-.352a.747.747 0 0 1 .326-.479c.197-.139.378-.3.54-.479.118-.136.238-.295.454-.305a.213.213 0 0 0 .136-.086c.201-.277.522-.395.78-.595.219-.164.45-.313.69-.445.38-.217.78-.402 1.15-.634.47-.292.996-.464 1.476-.739.31-.177.693-.204.989-.431a.628.628 0 0 1 .345-.102c.06-.005.123.016.181-.048.167-.176.385-.294.624-.338.246-.056.458-.229.698-.279.224-.055.437-.148.63-.275-.466-.4-.812-.883-1.18-1.343a17.09 17.09 0 0 1-1.022-1.517c.595-.134 1.2-.226 1.807-.274.296-.017.6.024.886-.014.639-.084 1.278-.036 1.911-.023 1.012 0 2.022.093 3.017.276.339.069.7.077 1.046.14.454.083.911.151 1.36.264.277.069.539.19.818.23.24.033.475.1.697.201.308.15.653.21.994.176.345-.041.693-.018 1.038-.073.382-.061.77.006 1.155.004.48-.002.963-.034 1.443.05.245.05.496.068.746.054.208-.01.416.01.62.057.128.025.26.038.39.04a2.2 2.2 0 0 1 .641.13c.19.059.425-.047.634.015.489.146 1 .16 1.495.266.468.1.947.154 1.396.339.305.126.642.11.955.204.693.208 1.388.404 2.078.62a.35.35 0 0 0 .387-.08 4.355 4.355 0 0 1 1.009-.61c.544-.284 1.107-.53 1.684-.739.467-.156.925-.346 1.398-.486a27.757 27.757 0 0 1 2.105-.543c.58-.123 1.156-.258 1.743-.33.298-.035.574-.15.871-.185.589-.07 1.177-.145 1.767-.21a75.376 75.376 0 0 1 2.007-.183c.714-.06 1.43-.096 2.144-.142l.593-.013.103.115a.21.21 0 0 1-.099.138c-.476.355-.942.727-1.433 1.06-.819.557-1.66 1.08-2.438 1.694-.69.546-1.399 1.071-2.08 1.63-.79.648-1.56 1.32-2.334 1.988a.837.837 0 0 0-.233.255.3.3 0 0 0 .136.117c.257.126.504.269.741.429.42.319.893.557 1.312.88.265.177.52.369.766.573.141.157.34.25.551.257a20.85 20.85 0 0 1 2.507.191c1.297.178 2.58.447 3.84.804a34.5 34.5 0 0 1 2.53.767c.675.238 1.352.471 2.024.718.775.285 1.546.578 2.315.878.27.106.576.16.76.424v.133c-.076.012-.097.085-.14.132-.414.465-.927.801-1.438 1.15-.47.32-.947.624-1.426.927-.345.216-.703.41-1.072.584-.51.255-1.032.484-1.565.685-.364.127-.736.229-1.11.344.059.163.152.31.274.433.034.029.06.067.073.11.048.285.249.465.44.651.178.172.228.42.357.622.064.134.143.26.236.377.23.22.263.547.46.788.183.222.247.526.445.746.015.017.043.032.044.049.01.319.264.527.36.798.125.29.27.572.436.842.097.189.137.391.231.578.404.818.747 1.664 1.028 2.532.18.54.351 1.084.527 1.626.06.153.148.295.257.42.421.554.778 1.152 1.187 1.715.123.17.085.357.107.536.015.116-.08.178-.196.174-.183-.005-.366-.019-.553-.03-.015.038-.045.075-.036.095.125.296.088.62.164.927.111.401.194.81.249 1.224.035.337.11.673.146 1.007.053.5.2.992.156 1.505-.013.22.005.44.054.655.025.129.034.26.026.392-.02.382-.01.766.032 1.146a.383.383 0 0 1-.004.197c-.114.226-.046.44.013.658.075.273-.033.541-.033.814-.01.156-.01.312.002.467.028.361.022.724-.02 1.083-.016.237.007.478-.098.707a.575.575 0 0 0-.02.36c.041.14.024.29-.047.417a.252.252 0 0 0-.03.16c.063.522-.063 1.03-.125 1.544a33.76 33.76 0 0 1-.186 1.372c-.045.283-.127.559-.182.84-.067.341-.108.689-.271 1.004.049.463-.283.847-.27 1.309.005.202-.139.384-.195.586-.158.575-.368 1.136-.537 1.709-.046.154-.184.244-.21.407-.067.402-.272.76-.38 1.15a2.77 2.77 0 0 1-.269.558c-.34.628-.613 1.29-.973 1.909-.22.377-.514.715-.657 1.138a.215.215 0 0 1-.066.113c-.261.157-.246.44-.333.706.289.01.55.121.837.068.132-.015.266-.011.397.01a.337.337 0 0 1 .317.243.425.425 0 0 1-.282.327 1.182 1.182 0 0 1-.23.021c-.548.019-1.105-.018-1.642.07-.47.077-.921-.011-1.38-.007-1.05.011-2.098.001-3.148-.03-1.435-.045-2.869-.018-4.303-.032-.265-.003-.347.072-.37.315a10.88 10.88 0 0 1-.299 1.518c-.144.598-.268 1.204-.47 1.783-.168.486-.273.988-.446 1.473-.185.517-.346 1.047-.508 1.574a7.983 7.983 0 0 1-.376 1.02c-.306.657-.5 1.354-.783 2.017-.16.374-.335.741-.499 1.113-.114.26-.21.53-.335.785a9.759 9.759 0 0 1-.522 1.06c-.125.231-.235.47-.327.717-.28.612-.656 1.17-.938 1.78-.28.21-.321.562-.494.838-.175.279-.32.579-.49.862-.336.556-.668 1.114-1.025 1.657-.53.805-1.078 1.599-1.625 2.393-.15.218-.322.42-.481.633a.226.226 0 0 1-.202.087h-1.537c.236-.355.425-.668.643-.97.286-.4.559-.812.859-1.198.344-.442.592-.944.94-1.385.183-.244.35-.5.5-.766.156-.266.241-.585.506-.791.1-.078.105-.234.142-.358.36-.425.65-.903.862-1.417-.079.045-.119.053-.132.077-.245.436-.58.816-.804 1.267-.252.358-.522.706-.751 1.078a5.358 5.358 0 0 1-.467.587c-.314.381-.582.796-.9 1.175-.39.463-.783.921-1.193 1.365-.37.401-.754.791-1.127 1.19a.289.289 0 0 1-.225.116l-1.901-.03c2.107-2.012 3.963-4.142 5.544-6.552-.404-.325-.874-.568-1.292-.881-.418-.314-.886-.549-1.312-.876.077-.179.176-.347.296-.5.1-.158.205-.312.32-.487.316.264.672.425.988.663.285.205.588.382.906.528.14.081.276.17.405.269.128.077.27.127.418.147.477-.711.883-1.463 1.29-2.213 1.463-2.692 2.576-5.53 3.53-8.446a60.583 60.583 0 0 0-2.773-1.12l.386-1.042c.95.181 1.846.495 2.733.773a.37.37 0 0 0 .167-.23 64.573 64.573 0 0 0 2.276-12.915c-.828-.336-1.714-.542-2.549-.833a.719.719 0 0 1 .002-.356l2.603.224c.025-.283.064-.543.069-.804.02-1.095.03-2.191.042-3.287a6.504 6.504 0 0 0-.076-.854 10.75 10.75 0 0 1-.098-1.114 16.117 16.117 0 0 0-.162-1.989 42.927 42.927 0 0 1-.195-1.603 1.51 1.51 0 0 0-.133-.527l-1.626-.162c-.208-.02-.416-.037-.623-.055-.265-.023-.289-.042-.355-.3-.028-.106-.048-.215-.082-.368.837-.108 1.666-.183 2.53-.28-.083-.402-.106-.793-.188-1.178-.14-.657-.263-1.317-.389-1.977-.063-.335-.217-.644-.274-.982-.08-.473-.283-.913-.39-1.383a5.755 5.755 0 0 0-.322-.963c-.12-.284-.148-.591-.262-.877-.162-.406-.273-.83-.444-1.235-.217-.514-.379-1.05-.563-1.579a4.072 4.072 0 0 0-.144-.436c-.345-.714-.55-1.484-.88-2.205-.062-.137-.13-.285-.05-.438a2.319 2.319 0 0 0-.585-.293 5.534 5.534 0 0 0-3.046-.443 4.965 4.965 0 0 0-2.222.798c-.192.13-.368.283-.525.453-.322.352-.315.736-.154 1.142.207.52.575.936.905 1.415.078-.175.106-.37.08-.56-.02-.265 0-.531.061-.79a.745.745 0 0 1 .31-.456c.26-.168.46-.135.667.097.237.29.398.636.47 1.004.2.804.478 1.583.705 2.378.373 1.303.807 2.588 1.097 3.915.187.86.414 1.712.577 2.579.129.681.288 1.358.413 2.042.18.987.327 1.978.419 2.978.097 1.055.255 2.109.247 3.167-.007 1.117.065 2.233.038 3.351a57.782 57.782 0 0 1-.118 2.314 30.42 30.42 0 0 1-.335 3.124c-.106.63-.17 1.27-.304 1.895-.127.591-.222 1.19-.404 1.771-.09.283-.113.585-.181.875a23.61 23.61 0 0 1-.771 2.742c-.098.265-.231.517-.23.813a.583.583 0 0 1-.082.25c-.319.621-.483 1.302-.76 1.94-.472 1.091-.911 2.196-1.484 3.244-.564 1.035-1.102 2.085-1.695 3.105-.32.553-.676 1.085-1.067 1.592-.302.39-.547.828-.838 1.23-.681.94-1.433 1.825-2.182 2.71-.554.66-1.142 1.29-1.762 1.888-.685.654-1.353 1.326-2.064 1.955a39.161 39.161 0 0 1-2.455 2.016c-.653.49-1.307.98-1.978 1.443-.263.18-.518.372-.784.548a.474.474 0 0 1-.27.11c-.373-.003-.746 0-1.136 0 .049-.196.204-.224.315-.301a73.763 73.763 0 0 0 2.729-1.98 58.63 58.63 0 0 0 2.74-2.229 58.305 58.305 0 0 0 1.872-1.715c.456-.432.866-.912 1.293-1.375.374-.404.75-.804 1.109-1.222.265-.31.496-.65.755-.965a38.962 38.962 0 0 0 1.673-2.21c.395-.557.73-1.155 1.108-1.724.36-.543.657-1.121.983-1.683.182-.313.323-.65.49-.972.29-.557.594-1.105.873-1.666.535-1.077.915-2.22 1.367-3.332.02-.066.032-.133.038-.202a2.15 2.15 0 0 0-.628-.02c-1.78.013-3.558.002-5.337-.045-.995-.026-1.99.002-2.985.006-.724.003-1.448.002-2.173.008-.98.009-1.96.02-2.94.054a9.392 9.392 0 0 1-1.285-.047.33.33 0 0 0-.313.129c-.81.906-1.62 1.81-2.432 2.714a.11.11 0 0 0-.024.138c.257.032.515.035.772.009.751-.046 1.5.001 2.25.018.706.016 1.41-.025 2.116-.047.938-.03 1.877-.017 2.815-.017.651 0 1.303 0 1.954.016.783.019 1.566.054 2.349.083a.203.203 0 0 1 .17.062c.06.097.003.216-.007.342-.893.078-1.787.063-2.68.093-.64.021-1.28.017-1.92.008-.679-.01-1.357-.03-2.036-.02-.265 0-.53-.014-.793-.043-.385-.037-.77-.047-1.156-.057-1.123-.03-2.246.03-3.368-.025-.285-.014-.565.007-.847.018a.383.383 0 0 1-.251-.042c-.196-.128-.222-.225-.065-.398.437-.481.882-.957 1.32-1.439.451-.498.899-1.001 1.375-1.532a3.503 3.503 0 0 0-.946-.023 9.667 9.667 0 0 1-1.192.011.64.64 0 0 0-.568.246c-.822.882-1.656 1.751-2.472 2.638-.343.374-.72.611-1.252.592-.44-.015-.887.077-1.32.028a13.59 13.59 0 0 0-2.131-.035c-.562.025-1.121-.01-1.682-.012-.419-.002-.84-.003-1.255-.045-.588-.06-1.18-.022-1.765-.113-.22-.019-.44-.02-.66-.005-.092-.118-.023-.235-.032-.328a.19.19 0 0 1 .172-.063c1.544.021 3.085-.107 4.628-.092.298.003.595.021.892.033.635.04 1.272.035 1.907-.014.374-.02.75-.007 1.122.038.165.013.33.02.474.03 1.008-.998 2.096-1.876 3.141-2.917a9.308 9.308 0 0 1-.988.031c-1.039-.007-2.078-.009-3.117-.015-1.201-.007-2.403-.018-3.605-.024-1.655-.008-3.31-.015-4.966-.021-.09 0-.214.045-.205-.124l-.01.002.066-.015a.505.505 0 0 0 .242-.213.576.576 0 0 1 .486-.226c.22-.001.445.045.658.026.596-.051 1.19-.006 1.785-.03.095-.004.199.03.291-.062l-1.97-10.582c-.312-.03-.632.054-.958-.027a5.898 5.898 0 0 1 .049-1.005.57.57 0 0 1 .321-.045c1.431-.003 2.861.056 4.292.04 1.024-.012 2.05.013 3.074.022.407.004.814.01 1.22.016.618 0 1.236.003 1.855-.003.61-.006 1.222.094 1.869.003-.144-.308.082-.59-.05-.874a7.03 7.03 0 0 0-.99-.092c-.452-.02-.906-.017-1.36-.03-.257-.008-.366-.098-.361-.327.016-.745.004-1.49.139-2.228.063-.346.19-.685.173-1.04-.023-.443.057-.879.057-1.32 0-.603.04-1.206.033-1.809-.005-.395-.05-.79-.03-1.185.007-.152.04-.308-.137-.401-.051-.027-.048-.091-.036-.15.016-.11.016-.22-.001-.33a38.896 38.896 0 0 0-.498-3.675c-.12-.628-.226-1.262-.388-1.88a33.34 33.34 0 0 0-.93-3.04c-.135-.37-.265-.743-.422-1.065-.49-.014-.856.26-1.268.394-.453.106-.872.31-1.303.473-1.166.42-2.31.9-3.426 1.437-.083.042-.172.112-.27.02-.008-.085.049-.145.074-.218.15-.425.486-.724.739-1.078.472-.663.98-1.302 1.475-1.948.12-.157.224-.335.431-.398.088-.026.106-.098.134-.173.123-.297.313-.561.555-.772.049-.046.104-.084.1-.161.276-.342.643-.601.883-.976.06-.094.192-.112.255-.238-.084-.27-.262-.511-.399-.772a31.57 31.57 0 0 0-1.24-2.152 22.569 22.569 0 0 0-1.187-1.708c-.51-.665-1.04-1.312-1.57-1.959-.175-.213-.373-.405-.55-.616-.48-.575-1.013-1.099-1.528-1.641-.423-.446-.901-.835-1.322-1.284-.207-.221-.48-.38-.712-.58-.708-.61-1.464-1.158-2.208-1.723-.234-.178-.525-.289-.698-.547a.13.13 0 0 0-.052-.04c-.54-.255-.998-.652-1.523-.924-.564-.29-1.121-.594-1.683-.887-.773-.402-1.584-.709-2.383-1.046-.416-.175-.831-.35-1.245-.53-.472-.204-.973-.34-1.456-.52a19.277 19.277 0 0 0-1.913-.607c-.614-.158-1.227-.323-1.85-.454a6.824 6.824 0 0 1-.95-.216.336.336 0 0 0-.13-.02c-.445.024-.869-.127-1.305-.16-.438-.034-.88-.055-1.314-.119-.68-.1-1.362-.087-2.043-.131-.603-.04-1.203-.003-1.805.007a17.383 17.383 0 0 0-1.897.089c-.457.057-.918.046-1.374.137-.407.08-.816.163-1.227.215-.642.08-1.26.275-1.895.378-.59.096-1.141.332-1.719.467-.818.202-1.623.455-2.41.758-.6.207-1.186.445-1.759.716a.808.808 0 0 1-.406.123c-.093-.005-.14.059-.196.107a.555.555 0 0 1-.345.175.209.209 0 0 0-.122.05c-.349.314-.802.44-1.195.673-.302.18-.604.361-.908.536-.343.197-.675.411-1.022.602-.317.174-.6.408-.907.6-.652.406-1.279.852-1.875 1.336-.544.441-1.094.875-1.641 1.31-.348.276-.63.61-.954.904-.571.518-1.068 1.11-1.633 1.636-.198.185-.34.43-.537.617-.478.456-.845 1.004-1.275 1.499-.246.282-.415.621-.678.89-.153.159-.234.385-.384.528-.4.382-.567.9-.862 1.342-.366.547-.673 1.132-1.011 1.696-.295.493-.507 1.028-.798 1.517-.379.637-.634 1.329-.975 1.98-.167.319-.22.69-.39 1.013-.215.409-.27.88-.505 1.284-.07.161-.116.331-.138.506-.098.419-.25.82-.356 1.235-.136.531-.243 1.07-.392 1.597-.157.552-.216 1.126-.372 1.672-.095.332-.105.666-.184.99-.09.365-.143.736-.203 1.103-.096.585-.113 1.182-.193 1.77-.061.45-.015.9-.057 1.348-.062.668.01 1.335-.02 2-.028.632.077 1.256.055 1.88-.015.435.106.846.111 1.274.017.419.075.834.173 1.242.056.266.04.542.084.815.062.377.122.757.182 1.134.14.877.313 1.75.514 2.618.115.493.251.98.366 1.471.198.845.49 1.662.703 2.5.067.266.155.527.221.794.072.294.243.562.367.844.2.454.382.916.599 1.362.182.375.44.718.596 1.102.186.458.51.816.776 1.21-.076.1-.168.078-.252.073a6.305 6.305 0 0 0-1.06.024 8.64 8.64 0 0 1-1.026-.01c-.557-.003-1.114-.058-1.67.015a1.894 1.894 0 0 1-.43-.012c-.783-.077-1.566.025-2.35-.015a30.354 30.354 0 0 0-1.876-.042c-.651.008-1.302-.08-1.953-.003a.529.529 0 0 1-.535-.243 12.944 12.944 0 0 1-1.775-3.24c-.288-.752-.53-1.52-.723-2.302a15.602 15.602 0 0 1-.383-2.686c-.04-.802-.036-1.605.011-2.407a3.26 3.26 0 0 1 .068-.525c.072-.332.148-.662.238-1.058.5.876.91 1.729 1.514 2.462.613.745 1.396 1.275 2.204 1.8a9.543 9.543 0 0 0-.944-3.13c-.504-.998-1.252-1.816-1.99-2.664.094-.048.156.007.217.029.656.237 1.332.407 2.004.58.77.198 1.56.117 2.339-.002a13.066 13.066 0 0 0 1.572-.375c.072-.025.142-.054.211-.087-1.452-1.255-3.073-1.865-5.009-1.503.07-.146.185-.173.274-.231a12.593 12.593 0 0 0 1.577-1.158 4.914 4.914 0 0 0 1.37-2.232c.097-.31.224-.618.198-.994-.144.105-.263.197-.387.282-.473.305-.966.578-1.476.818-.558.268-1.096.573-1.612.915-.815.562-1.319 1.354-1.704 2.24-.061.14-.117.283-.19.458a1.193 1.193 0 0 1-.284-.368c-.539-.85-1.086-1.694-1.839-2.378a6.698 6.698 0 0 0-2.397-1.403c.056.37.162.73.313 1.071.353.92.868 1.77 1.52 2.508.25.292.524.568.69.924l-.03.028zm72.7-16.312a1.79 1.79 0 0 0 .587-.205c.48-.24.987-.41 1.484-.606.229-.09.475-.086.695-.189a4.833 4.833 0 0 1 1.216-.39c.773-.137 1.534-.345 2.308-.472.804-.132 1.597-.316 2.396-.47a33.754 33.754 0 0 0 1.572-.336c.562-.137 1.13-.252 1.688-.403.275-.074.56-.116.825-.215a6.21 6.21 0 0 1 1.009-.282c.695-.132 1.353-.387 2.035-.562.687-.176 1.364-.398 2.049-.589.517-.144 1.035-.282 1.553-.421.306-.082.61-.18.92-.237.533-.097 1.044-.273 1.57-.393.706-.162 1.414-.319 2.118-.49.307-.074.626-.106.898-.308.463-.337.952-.635 1.463-.893a7.17 7.17 0 0 1 1.83-.652c1.165-.247 2.349-.16 3.523-.19.714-.019 1.426.121 2.13.259.2.039.402.121.614.063.018.084.059.076.13.016l-.136-.01c-.045-.12-.162-.137-.259-.177-.396-.166-.8-.31-1.213-.432a7.801 7.801 0 0 0-1.924-.3c-.55.001-1.1-.06-1.636-.186a1.758 1.758 0 0 1-1.01-.752 3.97 3.97 0 0 1 .949-.37c1.43-.412 2.885-.573 4.358-.306 1.15.209 2.264.575 3.392.879.33.089.651.21.983.288.995.233 1.994.451 3.006.596.382.057.771.048 1.15-.027a8.052 8.052 0 0 1 1.446-.19c.317-.003.632-.05.936-.14.905-.276 1.785-.63 2.63-1.056a26.083 26.083 0 0 0 1.533-.85c.46-.275.945-.513 1.409-.886-.405-.089-.736-.256-1.088-.37-.376-.122-.75-.25-1.123-.382-.643-.228-1.306-.392-1.942-.64-.326-.128-.673-.2-1.007-.306a40.779 40.779 0 0 0-2.242-.646c-.661-.172-1.331-.301-2-.437-.704-.143-1.417-.207-2.127-.3-.41-.053-.813 0-1.218.002-.758.001-1.522-.037-2.274.084-.706.104-1.404.26-2.088.465a14.29 14.29 0 0 0-3.026 1.29 36.728 36.728 0 0 0-3.524 2.36c-.054.041-.103.102-.184.099a.38.38 0 0 1-.005-.088 8.775 8.775 0 0 1 1.515-3.115 1.58 1.58 0 0 1 .177-.197c.634-.61 1.26-1.23 1.909-1.825.585-.537 1.18-1.065 1.764-1.602.667-.613 1.364-1.19 2.04-1.793a43.292 43.292 0 0 1 2.064-1.707c.623-.49 1.245-.982 1.894-1.434.804-.558 1.623-1.1 2.47-1.594a.566.566 0 0 0 .29-.254c-.73.02-1.42.168-2.113.283-.892.147-1.773.352-2.667.492a4.306 4.306 0 0 0-.863.185c-.384.147-.792.148-1.17.307-.502.213-1.062.23-1.578.424-.627.237-1.278.407-1.895.67-.859.367-1.74.689-2.478 1.29-.436.354-.945.61-1.371.979-.275.26-.529.542-.76.842-.323.371-.592.787-.798 1.235-.19.434-.376.869-.556 1.308-.449 1.099-.863 2.205-1.091 3.374-.012.062-.015.14-.093.183-.022-.404-.056-.79-.061-1.178a1.215 1.215 0 0 0-.379-.953c-.669-.652-1.265-1.38-1.887-2.08a.417.417 0 0 1-.141-.22.287.287 0 0 0-.182-.22 1.555 1.555 0 0 1-.34-.263c-.352-.328-.68-.684-1.061-.98a.725.725 0 0 1-.123-.111c-.253-.314-.6-.519-.9-.776-.174-.149-.4-.225-.584-.37-.491-.386-1.049-.667-1.585-.983-.394-.23-.802-.436-1.22-.619-.481-.213-.934-.481-1.435-.66-1.088-.39-2.214-.622-3.339-.855-.505-.104-1.02-.156-1.533-.215-.173-.02-.332-.083-.51-.098-.273-.024-.548-.036-.821-.074-.653-.09-1.312-.184-1.965-.21-.68-.026-1.339-.239-2.022-.176-.062.006-.127-.042-.19-.042-.066 0-.158-.042-.195.072.294.247.592.49.882.743.356.312.672.669 1.06.947a9.13 9.13 0 0 1 1.058.903c.438.46.902.897 1.39 1.305.514.402.966.881 1.522 1.231a.378.378 0 0 1 .091.094.74.74 0 0 0 .337.26c.065.024.127.044.155.112.07.127.187.222.326.263.135.072.265.154.388.245.305.198.574.441.863.658.533.399 1.136.673 1.697 1.021.101.084.21.158.326.221.552.215 1.036.562 1.567.818.463.223.91.474 1.376.692.342.16.712.276 1.01.532.084.071.19.115.3.123a.508.508 0 0 1 .252.071c.38.274.819.426 1.237.619 2.41 1.113 4.594 2.556 6.474 4.443.176.166.336.349.478.545a.172.172 0 0 1-.145.016c-.9-.262-1.805-.507-2.727-.681a24.804 24.804 0 0 0-1.633-.26c-.691-.083-1.386-.127-2.08-.17-.48-.03-.963-.017-1.445-.016a30.19 30.19 0 0 0-1.809.07 9.434 9.434 0 0 0-1.47.173c-.594.134-1.203.205-1.792.39-.658.206-1.343.333-1.996.566-.26.093-.537.13-.788.238-.686.295-1.395.536-2.06.88-.372.192-.769.34-1.119.565a22.26 22.26 0 0 0-1.542 1.077c-.65.492-1.274 1.02-1.867 1.58a16.11 16.11 0 0 0-1.489 1.58c-.358.451-.768.868-1.117 1.33-.12.16-.305.302-.3.538-.013-.024-.032-.03-.045-.012-.006.009.002.027.003.04l.037-.037zM93.413 50.43c.003.362.028.723.073 1.083.092.634.072 1.277.098 1.917.03.748.018 1.497.077 2.244.025.316.117.38.435.392.331.011.65-.072.985-.057.958.042 1.918.052 2.878.046 1.632-.01 3.264.01 4.896.018h.571l1.428-7.893a7.425 7.425 0 0 0-1.164-.047c-.729-.006-1.457-.096-2.186-.036-.515.042-1.031-.003-1.546.034-.284.02-.576-.02-.857-.003-.802.05-1.6-.069-2.402-.001-.26.022-.357-.105-.363-.388-.01-.453.001-.91-.032-1.361-.022-.305.035-.612-.02-.918a.803.803 0 0 0-.111-.019c-.661-.006-1.323-.022-1.984-.015-1.475.015-2.95-.04-4.426-.024-1.42.015-2.842-.01-4.262-.016a1.79 1.79 0 0 0-.511.06c.097 3.545.12 7.071.255 10.611 1.613.024 3.195-.052 4.782.027.074-.074.058-.178.06-.275.005-.43.013-.86.007-1.289-.005-.424.104-.847.017-1.273a.74.74 0 0 1 .007-.164c.008-.243.017-.485.02-.728.008-.55.007-1.1.021-1.649.007-.27.07-.322.339-.347.044-.004.088-.003.132-.003l2.459-.007a.442.442 0 0 1 .324.081zm19.404-31.6c.168.177.365.324.581.437.596.365 1.102.843 1.622 1.294.594.542 1.16 1.113 1.695 1.713.713.793 1.469 1.547 2.264 2.258.62.542 1.276 1.041 1.964 1.493.644.406 1.319.76 2.019 1.058.982.44 1.99.82 3.018 1.138.539.162 1.075.33 1.623.462.535.128 1.061.293 1.6.403.572.118 1.148.223 1.719.349.324.071.649.138.974.205.077.016.158.022.208-.057.054-.086.008-.142-.06-.195a.4.4 0 0 1-.084-.098 19.701 19.701 0 0 0-2.334-2.846c-.19-.196-.41-.37-.494-.65a.353.353 0 0 0-.098-.131c-.704-.7-1.365-1.443-2.102-2.111-.222-.202-.422-.421-.66-.612-.568-.454-1.095-.955-1.694-1.375-1.217-.854-1.846-1.3-3.153-1.962-.06-.03-.117-.064-.176-.093-.304-.152-.599-.325-.913-.45a35.178 35.178 0 0 0-2.24-.795c-.224-.072-.491-.056-.664-.266-.032-.038-.072-.033-.12-.018a.803.803 0 0 1-.454-.049 21.911 21.911 0 0 0-2.668-.496.685.685 0 0 0-.366 0c-.095.634-.369 1.146-1.007 1.395zM91.659 33.063c.084-.01.167-.024.25-.046.63-.233 1.275-.419 1.902-.661a17.11 17.11 0 0 0 1.944-.9 16.046 16.046 0 0 0 1.681-1.03c.716-.507 1.453-.984 2.135-1.54.545-.445 1.117-.86 1.629-1.342.744-.7 1.49-1.396 2.197-2.137.96-1.008 1.816-2.1 2.7-3.19-.075-.15-.114-.317-.2-.474-.266-.49-.169-1.02.237-1.44a.416.416 0 0 0 .106-.165.741.741 0 0 1 .33-.401c.384-.272.803-.49 1.245-.652-.144 0-.288.015-.428.046-.416.15-.855.209-1.274.344-.94.304-1.892.572-2.798.97-.278.105-.55.224-.815.356-.6.343-1.22.654-1.777 1.07-.265.197-.554.366-.8.585-.253.224-.555.37-.8.615-.393.394-.831.742-1.227 1.14-.295.296-.563.614-.834.93a9.42 9.42 0 0 0-.654.83c-.312.457-.7.861-.938 1.371-.128.274-.34.495-.47.779-.283.613-.66 1.18-.993 1.768-.272.481-.531.981-.892 1.41-.212.253-.362.548-.589.79-.284.306-.555.622-.867.974zm12.229 11.748a.466.466 0 0 0-.058.304c.001.52.007 1.04.002 1.56-.002.261.028.527-.09.784.767.04 1.514-.035 2.26-.024a.53.53 0 0 1 .034.296c.017.142.009.286-.023.426-.16.063-.33-.002-.487.053-.03.261.23 7.589.284 7.85 1.11.03 2.228-.016 3.354.057.527-1.73 1.084-3.405 1.385-5.16a72.8 72.8 0 0 0-3.529-.093c-.02-.171-.013-.344.024-.512 1.224.093 2.449-.014 3.655-.016.402-1.817.586-3.62.775-5.488-2.55-.047-5.07-.004-7.586-.037zm-4.738 2.622c-.245-3.278-.037-6.495-.105-9.709-2.724-.373-5.435-.148-8.156-.219-.081.99.015 1.942-.013 2.9 2.432.01 4.827-.11 7.237.056.024.204.019.412-.014.615-2.41.217-4.8-.032-7.219-.056.057 1.145.102 2.26.106 3.422 2.178-.003 4.369.03 6.577-.033v1.063c-.301.038-.587-.04-.889.02v1.913c.813.085 1.63-.035 2.476.028zm-19.484.8c.21 1.075.402 2.09.656 3.111.916-.016 1.818.027 2.735-.05a3.55 3.55 0 0 1-.013.83 4.54 4.54 0 0 0-1.274-.076c-.42.04-.846-.084-1.313-.007l.807 4.02c.456 0 .884-.019 1.31.008.22.013.436-.009.653-.013.217-.005.284-.098.258-.325a1.244 1.244 0 0 1 0-.33c.085-.564.143-1.132.216-1.698.102-.786.166-1.577.307-2.36.07-.385.101-.787.136-1.181.104-1.19.294-2.368.413-3.554.038-.397.038-.795.003-1.192h-5.51l.492 2.203a29.58 29.58 0 0 1 3.803-.066v.78a31.411 31.411 0 0 1-3.679-.1zm20.136-10.44a.556.556 0 0 0-.042.318c.02.263.004.528.01.791.026 1.29.028 2.58.036 3.87.003.428-.023.858.008 1.284.031.417.023.835.031 1.252a3.65 3.65 0 0 1-.035.758c-.084.441-.057.89-.083 1.365.805.054 1.588.06 2.398.075l.659-9.41-2.982-.302zm20.756 11.542c.032-1.468.01-2.906.095-4.375-.395.002-.758-.097-1.153-.066-.007.592-.063 1.165-.063 1.743 0 .528-.025 1.057-.053 1.585a8.798 8.798 0 0 0-.068.923.237.237 0 0 1-.013.098c-.157.389-.066.793-.118 1.234 1.69-.027 3.342-.025 5.042.003-.012-1.763.036-3.488.08-5.234L121.092 45c.109 1.467.054 2.892.125 4.332l-.66.001zm-16.717-5.201c.082.004.147.01.212.01h1.425c1.864.004 3.728.01 5.592.009a.795.795 0 0 0 .455-.083c.017-.722.079-1.441.07-2.182l-7.754.052v2.194zm-13.595-7.331c4.677.026 9.329.08 13.98.033.062-.367.084-.74.065-1.113a884.1 884.1 0 0 0-14.045-.06v1.14zM124.22 51h-2.956c-.053.752.008 1.468-.014 2.184-.02.65-.019 1.3-.06 1.95-.037.34-.016.683.06 1.016 1.01.047 1.999-.009 3.01-.016-.109-1.74-.048-3.433-.04-5.134zm-4.755-6.862c1.98.023 3.926-.015 5.862.043v-2.356c-1.988.118-3.947.034-5.915.08.05.758.05 1.478.053 2.233zm-.319 6.856a64.171 64.171 0 0 1-.807 5.13c.77-.001 1.519.071 2.297.011-.023-1.721-.168-3.417-.085-5.141h-1.405zm-28.04-.186c-.143-.055-.243-.093-.354-.028.025 1.76.035 3.507.11 5.264.138.025.28.023.418-.005l-.174-5.231zm20.15 20.476c-.02.04-.033.056-.033.074 0 .01-.02.073.03.03.014-.014.002-.055.002-.104z"/>
        <path fill="#E3AD94" d="M.133 36.769h.113c-.03.548.066 1.1-.082 1.646-.033.125.042.276.046.416.014.444.02.887.027 1.33l-.104-.001v-3.391zM53.811 99.867a.145.145 0 0 1 .003-.052l2.05-.007c0 .02.002.04.006.059h-2.059zM124.031.133a.038.038 0 0 1 .001.047l-.593.012a.76.76 0 0 0-.005-.059h.597zM86.487 44.42l-1.22-.015c-1.025-.01-2.05-.034-3.074-.023-1.432.016-2.862-.042-4.292-.04a.57.57 0 0 0-.322.045c-.045.333-.061.67-.049 1.006.327.081.646-.004.959.027l1.97 10.582c-.093.093-.197.057-.291.06-.595.025-1.19-.02-1.786.032-.212.018-.437-.028-.658-.027a.576.576 0 0 0-.486.226.505.505 0 0 1-.241.214c-.03-.03-.052-.025-.066.015l.01-.002-.414-.012c.214-.207.435-.407.64-.623a4.75 4.75 0 0 0 1.262-2.4c.135-.77.207-1.553.214-2.336a8.02 8.02 0 0 0-.062-1.242c-.22.122-.415.285-.576.479-.52.578-.84 1.267-1.102 1.99-.03.083-.019.2-.153.25-.192-1.49-.118-3 .216-4.463-.511.523-.842 1.162-1.211 1.778-.035-.942.031-1.885.198-2.813a1.3 1.3 0 0 0 .044-.523c.037.008.056.002.03-.039l-.024.045a.933.933 0 0 0-.397.525l.002-.004c-.08.003-.106.07-.142.123-.66.952-1.036 1.996-1.006 3.169.004.146 0 .291 0 .485a1.434 1.434 0 0 1-.094-.123c-.434-.821-.957-1.59-1.562-2.295a8.585 8.585 0 0 1-1.185-1.59 3.669 3.669 0 0 0-.376-.661.736.736 0 0 0-.081.362c-.079.98-.055 1.967.07 2.943.058.596.235 1.174.52 1.7.058.106.166.208.127.354l.002-.003a.83.83 0 0 1-.226-.129c-.478-.533-.98-1.047-1.425-1.61-.064-.081-.111-.187-.21-.219-.074.034-.065.083-.065.124-.022 1.399.27 2.72.986 3.933.134.227.303.434.457.65l-.065.062a3.01 3.01 0 0 1-.306-.195c-.274-.224-.538-.46-.813-.681-.093-.075-.158-.21-.353-.194.313 1.062.65 2.07 1.649 2.7-1.296.062-2.578-.086-3.867-.02l-.032.376c-.563 0-1.126-.015-1.688.004-.362.012-.724.071-1.088.048-1.31-.085-2.623-.052-3.934-.064-.338-.003-.643-.137-.957-.237l-.926-2.99a.738.738 0 0 1 .298-.038c.33-.004.66-.016.99-.02.571-.007 1.142-.035 1.714 0 .768.048.768.04 1.346-.364.456-.319.456-.319.423-.891-.013-.22-.033-.245-.254-.252a52.194 52.194 0 0 0-1.19-.027c-.77-.009-1.541-.011-2.312-.02-.065 0-.155.04-.202-.08.606-.4 1.055-.968 1.525-1.508 1.233-1.416 2.494-2.806 3.745-4.206.304-.054.564-.245.875-.278.142.086.262.203.351.343a.649.649 0 0 0 .22.196c.267.14.443-.03.618-.182.698-.61 1.392-1.224 2.088-1.834.365-.32.733-.637 1.098-.958.639-.56 1.281-1.118 1.913-1.688.312-.282.312-.579.03-.893-.456-.51-.914-1.02-1.373-1.53a54.89 54.89 0 0 0-.9-.976c-.23-.241-.428-.252-.703-.062a4.998 4.998 0 0 0-.531.448c-.454.417-.923.819-1.378 1.236-.364.332-.78.603-1.231.803-.892.412-1.741.91-2.536 1.49a2.11 2.11 0 0 0-.79.996 3.57 3.57 0 0 0-.205 1.237.471.471 0 0 1-.248.458c-.457.284-.893.602-1.336.907-.637.437-1.274.876-1.91 1.314-.345.238-.721.441-1.032.718-.26.232-.588.318-.837.55-.047-.058-.069-.08-.086-.107a18.586 18.586 0 0 0-1.537-2.07 27.005 27.005 0 0 1-.902-1.104c-.286-.38-.62-.719-.995-1.01a5.703 5.703 0 0 0-1.281-.678.429.429 0 0 1-.262-.306c-.12-.39-.223-.786-.373-1.168a.294.294 0 0 1-.02-.28c.136-.07.368.032.385-.226a.228.228 0 0 0 .143-.263.233.233 0 0 0 .246-.278c-.007-.252-.016-.504-.013-.756a5.013 5.013 0 0 1 .023-.834c.221-.12.478-.04.666-.199a.216.216 0 0 0 .15-.084c.21-.143.219-.178.061-.375-.317-.396-.638-.788-.975-1.204.209-.178.123-.358.037-.547-.228-.502-.462-1.002-.646-1.524a.886.886 0 0 1 .335-.328c.114.044.24.1.319-.036.06-.105-.036-.174-.1-.253a3.226 3.226 0 0 0-2.02-1.206c-1.034-.171-1.983.1-2.888.578a.23.23 0 0 0-.118.186c-.176-.025-.29.146-.459.146-.123-.012-.237-.02-.314.115-.378.663-.762 1.321-1.143 1.982a3.32 3.32 0 0 0-.359 1.14 6.836 6.836 0 0 0-1.437-.822 7.495 7.495 0 0 1-1.4-.745 1.143 1.143 0 0 1-.423-.53 3.185 3.185 0 0 0-1.222-1.526 3.391 3.391 0 0 0-1.403-.47 4.422 4.422 0 0 1-1-.225c-.227-.087-.46-.18-.57-.424-.17-.36-.29-.74-.36-1.132a.467.467 0 0 0-.098-.272c.206-.108.47-.127.588-.374.164.034.259-.05.358-.174a3.482 3.482 0 0 0 .684-1.767.584.584 0 0 1 .297-.47c.431-.27.525-.708.5-1.187-.02-.372-.226-.606-.543-.764l-.003-.431c.063-.089.15-.16.154-.285.026-.685-.107-1.316-.568-1.856-.197-.23-.45-.393-.655-.61-.48-.503-.96-1.008-1.444-1.508a5.782 5.782 0 0 0-.985-.888c-.474-.306-.986-.452-1.546-.279-.541.18-1 .545-1.296 1.033-.328.499-.658.995-1.018 1.472a1.568 1.568 0 0 0-.345 1.15.61.61 0 0 1-.053.32c-.305.725-.189 1.401.25 2.04.258.376.612.676 1.024.87a.56.56 0 0 1 .337.296c.13.345.37.637.682.833a.467.467 0 0 1 .21.248c.082.28.256.526.493.697 0 .124.004.224 0 .323-.025.586-.078 1.17-.32 1.712-.23.579-.757.987-1.374 1.066-.371.055-.743.108-1.114.168a2.797 2.797 0 0 0-1.592.825 7.992 7.992 0 0 0-1.532 2.234c-.032.07-.076.132-.031.216.052.099-.005.197-.03.29-.258.98-.525 1.96-.786 2.94-.332 1.247-.668 2.494-.99 3.744-.07.266-.173.526-.157.811.035.929.178 1.85.426 2.746.236.804.503 1.6.753 2.401.28.896.586 1.784.918 2.662.268.69.494 1.394.68 2.11.243.963.395 1.95.773 2.876-.117.039-.194-.037-.261-.106a3.724 3.724 0 0 1-.514-.563c-.263-.408-.57-.785-.812-1.208-.311-.546-.67-1.065-.99-1.606-.224-.38-.475-.747-.616-1.172-.053-.158-.18-.27-.255-.42a22.156 22.156 0 0 1-.822-1.848c-.211-.553-.427-1.105-.632-1.66-.173-.465-.28-.95-.484-1.405-.217-.484-.322-1.009-.453-1.52-.132-.511-.287-1.017-.388-1.536-.168-.866-.374-1.725-.455-2.607-.06-.658-.168-1.312-.236-1.97-.031-.292-.014-.59-.025-.886-.014-.415-.03-.83-.054-1.244-.018-.311.041-.617.048-.925.01-.506.016-1.013.073-1.515.066-.58.045-1.173.157-1.744.219-1.113.292-2.25.611-3.35.243-.835.45-1.683.709-2.515.307-.967.67-1.916 1.09-2.84.197-.444.384-.892.62-1.315.399-.722.738-1.475 1.191-2.172.463-.712.92-1.428 1.41-2.12.365-.526.764-1.027 1.194-1.5.313-.34.572-.727.878-1.077.291-.333.604-.645.91-.962.472-.496.97-.966 1.49-1.41.517-.431 1.046-.846 1.559-1.281.548-.466 1.151-.854 1.737-1.265.478-.336.985-.632 1.49-.928a33.62 33.62 0 0 1 3.57-1.801 29.925 29.925 0 0 1 3.4-1.197c.739-.214 1.48-.434 2.233-.579.658-.126 1.318-.249 1.98-.357.534-.087 1.078-.09 1.603-.226a.26.26 0 0 1 .065-.01c.918.006 1.83-.107 2.745-.138.731-.025 1.46.04 2.186.077.613.031 1.226.106 1.839.175.899.1 1.795.222 2.677.41 1.026.21 2.04.475 3.038.793.796.263 1.6.5 2.384.803.871.318 1.727.68 2.562 1.085.693.352 1.394.689 2.065 1.093.803.484 1.6.976 2.37 1.51.519.355 1.016.74 1.488 1.155.255.226.55.407.815.622.72.603 1.407 1.244 2.06 1.919.515.517 1.036 1.028 1.51 1.584.671.774 1.3 1.583 1.886 2.424.45.655.923 1.295 1.348 1.966.245.388.512.771.665 1.214.005.077-.05.114-.1.16a2.085 2.085 0 0 0-.555.773c-.028.074-.045.146-.133.173-.207.063-.311.241-.431.398-.496.646-1.004 1.284-1.476 1.948-.252.354-.589.653-.738 1.078-.026.072-.083.133-.074.219.097.09.187.02.27-.021a36.222 36.222 0 0 1 3.425-1.437c.432-.164.85-.368 1.303-.473.279.577.51 1.173.744 1.77.101.258.146.536.263.783.322.682.464 1.422.712 2.127.14.441.257.89.35 1.343.22.911.368 1.835.558 2.753.16.8.272 1.608.337 2.42.052.593.067 1.183.079 1.776.01.505-.045 1.007-.02 1.511.002.088-.003.177-.016.264-.057.47-.143.937-.17 1.408-.034.61-.195 1.195-.293 1.792-.06.37-.167.73-.197 1.105z"/>
        <path fill="#333" d="M52.212 41.093c-.016.26-.248.158-.385.227a.294.294 0 0 0 .02.28c.15.382.254.777.373 1.168.031.14.13.254.262.306.454.17.885.398 1.282.677.375.291.71.631.996 1.01.288.378.594.742.901 1.103.56.654 1.074 1.346 1.538 2.07.017.027.04.05.086.11.248-.234.576-.32.837-.552.31-.276.686-.48 1.032-.718.637-.437 1.274-.875 1.91-1.314.443-.305.88-.623 1.336-.907a.471.471 0 0 0 .247-.457 3.57 3.57 0 0 1 .202-1.235 2.11 2.11 0 0 1 .792-.998 14.967 14.967 0 0 1 2.535-1.49c.451-.199.867-.47 1.232-.802.454-.417.923-.818 1.377-1.236.167-.162.344-.311.532-.448.275-.19.473-.18.702.062.305.32.603.648.9.977.46.508.918 1.017 1.374 1.529.282.315.281.61-.03.893-.632.57-1.274 1.127-1.914 1.688-.365.32-.733.637-1.098.958-.696.61-1.39 1.225-2.088 1.834-.174.152-.35.322-.617.182a.649.649 0 0 1-.22-.196 1.063 1.063 0 0 0-.352-.342.634.634 0 0 0-.187-.266c-.528-.618-1.061-1.231-1.586-1.851-.292-.346-.26-.677.078-.98.123-.093.235-.199.335-.316.028-.03.07-.063.011-.094-.026-.014-.05.02-.059.053-.736.326-1.236.816-1.266 1.689a5.973 5.973 0 0 1-.072.849c-.565.367-1.07.755-1.583 1.133-.753.556-1.51 1.107-2.257 1.673-.563.425-1.155.812-1.697 1.265-.224.187-.308.17-.486-.056-.309-.39-.614-.783-.924-1.173-.066-.082-.112-.197-.275-.194a11.458 11.458 0 0 1-2.225 1.955c.235.308.489.602.758.88.632.719 1.222 1.478 1.949 2.11a.915.915 0 0 0 1.114.063c.44-.314.897-.6 1.352-.892.385-.247.791-.473 1.09-.84.77-.947 1.653-1.794 2.454-2.715.433-.498.891-.975 1.339-1.461l.876-.95c.147.113.276.246.386.395-1.25 1.4-2.511 2.79-3.744 4.206-.47.54-.92 1.107-1.525 1.508.046.12.136.08.202.08.77.009 1.54.011 2.312.02.396.004.793.014 1.19.027.22.007.24.033.253.252.033.572.033.572-.423.89-.578.405-.578.413-1.346.365-.571-.035-1.142-.007-1.714 0-.33.004-.66.016-.99.02a.738.738 0 0 0-.298.038l.926 2.99a.105.105 0 0 1-.12.087 2.125 2.125 0 0 1-.515-.03l-.866-3.056a5.307 5.307 0 0 0-.869.014c.25 1.007.63 1.964.893 2.978a3.409 3.409 0 0 1-.621-.044c-.128-.121-.076-.29-.155-.41-.231-.847-.448-1.699-.733-2.528H53.62c-.016.34-.005.682.032 1.02.027.58.004 1.166.274 1.714.08.16.151.246.33.255.32.017.639.055.957.077.66.045 1.315.16 1.979.161.722.098 1.45.144 2.178.14.376-.002.753-.018 1.13-.005.776.026 1.454.33 2.074.78.363.268.692.581.976.932.185.225.465.37.703.55 1.045.79 2.09 1.58 3.097 2.417.414.344.88.623 1.285.98.502.443.991.9 1.488 1.35.85.78 1.754 1.5 2.704 2.155.456.308.897.639 1.346.96.042.99-.89 2.225-2.048 2.688-1.103-.748-2.175-1.576-3.398-2.156l-.053.055c.098.164.189.333.295.492.392.587.76 1.192 1.196 1.746.319.407.617.83.948 1.227.096.08.115.222.043.325-.597.955-1.425 1.553-2.569 1.698-.463-.63-.977-1.207-1.46-1.81a10.887 10.887 0 0 0-1.525-1.601 6.426 6.426 0 0 0-.93-.568 10.21 10.21 0 0 1-1.461-.957 6.81 6.81 0 0 1-1.345-1.574 12.34 12.34 0 0 1-1.33-2.913 2.391 2.391 0 0 1-.183-.585l.435-.055c.152.102.17.267.221.408.207.57.407 1.144.656 1.699a6.51 6.51 0 0 0 1.562 2.118c.456.4.953.752 1.483 1.049.651.397 1.247.878 1.773 1.43a46.342 46.342 0 0 1 1.745 1.912c.195.223.4.44.583.672a.29.29 0 0 0 .375.095c.242-.078.471-.191.68-.336.241-.17.468-.363.724-.564-.22-.313-.43-.617-.647-.917a25.92 25.92 0 0 1-1.675-2.54c-.135-.241-.298-.466-.446-.7a.392.392 0 0 0-.26-.181 36.554 36.554 0 0 1-1.478-.373 5.31 5.31 0 0 1-1.528-.774c-1.075-.73-1.905-1.706-2.677-2.736-.186-.247-.37-.495-.554-.743-.02-.026-.036-.07-.06-.074-.377-.078-.667-.394-1.073-.394-.052 0-.104-.035-.177-.004-.118.076-.068.207-.065.323.012.443.032.886.043 1.329.007.261-.042.311-.3.314-.833.01-1.667-.013-2.498-.003-.58.007-1.162-.015-1.743.01-.445.02-.898.002-1.348-.005-.635-.01-1.273.047-1.906.009-.68-.042-1.355.025-2.035-.012-.522-.028-1.052.005-1.579.012-.726.009-1.454-.018-2.178-.003-.725.016-1.445-.015-2.168.011-.681.025-1.364.008-2.046.001a4.476 4.476 0 0 1-.497-.059.604.604 0 0 1-.173-.338c-.078-.376-.266-.727-.258-1.123-.247-.488-.308-1.032-.46-1.548a43.783 43.783 0 0 1-.59-2.172 20.03 20.03 0 0 0-.349-1.238 3.556 3.556 0 0 0-.22-.686h-1.48a3.263 3.263 0 0 1-.007-.774.436.436 0 0 0-.161-.404c-.601-.483-.732-1.124-.675-1.866.05-.646.277-1.24.42-1.86.085-.364.192-.723.308-1.08a.783.783 0 0 0-.001-.455c-.07-.266-.163-.526-.257-.825-1.192.199-2.4.293-3.609.281a24.592 24.592 0 0 1-3.603-.382c-.055.268.05.485.1.706.129.568.254 1.14.415 1.697.105.372.272.723.494 1.039.213.281.396.584.545.903.199.448.21.923.252 1.394.056.636.094 1.273.14 1.91a.72.72 0 0 1 0 .198.187.187 0 0 1-.177.17.18.18 0 0 1-.195-.182c-.022-.242-.038-.486-.078-.725a8.772 8.772 0 0 0-.178-.81 4.392 4.392 0 0 1-.14-1.047 2.11 2.11 0 0 0-.372-1.22 7.2 7.2 0 0 1-1.14-2.552c-.237-.94-.447-1.89-.728-2.818-.261-.867-.44-1.751-.646-2.63-.077-.333-.144-.67-.193-1.009-.039-.266.065-.518.14-.768.186-.613.383-1.222.569-1.834.266-.877.52-1.757.791-2.632.084-.271.097-.573.34-.81-.637-.388-1.081-.968-1.64-1.492l-.53 1.856-1.182 4.141c-.121.423-.179.865-.39 1.26-.03.095-.03.199.005.294.113.697.28 1.385.498 2.057.38 1.2.88 2.355 1.28 3.548.3.899.568 1.807.838 2.714.135.452.215.923.327 1.38.16.651.233 1.32.43 1.964a4.37 4.37 0 0 0 1.132 1.84c.221.22.203.385-.071.606-.548-.425-.895-1.008-1.226-1.605-.377-.926-.53-1.913-.773-2.875a19.147 19.147 0 0 0-.68-2.11 45.218 45.218 0 0 1-.918-2.663c-.25-.8-.516-1.596-.753-2.4a12.02 12.02 0 0 1-.427-2.746c-.016-.285.087-.546.156-.812.323-1.25.658-2.497.99-3.744.262-.98.528-1.96.787-2.94.024-.093.082-.191.03-.29-.045-.084-.002-.147.03-.216a7.992 7.992 0 0 1 1.533-2.234 2.797 2.797 0 0 1 1.592-.825c.37-.06.742-.112 1.114-.168a1.713 1.713 0 0 0 1.373-1.066c.243-.542.296-1.126.321-1.712.004-.1 0-.2 0-.323a1.313 1.313 0 0 1-.494-.697.467.467 0 0 0-.21-.248 1.687 1.687 0 0 1-.68-.833.56.56 0 0 0-.338-.295 2.576 2.576 0 0 1-1.024-.87c-.439-.64-.555-1.316-.25-2.042a.61.61 0 0 0 .053-.319 1.568 1.568 0 0 1 .345-1.15c.36-.477.69-.973 1.018-1.472a2.398 2.398 0 0 1 1.296-1.033c.56-.173 1.071-.027 1.546.28.361.256.691.554.985.887.484.5.963 1.005 1.444 1.508.206.217.458.38.654.61.461.54.595 1.17.569 1.856-.005.125-.091.196-.154.285-.176.08-.266-.032-.348-.158a1.686 1.686 0 0 0-.717-.617 3.092 3.092 0 0 0-1.315-.28c-.946.003-1.653.497-1.869 1.441-.02.092-.014.198-.132.272-.056-.25-.035-.51.06-.747.318-.788.918-1.216 1.741-1.344.197-.02.395-.028.593-.025l.73.129a.935.935 0 0 0-.598-.235 2.87 2.87 0 0 0-.791-.013c-.844.115-1.54.465-1.91 1.279-.21.41-.264.88-.151 1.326.128 0 .238.009.346-.002.12-.013.239.056.354.004.211-.353.437-.536.835-.594.608-.088 1.302-.028 1.402.85.002.017.025.033.046.06.048-.008.102-.015.154-.026a.248.248 0 0 0 .15-.059c.094-.548.362-.806.893-.842.176-.012.353.008.53.013.317.158.523.391.543.764.025.479-.069.917-.5 1.187a.584.584 0 0 0-.297.47 3.482 3.482 0 0 1-.684 1.766c-.1.125-.194.209-.358.175-.066-.145.048-.229.117-.32.422-.56.612-1.21.751-1.908-.59-.039-.882-.383-.974-.908a.742.742 0 0 0-.403-.04c-.063.218-.17.422-.312.599-.46.54-1.626.483-1.829-.358-.044-.185-.037-.389-.132-.564-.233.018-.447.072-.671.03-.226-.043-.305-.325-.554-.33-.13.154-.091.311-.032.47.127.344.414.464.748.515.028.088.05.178.063.269.037.486.172.96.397 1.39.382.77.962 1.284 1.852 1.374a.588.588 0 0 1 .39.155c.062.077.096.172.1.271.068.392.189.773.358 1.132.111.245.344.338.57.424.324.113.66.189 1 .225.497.051.977.212 1.404.47.557.368.985.901 1.222 1.526.085.215.232.4.424.53.439.297.908.547 1.4.745.51.214.992.49 1.436.821a3.32 3.32 0 0 1 .36-1.14c.38-.66.764-1.319 1.142-1.98.077-.137.191-.128.314-.116.072.167-.064.272-.13.389a17.685 17.685 0 0 0-1.135 2.314c-.077.184-.1.386-.066.582.043.203.091.407.152.609.237.794.429 1.593.315 2.438-.05.371-.02.758-.165 1.11-.167.407-.422.731-.873.882-.191.064-.436.072-.565.29a9.775 9.775 0 0 0 1.546 1.68c.535.496 1.17.871 1.862 1.102.432.15.903.142 1.33-.023.477-.185.88-.524 1.144-.963.103-.157.196-.32.28-.489.15-.3.251-.62.298-.952-.555-.308-.73-.57-.732-1.29 0-.151.043-.305-.048-.463a2.564 2.564 0 0 1-.25-.056c-.546-.176-.954-.476-1.102-1.076-.092-.37-.053-.745-.107-1.11a.166.166 0 0 0-.163.005c-.312.13-.561.017-.78-.2-.344-.344-.42-1.042-.162-1.452a.75.75 0 0 1 1.185-.11c-.112.092-.205-.002-.302-.027-.428-.11-.724.116-.725.559.003.2.051.396.142.573.125.257.27.333.556.32.118-.006.233-.092.376-.005.096.275.11.586.172.886.117.554.36.989.963 1.138.244.06.495.094.746.102.365.013.728.041 1.092.049.145-.001.284.057.384.161zm12.56.793l.04-.038a.078.078 0 0 0-.03-.001c-.03.01-.03.028-.005.046-.028-.017-.058-.03-.077.008a.062.062 0 0 0 .018.048c.037-.001.05-.029.053-.063zM35.875 21.607c-.006.04.016.053.05.047.008 0 .02-.02.019-.02-.021-.02-.043-.042-.075-.02-.066-.225-.28-.3-.445-.405-.548-.349-1.106-.384-1.67-.01-.377.265-.684.62-.894 1.03.287.253.326.253.574.011.386-.4.904-.648 1.458-.697.329-.01.658.011.983.064zm-2.369 6.042a3.078 3.078 0 0 1-.05-.327c-.02-.437.239-.626.646-.478a.088.088 0 0 0 .103-.024 2.382 2.382 0 0 1 1.59-2.59c1.311-.42 2.397-.06 3.25 1.023a.356.356 0 0 0-.027-.262 2.244 2.244 0 0 0-1.607-1.53 3.241 3.241 0 0 0-2.974.565c-.735.561-1.11 1.335-1.193 2.242-.045.493-.038.994.178 1.463.06.242.205.454.409.597.06-.082.073-.15.01-.197-.167-.124-.229-.318-.335-.482zm40.135 39.455a.602.602 0 0 0-.076-.079c-.63-.429-1.226-.904-1.827-1.37a45.264 45.264 0 0 1-2.054-1.721c-.88-.772-1.758-1.546-2.658-2.295-.637-.53-1.283-1.048-1.877-1.625-.373-.363-.758-.711-1.138-1.066-.022-.02-.05-.043-.086-.003-.026.067.086.133.014.212a1.542 1.542 0 0 1-.146.066c-.06.02-.118.064-.208.02a4.014 4.014 0 0 0-1.836-1.813 5.574 5.574 0 0 0-.911-.386c-.51-.146-1.026-.127-1.546-.14-.52-.014-1.03.12-1.55.047a7.308 7.308 0 0 0-1.323-.016c-.263.02-.526.025-.788.016-.455-.031-.896.077-1.334.03a.302.302 0 0 0-.01.22c.128.48.23.965.303 1.456a.433.433 0 0 1-.013.291l-.759 1.425c-.18.002-.33.048-.479-.008a.476.476 0 0 1 .127-.344c.25-.336.44-.712.672-1.06a.414.414 0 0 0 .04-.425c-.366-.947-.714-1.902-.993-2.88a1.728 1.728 0 0 0-1.08-1.173c-.459-.172-.961-.235-1.448-.332a.323.323 0 0 0-.381.23 3.4 3.4 0 0 1-.134.338c-.118.212-.103.474-.263.689-.235-.028-.475.032-.71-.05.031-.51.265-.94.459-1.41-.454-.1-.888-.2-1.325-.29-1.025-.212-2.05-.42-3.076-.627-.85-.173-1.694-.38-2.55-.523a5.44 5.44 0 0 1-.742-.175c-.272-.086-.319-.339-.111-.526a.619.619 0 0 0 .183-.23c.126-.318.263-.631.395-.947a.304.304 0 0 0 .029-.259c-1.224.12-2.375-.148-3.48-.672-.141.36-.26.726-.354 1.1-.234.77-.488 1.533-.69 2.31-.151.577-.106 1.138.322 1.62.22.247.521.413.686.715.026.047.115.051.185.052.456.003.913-.01 1.368.02.956.065 1.914.067 2.87.106 1.145.048 2.29.097 3.434.148.11.004.22.025.33.021.918-.034 1.832.079 2.748.08.336.002.674.091 1.01-.035a.225.225 0 0 1 .273.133c.032.07.06.143.083.217l.897 2.532a.578.578 0 0 1-.004.48c-.059.144-.09.297-.09.452-.014.358-.003.717.033 1.074-.17-.017-.32.066-.472-.027a3.215 3.215 0 0 1-.077-1.284c.02-.231.038-.447-.107-.659a1.78 1.78 0 0 1-.177-.46 18.295 18.295 0 0 0-.63-1.78h-1.484l1.434 4.654c.676 0 1.325.002 1.974 0 1.437-.007 2.874.002 4.311-.03.971-.023 1.943 0 2.914-.009.346-.003.687-.03.964.236.029.027.084.025.123.043.477.224.938.44 1.27.902.364.526.758 1.03 1.18 1.51a6.977 6.977 0 0 0 2.626 1.787c.679.261 1.37.489 2.071.681.374.102.735.243 1.08.42 1.024.541 1.99 1.18 2.989 1.767.269.158.343.16.58-.042a4.446 4.446 0 0 0 1.02-1.329zM45.701 40.023c-.21-.024-.358.07-.522.095-.541.085-1.088.138-1.636.16a1.712 1.712 0 0 0-1.404.747c-.149.206-.29.418-.45.614-.312.381-.621.763-1.049 1.032-.584.369-1.243.49-1.904.615a.409.409 0 0 1-.132.006.181.181 0 0 1-.158-.184.152.152 0 0 1 .129-.169c.097-.022.194-.047.29-.068a3.429 3.429 0 0 0 1.978-1.188c.282-.34.557-.685.86-1.009a2.691 2.691 0 0 1 1.638-.855 12.18 12.18 0 0 1 1.42-.075c.311.016.623.01.933-.018a2.176 2.176 0 0 0-.141-.685c-.115-.346-.286-.673-.328-1.041-.012-.108-.095-.166-.177-.226a8.337 8.337 0 0 0-1.017-.623c-.43-.226-.879-.414-1.293-.672a7.734 7.734 0 0 1-.902-.711c-.433.528-.793 1.068-.934 1.742.207.11.39.213.576.307.186.095.37.235.567.263.213.029.408-.142.617-.21.334-.106.33-.117.58.153-.03.016-.057.034-.086.048-.925.45-1.892.801-2.83 1.218-.386.17-.762.367-1.004.733-.144.21-.262.436-.353.673-.27.749-.613 1.467-.91 2.205-.025.061-.056.12-.092.175a.13.13 0 0 1-.14.07c-.074-.014-.102-.078-.122-.142a.292.292 0 0 1 .03-.193c.277-.752.455-1.54.867-2.278-.748.013-1.458.082-2.184.065.072.712.29 1.371.434 2.043.142.691.32 1.375.53 2.048.213.66.38 1.335.55 2.007.063.248.559 1.87.642 1.981.244-.856.5-1.702.725-2.556.137-.524.32-1.035.548-1.526.164-.34.413-.63.722-.846a6.34 6.34 0 0 1 1.403-.726c.829-.33 1.685-.583 2.53-.87.439-.15.8-.378.975-.825.168-.414.244-.859.224-1.304zm2.688 21.168l-1.331-4.673c-.88 0-1.707.003-2.533 0-.82-.004-1.64.017-2.469-.035-.01.075-.012.15-.008.227.092.53.187 1.061.285 1.59.156.86.646 1.62 1.36 2.12.203.15.458.213.633.404.38-.034.698.213 1.07.231.273.014.543.073.814.112.703.102 1.408.033 2.179.024zM37.064 31.505c-1.093-.093-1.873-.684-2.357-1.7-.024.22-.014.425-.026.629-.038.66-.175 1.288-.59 1.83a2.26 2.26 0 0 1-.893.677c.022.181.134.28.214.398.545.8 1.196 1.458 2.17 1.732a3.84 3.84 0 0 0 1.663.054c.385-.06.626-.487.564-.842a6.04 6.04 0 0 0-.286-1.051 8.497 8.497 0 0 1-.36-1.202c-.034-.162.004-.334-.099-.525zm-7.376 14.5c.158-.313.169-.593.258-.85.34-.98.685-1.957 1.016-2.939a2.21 2.21 0 0 0 .1-1.045c-.101-.676-.253-1.343-.385-2.013-.007-.04-.04-.046-.078-.047l-.761 2.636c-.173.602-.34 1.206-.512 1.809-.033.116-.044.265-.122.338-.16.15-.105.294-.056.452.035.116.064.234.102.35.138.416.278.83.438 1.309zm7.813-22.944a5.92 5.92 0 0 0-.744-.68 2.344 2.344 0 0 0-1.662-.506c-.532.034-1.015.186-1.384.603-.344.388-.7.766-1.047 1.15-.274.304-.24.645.094.876.168.115.352.207.52.304 1.014-1.527 2.417-2.061 4.223-1.747zm2.912 33.463c.512 1.72 1.063 3.366 1.603 5.042.453-.186.906-.3 1.356-.524-.17-.176-.334-.304-.462-.467-.68-.868-.997-1.872-1.131-2.95-.046-.367-.099-.734-.148-1.1h-1.218zm31.05-16.258c-.838.851-1.657 1.684-2.477 2.515-.357.362-.704.735-1.076 1.08-.648.601-1.4.673-2.165.23a6.325 6.325 0 0 1-.36-.225c-.048-.032-.087-.069-.163.003.516.512.981 1.07 1.478 1.624l5.226-4.691-.463-.536zm-23.84 16.249l1.481 4.758c.248-.129.484-.058.768-.114-.495-1.552-.882-3.111-1.353-4.644h-.896zm5.78-6.924l.096 1.918c.718.125 1.297.13 1.655.012-.296-.324-.62-.615-.863-.962-.248-.357-.57-.642-.888-.968zM51.2 41.364h-.705c.055.85.257 1.25 1.09 1.366a16.759 16.759 0 0 0-.385-1.366zM36.896 27.86l.024-.06c-.099-.103-.192-.213-.297-.308a.993.993 0 0 0-.824-.274c-.424.066-.552.082-.329.614.474-.276.951-.18 1.426.028zm2.42.003c-.511-.396-1.2-.517-1.312-.266.006.09-.006.194.109.257.371-.101.75-.033 1.204.009zm1.208 10.047c.027.212-.104.378-.025.59.221-.048.433-.13.628-.244a4.25 4.25 0 0 0-.603-.346zM6.725 84.517c.414.004.78-.037 1.15.047.198.02.397.014.593-.018.752-.04 1.47-.267 2.206-.388 1-.188 2.025-.185 3.024.008.538.115 1.083.201 1.627.291a5.373 5.373 0 0 0 1.9-.052c.735-.14 1.453-.364 2.196-.46a7.616 7.616 0 0 1 2.602.096c.724.156 1.427.378 2.135.587.455.135.914.247 1.375.36.547.126 1.102.213 1.66.26.682.058 1.366.06 2.047.005.536-.039 1.068-.145 1.6-.23.824-.133 1.639-.318 2.452-.497.754-.167 1.504-.349 2.27-.45a17.461 17.461 0 0 1 1.643-.116c.904-.012 1.808.05 2.702.186a.25.25 0 0 0 .212-.051c.47-.384.96-.741 1.406-1.149a.103.103 0 0 0-.1-.082c-1.036.042-2.072.03-3.105-.038-1.14-.065-2.282-.026-3.422-.047-.68-.012-1.36-.068-2.038-.098-.336-.015-.689.001-1.032 0-1.168-.001-2.337-.032-3.505-.054a39.376 39.376 0 0 1-1.063-.033c-1.032-.048-2.066.014-3.098-.083-.333-.031-.676.004-1.02-.009-.064-.183-.008-.253.173-.253.663 0 1.326-.01 1.989-.01 2.224-.003 4.448-.01 6.671-.001 1.402.005 2.802-.08 4.203-.03.663.025 1.326.05 1.986.014.65-.034 1.297-.017 1.945-.024.672-.008 1.344.027 2.016.057a.59.59 0 0 0 .478-.162c.194-.191.449-.314.621-.54-.68 0-1.346.01-2.013-.001-.856-.014-1.712.024-2.57-.009-1.014-.038-2.03-.038-3.045-.052-1.03-.014-2.062-.017-3.093-.042-.58-.014-1.159-.006-1.738-.015-.67-.011-1.34-.044-2.01-.05-1.067-.01-2.133-.053-3.202-.02-1.211.035-2.425.058-3.638.042-1.111-.016-2.223-.003-3.335-.03a3.097 3.097 0 0 1-.748-.054c-.155-.04-.373.047-.571.05a79.19 79.19 0 0 1-2.742.01c-.739-.014-1.478.007-2.216-.007-.636-.012-1.273-.005-1.908-.065a.739.739 0 0 0-.693.286c-.377.46-.804.879-1.21 1.316a.29.29 0 0 1-.22.126c-.228-.003-.456 0-.687 0-.002-.132.086-.177.141-.238.61-.674 1.22-1.346 1.833-2.016.101-.11.186-.262.377-.157.736-.216 1.487-.084 2.232-.097.357-.007.714.03 1.072-.006.262-.035.528-.032.789.007.28.054.465-.058.657-.218.295-.246.598-.481.922-.74-.522-.01-1.002.009-1.484-.005-.393-.012-.79.012-1.185.014-.498.002-.995.011-1.492-.007a11.904 11.904 0 0 0-1.582.02.507.507 0 0 1-.414-.122c.087-.095.174-.193.264-.287.519-.546 1.039-1.09 1.56-1.635a.43.43 0 0 0 .148-.315c.002-.65.04-1.299-.035-1.981-.124.146-.11.334-.226.452-1.378.24-3.685-.602-4.576-1.67.012-.043.048-.036.075-.028.975.26 1.952.199 2.931.032.644-.11 1.277-.276 1.929-.335a1.29 1.29 0 0 1 .372-.011c0 .384.007.757-.001 1.129-.018.74-.044 1.48-.066 2.219-.003.088-.007.177-.001.266.009.123.087.169.202.157.826-.08 1.653-.015 2.48-.036.263-.006.527-.007.791-.001.153.003.311-.04.455.05.036.025.083.03.122.01.251-.09.523-.105.782-.043.37.064.596-.115.808-.334.223-.231.468-.437.695-.662a.483.483 0 0 1 .445-.15c.12.018.242.019.417.03-.404.411-.856.7-1.256 1.063.49.142.774.084 1.117-.219.15-.113.291-.237.424-.37.17-.201.375-.233.619-.23 1.513.02 3.027.031 4.54.044a.348.348 0 0 0 .244-.048c-.185-.22-.366-.436-.55-.65-.035-.039-.104-.098-.13-.087-.213.093-.422-.05-.642.014a2.318 2.318 0 0 1-.59.029 85.083 85.083 0 0 1-3.591-.02c-.472-.01-.944-.028-1.416-.032-.392-.003-.787.066-1.173.004-.337-.053-.665 0-.996.004-.098 0-.195-.011-.3-.017a2.25 2.25 0 0 1-.014-.58h2.11c-.486-.663-1.035-1.223-1.497-1.878.155-.373.593-.438.83-.753-.175-.1-.385-.119-.532-.287a.377.377 0 0 1 .4-.111c.556.145 1.088.359 1.632.538.101.02.184.091.218.188-.239.28-.55.509-.824.78.005.099.09.144.152.204.404.394.81.785 1.216 1.178.115.119.274.184.44.18.871.003 1.742-.034 2.614.008.825.04 1.65.08 2.475.11a.39.39 0 0 1 .309.153c.251.292.513.577.765.87a.465.465 0 0 0 .402.186c.22-.012.442.001.663-.009.2.006.393.068.56.179.98.53 1.964 1.055 2.939 1.595.262.143.554.22.852.226.53.021 1.059.073 1.589.088.13 0 .255.056.342.153.58.578 1.16 1.155 1.742 1.73.147.16.34.269.554.31.229.044.423-.02.633-.02.441.003.883 0 1.324.002.705 0 1.41.003 2.116.004.527 0 1.054.044 1.58.01a.34.34 0 0 1 .188.049.271.271 0 0 0 .187.045c.56-.108 1.117-.01 1.677.007.34.02.682.021 1.023.006.147-.015.294-.01.44.012.013.152-.12.2-.202.272a961.759 961.759 0 0 1-3.174 2.779l-.28.25c.298.087.602.156.908.206.505.053.995.184 1.497.253.707.113 1.421.175 2.137.185.945-.02 1.885-.132 2.808-.336a14.209 14.209 0 0 0 1.573-.469c.832-.277 1.646-.607 2.475-.895.592-.206 1.2-.365 1.802-.54.657-.188 1.33-.31 2.012-.362a10.214 10.214 0 0 1 3.249.22c.908.225 1.798.518 2.662.877.517.21 1.052.385 1.576.583.637.244 1.286.453 1.946.626.836.196 1.691.294 2.55.293 1.24.026 2.428-.25 3.607-.58a21.032 21.032 0 0 0 1.79-.568 61.488 61.488 0 0 1 1.647-.597 27.454 27.454 0 0 1 2.16-.62 13.02 13.02 0 0 1 2.345-.391c.645-.06 1.293-.073 1.94-.038.593.029 1.185.09 1.771.184.701.136 1.392.322 2.066.558.435.15.883.268 1.315.43.823.31 1.632.657 2.45.974 1.222.472 2.44.972 3.725 1.254.472.103.954.164 1.434.227a13.97 13.97 0 0 0 2.972.003c1.603-.132 3.14-.57 4.672-1.023.465-.138.926-.287 1.417-.392-.14.15-.283.298-.42.451a17.21 17.21 0 0 1-2.14 1.932 24.643 24.643 0 0 1-2.481 1.778c-.204.132-.43.228-.666.284-.782.167-1.57.288-2.37.22a17.16 17.16 0 0 1-2.187-.33 17.613 17.613 0 0 1-2.502-.75c-1.36-.514-2.725-1.016-4.09-1.522a15.712 15.712 0 0 0-4.11-.927c-1.426-.125-2.811.053-4.2.32-1.261.244-2.452.705-3.658 1.122-1.248.43-2.494.871-3.792 1.136-.42.085-.85.118-1.276.164-.615.069-1.234.089-1.851.059a10.737 10.737 0 0 1-1.99-.316 16.596 16.596 0 0 1-1.962-.587c-.76-.288-1.535-.541-2.284-.857-.954-.403-2.827-.8-3.686-.835-.689-.026-1.36.08-2.035.175-.69.097-1.336.364-2.003.549-.884.245-1.705.656-2.568.959-.574.225-1.164.411-1.763.558-.667.138-1.32.351-2.004.397-.812.054-1.624.143-2.439.047-.546-.064-1.095-.103-1.638-.19a19.3 19.3 0 0 1-1.684-.329c-.449-.114-.906-.19-1.361-.277a12.814 12.814 0 0 0-3.286-.2c-.683.04-1.361.139-2.028.293-.9.218-1.807.4-2.715.58-1.158.23-2.323.42-3.508.39a13.048 13.048 0 0 1-3.647-.565c-.9-.287-1.794-.605-2.725-.788a9.56 9.56 0 0 0-1.479-.128c-.83-.033-1.616.203-2.412.374-.745.16-1.492.301-2.257.228a11.942 11.942 0 0 1-1.6-.226 8.438 8.438 0 0 0-3.06-.144c-.076.01-.154.013-.23.028a.809.809 0 0 1-.65-.16c-.685-.465-1.397-.888-2.099-1.328a8.752 8.752 0 0 1-1.696-1.419zm3.707-5.463a6.55 6.55 0 0 0 1.154.065c.65.006 1.303 0 1.954.012.728.012 1.456.047 2.183.053.96.008 1.918-.005 2.877-.006.606 0 1.213.005 1.82.01.651.007 1.302.002 1.952.03.817.037 1.632.093 2.449.107.075.002.179.031.215-.044.083-.169.23-.113.35-.115 1.18-.017 2.362-.024 3.543-.035.071 0 .155.036.213-.067-.515-.38-1.03-.758-1.542-1.142a.417.417 0 0 0-.28-.063c-.707-.001-1.414-.003-2.12-.006-1.115-.006-2.23-.072-3.344-.023-.836.038-1.67.001-2.505.022-.683.018-1.367.008-2.052-.025-.758-.036-1.52-.028-2.28-.032a76.405 76.405 0 0 1-3.175-.071.336.336 0 0 0-.301.096c-.35.395-.706.785-1.111 1.234zm19.008 1.758l.01-.07c-.126-.064-.247-.137-.376-.191a33.873 33.873 0 0 1-1.697-.752 1.485 1.485 0 0 0-.603-.161c-.263-.008-.527-.008-.79-.009-.746-.003-1.49-.01-2.235-.005-.39.002-.779.023-1.17.035a.11.11 0 0 0 .093.105c.52.186 1.038.38 1.564.548.605.193 1.176.464 1.84.504 1.125.068 2.243-.031 3.364-.004zm-12.29-8c-.31.154-.607.331-.888.532l.665.769c.306-.322.623-.596.867-.943-.212-.138-.443-.196-.645-.358h.001zm-.128 1.418c.249.303.495.597.735.896a.373.373 0 0 0 .459.118l-.938-1.261c-.071.06-.122.1-.168.144-.032.033-.061.067-.089.103h.001z"/>
        <path fill="#333" d="M13.06 88.838c.674.1 1.319.196 1.964.29.757.11 1.518.167 2.277.036.543-.094 1.082-.218 1.62-.34a8.14 8.14 0 0 1 2.954-.176c.63.105 1.253.258 1.861.457 1.226.365 2.452.737 3.734.85.942.072 1.89.045 2.826-.082 1.184-.148 2.338-.437 3.502-.687.538-.116 1.082-.205 1.624-.306a16.495 16.495 0 0 1 1.674-.203c.682-.04 1.366-.025 2.046.043.417.032.831.105 1.246.165.926.135 1.837.352 2.758.52.586.104 1.177.176 1.771.216 1.23.066 2.464-.04 3.666-.313a14.049 14.049 0 0 0 1.731-.545c.842-.294 1.672-.618 2.519-.9a27.49 27.49 0 0 1 1.739-.527 11.313 11.313 0 0 1 2.554-.331 10.584 10.584 0 0 1 3.259.468c1.24.358 2.423.87 3.629 1.32 1.081.417 2.212.692 3.364.819 1.077.096 2.162.026 3.218-.207a24.935 24.935 0 0 0 3.418-1.025 45.174 45.174 0 0 1 2.193-.734c.581-.176 1.167-.328 1.754-.47.7-.157 1.41-.26 2.126-.31a12.95 12.95 0 0 1 3.594.178c1.004.21 1.99.496 2.953.853 1.602.567 3.157 1.256 4.754 1.834.864.302 1.75.534 2.65.693l.405.078a.668.668 0 0 1-.094.084c-.807.437-1.626.85-2.464 1.225-.631.282-1.254.581-1.884.867-.322.146-.652.274-.974.421a.455.455 0 0 1-.35-.007c-.604-.183-1.167-.468-1.75-.703-.216-.086-.438-.14-.656-.213a20.537 20.537 0 0 0-2.673-.725c-.15-.029-.308-.026-.462-.043-1.01-.112-2.017-.189-3.034-.058-.634.082-1.27.145-1.896.28a26.28 26.28 0 0 0-3.096.926c-1.008.35-2.006.733-3.037 1.015-.943.263-1.909.438-2.884.523a10.61 10.61 0 0 1-2.66-.082 16.923 16.923 0 0 1-2.805-.754c-1.058-.374-2.076-.857-3.153-1.171-.897-.261-1.8-.535-2.744-.549a10.534 10.534 0 0 0-3.412.47c-.48.155-.963.303-1.438.475-.394.142-.783.3-1.174.45-.73.28-1.463.553-2.214.764-.996.28-2.003.506-3.048.529a19.28 19.28 0 0 1-2.467-.072c-.608-.064-1.208-.206-1.81-.322-1.026-.2-2.048-.428-3.09-.552a15.118 15.118 0 0 0-1.514-.099c-.683.002-1.364.067-2.035.194-.98.164-1.945.392-2.914.604-.43.095-.858.2-1.295.26a.826.826 0 0 1-.423-.008.786.786 0 0 0-.362.005c-1.907.2-3.831.157-5.727-.126-.23-.033-.46-.076-.691-.094-.675-.055-1.28-.317-1.883-.598-.5-.233-1.011-.443-1.52-.66a65.739 65.739 0 0 1-2.452-1.096c-1.024-.488-2.02-1.039-3.039-1.538a34.918 34.918 0 0 1-2.034-1.108.482.482 0 0 1-.224-.178z"/>
        <path fill="#333" d="M55.865 99.808l-2.05.007c-.794-.027-1.587-.047-2.38-.08-1.455-.064-2.91-.143-4.358-.295-.812-.085-1.627-.146-2.437-.243-.855-.102-1.707-.234-2.56-.354a81.007 81.007 0 0 1-4.432-.769 80.075 80.075 0 0 1-2.227-.475c-.772-.175-1.541-.358-2.31-.55-.492-.124-.972-.308-1.466-.408-.566-.114-1.108-.295-1.662-.445a.973.973 0 0 1-.425-.175c.41-.084.795-.168 1.182-.24.986-.187 1.945-.492 2.933-.678.768-.144 1.527-.336 2.302-.453a14.084 14.084 0 0 1 4.053-.005c.974.135 1.935.325 2.894.538.534.118 1.085.161 1.63.233.746.098 1.497.064 2.246.043a9.083 9.083 0 0 0 1.504-.223c.818-.18 1.623-.417 2.408-.709.936-.324 1.85-.705 2.8-.995.911-.301 1.85-.512 2.802-.63a9.678 9.678 0 0 1 3.22.162c.816.185 1.622.42 2.41.701.505.185.998.405 1.503.592.815.3 1.623.623 2.477.807.398.085.792.188 1.194.248a9.61 9.61 0 0 0 1.906.064 13.495 13.495 0 0 0 3.012-.533c.987-.281 1.946-.638 2.913-.972.814-.282 1.628-.557 2.461-.773 1.29-.348 2.618-.53 3.954-.539 1.535.005 3.059.26 4.512.754.354.14.695.31 1.019.51-.34.143-.629.279-.928.389a95.02 95.02 0 0 1-4.029 1.39 73.24 73.24 0 0 1-3.962 1.159c-1.42.366-2.838.734-4.279 1.012-.735.142-1.465.32-2.202.45-1.195.211-2.39.428-3.592.589-1.671.223-3.345.428-5.027.568-1.54.128-3.081.224-4.624.288-.794.033-1.59.028-2.385.04zM67.61 56.392l.033-.375c1.29-.067 2.57.081 3.867.02-.998-.631-1.336-1.639-1.65-2.7.196-.017.261.118.354.193.275.222.539.458.813.68.098.072.2.137.306.196.025.05.081.074.135.06-.006.027.004.042.031.043.008 0 .017-.01.026-.016l-.042-.04c0-.058-.043-.083-.086-.11-.153-.215-.322-.422-.456-.65-.716-1.212-1.008-2.533-.986-3.932 0-.04-.01-.09.065-.124.098.031.146.137.21.219.445.563.946 1.077 1.425 1.61a.83.83 0 0 0 .226.13l.035.037.007-.039-.045.006c.04-.147-.068-.248-.127-.353a4.489 4.489 0 0 1-.52-1.7 14.212 14.212 0 0 1-.07-2.944.736.736 0 0 1 .082-.362c.147.207.273.428.375.661.332.574.73 1.108 1.186 1.59a12.492 12.492 0 0 1 1.562 2.294c.029.043.06.084.094.123 0-.193.003-.34 0-.485-.03-1.173.345-2.216 1.005-3.17.036-.051.063-.119.143-.122.021.047.02.1-.004.146a.727.727 0 0 0-.19.393 5.188 5.188 0 0 0-.547 3.22l.65-3.22a.735.735 0 0 0 .083-.397c.078-.043-.015-.093.006-.138a.932.932 0 0 1 .397-.524l-.006-.007a1.3 1.3 0 0 1-.044.523 13.146 13.146 0 0 0-.198 2.813c.368-.616.7-1.255 1.21-1.778a12.734 12.734 0 0 0-.215 4.463c.134-.05.123-.167.153-.25.261-.722.581-1.412 1.101-1.99.161-.194.357-.356.577-.479.053.412.073.827.061 1.242a14.294 14.294 0 0 1-.213 2.337 4.75 4.75 0 0 1-1.262 2.4c-.206.215-.426.415-.64.623a.67.67 0 0 1-.428.135c-.816-.014-1.633-.016-2.45-.02-1.531-.009-3.063-.022-4.594.026-.46.014-.922.002-1.38.002-.071-.083-.026-.182-.064-.26zm4.955-4.817c.004.022-.037.055.016.064l-.02-.059c-.417-.739-.619-1.553-.822-2.367-.146-.585-.238-1.184-.443-1.833.032.944.059 1.81.325 2.649.151.508.395.984.72 1.403.051.064.091.191.224.143zm5.702-.131c-.362.922-.48 1.897-.589 2.874.43-.908.552-1.88.589-2.874zm-1.933-1.682c-.467.805-.492 2.084-.089 2.927a9.261 9.261 0 0 1 .089-2.927zm.034-.205a.06.06 0 0 0-.014.082.02.02 0 0 0 .018.001.059.059 0 0 0-.004-.083zM73 69.172c.584.455 1.117.925 1.353 1.667.582.119 1.184.092 1.753-.08.239-.052.463-.155.658-.301.11-.088.161-.18.085-.312a.95.95 0 0 1 .038-1.087.574.574 0 0 0 .04-.121c-1.023-.228-1.807-.882-2.653-1.457a3.95 3.95 0 0 1 .152-.655c.234.194.485.325.711.503.204.143.418.27.64.38.317.18.632.361.96.52.394.192.822.24 1.245.313.5.071 1.008.089 1.512.053.428.001.855-.026 1.28-.081a6.614 6.614 0 0 0 1.066-.342c.31-.11.606-.23.956-.193.257.008.495.14.64.354.37.592.396 1.046-.129 1.62-.838.918-1.915 1.434-3.076 1.809a6.008 6.008 0 0 1-1.46.282 2.62 2.62 0 0 0-1.336.434 3.43 3.43 0 0 1-1.367.558c-.436.072-.875.118-1.31-.002-.41-.113-.62-.406-.686-.808a3.31 3.31 0 0 1-.052-.594 1.47 1.47 0 0 0-.43-1.104 5.751 5.751 0 0 0-.993-.871 1.574 1.574 0 0 1-.162-.14l.565-.345z"/>
        <path fill="#333" d="M68.795 72.98l.65-.168c.346.514.635 1.044.695 1.666a.321.321 0 0 0 .212.3c.585.269 1.233.37 1.872.29.076-.013.151-.033.224-.06.124-.038.194-.126.15-.251-.133-.383.025-.665.29-.918a.166.166 0 0 0 .071-.145c-.807-.496-1.34-1.285-1.923-2.053l.337-.51c.098.01.136.082.182.142.491.652 1.035 1.263 1.626 1.825.068.055.142.104.219.146.6.388 1.265.617 1.94.835.798.258 1.599.404 2.44.286.209-.019.42-.005.623.042.34.053.61.313.674.65.147.586.007.992-.515 1.304a5.078 5.078 0 0 1-1.848.691 8.504 8.504 0 0 1-2.312.081 5.53 5.53 0 0 1-.717-.134 2.39 2.39 0 0 0-1.305.062 3.411 3.411 0 0 1-2.272-.147c-.625-.25-.696-.728-.582-1.278.049-.236.16-.453.17-.702a1.3 1.3 0 0 0-.1-.58 5.69 5.69 0 0 0-.8-1.374zM34.479 56.847c-.122.292-.086.608-.118.91-.089.843-.202 1.685-.27 2.527-.077.936-.099 1.884.092 2.821.096.475.2.951.266 1.431.104.696.079 1.404-.073 2.09-.22.962-.468 1.923-.45 2.928.008.455.032.911.025 1.41-.84.003-1.68.064-2.512.183-.193-.251-.224-.531-.296-.796-.216-.796-.503-1.572-.687-2.377a9.737 9.737 0 0 1-.247-3.153 12.75 12.75 0 0 1 .395-1.914 5.636 5.636 0 0 0 .05-2.455c-.12-.66-.232-1.323-.337-1.986-.024-.155-.089-.327.049-.47.144.031.163.146.187.251.147.647.383 1.269.553 1.909.22.788.268 1.614.143 2.422-.112.701-.329 1.374-.455 2.07a6.458 6.458 0 0 0 .104 2.789c.27 1.059.658 2.08.97 3.127a.642.642 0 0 0 .053.1c.411-.027.827.023 1.238-.05a.634.634 0 0 0 .03-.336 9.027 9.027 0 0 1 .172-2.591c.065-.278.11-.563.192-.834.261-.858.241-1.715.084-2.587a13.197 13.197 0 0 1-.136-3.795c.09-.81.216-1.618.336-2.426.095-.643.193-1.287.312-1.926.16-.865.415-1.697.927-2.428.108-.177.247-.334.41-.463.096.075.04.155.049.224-.068.031-.083.101-.107.159-.25.596-.53 1.18-.67 1.818-.125.466-.218.94-.279 1.418zM35.964 53.747c.062-.13-.068-.287.071-.426.221.295.314.637.423.966.21.633.262 1.297.351 1.953.118.864.177 1.736.343 2.592.085.377.192.75.319 1.115.217.663.305 1.361.258 2.058-.063.666-.19 1.324-.378 1.966a6.498 6.498 0 0 0-.201 2.655c.076.434.177.864.304 1.286.235.873.58 1.711.81 2.586a.49.49 0 0 0 .05.094h1.384c.03-.269.031-.54.005-.81a8.987 8.987 0 0 1 .325-2.748 6.015 6.015 0 0 0 .24-2.093c-.028-.333-.112-.652-.159-.98a14.715 14.715 0 0 1-.172-2.543.668.668 0 0 1 .056-.31.396.396 0 0 1 .316.003c.044.806.134 1.609.27 2.404.07.434.156.865.218 1.3.103.72-.004 1.425-.164 2.126-.144.631-.33 1.252-.362 1.907a18.14 18.14 0 0 0 .002 1.653c.017.14.01.282-.022.419-.409.101-.836-.009-1.257.058-.407.065-.82.174-1.257.1.026-.363-.174-.658-.257-.986-.176-.691-.399-1.372-.582-2.063a6.817 6.817 0 0 1-.24-1.303c-.038-.599-.11-1.198-.046-1.801.062-.605.179-1.203.349-1.787.112-.381.162-.776.243-1.161.051-.248-.015-.545-.035-.819-.053-.74-.246-1.457-.346-2.19-.105-.77-.408-1.489-.562-2.247-.042-.38-.09-.76-.127-1.14-.06-.61-.114-1.223-.17-1.834zM43.707 64.84h1.076c.093.077.07.182.07.278-.004.387-.01.773-.02 1.159-.017.755-.055 1.511-.05 2.267.002.462-.071.922-.016 1.384a.397.397 0 0 1-.006.198c-.12.267-.04.544-.034.811.014.782 0 1.563-.01 2.344-.002.232-.005.464-.012.696-.016.626-.03 1.253-.054 1.88-.01.306.05.616-.04.94-.304.043-.611.055-.917.035 0-.382-.003-.754 0-1.125.005-.383.028-.763-.004-1.15-.037-.424 0-.854-.01-1.283-.02-.912-.007-1.825-.007-2.738 0-.078-.031-.177.005-.23.154-.224.03-.441.015-.664a9.49 9.49 0 0 1 .005-1.679.22.22 0 0 0 .009-.065c-.081-.357.047-.72-.033-1.077-.06-.272-.01-.547-.003-.82.008-.298-.022-.593-.024-.89a.41.41 0 0 1 .06-.27zM57.339 64.894c.298 0 .562.006.827-.003a.24.24 0 0 1 .263.198c.034.116.052.236.051.356-.015 1.132-.005 2.265-.031 3.397-.011.459.01.919-.023 1.376-.068.944-.019 1.889-.088 2.833-.045.62-.005 1.244-.005 1.867 0 .54-.003 1.078-.009 1.618-.001.12-.02.24-.035.392a5.254 5.254 0 0 1-.92.017c-.061-.443-.022-.872-.032-1.299-.012-.56-.002-1.122-.002-1.683a.433.433 0 0 1 0-.099c.143-.586-.067-1.171-.003-1.759.046-.423.028-.853.033-1.278.004-.36-.033-.724-.034-1.087 0-.868-.033-1.736-.018-2.603.006-.395-.06-.794.007-1.181.06-.348-.04-.69.019-1.062zM35.616 76.342c.037.193.042.392.015.587l-4.86.1v-.686c.196-.114.426.024.605-.048a.231.231 0 0 0 .04-.25c-.26-.376-.118-.773-.048-1.148a9.23 9.23 0 0 0 .084-3.215c.217-.045.44-.067.661-.065.23.978.23 1.995.003 2.973.042.034.057.056.076.06.248.052.478.267.72.211.257-.06.486-.245.754-.39a4.765 4.765 0 0 1-.357-1.432 9.031 9.031 0 0 1-.066-1.487l.745-.077c0 .29-.007.559.002.827.016.505.014 1.008.136 1.508.145.597.378 1.17.693 1.697.126.213.277.418.324.679-.164.084-.237-.035-.314-.116a8.536 8.536 0 0 1-.851-1.014c-.025-.035-.052-.068-.08-.105-.178.04-.29.165-.44.263l.723.692a.645.645 0 0 1 .155.17c.112.246.312.258.543.247.245-.02.492-.013.737.019zm-3.926-.074c.665.094 1.315.036 2.044.035-.563-.493-1.158-.759-1.779-1.015-.108.329-.109.666-.265.98zM37.88 71.619c.212-.042.426-.065.642-.067a6.193 6.193 0 0 1-.008 3.027l.789.281c.27-.156.587-.26.845-.498-.381-.936-.367-1.918-.407-2.876a.364.364 0 0 1 .275-.078.402.402 0 0 1 .23.007c.06.117.084.25.067.38a8.11 8.11 0 0 0 .109 1.834 5.89 5.89 0 0 0 .813 1.94c.093.15.186.3.273.453.021.037.013.086-.038.155-.454-.368-.759-.861-1.11-1.32-.193.089-.32.25-.58.311a5.12 5.12 0 0 1 1.175 1.107c.299 0 .616-.001.933.001a.95.95 0 0 1 .328.03.33.33 0 0 1 .243.318c.002.137-.113.233-.3.252a7.833 7.833 0 0 1-.561.033c-.706.02-1.413.05-2.119.048-.757 0-1.514.052-2.308.015 0-.172.004-.336-.001-.5a.177.177 0 0 1 .195-.21c.141-.003.283 0 .487 0-.28-.317-.127-.636-.12-.936.009-.439.135-.868.185-1.303.045-.338.065-.68.06-1.02-.017-.46-.052-.918-.097-1.384zm2.196 4.627c-.478-.497-1.073-.75-1.699-.971-.133.338-.14.672-.288.97.674.06 1.327.005 1.987 0z"/>
        <path fill="#E3AD94" d="M57.195 56.382c-.664-.002-1.318-.117-1.978-.162-.32-.022-.638-.06-.957-.077-.18-.009-.25-.094-.33-.255-.27-.547-.248-1.133-.275-1.713a6.513 6.513 0 0 1-.032-1.02h3.335c.285.829.502 1.68.734 2.527a2.64 2.64 0 0 1-.497.7zM35.964 53.747c.057.611.11 1.223.17 1.835.038.38.085.76.128 1.14-.313.042-.629.051-.943.075-.28.02-.565-.042-.84.05.06-.478.154-.952.278-1.418.141-.638.422-1.221.67-1.818.025-.057.04-.128.108-.159.2.014.278.208.43.295zM110.218 72.933c.223-.451.558-.831.804-1.268.013-.023.053-.032.131-.076a5.365 5.365 0 0 1-.862 1.416l-.073-.072z"/>
        <path fill="#333" d="M9.108 41.483c.028.006.061.02.036.05-.023.027-.05.004-.065-.023.01-.008.02-.017.029-.027z"/>
        <path fill="#E3AD94" d="M111.255 71.284c0 .049.012.09-.002.102-.05.044-.03-.019-.03-.029 0-.017.014-.035.032-.073z"/>
        <path fill="#333" d="M52.24 34.702c-.778-.845-1.728-1.224-2.88-1.092a6.357 6.357 0 0 0-1.47.384c-.164.06-.31.104-.457-.023a.23.23 0 0 1 .117-.186c.906-.478 1.854-.749 2.888-.578a3.226 3.226 0 0 1 2.021 1.206c.064.079.16.149.1.253-.08.136-.206.08-.32.036zM53.426 38.68c-.28-.237-.5-.53-.756-.788a8.776 8.776 0 0 0-.625-.632c.007-.136.103-.203.171-.286.068-.084.141-.169.225-.269l-.726-1.371a1.39 1.39 0 0 1-.081-.145c-.03-.078-.098-.165 0-.24.12-.09.203-.024.27.081.184.521.417 1.022.645 1.524.086.19.172.369-.037.546.338.417.659.809.975 1.204.159.198.15.233-.061.376zM52.355 40.83a.257.257 0 0 1-.14-.243c.006-.542.007-1.084.015-1.627a.894.894 0 0 1 .066-.213 3.82 3.82 0 0 1 .98.017c-.186.16-.444.08-.665.198-.03.277-.038.556-.023.835-.003.252.006.504.014.756a.234.234 0 0 1-.247.278zM76.002 46.612l.024-.045c.027.04.007.046-.03.038l.006.007z"/>
        <path fill="#E3AD94" d="M29.688 46.005c-.16-.478-.3-.893-.438-1.31-.038-.114-.066-.233-.103-.349-.049-.16-.103-.303.057-.452.078-.073.089-.221.122-.338.172-.603.339-1.207.512-1.81.252-.879.505-1.757.76-2.635.039.002.071.008.079.047.132.67.283 1.337.384 2.014.051.35.017.71-.099 1.044-.332.983-.676 1.96-1.016 2.94-.09.256-.1.535-.258.849zM53.403 49.591c.319.326.64.611.888.968.242.347.567.638.863.962-.358.118-.937.113-1.655-.012l-.096-1.918zM40.524 37.91c.21.098.412.214.603.345a2.135 2.135 0 0 1-.628.244c-.08-.21.052-.377.025-.59zM33.423 27.731l.084-.082c.107.164.168.358.335.482.063.047.05.115-.01.197a1.034 1.034 0 0 1-.41-.597zM37.14 24.583l.13-.106a.935.935 0 0 1 .6.234l-.73-.128zM75.517 47.672h-.103a.728.728 0 0 1 .19-.394l-.005-.004a.735.735 0 0 1-.082.398zM71.398 54.345c.042.025.085.05.086.109l-.016.013a.12.12 0 0 1-.135-.06l.065-.062zM76.368 49.557a.059.059 0 0 1 .004.083.02.02 0 0 1-.018 0 .06.06 0 0 1 .014-.083zM75.604 47.278a.165.165 0 0 0 .003-.146l-.002.004c-.02.045.073.095-.006.138l.005.004zM71.879 51.6l.044-.007-.007.04-.035-.037z"/>
        <path fill="#E3AD94" d="M71.484 54.454l.041.04c-.008.005-.017.015-.025.015-.027 0-.038-.016-.032-.042l.016-.013z"/>
    </g>
</svg>
