<svg xmlns="http://www.w3.org/2000/svg" width="32" height="32" viewBox="0 0 32 32">
    <g fill="none" fill-rule="evenodd">
        <circle cx="16" cy="16" r="16" fill="#236BE9"/>
        <path fill="#FFF" fill-rule="nonzero" d="M20.951 9.04c-2.759-1.834-6.743-1.812-9.502-.002a.44.44 0 0 0-.128.6.42.42 0 0 0 .589.13c2.479-1.625 6.101-1.646 8.577 0a.42.42 0 0 0 .589-.128.44.44 0 0 0-.125-.6z"/>
        <path fill="#FFF" fill-rule="nonzero" d="M23.094 13.464c-1.403-2.215-3.915-3.616-6.6-3.736-2.846-.127-5.508 1.179-7.249 3.767a.44.44 0 0 0 .11.604.42.42 0 0 0 .592-.112c1.572-2.337 3.953-3.505 6.51-3.39 2.416.107 4.672 1.366 5.922 3.339a.42.42 0 0 0 .588.129.44.44 0 0 0 .127-.6z"/>
        <path fill="#FFF" fill-rule="nonzero" d="M11.122 21.185c-.805-2.633-.516-4.832.652-6.406 1.024-1.38 2.68-2.18 4.392-2.18 3.227 0 5.602 2.651 5.602 5.63 0 .894-.71 1.618-1.586 1.618-.876 0-1.59-.726-1.59-1.618h-.85v.06h.851c0-1.373-1.091-2.487-2.437-2.487-1.324 0-2.368 1.087-2.435 2.465-.044.892.241 2.086.84 3.13.784 1.372 2.033 2.414 3.759 2.955a.424.424 0 0 0 .531-.288.436.436 0 0 0-.282-.543c-1.516-.475-2.595-1.375-3.274-2.561-.514-.9-.76-1.926-.724-2.649.045-.929.728-1.64 1.585-1.64.876 0 1.586.725 1.586 1.618 0 .58.85.58.85 0v-.06c0-.58-.85-.58-.85 0 0 1.373 1.094 2.487 2.44 2.487 1.346 0 2.437-1.113 2.437-2.487 0-3.442-2.738-6.499-6.453-6.499-1.972 0-3.882.921-5.07 2.525-1.342 1.808-1.67 4.299-.787 7.189.07.229.309.357.533.285a.436.436 0 0 0 .28-.544z"/>
        <path fill="#FFF" fill-rule="nonzero" d="M14.723 23.425c-.94-.82-1.79-2.485-2.029-4.09-.274-1.845.25-3.344 1.64-4.185 2.484-1.502 5.387.316 5.387 3.19 0 .24.19.435.426.435a.43.43 0 0 0 .426-.435c0-3.532-3.608-5.79-6.673-3.937-1.722 1.041-2.37 2.896-2.047 5.062.268 1.805 1.215 3.66 2.317 4.621a.42.42 0 0 0 .6-.048.44.44 0 0 0-.047-.613z"/>
        <path fill="#FFF" fill-rule="nonzero" d="M15.748 18.204c-.035 1.182.53 2.642 1.508 3.487.886.765 2.173 1.062 3.771.867a.433.433 0 0 0 .373-.483.428.428 0 0 0-.474-.38c-1.38.168-2.433-.075-3.12-.667-.769-.665-1.235-1.868-1.207-2.798a.43.43 0 0 0-.413-.447.43.43 0 0 0-.438.42z"/>
    </g>
</svg>
