<svg xmlns="http://www.w3.org/2000/svg" width="32" height="32" viewBox="0 0 32 32">
    <path fill="#007AFF" fill-rule="evenodd" d="M31.188 22.406c.414 0 .756.31.806.71l.006.103v3.593a5.194 5.194 0 0 1-4.969 5.183l-.218.005h-3.594a.813.813 0 0 1-.102-1.619l.102-.006h3.593a3.567 3.567 0 0 0 3.558-3.374l.005-.189V23.22c0-.449.364-.813.813-.813zm-30.375 0c.414 0 .756.31.806.71l.006.103v3.593a3.567 3.567 0 0 0 3.374 3.558l.189.005H8.78a.813.813 0 0 1 .102 1.619L8.781 32H5.187a5.194 5.194 0 0 1-5.182-4.969L0 26.813v-3.594c0-.449.364-.813.813-.813zm20.841.053a.844.844 0 0 1-.047 1.192A8.24 8.24 0 0 1 16 25.844a8.24 8.24 0 0 1-5.607-2.193.844.844 0 0 1 1.145-1.24A6.558 6.558 0 0 0 16 24.157c1.66 0 3.244-.62 4.462-1.744a.844.844 0 0 1 1.192.047zm-4.81-11.24c.43 0 .785.322.837.738l.006.105v6a2.16 2.16 0 0 1-2.002 2.151l-.154.006h-.687a.844.844 0 0 1-.106-1.681l.106-.007h.687a.47.47 0 0 0 .461-.384l.008-.084v-6c0-.466.378-.844.844-.844zm5.86 0c.405 0 .74.304.79.697l.006.1v2.406a.797.797 0 0 1-1.588.1l-.006-.1v-2.406c0-.44.357-.797.797-.797zm-13.22 0c.44 0 .797.357.797.797v2.406a.797.797 0 0 1-.697.79l-.1.007a.797.797 0 0 1-.796-.797v-2.406c0-.44.356-.797.796-.797zM8.781 0a.813.813 0 0 1 .102 1.619l-.102.006H5.187A3.567 3.567 0 0 0 1.63 4.999l-.005.189V8.78a.813.813 0 0 1-1.619.102L0 8.781V5.187A5.194 5.194 0 0 1 4.969.005L5.187 0h3.594zm18.032 0a5.194 5.194 0 0 1 5.182 4.969l.005.218v3.594a.813.813 0 0 1-1.619.102l-.006-.102V5.187a3.567 3.567 0 0 0-3.374-3.557l-.189-.005H23.22a.813.813 0 0 1-.102-1.619L23.219 0h3.593z"/>
</svg>
