<svg xmlns="http://www.w3.org/2000/svg" xmlns:xlink="http://www.w3.org/1999/xlink" width="24" height="24" viewBox="0 0 24 24">
    <defs>
        <path id="a" d="M8.258 12.446c1.118.36 2.035 1.189 2.445 2.293a.75.75 0 0 1-1.406.522C8.963 14.363 8.044 13.75 7 13.75c-1.044 0-1.963.613-2.297 1.511a.75.75 0 0 1-1.406-.522c.41-1.104 1.327-1.933 2.445-2.293a2.75 2.75 0 1 1 2.516 0zM2.247 3h19.5a2.25 2.25 0 0 1 2.25 2.25v13a2.25 2.25 0 0 1-2.25 2.25h-19.5a2.25 2.25 0 0 1-2.25-2.25v-13A2.25 2.25 0 0 1 2.247 3zm0 1.5a.75.75 0 0 0-.75.75v13c0 .414.336.75.75.75h19.5a.75.75 0 0 0 .75-.75v-13a.75.75 0 0 0-.75-.75h-19.5zM7 11.25a1.25 1.25 0 1 0 0-2.5 1.25 1.25 0 0 0 0 2.5zM12.75 9a.75.75 0 1 1 0-1.5h7a.75.75 0 1 1 0 1.5h-7zm0 3a.75.75 0 1 1 0-1.5h3a.75.75 0 1 1 0 1.5h-3zm0 3a.75.75 0 1 1 0-1.5h3a.75.75 0 1 1 0 1.5h-3z"/>
    </defs>
    <use fill="#242635" fill-rule="evenodd" xlink:href="#a"/>
</svg>
