<svg xmlns="http://www.w3.org/2000/svg" width="20" height="20" viewBox="0 0 20 20">
    <path fill="#60616C" fill-rule="nonzero" d="M12.303 7c.837 0 1.495.273 1.976.82.48.546.721 1.273.721 2.18 0 .92-.24 1.65-.721 2.19-.48.54-1.14.81-1.976.81-.437 0-.858-.115-1.264-.345-.405-.23-.752-.6-1.039-1.108-.287.509-.634.878-1.04 1.108-.405.23-.826.345-1.263.345-.837 0-1.495-.27-1.976-.81C5.241 11.65 5 10.92 5 10c0-.907.24-1.634.721-2.18.48-.547 1.14-.82 1.976-.82.424 0 .842.118 1.254.354.412.236.762.609 1.049 1.118.287-.51.637-.882 1.049-1.118.412-.236.83-.354 1.254-.354zM7.79 11.602c.325 0 .63-.127.918-.382.287-.254.53-.667.73-1.239-.374-1.056-.924-1.583-1.648-1.583-.4 0-.714.152-.945.456-.231.304-.347.686-.347 1.146 0 .472.112.857.337 1.155.225.298.543.447.955.447zm4.42 0c.412 0 .73-.152.955-.456.225-.304.337-.686.337-1.146 0-.46-.116-.842-.347-1.146-.23-.304-.546-.456-.945-.456-.724 0-1.274.527-1.648 1.583.2.572.443.985.73 1.24.287.254.593.381.918.381z"/>
</svg>
