<svg xmlns="http://www.w3.org/2000/svg" width="133" height="100" viewBox="0 0 133 100">
    <g fill="none" fill-rule="nonzero">
        <path fill="#9CB9B3" d="M.126 57.172L0 57.18v-1.931c.11-.038.091-.127.085-.211.081.033.065.106.064.168-.016.605-.054 1.21.031 1.814.007.047-.035.101-.054.152zM87.852 77.22c-.127-.011.06-.106-.035-.13-.333-.082-.519-.34-.705-.596.125-.387.309-.75.463-1.125.456-1.104.964-2.183 1.475-3.26.233-.491.387-.988.314-1.536a5.074 5.074 0 0 0-.093-.556c-.256-1.029-.518-2.056-.78-3.084a4.836 4.836 0 0 0-.315-.871 1.883 1.883 0 0 0-1.096-.955 4.948 4.948 0 0 1-1.42-.775.873.873 0 0 1-.349-.684.753.753 0 0 0-.148-.477c.312-.535.507-1.102.782-1.633.24-.456.31-.982.195-1.485a6.214 6.214 0 0 1-.092-.555 1.173 1.173 0 0 0-.622-.92 5.412 5.412 0 0 0-2-.654c-.13-.017-.274-.08-.406-.005-.022.156.086.175.178.208-.084.085-.173.167-.251.258-.163.19-.406.301-.516.541a.205.205 0 0 0-.221.111c-.177.333-.349.672-.332 1.062.006.166-.026.33-.095.481-.097.187-.15.394-.153.605a1.8 1.8 0 0 1-.078.588c-.104.359-.01.745.246 1.016.054.086.156.13.255.109a.547.547 0 0 0 .133.275c-.169.17-.186.447-.397.607-.16-.125-.26-.294-.425-.385a6.038 6.038 0 0 0-.912-.37c-.368-.128-.744-.281-.896-.704a.532.532 0 0 0-.122-.157c-.224-.245-.444-.494-.677-.731a26.954 26.954 0 0 1-1.488-1.653 2.01 2.01 0 0 1-.414-.596c-.158-.446-.342-.884-.495-1.332-.285-.838-.631-1.654-.878-2.505-.066-.226-.257-.448-.071-.706.009-.012-.021-.059-.04-.084a.121.121 0 0 1 .004-.153c.208-.322.216-.69.245-1.054.02-.244.066-.465.381-.468a.218.218 0 0 0 .091-.039c.439-.245.874-.496 1.317-.732.16-.087.242-.263.403-.337.279-.129.471-.365.685-.563.33-.31.626-.652.884-1.023.355-.528.671-1.082.947-1.655.322-.682.532-1.41.624-2.158.02-.138.1-.348-.152-.406l.178-.1c-.007-.269.064-.553-.119-.805a.444.444 0 0 0 .1-.306c-.036-.256-.048-.515-.08-.772-.102-.822-.41-1.568-.75-2.308-.028-.061-.054-.121-.124-.145-.038-.306-.165-.549-.47-.664a.186.186 0 0 0-.014-.184 4.994 4.994 0 0 0-.434-.576c-.31-.407-.705-.726-1.055-1.09a1.187 1.187 0 0 0-.523-.327c-.125-.282-.414-.319-.65-.434a1.577 1.577 0 0 0-.319-.169 3.254 3.254 0 0 1-.706-.325c-.45-.25-.933-.35-1.41-.489-.392-.114-.804-.105-1.199-.2h-.87a2.596 2.596 0 0 1-.356.044c-.54.005-1.056.161-1.577.276-.386.084-.742.266-1.119.384a1.164 1.164 0 0 0-.603.366.883.883 0 0 0-.665.396 6.355 6.355 0 0 0-1.426 1.147c-.04.05-.083.1-.129.146a3.88 3.88 0 0 0-.897 1.17c-.218.202-.379.458-.465.743a.273.273 0 0 1-.062.248c-.297.41-.354.913-.502 1.374a6.402 6.402 0 0 0-.225 1.484c-.022.308-.084.636.072.926.097.035.195-.002.265.069-.098.045-.22-.027-.323.075.07.24-.011.519.172.742.05.3.029.617.199.89a.27.27 0 0 1 .056.153c-.037.28.106.504.192.753.352 1.03 1.023 1.838 1.74 2.618.313.326.657.621 1.026.882.324.246.671.46 1.038.636.376.175.727.415 1.146.509.17.027.34.064.505.112a4.506 4.506 0 0 0 1.558.232c.098.01.194.032.285.069.213.061.424.173.659.067a.136.136 0 0 1 .153.032c.049.135.058.28.095.418.057.207.014.448.192.617-.008.078-.028.16.063.209-.2.18-.198.18-.095.458.02.051.025.108.04.161l.193.724c.094.033.186-.062.258.044a.665.665 0 0 1-.052.118.747.747 0 0 0-.088.753c.037.091.049.193.08.287l1.257 3.642c.078.268.237.506.454.681.052.041.097.09.134.145.38.543.77 1.08 1.13 1.635.251.388.591.711.805 1.126.097.187.21.365.313.548.32.547.53 1.15.617 1.777.095.815.14 1.634.138 2.454-.01.712.165 1.413.507 2.037a2.33 2.33 0 0 1 .198 1.957 7.67 7.67 0 0 0-.473 2.13 6.224 6.224 0 0 1-.155.847c-.011.055-.03.11-.107.083.012-.291.007-.299-.282-.334a2.744 2.744 0 0 0-.264-.02 116.774 116.774 0 0 0-3.95-.02 88.48 88.48 0 0 0-2.354.041c-.67.023-1.34.024-2.028-.003a2.41 2.41 0 0 1 .31-.918c.324-.529.619-1.075.882-1.637.345-.706.587-1.454.9-2.173a2.605 2.605 0 0 0 .094-1.879 33.37 33.37 0 0 1-.627-2.304c-.265-1.143-.603-2.268-.823-3.422a.945.945 0 0 0-.384-.605c-.672-.462-1.315-.973-2.073-1.3a4.58 4.58 0 0 1-.869-.422c.121-.306.238-.625.165-.96-.053-.243 0-.403.226-.512a.235.235 0 0 0 .106-.362c-.066-.128-.13-.258-.203-.381a.414.414 0 0 1-.04-.435.95.95 0 0 0 .06-.556 8.738 8.738 0 0 0-.305-1.153c-.05-.173-.116-.185-.329-.129a.696.696 0 0 0-.085-.326c.076-.01.16-.004.176-.115-.089-.14-.242-.132-.38-.154-.372-.049-.75-.06-1.124-.033a4.517 4.517 0 0 0-1.304.196 1.18 1.18 0 0 0-.823.986c-.053.301-.005.592.003.888.017.574.082 1.147.195 1.71.034.175.103.287.284.314v.579a.573.573 0 0 0-.24.308c-.21.42-.571.745-1.011.908-.225.093-.451.182-.681.26-1.016.342-1.56 1.104-1.868 2.083a5 5 0 0 0-.18 1.34c-.025.708-.022 1.416-.057 2.124-.024.485-.003.972-.049 1.457-.074.804-.155 1.606-.226 2.41a1.81 1.81 0 0 0 .016.43 6.14 6.14 0 0 0 .593 1.912c.041.078.078.159.11.241.153.388.242.797.265 1.212-.04.019-.06.035-.08.036-.924.055-1.844.16-2.757.318-.29.06-.59.066-.884.017-.024-.816-.05-1.598-.068-2.381a4.826 4.826 0 0 0-.276-1.594c-.208-.558-.16-1.15-.26-1.72.145-.05.24.027.34.058.328.104.672.141 1.014.11.427-.043.82-.208 1.059-.549.413-.588.56-1.225.21-1.931a70.775 70.775 0 0 0-2.13-3.94 3.362 3.362 0 0 0-.72-.856 3.636 3.636 0 0 0-1.189-.639.92.92 0 0 1-.41-.201c-.27-.294-.602-.519-.883-.8.082.008.14-.052.211-.074.186-.024.37-.067.547-.126.2-.05.355-.206.404-.405.115-.526.293-1.043.23-1.598a2.232 2.232 0 0 1 .042-.857 1.243 1.243 0 0 0-.116-.932 4.456 4.456 0 0 1-.244-.508c-.236-.632-.728-.906-1.356-.948a3.337 3.337 0 0 0-2.022.517c-.085.052-.17.103-.192.206-.025.099.092.124.099.205v.18c-.227-.012-.333.113-.392.32-.138.433-.15.898-.033 1.34.13.445.298.879.503 1.296.157.335.186.717.079 1.073-.45.064-.715.361-.923.732a1.42 1.42 0 0 1-.158.212c-.379.463-.808.881-1.281 1.247a2 2 0 0 0-.562.557 2.13 2.13 0 0 0-.229.79c-.071.486-.009.972.013 1.457.012.256.096.504.241.716.148.209.235.455.252.711.036.533.225 1.044.546 1.471.224.332.367.711.418 1.108.036.263.087.523.154.78a.849.849 0 0 1-.015.514c-.168.47-.253.965-.25 1.463.023.563.086 1.124.128 1.687.062.727.053 1.458-.026 2.183-.87.028-1.74.05-2.607.12-.35.028-.704.021-1.054.07-.076.011-.157 0-.205.08-.14-.183-.199-.416-.367-.6-.744-.004-1.49.113-2.259.063l-.479-4.955c1.8-.264 3.602-.246 5.425-.382l-.063-1.275a.294.294 0 0 0-.248-.048c-.36.052-.725.076-1.09.07a.587.587 0 0 0-.164.02c-.806.21-1.64.19-2.458.305-.425.06-.859.055-1.285.123a.224.224 0 0 1-.236-.07l-.757-7.863.066-.023c.668.911 1.518 1.626 2.427 2.272 1.071.76 2.54 1.496 2.946 1.5-.067-.292-.04-.596-.141-.88-.79-.377-1.592-.719-2.298-1.244-1.143-.848-2.196-1.78-3-2.97a1.024 1.024 0 0 1-.18-.491c-.066-.693-.128-1.387-.194-2.08-.053-.561-.108-1.123-.166-1.684-.027-.25-.083-.335-.25-.322-.36.016-.717.063-1.07.14a.634.634 0 0 0-.023.117c.032 1.173.066 2.346.102 3.52a.63.63 0 0 1-.067.318 10.515 10.515 0 0 1-2.068 2.826 19.238 19.238 0 0 1-3.048 2.39 16.746 16.746 0 0 1-2.65 1.43c-1.056.45-2.153.798-3.275 1.04a9.389 9.389 0 0 1-1.344.21 1.113 1.113 0 0 1-.038-.167 541.44 541.44 0 0 1-.195-3.4c-.01-.21-.008-.421-.021-.631-.036-.585-.083-1.17-.115-1.754-.046-.838-.082-1.676-.124-2.512-.034-.674-.091-1.348-.121-2.021-.034-.745-.092-1.49-.111-2.236-.018-.663-.079-1.324-.117-1.986-.043-.773-.068-1.546-.131-2.317-.02-.236.017-.476-.033-.722a1.16 1.16 0 0 0-.647.051l.312 5.113c-.537.063-1.078.087-1.619.071-.01-.286-.066-.54-.065-.789.003-.909-.078-1.812-.126-2.717-.037-.696-.035-1.393-.144-2.083a.241.241 0 0 1 .025-.191c.114-.056.095-.164.1-.261.01-.177.03-.353.045-.529.046-.551.145-1.097.167-1.651.008-.31.033-.62.075-.927.137-.942.178-1.892.254-2.84.031-.394.07-.788.118-1.18.088-.701.174-1.402.282-2.1.102-.665.198-1.334.355-1.988.228-.954.462-1.908.736-2.853.22-.753.446-1.503.703-2.244a53.548 53.548 0 0 1 1.215-3.122c.187-.448.43-.87.625-1.313.35-.79.77-1.542 1.189-2.296.445-.801.933-1.578 1.431-2.348.276-.427.545-.86.847-1.268a59.89 59.89 0 0 1 1.948-2.514 50.623 50.623 0 0 1 5.205-5.41c.216-.195.467-.333.686-.52.453-.387.913-.77 1.398-1.114.692-.492 1.396-.969 2.095-1.45.92-.636 1.906-1.15 2.868-1.71.276-.16.578-.278.855-.438.987-.572 2.032-1.024 3.074-1.482.556-.244 1.119-.471 1.67-.726.972-.45 1.994-.768 3.002-1.124a.254.254 0 0 1 .032-.007c.959-.201 1.898-.483 2.855-.694 1.087-.24 2.175-.47 3.274-.641.566-.088 1.135-.155 1.703-.225.668-.083 1.34-.106 2.009-.159.44-.034.884-.016 1.327-.015.572 0 1.147-.02 1.717.022.409.03.816.042 1.224.042.883.007 1.766.064 2.642.171a52.76 52.76 0 0 1 2.619.352c.726.122 1.454.245 2.179.373 1.205.209 2.397.49 3.57.841.598.183 1.199.362 1.795.555.272.089.53.224.801.313 1.04.34 2.047.765 3.055 1.185.47.195.935.4 1.395.617.72.338 1.437.682 2.147 1.039.79.398 1.53.88 2.28 1.347a59.236 59.236 0 0 1 5.018 3.519c.669.507 1.31 1.049 1.923 1.623.096.092.18.198.283.28.5.418.98.86 1.437 1.326.668.66 1.3 1.357 1.932 2.051.476.524.913 1.077 1.366 1.62.354.425.677.873 1.025 1.302.446.552.808 1.161 1.233 1.726.245.326.432.695.664 1.03a27.729 27.729 0 0 1 1.618 2.66c.402.747.81 1.492 1.17 2.263.196.419.412.832.585 1.26.298.735.634 1.455.911 2.2.328.88.635 1.768.933 2.658.301.9.509 1.827.747 2.746.11.417.127.854.231 1.268.215.85.314 1.716.44 2.58.06.396.027.798.074 1.192.075.75.088 1.505.038 2.257-.007.294.04.587.14.864.005.796-.006 1.592-.037 2.389-.047 1.173-.051 2.348-.074 3.521l-.032 1.39c-.172.06-.352.09-.533.088-.221.008-.441.025-.662.036a.216.216 0 0 0-.233.254c.003.166-.012.332-.013.498-.02 1.391-.037 2.783-.055 4.175l-.081 5.948c-.008.509-.034 1.018-.039 1.527a.257.257 0 0 1-.225.275c-.215.051-.431.1-.65.132-.134.02-.266.115-.433.019a2.707 2.707 0 0 1 .005-.485c.076-.416.05-.836.062-1.253.05-1.624.067-3.248.134-4.87.055-1.328.056-2.656.124-3.983.045-.894.031-1.791.077-2.686.039-.76 0-1.522.056-2.284.055-.77.03-1.547.073-2.32.026-.464.023-.929.043-1.393.043-.455.04-.912-.006-1.366a2.107 2.107 0 0 0-.74.027l-.121 4.929c-.765-.008-1.513.043-2.282.009.06-1.868.066-3.695.094-5.555-.178.012-.328-.039-.483.051-.018.255-.047.507-.053.76-.032 1.15-.012 2.302-.065 3.453-.056 1.239-.01 2.48-.076 3.72-.048.906-.018 1.816-.056 2.724-.044 1.029-.036 2.06-.065 3.09-.05 1.757-.082 3.516-.096 5.274-.004.574-.082 1.148-.014 1.724a.531.531 0 0 1-.077.416.644.644 0 0 1-.325.003 22.288 22.288 0 0 1-1.857-.331 16.458 16.458 0 0 1-4.086-1.516 20.065 20.065 0 0 1-4.958-3.725c-.69-.718-1.206-1.552-1.666-2.427a.602.602 0 0 1-.035-.26c-.004-.366.011-.732.046-1.096.03-.775-.027-1.554.068-2.327a.243.243 0 0 0-.058-.236c-.285-.06-.575-.1-.865-.118-.3-.033-.395.051-.441.354-.024.153-.028.309-.043.463-.07.716-.15 1.43-.207 2.147-.045.572-.069 1.145-.408 1.642a.723.723 0 0 0-.04.091 6.892 6.892 0 0 1-1.066 1.557c-.599.654-1.305 1.2-2.089 1.614a.704.704 0 0 0-.302.215c.08.207.21.391.375.539a7.99 7.99 0 0 0 3.216-2.69c.043.407-.046.717-.072 1.028-.093 1.112-.21 2.222-.317 3.332-.03.298-.06.595-.088.893-.063.694-.135 1.388-.18 2.084a2.276 2.276 0 0 1-.114.567c-.368.017-.711-.118-1.076-.053a7.77 7.77 0 0 0-.154 1.1c.387.086.764.051 1.156.117l-.524 5.421c-.118.01-.194.018-.27.02-.89.015-1.774-.008-2.656.05zm-12.553-7.644c-.046-.867-.013-1.716-.101-2.577.902-.097 1.79-.083 2.64-.382-.076-.183-.107-.36-.22-.496-.482.062-.953.115-1.422.186-.482.06-.968.087-1.454.082-.474.008-.95-.026-1.425-.055-.478-.03-.94-.191-1.457-.179.042.233.124.456.243.66.882.135 1.774.202 2.667.199-.07.874-.075 1.724-.073 2.586-.528.08-1.044-.035-1.55.048-.007.18.05.355.158.497.748.095 4.14-.066 4.458-.213a.705.705 0 0 0 .006-.426c-.822.068-1.646.091-2.47.07zm17.672-16.14c-.048.323-.098.628-.136.935-.028.233.001.26.25.268.143.005.285.022.425.05.214.038.433.044.649.016.08-.412.037-.827.105-1.27H92.97zm-53.435.028a8.31 8.31 0 0 0 .09 1.297c.443-.086.882-.061 1.316-.184a6.515 6.515 0 0 0-.152-1.17l-1.254.057zM26.28 48.365l-.85.053c.038.347-.033.652.044.96a4.9 4.9 0 0 0 .941-.077 7.029 7.029 0 0 0-.135-.936zm84.661-.984c.065-.247.105-.469.003-.7a2.631 2.631 0 0 0-.689.009.93.93 0 0 0-.04.684c.242.023.485.025.726.007zm-3.047-.89c-.004-.315.038-.6-.024-.885-.165-.01-.315-.052-.474.02a6.511 6.511 0 0 0-.006.865c.166.037.338.036.505-.002v.001z"/>
        <path fill="#333" d="M24.08 50.39a.241.241 0 0 0-.025.191c.108.69.107 1.388.144 2.083.048.906.128 1.808.126 2.717-.001.25.055.504.065.79.54.015 1.082-.009 1.619-.072l-.312-5.112a1.16 1.16 0 0 1 .647-.051c.05.245.013.486.033.722.063.77.088 1.544.131 2.316.038.662.1 1.324.117 1.987.02.746.077 1.49.11 2.236.031.673.088 1.346.122 2.02.042.838.078 1.676.124 2.513.032.585.079 1.169.115 1.753.013.21.01.422.021.632a779.035 779.035 0 0 0 .195 3.4c.008.056.02.112.038.167a9.389 9.389 0 0 0 1.344-.211 18.018 18.018 0 0 0 3.275-1.04 16.746 16.746 0 0 0 2.65-1.429 19.238 19.238 0 0 0 3.048-2.39 10.515 10.515 0 0 0 2.068-2.826.63.63 0 0 0 .066-.32 717.03 717.03 0 0 1-.101-3.518.634.634 0 0 1 .023-.118c.352-.076.71-.123 1.07-.14.167-.012.224.072.25.322.059.562.113 1.123.166 1.685.066.693.128 1.386.193 2.08.017.176.08.345.18.49.805 1.19 1.859 2.123 3 2.97.707.526 1.508.868 2.298 1.244.103.285.076.589.142.88-.406-.003-1.875-.74-2.946-1.5-.909-.645-1.759-1.36-2.427-2.271l-.066.023.757 7.863c.058.068.15.096.236.07.426-.068.86-.064 1.285-.123.818-.116 1.653-.095 2.458-.305a.587.587 0 0 1 .165-.02c.364.005.728-.018 1.09-.07a.294.294 0 0 1 .247.048l.063 1.274c-1.823.136-3.625.119-5.425.383l.479 4.954c.768.05 1.515-.066 2.259-.062.167.184.228.417.367.6l.024.114c-.464.03-.924.077-1.384.087-.95.02-1.897.099-2.845.156-1.552.095-3.103.206-4.653.317-1.088.078-2.177.155-3.263.258-1.69.16-3.375.38-5.063.56-1.053.111-2.1.264-3.154.37-1.053.108-2.102.252-3.153.376-.854.102-1.71.187-2.564.299-1.323.173-2.644.364-3.966.547l-2.659.37c-.383.054-.767.106-1.149.173-.135.023-.262.02-.315-.107-.15-.354-.464-.558-.72-.81a32.553 32.553 0 0 1-1.65-1.765 62.278 62.278 0 0 1-1.682-2.01 23.598 23.598 0 0 1-.924-1.252 50.772 50.772 0 0 1-.84-1.226.32.32 0 0 1-.096-.235l1.16-.097c.448.698.945 1.365 1.485 1.996-.047-1.197-.217-2.377-.297-3.589.543-.08 1.05-.007 1.589-.063l-.3-6.634c.493-.077.942-.087 1.38-.116l.652 8.93c-.093.155-.294.085-.457.118-.161.032-.328.037-.53.057-.037.37-.047.743-.03 1.114l1.525-.171c-.005-.841-.127-1.67-.186-2.502-.06-.846-.135-1.692-.204-2.538l-.204-2.51-.206-2.531 3.262-.246c.011.218-.005.436-.048.649l-1.593.495.558 12.272c.722.038 1.41-.083 2.14-.068.014-.953-.092-1.885-.12-2.82-.028-.951-.099-1.902-.15-2.853-.051-.94-.11-1.88-.149-2.822-.038-.933-.159-1.863-.142-2.794l.847-.188-.759-11.276-.754.074.358 7.316-1.981.126-.926-14.276c-.48-.07-.916.061-1.368.085-.031.437.032.854-.018 1.27a.207.207 0 0 0 .201.25c.142.02.283.041.424.067.268.048.292.068.308.34.035.607.064 1.214.089 1.822.05 1.215.099 2.43.144 3.645.038 1.028.045 2.058.107 3.085.05.828.042 1.657.103 2.484.038.528.045 1.058.067 1.613-.717.105-1.433.054-2.16.141l-.3-2.924c-.66-.017-1.299.157-1.972.098l-.292-2.622 2.073-.226c.065-.238.001-4.612-.08-5.456-.628-.029-1.26.013-1.92.024l-.145-4.071c-.336-.06-.639.01-.983-.001.023 1.412.12 2.807.175 4.202.054 1.389.132 2.777.202 4.212l-3.285.324c-.03.45.053.862.056 1.295.147.017.296.008.44-.027.57-.066 1.142-.127 1.713-.187.25-.027.326.025.343.28.056.87.147 1.738.186 2.611.024.563.087 1.125.137 1.687.075.836.125 1.674.19 2.51.074.959.179 1.916.207 2.878.01.086.028.17.053.253l1.499-.123.144 2.573-3.818.272c-.277-.375-.427-.807-.64-1.204a21.203 21.203 0 0 1-1.393-3.256c-.301-.886-.622-1.767-.848-2.681a43.31 43.31 0 0 1-.693-3.436 19.3 19.3 0 0 1-.187-1.878c-.027-.419-.032-.838-.06-1.257.018-.05.06-.105.053-.152-.085-.604-.048-1.209-.032-1.814.002-.063.018-.135-.064-.168-.06-.16.051-.296.066-.446.074-.791.144-1.583.25-2.37.086-.646.193-1.291.34-1.926.2-.868.433-1.73.68-2.587.351-1.163.779-2.301 1.279-3.408.264-.608.522-1.22.84-1.802.383-.706.75-1.423 1.198-2.094.158-.237.29-.492.432-.739.508-.871 1.117-1.668 1.714-2.476.414-.56.826-1.12 1.277-1.65a42.349 42.349 0 0 1 2.02-2.233c.354-.363.682-.752 1.047-1.106.593-.577 1.213-1.124 1.82-1.686.545-.503 1.103-.99 1.685-1.446.554-.434 1.092-.887 1.688-1.27.27-.172.5-.428.767-.624.828-.609 1.689-1.168 2.546-1.734.516-.34 1.023-.693 1.56-.999.776-.44 1.546-.89 2.328-1.321.589-.324 1.167-.67 1.766-.976.362-.184.727-.364 1.094-.54.232-.126.423-.316.551-.548.343-.539.718-1.056 1.096-1.57.248-.339.504-.673.772-.99.33-.39.627-.811.988-1.184.315-.326.59-.711.89-1.062.372-.434.785-.833 1.174-1.252.338-.363.683-.718 1.043-1.059.84-.795 1.663-1.61 2.571-2.33.215-.17.408-.368.624-.538.448-.354.912-.687 1.355-1.049.351-.287.717-.552 1.09-.809.379-.261.758-.524 1.14-.782.281-.19.562-.383.85-.562.652-.405 1.292-.828 1.959-1.209.363-.207.736-.399 1.096-.612.46-.271.946-.507 1.43-.74.663-.32 1.32-.652 1.986-.964.18-.084.373-.133.554-.211.485-.207.957-.44 1.456-.617.82-.29 1.622-.636 2.451-.895.681-.213 1.356-.449 2.046-.632a93.258 93.258 0 0 1 2.814-.715c.695-.161 1.398-.29 2.102-.408.899-.151 1.8-.304 2.705-.403.665-.073 1.331-.161 2-.196.615-.032 1.228-.12 1.842-.11.306.004.612-.018.92.001.302.02.614-.026.923-.026.396 0 .79.014 1.186.035.393.02.79.018 1.185.022.553.007 1.1.058 1.648.114.525.053 1.054.068 1.577.146.774.116 1.555.17 2.324.319.85.165 1.71.287 2.552.488 1.047.25 2.105.452 3.13.795.458.153.94.244 1.39.417.42.161.856.269 1.276.43.431.164.88.286 1.302.476.63.284 1.291.491 1.917.788.595.282 1.204.534 1.8.813.398.187.784.4 1.175.602.41.213.827.411 1.223.647.852.506 1.741.949 2.547 1.536.47.342.995.605 1.468.948.75.542 1.524 1.052 2.242 1.632.554.448 1.125.877 1.66 1.35.683.606 1.39 1.192 2.032 1.84.495.5 1.017.972 1.488 1.498.593.664 1.24 1.28 1.798 1.975.435.541.909 1.049 1.321 1.609.524.71 1.092 1.388 1.58 2.12.311.468.65.917.943 1.395.071.112.174.199.296.25.57.269 1.115.582 1.668.882a37.81 37.81 0 0 1 1.602.926c.63.383 1.28.74 1.887 1.163.461.323.949.609 1.396.949.755.574 1.566 1.069 2.31 1.659.874.692 1.743 1.389 2.593 2.108.573.485 1.121.999 1.66 1.523.83.808 1.682 1.597 2.443 2.472.753.865 1.506 1.732 2.207 2.643.545.708 1.048 1.444 1.552 2.18.468.683.92 1.377 1.324 2.1.334.597.638 1.212.956 1.818a25.078 25.078 0 0 1 1.598 3.817c.162.492.35.976.5 1.472.278.943.505 1.9.68 2.868.12.64.244 1.28.315 1.929.108.91.164 1.824.167 2.74-.001.276.041.552.041.827a28.898 28.898 0 0 1-.092 1.954 26.758 26.758 0 0 1-.364 3.052 28.241 28.241 0 0 1-.76 3.085 23.75 23.75 0 0 0-.334 1.173c-.027.108-.06.227-.24.162-.005-.459.066-.918.106-1.378.106-1.238.226-2.475.338-3.712.023-.257.005-.285-.256-.306-.462-.037-.926-.064-1.389-.093a.222.222 0 0 0-.167.04c-.091.527-.083 1.072-.13 1.611-.138 1.591-.26 3.184-.39 4.776-.113 1.37-.238 2.74-.335 4.112a1.602 1.602 0 0 1-.461 1.014l.08-2.244h-.952c-.125.31-.046.638-.112.98-.615-.043-1.229-.039-1.855-.114l.488-9.565-1.444-.22c-.11.704-.124 1.402-.213 2.12l-1.514.243c-.018-.448-.01-.897.022-1.345.024-.873.051-1.747.107-2.62.06-.948.061-1.9.109-2.849.04-.818.066-1.638.089-2.458.025-.906.073-1.813.11-2.72.01-.132.01-.265.002-.398a.367.367 0 0 1 .262-.41c.136-.051.253-.13.41-.203v-2.61a30.224 30.224 0 0 0-1.976-.142c-.056.48-.07.95-.175 1.396-.123.524.056.924.372 1.298a.635.635 0 0 1 .138.491c-.077 1.252-.15 2.503-.212 3.755-.01.207-.125.346-.22.503a1.208 1.208 0 0 1-.164.207c-.227.238-.287.515-.291.845-.013 1.046-.07 2.09-.103 3.136-.024.78-.033 1.56-.057 2.341-.02.697-.051 1.393-.08 2.09a.489.489 0 0 1-.04.113l-1.518-.078.266-8.695c-.319-.044-.595.063-.925.072-.289 4.217-.57 8.425-.846 12.624.07.068.168.097.263.078.397.007.795.006 1.193.015.493.01.986.028 1.518.044.081-.58.132-1.166.154-1.752-.493-.26-1.017-.433-1.521-.651-.122-.053-.245-.102-.366-.157a.152.152 0 0 1-.105-.154c0-.08.06-.15.14-.162.064-.015.13-.024.195-.027.981.027 1.962.056 2.98.086-.055 1.202-.088 2.39-.168 3.574-.078 1.17-.155 2.34-.212 3.51-.058 1.184-.157 2.365-.226 3.575h1.46c.117-.366.043-.75.144-1.127-.306-.12-.616-.127-.951-.203l.73-9.496c.44-.037.848.076 1.26.08.083.262-.007 1.636-.19 3.438-.115 1.142-.192 2.289-.288 3.454.56.114 1.115.075 1.659.163.081.114.028.237.016.353-.13 1.346-.265 2.69-.394 4.037a.746.746 0 0 1-.174.42 33.147 33.147 0 0 1-2.494 2.79c-.2.412-.554.385-.933.35-.804-.073-1.611-.117-2.417-.178-.317-.025-.633-.064-.988-.1l.158-1.76h2.646l.24-4.655c-1.25 0-2.457-.087-3.688-.071-.016.182-.034.345-.045.51-.018.29-.09.38-.381.377-.32-.003-.64-.041-.96-.063-.66-.046-1.315-.147-1.977-.18-.44-.021-.877-.078-1.316-.117-.076-.007-.154-.001-.262-.001l-.626 6.136c.413-.028.8.076 1.222.035.054-.337.126-.669.158-1.004.07-.738.162-1.473.27-2.206.047-.317.066-.638.111-.955.04-.282.096-.32.364-.288.943.114 1.886.23 2.83.346.043.005.088.007.131.015.279.053.317.093.279.377-.13.986-.233 1.976-.355 2.963-.081.655-.151 1.313-.228 2l3.86.316c.024.046.019.082-.006.104-.626.558-1.257 1.112-1.878 1.676a.536.536 0 0 1-.48.147c-.48-.075-.962-.139-1.443-.204a37.104 37.104 0 0 0-2.434-.24 23.489 23.489 0 0 0-3.637.088c-1.11.097-2.222.204-3.34.157a11.23 11.23 0 0 1-3.016-.574c-.996-.323-1.966-.72-2.972-1.019a12.034 12.034 0 0 0-2.899-.49c-.827-.037-1.657-.019-2.48-.123A7.927 7.927 0 0 1 94 80.092c-.846-.383-1.622-.897-2.459-1.297a10.098 10.098 0 0 0-1.484-.567c-.715-.19-1.4-.48-2.035-.86-.064-.04-.14-.066-.17-.146.882-.057 1.766-.034 2.65-.055.076-.002.153-.011.271-.02l.523-5.421c-.391-.066-.77-.031-1.156-.117a7.77 7.77 0 0 1 .154-1.1c.365-.066.708.07 1.076.053.062-.184.1-.375.114-.568.046-.695.118-1.389.18-2.083.027-.298.06-.595.088-.893.108-1.11.224-2.22.317-3.332.027-.311.116-.621.072-1.028a7.99 7.99 0 0 1-3.215 2.69 1.407 1.407 0 0 1-.376-.54.704.704 0 0 1 .303-.214 7.748 7.748 0 0 0 2.089-1.615 6.892 6.892 0 0 0 1.064-1.557.723.723 0 0 1 .042-.091c.338-.497.362-1.07.407-1.642.057-.717.137-1.432.207-2.147.015-.154.02-.31.043-.463.046-.303.142-.387.44-.355.292.019.58.058.866.118.06.063.082.153.058.236-.095.774-.037 1.552-.068 2.328-.035.364-.05.73-.046 1.096a.602.602 0 0 0 .035.26c.46.874.976 1.71 1.666 2.427a20.065 20.065 0 0 0 4.958 3.725 16.458 16.458 0 0 0 4.085 1.515c.615.138 1.234.246 1.858.331a.644.644 0 0 0 .325-.002.531.531 0 0 0 .076-.417c-.067-.576.01-1.15.015-1.723.014-1.759.045-3.517.095-5.275.03-1.03.022-2.06.065-3.09.039-.908.008-1.817.057-2.724.066-1.24.02-2.48.076-3.72.053-1.15.033-2.302.065-3.452.007-.253.035-.506.053-.76.155-.09.304-.04.482-.051-.027 1.86-.033 3.687-.094 5.554.77.034 1.518-.016 2.282-.009l.12-4.929c.244-.053.495-.062.742-.026.046.453.048.91.005 1.365-.02.465-.016.93-.042 1.394-.043.772-.019 1.548-.074 2.32-.054.761-.017 1.523-.056 2.283-.045.895-.031 1.793-.077 2.687-.067 1.326-.069 2.655-.123 3.982-.067 1.622-.084 3.247-.134 4.87-.013.418.013.837-.063 1.253a2.707 2.707 0 0 0-.004.485c.166.096.3 0 .433-.019.218-.032.435-.08.65-.132a.257.257 0 0 0 .225-.275c.005-.509.03-1.018.038-1.527a8199.13 8199.13 0 0 0 .136-10.124c.002-.165.017-.332.013-.497a.217.217 0 0 1 .234-.253c.22-.012.44-.028.661-.037.182.002.362-.028.533-.088.011-.463.023-.926.032-1.39.023-1.173.028-2.348.074-3.52a52.68 52.68 0 0 0 .038-2.39l.017-.324c.082-.087.043-.183.023-.279.046-.324-.044-.66.055-.967.204-.084.402.012.6-.086 0-.106.008-.216-.001-.325-.085-1.022-.05-2.05-.233-3.07-.128-.713-.155-1.446-.269-2.164-.108-.687-.203-1.376-.332-2.059a44.894 44.894 0 0 0-.46-2.092c-.193-.803-.372-1.611-.62-2.397-.342-1.082-.689-2.163-1.1-3.221-.16-.41-.29-.832-.474-1.23-.19-.411-.357-.831-.54-1.244a55.353 55.353 0 0 0-1.51-3.082c-.273-.523-.576-1.034-.875-1.545-.525-.896-1.134-1.736-1.697-2.606-.251-.388-.504-.775-.778-1.147a51.334 51.334 0 0 0-2.316-2.934 41.25 41.25 0 0 0-1.683-1.86c-.474-.49-.927-1.002-1.45-1.445-.412-.349-.792-.737-1.193-1.1-.605-.547-1.24-1.06-1.857-1.594-.407-.353-.858-.641-1.276-.978-.463-.374-.964-.7-1.453-1.04-.46-.32-.916-.652-1.394-.943-.78-.477-1.56-.956-2.357-1.406-.497-.279-1-.551-1.496-.83-.38-.214-.796-.371-1.191-.566a38.906 38.906 0 0 0-1.408-.653c-.494-.219-.985-.446-1.49-.633-1.074-.396-2.144-.798-3.234-1.15a70.687 70.687 0 0 0-2.458-.729c-.877-.248-1.78-.396-2.673-.588-.259-.056-.515-.126-.776-.168a82.12 82.12 0 0 0-2.16-.319 55.897 55.897 0 0 0-2.43-.283 41.477 41.477 0 0 0-2.277-.12c-.97-.031-1.94-.044-2.91-.01-.837.029-1.672.06-2.507.126-.458.037-.919.052-1.373.105-.853.1-1.701.235-2.548.371-.751.122-1.506.234-2.246.407-.995.233-1.994.45-2.974.746-.537.162-1.09.274-1.616.463-.951.343-1.916.65-2.854 1.033-.497.202-1.013.365-1.497.596-1.054.503-2.128.966-3.157 1.523-.6.325-1.206.637-1.792.988-.596.357-1.19.716-1.782 1.077-.516.317-1.018.656-1.518.994-.711.481-1.383 1.022-2.068 1.543a32.07 32.07 0 0 0-1.572 1.263c-.499.432-1.003.86-1.479 1.32-.316.307-.652.595-.958.913-.61.635-1.24 1.252-1.827 1.913-.905 1.02-1.805 2.044-2.622 3.139-.173.231-.298.486-.456.72a24.805 24.805 0 0 1-1.122 1.527c-.312.398-.599.815-.86 1.248-.497.808-.954 1.64-1.425 2.462-.274.479-.523.97-.787 1.454-.192.353-.326.744-.505 1.11-.295.603-.542 1.228-.807 1.845-.191.445-.413.88-.558 1.339-.257.81-.57 1.6-.821 2.413a57.234 57.234 0 0 0-.589 1.996c-.145.537-.291 1.08-.396 1.63-.093.488-.21.971-.3 1.46-.138.759-.305 1.514-.388 2.283-.081.757-.204 1.51-.256 2.27-.035.504-.116 1.005-.136 1.51a7.296 7.296 0 0 0 0 1.179c.101.029.21.028.31-.003.297-.037.322-.019.329.285.026 1.202.076 2.405.072 3.607-.002.962.051 1.922.049 2.884-.001.703.004 1.413.063 2.116.025.303-.056.613.054.925.126-.044.25-.048.348-.148 0-.273.007-.548-.001-.822-.025-.862-.064-1.725-.08-2.587-.007-.391.128-.498.525-.514.272-.012.544-.045.835-.07l-.156-5.768 1.57-.128c.022.353.038.678.063 1.003.052.672.053 1.346.114 2.018.036.428.029.86.042 1.29zm-.126 22.905c-.513.04-1.007.078-1.501.114-.606.045-1.211.085-1.817.13-.233.019-.322-.037-.347-.285-.036-.364-.09-.724-.14-1.085-.146-1.071-.266-2.145-.402-3.217-.184-1.446-.373-2.892-.558-4.338-.15-1.173-.3-2.346-.446-3.52-.115-.897-.22-1.796-.35-2.691a5.253 5.253 0 0 0-.149-.884l-.567.074c-.185.026-.371.057-.557.08-.297.039-.469-.094-.493-.387-.018-.21-.037-.419-.052-.627-.084-1.17-.152-2.34-.23-3.51-.06-.915-.14-1.829-.181-2.744-.02-.435-.154-.878.025-1.312.01-.026-.009-.065-.01-.098-.036-.672-.07-1.345-.107-2.017-.005-.085.023-.18-.068-.266-.803.054-1.618.122-2.446.218l.378 7.626a.74.74 0 0 0 .415.008c.218-.036.439-.056.66-.061.227-.021.272.027.279.253.01.32.005.639.033.96.109 1.235.196 2.472.29 3.708a.247.247 0 0 0 .078.207c.326-.215.707-.213 1.07-.245.363-.032.722-.208 1.115-.062l1.507 14.217c-1.119.25-2.224.365-3.309.575 0 .575.063 1.11.098 1.677l3.179-.527v.899c-.488.109-.987.109-1.48.25l.143 1.844a250.83 250.83 0 0 0 4.717-.625l.062-2.989c.431-.08.838-.065 1.253-.118-.082-.412-.031-.801-.092-1.232zm15.92-11.21l-.093-.017a9.324 9.324 0 0 1-1.47 1.832.34.34 0 0 0-.092.303c.02.231.035.463.045.695.03.686.05 1.373.083 2.058.06 1.27.128 2.54.194 3.809.004.085-.027.179.059.269.345.013.69-.155 1.078-.114-.02.336.08.65.008 1l-12.17 1.785c-.013.374-.007.747.02 1.12.511-.03.984-.055 1.457-.085.2-.013.269.021.309.205.032.152.052.306.057.46.008.195-.03.401.1.6l2.056-.118c.068.634-.025 1.249.06 1.866.178-.03.178-.13.184-.23l.075-1.095c.022-.304.11-.382.407-.392.26.008.52-.01.775-.056a8.403 8.403 0 0 1-.045-1.416l1.664-.219c.043.318.064.639.063.96.02.304-.046.62.142.904.078-.43.01-.866.038-1.292.341-.175.692-.17 1.051-.236.026.248.05.455.068.662.017.194-.037.4.091.609.06-.13.096-.27.106-.412.032-.137-.034-.288.056-.438.286-.078.579-.125.874-.141.089.779.107 1.55.23 2.32l2.856-.163a55.452 55.452 0 0 0-.067-3.02c-.012-.288.035-.574.029-.86-.015-.753-.065-1.505-.089-2.259-.036-1.163-.061-2.327-.094-3.491-.037-1.317-.08-2.634-.113-3.951-.012-.484-.003-.968-.003-1.451zm54.078.057c-.065.9-.092 1.775-.11 2.649-.025 1.307-.072 2.614-.1 3.921-.027 1.23-.083 2.458-.115 3.688a374.671 374.671 0 0 0-.085 4.149c-.003.193-.044.395.045.591l2.784.19c.13-.679.057-1.358.186-2.046.82-.018 1.618.063 2.451.095v1.765c.226.04.258-.071.263-.226.015-.532.036-1.063.056-1.594-.01-.258.01-.516.06-.768.484.018.958-.012 1.44.06.065.584 0 1.15.072 1.74.148-.013.294-.046.433-.099a.456.456 0 0 0 .044-.248c.03-.653.058-1.306.091-1.959.015-.282.084-.35.362-.356.188-.005.375.006.561.033.282.049.566.077.852.085.553.005 1.101.08 1.652.115.605.038 1.209.107 1.813.148.539.038 1.078.09 1.62.115.35.017.704.056 1.055.084.437.036.874.125 1.342.076.064-.344.187-.675.22-1.074-1.046-.113-2.097-.17-3.151-.244-.129.218-.252.415-.363.62a.322.322 0 0 1-.399.197c-.333-.07-.675-.098-1.013-.147-.862-.124-1.724-.252-2.587-.377-.863-.124-1.727-.246-2.59-.372-.829-.121-1.658-.248-2.487-.37-.841-.125-1.683-.245-2.524-.37-.577-.085-1.153-.174-1.743-.264a5.39 5.39 0 0 1 .017-.98c.377-.032.725.077 1.08.117a.7.7 0 0 0 .027-.114c.047-1.049.092-2.099.14-3.148.022-.497.05-.993.077-1.49.037-.684.073-1.37.116-2.054a.477.477 0 0 0-.15-.38 7.913 7.913 0 0 1-.979-1.169 6.5 6.5 0 0 0-.462-.589zm-78.29-2.069l1.034 13.305 1.977-.395-1.6-13.057-1.411.147zM127.72 68.18l.897-9.998h-.402c-.121 0-.244.003-.365 0-.27-.006-.308-.047-.293-.312.029-.497.07-.994.083-1.492.013-.473.08-.944.055-1.445h-2.74c-.07 1.018-.18 2.023-.22 3.03.744.109 1.466.05 2.217.178.016 1.697-.058 3.385-.096 5.074l-.114 5.067.978-.102zm-97.424 3.98l5.08-.694-.3-4.903a19.541 19.541 0 0 1-5.264 2.373c.122 1.074.309 2.135.484 3.225zm73.669-3.178a22.39 22.39 0 0 1-2.75-.986c-.87-.386-1.683-.885-2.528-1.375l-.306 4.874c1.71.274 3.39.465 5.087.697l.497-3.21zm16.168-20.817c-.071-.036-.105-.003-.143.016-.642.318-1.278.651-1.93.947-.285.129-.376.304-.38.605-.013.895-.055 1.79-.087 2.684l-.127 3.476c-.017.465-.035.93-.06 1.393-.017.283-.113.329-.406.32-.55-.018-1.102-.006-1.672-.006a4.61 4.61 0 0 0-.122 1.002c.341.06 2.878-.038 3.13-.121.022-.183.05-.368.064-.555.076-1.048.148-2.096.224-3.144.017-.23.063-.275.294-.328l1.018-.234.197-6.055zm-4.667 2.17h-1.772l.083 4.644c.376-.03.706.011 1.036-.035.195-.026.397-.011.595-.02.168-.007.24.068.242.237.002.265.01.53.028.795-.002.31.017.62.058.928.412.01.8.073 1.2.005l.136-5.173c-.412-.024-.775-.059-1.138-.063-.396-.005-.42.01-.441-.457-.002-.033.001-.067 0-.1l-.027-.76zM17.058 57.13c.416-.116.784-.076 1.139-.178l-.233-1.907 1.117-.261c.275-.066.306-.107.298-.385-.015-.536-.033-1.071-.05-1.607-.04-1.304-.076-2.607-.124-3.91.013-.28-.006-.56-.057-.834l-1.074.194c.013 1.267.08 2.493.043 3.742l-1.44-.107c.141 1.756.223 3.484.381 5.253zm96.114 15.78c.347-.06.645.06.965.034.063-.542.116-1.068.19-1.591.086-.611.165-1.224.242-1.835.065-.509.117-1.026.17-1.539.102-1 .237-1.995.356-2.993.112-.943.218-1.887.33-2.83.081-.681.167-1.362.25-2.043.012-.088.03-.176-.058-.242-.172-.127-.341-.257-.535-.404-.028.13-.053.213-.064.3-.162 1.216-.32 2.433-.482 3.65-.12.899-.247 1.797-.362 2.697a.658.658 0 0 1-.162.348c-.423.526-.836 1.06-1.248 1.594-.034.045-.102.086-.072.18a1.77 1.77 0 0 0 .587-.191c.266-.13.486.01.482.305 0 .078-.008.155-.021.231-.106.588-.158 1.182-.234 1.773-.107.834-.217 1.667-.334 2.556zm-89.38-14.785c.054 3.617.32 7.185.584 10.768.497-.008.947.022 1.423-.064l-.273-5.898c-.266.016-.485.037-.705.04-.208.004-.235-.033-.263-.249-.04-.308-.031-.62-.044-.93a3326.44 3326.44 0 0 0-.133-3.252c0-.14-.022-.28-.065-.415h-.523zm85.87 10.788c.018-1.718.113-3.417.106-5.149h-2.14c-.071 1.698-.03 3.381-.124 5.067.716.082 1.437.11 2.157.082zm5.953-2.67l-.502 4.884h2.281l.362-4.821-2.14-.064zM4.743 66.79l-.575-6.298h-1.46c.27 2.133.48 4.227.755 6.298h1.28zm17.793-8.54L23 68.753c.275-.012.515.11.753.045 0-.33.015-.638-.003-.945-.05-.837-.115-1.672-.17-2.509-.028-.419-.027-.84-.076-1.256-.05-.426-.017-.852-.046-1.277-.061-.902-.068-1.809-.098-2.713a6.337 6.337 0 0 1-.023-.926c.039-.331-.075-.642-.013-.989l-.787.067zm15.517 12.84l-.14-6.705c-.06.012-.087.008-.1.021-.373.361-.787.674-1.19 1a.303.303 0 0 0-.09.3c.034.462.064.926.101 1.389.099 1.233.199 2.467.301 3.7.012.15.036.3.06.491.354-.132.713-.09 1.058-.196zM95.87 64.42c-.105 1.153-.042 2.269-.099 3.38-.057 1.12-.04 2.244-.054 3.364.357.089.691.03 1.051.142.178-1.934.32-3.837.477-5.765-.468-.318-.846-.77-1.376-1.12zm9.278 7.963a.585.585 0 0 0 .33.108c.222-.003.442.02.658.07a.322.322 0 0 0 .383-.171c.382-.57.79-1.12 1.172-1.691a.544.544 0 0 1 .429-.263c.273-.036.548-.058.823-.064.333.004.582-.093.716-.417.04-.067.083-.131.132-.191.034-.053.08-.111.018-.17-1.432.11-2.842-.044-4.27-.28l-.391 3.07zm12.805-1.913l-.134 1.963c1.255.055 2.466.064 3.69.069l.094-1.863-3.65-.17zm.044-.572h3.642c.062-.549.089-1.1.08-1.653-1.22-.02-2.406-.015-3.632.002l-.09 1.65zm-95.533-1.31l-.322-7.283a1.564 1.564 0 0 0-.692.108l.1 6.95c.291.057.561.188.914.224zm93.21-2.87h2.127l.196-2.615-2.046-.11-.277 2.724zM13.432 44.168l2.459-.262-.112-2.053c-.842.024-1.658.052-2.467.138l.12 2.177zm96.853 34.69l-6.165-.362c-.02.123-.032.246-.039.37.002.163.022.327.036.524l6.107.21c.094-.253.058-.482.061-.742zm5.131-31.62c-.267-.094-1.496-.142-1.736-.085v2.826c.554.009 1.057-.088 1.564-.067.104.004.222-.02.215-.149-.02-.328.021-.655-.003-.98-.012-.154-.04-.307-.04-.462V47.24zM10.063 43.874V47.8c.444.037.852-.146 1.312.01a130.334 130.334 0 0 0-.268-4.017l-1.044.081zm117.832 7.691l.156-2.883a10.748 10.748 0 0 0-1.218-.195c.029.54-.056 1.031-.06 1.528a6.68 6.68 0 0 1-.026.565c-.022.242-.114.3-.365.292-.372-.01-.745-.003-1.13-.003l-.038.696h2.681zm-2.729.52c-.026.625-.126 1.2-.117 1.79.926-.03 1.815-.03 2.715-.096.056-.553.084-1.11.083-1.666-.895-.095-1.773.008-2.68-.028zm-4.956-6.704l-2.401 1.154c.01.63-.084 1.247-.052 1.892.82-.366 1.563-.816 2.386-1.137.062-.607.043-1.224.068-1.909zM106.651 75.49c.079-.343.06-.662.103-1.003l-3.825-.178v1.007c1.244.069 2.48.12 3.722.174zM13.356 41.334c.752.01 1.476-.11 2.234-.148-.2-.748-.515-1.423-.78-2.13l-.897.122c-.158.735-.415 1.418-.557 2.156zm103.979 30.49c-.115-.017-.211-.04-.308-.044-.568-.028-1.14-.01-1.704-.113a.237.237 0 0 0-.3.226c-.037.37-.065.74-.1 1.144.775.073 1.523.175 2.317.213l.095-1.426zm2.974-28.65V41.77c-.26.089-.512.198-.755.325-.481.21-.959.43-1.44.638a.24.24 0 0 0-.176.244c.003.362 0 .723 0 1.111l2.37-.912zm-106.786 3.05c.842-.133 1.662-.159 2.468-.316.05-.414-.06-.79-.051-1.202l-2.463.245c-.007.425.009.85.046 1.274zm102.702 14.193l-.226 2.107c.697.024 1.367.088 2.046.05.012-.21.007-.388.035-.562a.318.318 0 0 0-.153-.333c-.502-.379-1.005-.755-1.478-1.17a.291.291 0 0 0-.224-.092zM28.63 72.378c-.187-1.048-.246-2.081-.414-3.115-.283.094-.568.064-.844.184.09 1.026.144 2.048.277 3.077l.981-.146zm70.388 6.802c.575.08 2.247.127 2.592.075-.022-.292.041-.587-.018-.9-.856-.06-1.707-.13-2.574-.141v.966zm16.492-2.668c-.25-.08-.438-.24-.695-.281-.105 1.168-.215 2.316-.282 3.474.216.042.437.054.657.034l.32-3.227zm-92.523-6.136c.02.87.07 1.718.127 2.59l.8-.089c.076-.195.007-.37.004-.544-.01-.549-.04-1.097-.053-1.646-.004-.142-.045-.254-.194-.25-.219.004-.433-.044-.684-.06zM124.01 44.34l-1.654-.195c-.017.432-.138.833-.09 1.266.591-.052 1.156.07 1.757.049-.012-.381.065-.738-.013-1.12zm-13.995 9.513h-2.245c.03.282-.038.565.031.862h2.219c.002-.296.055-.555-.005-.862zm-2.24 2.451h2.246c-.04-.285.04-.526-.036-.787-.74-.003-1.47-.022-2.203.009-.051.257-.054.52-.008.778zm14.311-9.612l1.887.069c.042-.222.086-.412-.016-.61-.605.009-1.201-.118-1.805-.085l-.066.626zM107.32 77.773c.003-.2.044-.362-.04-.533l-1.582-.09c-.002.179-.084.323-.01.506l1.632.117zM18.093 47.581a3.23 3.23 0 0 0 1.045-.124 1.748 1.748 0 0 0-.01-.546 8.513 8.513 0 0 0-1.018.138c.013.19-.058.348-.017.532z"/>
        <path fill="#333" d="M80.799 45.968c.25.059.173.268.151.407a7.075 7.075 0 0 1-.623 2.157 13.332 13.332 0 0 1-.947 1.655 6.413 6.413 0 0 1-.884 1.023c-.214.198-.407.435-.686.563-.16.075-.241.25-.403.337-.442.237-.878.487-1.316.732a.218.218 0 0 1-.09.04c-.317.003-.363.223-.383.467-.029.364-.037.733-.244 1.054a.121.121 0 0 0-.004.153c.019.026.049.072.04.085-.186.257.005.48.07.705.247.851.593 1.667.879 2.505.153.448.337.886.495 1.333.1.222.24.423.414.595.474.57.968 1.123 1.488 1.653.232.237.452.486.677.731.05.045.092.098.122.157.152.423.528.576.896.705.313.098.618.221.912.369.166.09.266.26.425.386.211-.161.228-.437.397-.608.263-.119.553-.166.84-.136.395.026.789.073 1.184.098.248.016.497.085.741.029a9.46 9.46 0 0 1 .69-1.594c.328-.63.302-1.271.193-1.935-.064-.387-.293-.641-.606-.85-.498-.333-1.056-.492-1.63-.614-.083-.094-.188-.044-.286-.046l-.114.003c-.092-.033-.199-.052-.177-.208.132-.076.275-.013.406.005a5.412 5.412 0 0 1 2 .654c.348.183.582.528.622.92.024.186.051.372.092.555a2.152 2.152 0 0 1-.196 1.485c-.274.532-.47 1.098-.781 1.633a.753.753 0 0 1 .148.477c.004.27.133.522.35.684.427.335.906.596 1.418.775.478.158.873.502 1.096.954.133.28.239.572.316.872.261 1.028.523 2.055.78 3.084.04.183.072.37.092.556.073.548-.08 1.044-.313 1.536-.511 1.077-1.02 2.157-1.475 3.26-.155.374-.338.737-.463 1.125a.475.475 0 0 1-.436.313c-.08.587-.368 1.106-.46 1.69l.689-1.092c.117.051.223.127.31.222.393.321.841.57 1.322.733.759.27 1.542.471 2.28.8.642.298 1.268.629 1.875.992a8.136 8.136 0 0 0 3.937 1.133c.938.018 1.878.018 2.808.186.91.166 1.806.409 2.677.724.904.324 1.801.672 2.73.922 1.09.293 2.22.409 3.347.345 1.445-.077 2.882-.271 4.33-.281.652-.003 1.303.032 1.951.104 1.12.122 2.24.256 3.338.545.028.098-.062.127-.114.172-.465.408-.963.77-1.461 1.135-.336.246-.663.507-.995.76-.74.564-1.56 1.006-2.344 1.5a.392.392 0 0 1-.346.024c-.79-.216-1.575-.45-2.373-.625-.569-.124-1.139-.235-1.696-.405-.63-.192-1.26-.39-1.894-.572-.73-.21-1.465-.405-2.197-.609-.571-.158-1.137-.338-1.712-.476a60.607 60.607 0 0 0-2.926-.65c-.81-.152-1.631-.248-2.452-.34-1.03-.118-2.063-.216-3.096-.235-.91-.017-1.82-.043-2.732-.004-.792.035-1.58.115-2.37.159-.584.032-1.162.106-1.744.151-.538.041-1.073.133-1.62.204-.08.272-.008.548-.082.85l1.147-.154c.744-.1 1.49-.18 2.238-.245.67-.058 1.338-.146 2.011-.17a41.022 41.022 0 0 1 1.986-.032c.551.007 1.103-.004 1.655.007.828.015 1.651.106 2.476.164 1.002.081 1.998.223 2.983.424 1.156.224 2.31.466 3.45.767 1.216.321 2.439.617 3.644.974 1.048.31 2.108.574 3.167.835.463.115.948.167 1.412.3.094.026.187.055.28.083a.15.15 0 0 1-.089.106c-.68.412-1.339.86-2.02 1.27a38.488 38.488 0 0 1-2.755 1.51 118.377 118.377 0 0 1-3.28 1.569c-.833.38-1.678.732-2.534 1.055-.495.185-.97.423-1.465.607-.918.34-1.849.648-2.767.989-1.107.411-2.238.75-3.37 1.076-.71.204-1.41.437-2.126.617-.897.226-1.8.426-2.695.66-1.08.283-2.168.519-3.266.71-.88.152-1.746.367-2.631.493-.555.078-1.11.181-1.666.259-.895.124-1.783.292-2.684.377-.524.05-1.048.124-1.571.176-.523.052-1.049.102-1.572.16-1.38.155-2.77.177-4.153.302-.602.054-1.211.033-1.817.047-.537.013-1.074.034-1.612.04-.97.01-1.94.04-2.91.008-.847-.028-1.695-.04-2.543-.06a46.763 46.763 0 0 1-2.34-.125c-1-.074-2.003-.126-3.002-.213-.801-.07-1.599-.183-2.399-.271-.877-.097-1.756-.189-2.627-.33-.707-.115-1.415-.218-2.117-.368-.297-.064-.61-.073-.916-.121-.752-.118-1.496-.278-2.242-.432-1.263-.26-2.53-.509-3.778-.836-1.043-.274-2.092-.528-3.13-.823-.944-.268-1.871-.592-2.813-.867-1.09-.32-2.15-.722-3.216-1.112-.61-.224-1.22-.447-1.825-.685a48.261 48.261 0 0 1-1.678-.696c-.888-.388-1.786-.75-2.659-1.172-.636-.308-1.284-.593-1.902-.933-.983-.54-2.006-1.002-2.967-1.582-1.124-.68-2.266-1.328-3.366-2.046-.61-.398-1.21-.81-1.79-1.249-.449-.338-.931-.623-1.374-.969-1.374-1.075-2.734-2.166-4.02-3.347-.13-.119-.242-.255-.373-.395.179-.102.382-.088.57-.124a49.755 49.755 0 0 1 3.935-.579c.378-.04.748-.116 1.124-.154.372-.037.747-.063 1.116-.125.707-.118 1.42-.194 2.129-.294.278-.06.562-.094.847-.103.347.013.667-.1 1.003-.126.33-.027.66-.045.986-.1.751-.127 1.51-.198 2.265-.285.655-.076 1.312-.122 1.965-.212a54.34 54.34 0 0 1 2.493-.273c.72-.065 1.438-.146 2.16-.19.516-.03 1.032-.112 1.548-.16.483-.045.967-.089 1.45-.126.14-.01.286-.054.423.03.03.014.063.016.094.007.598-.19 1.223-.137 1.834-.199a44.404 44.404 0 0 1 3.102-.201c.558-.018 1.116-.057 1.674-.072.769-.022 1.537-.056 2.306-.081.463-.015.929-.06 1.389-.028.471.032.934-.08 1.4-.041.4.033.8-.068 1.2.022a.454.454 0 0 0 .335-.072c.05-.256.063-.518.04-.778.08-.725.088-1.456.026-2.183-.041-.563-.104-1.124-.129-1.687a4.278 4.278 0 0 1 .251-1.463.849.849 0 0 0 .015-.514 6.497 6.497 0 0 1-.154-.78 2.574 2.574 0 0 0-.418-1.107 2.752 2.752 0 0 1-.545-1.472 1.394 1.394 0 0 0-.253-.711 1.38 1.38 0 0 1-.24-.716c-.022-.485-.084-.97-.014-1.457a2.13 2.13 0 0 1 .229-.79 2 2 0 0 1 .562-.557 7.891 7.891 0 0 0 1.281-1.246 1.42 1.42 0 0 0 .158-.213c.208-.37.474-.668.923-.732a1.505 1.505 0 0 0-.08-1.073 8.014 8.014 0 0 1-.502-1.297 2.392 2.392 0 0 1 .033-1.34c.06-.206.165-.331.392-.319l.542.024c-.138.127-.297.23-.468.306a.346.346 0 0 0-.214.266 2.07 2.07 0 0 0 .016 1.015c.11.46.266.908.466 1.336.126.245.164.526.108.796-.012.06-.05.121-.007.196.268 0 .542.018.813-.004.423-.052.847.098 1.143.406.28.28.613.505.882.799.118.1.259.17.41.201.434.137.837.354 1.19.639.286.243.53.532.72.856a70.626 70.626 0 0 1 2.129 3.94c.35.706.204 1.343-.21 1.931-.239.34-.632.505-1.059.549a2.568 2.568 0 0 1-1.013-.11c-.1-.03-.196-.107-.34-.058.099.57.051 1.162.26 1.72.18.511.273 1.05.275 1.593.018.784.044 1.567.068 2.382.294.05.593.043.885-.017a24.901 24.901 0 0 1 2.757-.318c.02 0 .04-.017.08-.036a3.921 3.921 0 0 0-.265-1.212 2.375 2.375 0 0 0-.111-.24 6.14 6.14 0 0 1-.593-1.913 1.81 1.81 0 0 1-.016-.43c.071-.804.152-1.607.227-2.41.045-.485.024-.972.048-1.457.036-.708.033-1.416.058-2.123a5 5 0 0 1 .18-1.341c.308-.979.851-1.741 1.867-2.084.23-.077.457-.167.681-.26.44-.163.802-.487 1.012-.907a.573.573 0 0 1 .24-.309c.098.016.198.017.296.003.473-.043.946-.087 1.419-.122.453-.033.882.028 1.221.37.207-.2.311-.485.283-.771-.01-.35.074-.604.404-.73a2.333 2.333 0 0 0-.24-.538.46.46 0 0 1-.051-.382 1.1 1.1 0 0 0-.001-.653 7.268 7.268 0 0 0-.25-.789c-.047-.133-.159-.28-.024-.432.213-.056.28-.044.329.129.127.377.23.762.304 1.153a.95.95 0 0 1-.058.556c-.07.14-.055.31.04.435.073.123.136.254.202.381a.235.235 0 0 1-.106.362c-.225.109-.279.269-.226.513.074.334-.043.653-.164.96.273.17.564.312.868.422.758.326 1.402.837 2.074 1.3.202.143.34.36.384.604.219 1.154.558 2.28.822 3.422.18.777.393 1.544.627 2.305.204.615.17 1.285-.093 1.878-.313.719-.555 1.467-.901 2.174a16.702 16.702 0 0 1-.881 1.636 2.41 2.41 0 0 0-.31.918c.688.026 1.357.026 2.027.003a90.73 90.73 0 0 1 2.354-.042c1.317-.01 2.634-.013 3.95.021.088.002.177.01.264.02.29.036.294.043.283.334.077.027.095-.027.106-.083.071-.279.123-.562.155-.848a7.67 7.67 0 0 1 .473-2.129 2.33 2.33 0 0 0-.197-1.957 4.112 4.112 0 0 1-.508-2.037c.003-.82-.043-1.64-.137-2.454a4.864 4.864 0 0 0-.618-1.777c-.102-.183-.216-.361-.313-.548-.214-.415-.553-.738-.805-1.126-.36-.556-.75-1.092-1.13-1.635a.636.636 0 0 0-.134-.144 1.364 1.364 0 0 1-.453-.682c-.42-1.214-.84-2.428-1.257-3.642-.032-.094-.043-.196-.081-.287a.747.747 0 0 1 .088-.753.665.665 0 0 0 .052-.118c-.072-.106-.164-.01-.258-.044l-.192-.724c-.015-.053-.02-.11-.04-.161-.104-.278-.105-.277.095-.458.463-.28.953-.458 1.505-.385a.24.24 0 0 0 .266-.143c.21-.357.214-.756.254-1.148.001-.015-.024-.032-.038-.05-.093-.03-.179.11-.311-.019a14.766 14.766 0 0 0-.273-2.008c-.11-.092-.172.047-.246-.017-.035-.05-.023-.14-.157-.13-.134.121-.317.242-.467.384-.103.098-.168.245-.312.31-.086.038-.087.118-.106.191-.123.47-.137.958-.204 1.436-.06.373-.015.756.13 1.106.061.14 0 .204-.104.264-.179-.17-.136-.41-.192-.617-.037-.137-.047-.283-.096-.418a.136.136 0 0 0-.153-.032c-.234.106-.445-.005-.658-.067a1.007 1.007 0 0 0-.286-.068 4.506 4.506 0 0 1-1.557-.233 4.251 4.251 0 0 0-.505-.112c-.42-.094-.77-.334-1.147-.509a6.022 6.022 0 0 1-1.037-.636 7.122 7.122 0 0 1-1.028-.88c-.716-.781-1.387-1.59-1.739-2.619-.085-.25-.229-.473-.192-.753a.27.27 0 0 0-.056-.153c-.17-.274-.149-.59-.198-.89.18.13.388.03.58.073 1.082.245 2.186.375 3.27.621 1.019.232 2.017.528 3.02.81.402.114.788.277 1.184.404.49.158.974.333 1.458.506.653.234 1.296.493 1.943.741a.276.276 0 0 0 .222.022c.106-.177.192-.367.255-.564-.758-.418-1.579-.687-2.41-1.05l2.094-.705c.71-.24 1.42-.481 2.13-.717.846-.281 1.693-.557 2.539-.836zm-21.371 48.67c.053.11.15.195.267.233.275.117.57.175.87.17.497.006.995-.003 1.492.014.363.013.725.065 1.089.086.237.035.48.004.7-.09.056-.356.09-.714.1-1.073.059-.67.129-1.34.142-2.011a45.74 45.74 0 0 1 .122-2.609c.104-1.343.18-2.688.226-4.034.028-.85.047-1.7.09-2.55.014-.618.077-1.235.188-1.844.095-.453.187-.907.28-1.361.124-.605.253-1.21.37-1.817.033-.172.104-.223.264-.165.051.985.211 1.962.478 2.913.182.64.277 1.3.283 1.966-.003.558-.018 1.118.004 1.675.034.899.087 1.796.145 2.694.054.86.11 1.72.19 2.579a24.79 24.79 0 0 1 .107 3.25c-.01.341.028.682.115 1.013.077.255.084.526.02.784-.078.259.01.471.142.7.595-.058 1.191-.004 1.794-.134.037-.28.168-.546.102-.819a1.825 1.825 0 0 1-.012-.654c.016-.152.1-.292.065-.452-.226-1.035-.246-2.088-.245-3.138.001-.62.062-1.239.079-1.859.02-.77-.016-1.546.043-2.315.073-.952.07-1.902.071-2.854.002-.83-.014-1.662.05-2.491.064-.794.077-1.59.04-2.386a5.869 5.869 0 0 1 .213-1.972c.183-.615.2-1.267.053-1.892a12.026 12.026 0 0 1-.276-1.263.215.215 0 0 0-.116-.184c-.454-.247-.89-.522-1.4-.657-1.027-.271-2.06-.192-3.097-.102-.465.04-.907.188-1.36.285-.281.053-.557.129-.824.227-.14-.143-.13-.33-.307-.452.05.216.086.389.132.559.047.172.028.365.163.556.09-.317.317-.385.567-.419.066-.005.132-.015.196-.031a9.78 9.78 0 0 1 2.778-.4c.898-.01 1.779.178 2.658.347.053.01.142.03.083.163a6.704 6.704 0 0 0-1.119-.22c-.99-.109-1.98-.19-2.968.032-.571.13-1.148.242-1.664.534-.201.115-.375.171-.584-.083-.013.331-.028.602-.18.826a.64.64 0 0 0-.113.435c.05.465-.05.935-.284 1.34-.194.327-.233.71-.36 1.104l.37.289c-.043.116-.047.204-.182.208-.24-.16-.414-.421-.69-.66.066.274.114.497.174.716.153.531.256 1.075.309 1.625.062.75.137 1.498.233 2.245.096.747.117 1.501.062 2.252-.068.924-.16 1.846-.112 2.774.04.791.099 1.58.156 2.37.053.726.099 1.456.093 2.183-.006.75-.064 1.5-.174 2.242-.088.592-.384 1.013-.966 1.234-.36.138-.733.234-1.135.368zm20.345-21.394c-.068.195-.12.365-.187.527a5.891 5.891 0 0 0-.43 1.594 7.983 7.983 0 0 1-.36 1.719c-.104.3-.163.613-.175.93-.035.763-.058 1.527-.143 2.286-.053.472-.135.94-.2 1.41-.102.756-.168 1.518-.307 2.267-.139.85-.2 1.71-.185 2.571-.003.518.023 1.038-.013 1.553-.072 1.003-.159 2.005-.2 3.01a19.083 19.083 0 0 1-.3 2.902c-.058.294-.179.487-.468.57-.624.182-1.237.408-1.886.507-.202.03-.416.01-.61.1.097.294.127.33.346.393.36.115.735.169 1.112.158.762-.028 1.525.027 2.276.164.518.065 1.045.02 1.545-.131 0-.111.006-.21-.001-.309a16.2 16.2 0 0 1 .033-2.321c.035-.495.13-.986.172-1.48.071-1.036.203-2.067.393-3.087.203-.997.221-2.021.4-3.024.11-.62.256-1.23.399-1.842.21-.902.563-1.758.86-2.633.252-.742.46-1.5.688-2.25.144-.476.29-.952.432-1.43.042-.141.09-.258.285-.148-.299 1.027-.474 2.086-.763 3.116a5.67 5.67 0 0 0-.188 2.325c.09.523.146 1.051.17 1.581l.018 1.093c.017 1.127.052 2.254.048 3.381-.003 1.122-.024 2.245.086 3.363a6.22 6.22 0 0 1-.07 1.55c-.07.47-.344.74-.719.967a6.627 6.627 0 0 1-.875.382c-.076.319-.077.324.193.417a3.39 3.39 0 0 0 1.373.16 7.4 7.4 0 0 1 1.185.034c.393.033.79.097 1.177-.055a.35.35 0 0 0 .028-.097c-.017-.906.02-1.81.053-2.714.03-.795.067-1.592.041-2.386-.035-1.117-.022-2.234-.043-3.352-.022-1.098.102-2.19.18-3.284.03-.675.108-1.347.233-2.01.17-.802.261-1.617.275-2.435a4.629 4.629 0 0 1 .401-1.756c.446-1.022.417-2.088.359-3.162a.34.34 0 0 0-.303-.338 4.314 4.314 0 0 1-.564-.184c-.784-.3-1.568-.604-2.352-.905a2.208 2.208 0 0 0-1.037-.134c-.804.08-1.58.301-2.382.437zM53.07 94.09a1.3 1.3 0 0 0-.497-.228 2.232 2.232 0 0 1-1.196-.795.585.585 0 0 1-.145-.36 8.07 8.07 0 0 0-.252-1.671 5.92 5.92 0 0 1 .016-2.728 8.77 8.77 0 0 0 .232-1.877c.01-.531.11-1.058.293-1.557.183-.475.333-.962.449-1.457.176-.822.33-1.648.45-2.48a5.96 5.96 0 0 0 .11-1.12c-.022-.482-.128-.96-.194-1.416-.056-.085-.148-.018-.197-.117l.316-.696a.315.315 0 0 1 .104.19c.216.777.35 1.573.518 2.362.184.887.318 1.784.403 2.686.073.737.168 1.472.209 2.213.037.667-.08 1.324-.082 1.989-.002.387-.024.774-.067 1.158-.057.515-.06 1.032-.11 1.547-.06.614-.047 1.236-.054 1.854-.005.561-.023 1.125.02 1.683.03.33.026.662-.014.99-.033.172-.04.348-.018.52.367.05.717.096 1.066.146.065.01.132.004.195-.017a1.62 1.62 0 0 1 .85-.052c.646.133 1.299.077 1.95.062.056 0 .111-.004.166-.012.118-.018.216-.07.23-.201a.216.216 0 0 0-.16-.255c-.167-.055-.329-.129-.496-.186a4.763 4.763 0 0 1-1.186-.585.865.865 0 0 1-.4-.803c.016-.904.065-1.805.123-2.705.063-.96.157-1.919.216-2.879.014-.242.075-.476.075-.721-.002-.721-.067-1.437-.1-2.156-.022-.505.015-1.015.013-1.518-.003-.554.068-1.097.108-1.642.053-.726.14-1.451.206-2.176.072-.802.053-1.613.062-2.42a44.372 44.372 0 0 0-.077-2.988 6.115 6.115 0 0 0-.338-1.692 11.314 11.314 0 0 1-1.272-.226 4 4 0 0 0-.59-.084c-.67-.006-1.34.037-2.003.13a7.14 7.14 0 0 1-2.21-.046l-.05.121c-.254.654-.203 1.33-.135 2.004.075.737.19 1.47.144 2.216-.047.751-.064 1.504-.09 2.256-.025.728.06 1.46.075 2.19.02.884.039 1.77-.161 2.641-.213.928-.45 1.85-.576 2.796-.072.548-.213 1.088-.229 1.643-.023.74-.007 1.48.049 2.219.093 1.157.183 2.313.287 3.468.038.416.097.83.148 1.261.361.079.735.083 1.098.012.203-.055.416-.068.624-.038.617.104 1.236.056 1.854.055.075 0 .157.023.24-.068v-.44zm-3.627-11.923c-.153-.083-.275-.16-.405-.22-.661-.303-1.32-.61-1.987-.9a18.92 18.92 0 0 0-1.811-.717 20.15 20.15 0 0 0-1.775-.5c-.914-.199-1.825-.41-2.742-.592-.625-.123-1.247-.265-1.87-.403a.797.797 0 0 0-.23-.013c-.703.046-1.407.081-2.11.14-.218.018-.442-.014-.645.023-.28.051-.563.085-.848.1-.319.018-.636.066-.99.104a.858.858 0 0 0 .15.08c1.004.25 2.006.507 3.014.74.385.09.77.196 1.158.258 1.206.192 2.403.433 3.606.645.476.084.944.209 1.418.3.862.178 1.715.399 2.555.662 1.08.325 2.097.807 3.138 1.232a.43.43 0 0 0 .236.053 4.99 4.99 0 0 0 .137-.992zm20.041 2.005a2.254 2.254 0 0 0-.032.564c-.022.177-.018.356.01.532 2.597.272 5.18.604 7.788.456.062-.17.012-.327.049-.479.027-.168.042-.337.044-.507-2.655.072-5.255-.24-7.86-.566h.001zm-13.058-.444c.076.456-.003.866.067 1.305 1.525-.028 3.036-.03 4.548-.154.065-.397.098-.8.098-1.202-.802-.024-1.581.033-2.362.048-.773.014-1.548.003-2.351.003zm31.362-12.213c.067-.42.136-.772.177-1.128.06-.42-.026-.848-.243-1.212-.04-.067-.067-.144-.137-.183-.289-.16-.75.085-.782.416-.012.199.005.399.051.593a2.038 2.038 0 0 1-.423 1.742.844.844 0 0 0-.203.446c-.03.384-.181.675-.542.845-.162.076-.164.213-.099.366.12.277.303.448.646.399.002-.263.07-.52.2-.75.095-.105.179-.222.249-.347.142-.383.263-.773.364-1.168.086-.353.1-.72.186-1.076.026-.11.061-.184.207-.16.082.415.199.822.35 1.217zM54.38 62.974c.228.166.385.286.548.398.56.379 1.038.866 1.408 1.432.298.464.558.948.809 1.436.444.865.845 1.75 1.2 2.655.02.052.018.139.126.127-.016-.184.03-.37-.058-.55-.187-.376-.362-.757-.545-1.134a31.195 31.195 0 0 0-1.735-3.088 2.459 2.459 0 0 0-.914-.888 7.776 7.776 0 0 0-.839-.388zm15.02 9.752c.66-1.394.879-2.411.5-3.405-.015.012-.04.022-.044.038-.182.829-.35 1.66-.548 2.486a1.33 1.33 0 0 0 .092.881zm-7.796 1.707c-.366.163-.7.309-1.118.202.176.678.127 1.385.69 1.896-.013-.726.4-1.357.428-2.099zm4.247 10.565c.017-.412.061-.8-.015-1.205-.257-.004-.515-.07-.778-.016-.052.388-.074.78-.066 1.17.29.082.575-.01.859.05v.001zM55.424 67.814c-.093.178-.168.325-.105.515a.7.7 0 0 1-.005.455.35.35 0 0 0 .036.346c.123.194.301.347.512.439.082-.137.158-.258.228-.382a.38.38 0 0 0-.017-.434c-.212-.304-.423-.61-.649-.939zm-2.288 16.77c.04-.07.051-.152.033-.23-.03-.26-.067-.522-.08-.784a.277.277 0 0 0-.282-.29 2.195 2.195 0 0 0-.245-.002c-.082.364-.144.73-.187 1.1.244.099.5.168.761.206zM81.4 84.5c-.04.31-.192.598-.168.93.247-.05.484.012.71-.108-.051-.28.045-.567-.062-.853l-.48.03zM65.223 61.503h1.2c-.41-.338-.869-.41-1.39-.397l.19.397zm-11.633.854c-.375-.236-.557-.665-.997-.768.138.193.305.356.427.554.122.199.297.274.57.214z"/>
        <path fill="#333" d="M76.856 38.257c-.25.462-.455.944-.675 1.42-.151.327-.324.647-.478.974-.451.954-.896 1.912-1.354 2.863-.19.396-.378.795-.556 1.195-.218.49-.504.949-.676 1.46a1.404 1.404 0 0 1-.168.247c0-.23-.004-.387 0-.545.032-1.143.068-2.286.099-3.43.02-.759.045-1.519.054-2.277.01-.912.078-1.823.066-2.735a.673.673 0 0 1 .053-.356c.395.095.806.086 1.199.2.478.139.96.24 1.41.488.222.137.459.246.706.326.113.044.22.101.32.17zM72.354 37.074l-.004 1.52c-.004.983.005 1.965-.017 2.947-.013.625-.037 1.25-.037 1.875 0 .947 0 1.894-.031 2.849-.114-.16-.26-.29-.27-.502a.709.709 0 0 0-.084-.215c-.32-.763-.611-1.54-.966-2.286-.288-.606-.527-1.234-.792-1.848-.273-.633-.531-1.278-.792-1.919a9.447 9.447 0 0 0-.566-1.265.439.439 0 0 0-.097-.087c.158-.181.37-.309.603-.365.377-.119.733-.3 1.119-.385.521-.115 1.038-.271 1.577-.275.12-.007.239-.022.357-.044zM68.033 38.54c.388.946.792 1.886 1.212 2.819.461 1.027.873 2.076 1.315 3.11.2.467.398.934.626 1.388.137.29.248.592.333.9-2.031-1.866-3.891-3.908-5.938-5.755.222-.444.526-.841.897-1.17a1.56 1.56 0 0 0 .13-.146 6.355 6.355 0 0 1 1.425-1.147zM65.116 41.745a.895.895 0 0 1 .373.262 106.306 106.306 0 0 0 3.125 3.05c.54.503 1.059 1.03 1.58 1.553.14.14.256.303.376.448-.948-.222-1.922-.494-2.913-.697-.992-.203-1.994-.345-2.992-.516-.07-.07-.169-.033-.266-.068-.155-.29-.093-.619-.071-.926.016-.502.092-1 .225-1.484.147-.461.205-.965.502-1.375a.273.273 0 0 0 .06-.247zM80.858 45.063l-6.616 2.223 5.761-5.755c.07.024.097.084.125.145.34.74.647 1.486.75 2.308.032.257.044.516.08.772a.444.444 0 0 1-.1.307zM79.532 40.868c-.077.051-.15.109-.218.171-.493.516-1.011 1.007-1.507 1.52-.467.483-.959.941-1.433 1.417-.567.57-1.108 1.165-1.699 1.711-.23.213-.451.438-.68.661-.042-.09.012-.161.044-.221.296-.553.531-1.136.807-1.698.305-.62.58-1.254.888-1.872.261-.522.487-1.06.733-1.59.214-.458.437-.912.649-1.372.137-.298.261-.603.391-.904.2.06.38.173.523.326.35.365.744.683 1.055 1.09.158.181.303.374.434.577a.186.186 0 0 1 .013.184zM75.3 69.575c.823.022 1.647-.001 2.469-.07.042.14.04.288-.006.426-.32.146-3.71.308-4.458.214a.774.774 0 0 1-.158-.498c.506-.083 1.023.033 1.55-.048-.002-.862.003-1.712.073-2.586a17.204 17.204 0 0 1-2.667-.199 1.996 1.996 0 0 1-.243-.66c.517-.012.98.15 1.457.179.475.029.95.063 1.425.055.486.005.972-.022 1.454-.082.469-.07.94-.123 1.423-.186.112.136.143.313.218.496-.85.3-1.737.285-2.64.382.088.861.055 1.71.102 2.577zM53.576 61.566c-.026-.06-.108-.082-.11-.176.088-.12.245-.112.374-.136a.6.6 0 0 0 .525-.555c.076-.477.188-.949.135-1.441-.006-.21.005-.419.035-.626a1.608 1.608 0 0 0-.236-.945c-.1-.171-.186-.351-.273-.53a.895.895 0 0 0-.681-.514c-.648-.127-1.245.029-1.827.291-.178.08-.34.205-.552.186-.007-.08-.123-.106-.098-.204.022-.103.107-.154.192-.207a3.337 3.337 0 0 1 2.022-.516c.628.042 1.12.316 1.355.948.07.174.153.344.245.507.159.284.2.619.115.933-.069.28-.083.571-.042.857.064.554-.115 1.071-.23 1.598a.555.555 0 0 1-.403.404c-.178.06-.36.102-.546.126zM66.7 56.656a3.952 3.952 0 0 0-2.307.092c-.57.191-.864.427-.803 1.22.052.68.155 1.355.31 2.02.044.192.068.376-.173.46-.181-.026-.25-.139-.284-.313a10.28 10.28 0 0 1-.195-1.71c-.008-.296-.056-.587-.003-.888a1.18 1.18 0 0 1 .823-.986 4.517 4.517 0 0 1 1.304-.196 5.512 5.512 0 0 1 1.124.033c.138.022.291.013.38.154-.016.11-.1.105-.177.114zM92.97 53.435h1.294c-.068.443-.025.858-.106 1.27a2.116 2.116 0 0 1-.648-.017 2.829 2.829 0 0 0-.426-.05c-.248-.007-.277-.034-.249-.268.037-.306.088-.612.135-.935zM39.535 53.464l1.254-.057c.086.385.137.776.152 1.17-.433.122-.873.098-1.316.184a8.31 8.31 0 0 1-.09-1.297zM82.43 58.925c.06.055.11.107.048.195-.062.09-.11.192-.167.286-.155.23-.233.504-.222.782a1.02 1.02 0 0 1-.066.42c-.09.214-.124.447-.1.678a.946.946 0 0 1-.06.39c-.098.309-.049.646.133.914.06.091.12.189.057.307a.244.244 0 0 1-.255-.109 1.054 1.054 0 0 1-.246-1.016 1.8 1.8 0 0 0 .078-.588c.003-.211.055-.418.153-.605.069-.151.101-.316.094-.481-.015-.39.156-.729.332-1.062a.205.205 0 0 1 .222-.11zM26.28 48.365c.066.309.111.621.135.936a4.9 4.9 0 0 1-.941.077c-.078-.308-.006-.613-.043-.96l.849-.053zM110.941 47.381a4.329 4.329 0 0 1-.725-.007.93.93 0 0 1 .04-.684c.228-.033.46-.036.689-.009.101.231.06.453-.004.7zM107.895 46.49a1.147 1.147 0 0 1-.505 0 6.511 6.511 0 0 1 .006-.865c.159-.072.309-.03.474-.02.062.286.02.57.025.884z"/>
        <path fill="#9CB9B3" d="M39.873 62.086c0 .483-.01.967.002 1.45.033 1.317.077 2.634.114 3.95.032 1.164.057 2.328.094 3.492.024.753.073 1.506.088 2.26.006.285-.04.57-.028.86.043.992.078 1.985.066 3.02l-2.856.161c-.123-.77-.14-1.54-.23-2.32a4.201 4.201 0 0 0-.873.142c-.09.15-.024.3-.056.438-.01.142-.046.282-.106.412-.128-.209-.075-.415-.092-.61-.018-.207-.042-.414-.067-.661-.36.065-.71.061-1.052.236-.028.426.04.861-.037 1.292-.188-.283-.122-.6-.143-.904a6.94 6.94 0 0 0-.062-.96l-1.665.22c-.024.472-.01.945.046 1.415a3.769 3.769 0 0 1-.775.056c-.297.01-.386.088-.407.392-.027.365-.052.73-.075 1.094-.006.1-.006.2-.184.23-.086-.616.007-1.23-.06-1.865l-2.057.118c-.13-.2-.091-.406-.1-.6a2.647 2.647 0 0 0-.057-.46c-.04-.184-.109-.218-.308-.205-.473.03-.946.055-1.457.085a10.277 10.277 0 0 1-.02-1.12l12.171-1.783c.072-.351-.027-.665-.007-1-.388-.042-.733.125-1.079.113-.086-.09-.054-.184-.059-.269-.066-1.27-.133-2.539-.194-3.809-.033-.685-.053-1.372-.083-2.058-.01-.232-.025-.464-.045-.695a.34.34 0 0 1 .093-.303 9.324 9.324 0 0 0 1.47-1.832l.09.018zM93.953 62.142a6.5 6.5 0 0 1 .463.589c.288.42.616.811.979 1.168.104.098.16.238.15.381-.044.684-.08 1.37-.117 2.054-.026.496-.054.993-.077 1.49-.048 1.049-.093 2.098-.14 3.148a.7.7 0 0 1-.027.114c-.354-.04-.703-.15-1.08-.117a5.39 5.39 0 0 0-.016.98c.59.09 1.166.179 1.743.264.841.124 1.683.245 2.523.369.83.122 1.659.25 2.488.37.863.127 1.727.248 2.59.373l2.587.377c.338.049.68.077 1.013.146a.322.322 0 0 0 .399-.197c.11-.204.234-.401.362-.62 1.054.075 2.106.132 3.152.245-.034.399-.156.73-.22 1.074-.468.05-.906-.04-1.343-.076-.35-.028-.705-.067-1.055-.084-.54-.026-1.08-.078-1.62-.115-.603-.042-1.208-.11-1.812-.148-.551-.035-1.099-.11-1.653-.115a5.889 5.889 0 0 1-.851-.085 3.215 3.215 0 0 0-.562-.033c-.277.005-.347.074-.361.356-.033.653-.061 1.306-.091 1.959a.456.456 0 0 1-.045.248 1.583 1.583 0 0 1-.432.098c-.073-.59-.008-1.155-.073-1.739-.481-.072-.955-.043-1.44-.06-.05.252-.07.51-.059.767-.02.532-.04 1.063-.057 1.594-.004.155-.037.267-.262.226V75.38c-.834-.031-1.631-.112-2.45-.095-.13.688-.057 1.368-.187 2.047l-2.784-.19c-.09-.196-.048-.399-.045-.591.022-1.383.05-2.766.085-4.15.032-1.229.088-2.458.114-3.687.028-1.308.076-2.614.101-3.922.018-.874.045-1.748.11-2.649z"/>
        <path fill="#9CB9B3" d="M30.296 72.16c-.174-1.09-.362-2.15-.484-3.224a19.541 19.541 0 0 0 5.263-2.373l.301 4.903-5.08.695zM103.965 68.982l-.497 3.21c-1.697-.232-3.377-.423-5.087-.698l.305-4.874c.846.49 1.658.99 2.53 1.375a22.39 22.39 0 0 0 2.749.987zM109.661 68.912c-.72.028-1.442 0-2.158-.082.095-1.685.053-3.368.125-5.067h2.14c.007 1.732-.088 3.431-.107 5.15zM38.053 71.09c-.345.107-.704.064-1.058.196-.024-.191-.048-.34-.06-.49-.102-1.234-.202-2.468-.301-3.701-.037-.463-.067-.927-.102-1.39a.303.303 0 0 1 .092-.299c.402-.326.816-.638 1.19-1 .012-.013.04-.01.1-.021l.14 6.705zM95.87 64.421c.53.35.907.803 1.375 1.12-.157 1.929-.3 3.832-.477 5.766-.36-.112-.694-.053-1.052-.142.015-1.12-.002-2.244.055-3.364.056-1.111-.006-2.227.098-3.38zM105.147 72.384l.392-3.068c1.428.235 2.838.39 4.27.28.062.058.016.115-.018.17-.049.06-.093.123-.132.19-.134.324-.383.42-.716.417-.275.007-.55.028-.823.064a.544.544 0 0 0-.43.263c-.38.57-.79 1.122-1.171 1.691a.322.322 0 0 1-.383.17 2.795 2.795 0 0 0-.658-.068.585.585 0 0 1-.33-.109zM28.63 72.378l-.98.146c-.134-1.029-.188-2.051-.278-3.077.276-.12.56-.09.844-.184.168 1.034.227 2.067.414 3.115zM110.015 53.852c.06.307.007.566.006.862h-2.22c-.068-.297 0-.58-.03-.862h2.244zM107.774 56.303a2.087 2.087 0 0 1 .008-.778c.732-.03 1.463-.012 2.203-.01.076.262-.004.503.036.788h-2.247zM113.433 48.2c-.012-.095-.049-.192.023-.28.02.096.06.192-.023.28zM83.597 58.169c-.1.012-.201.037-.286-.045.098.001.203-.049.286.045z"/>
        <path fill="#333" d="M24.06 43.59c.044.396.05.796.021 1.194l-1.807.13-.1-1.14 1.886-.185z"/>
    </g>
</svg>
