<svg xmlns="http://www.w3.org/2000/svg" width="15" height="24" viewBox="0 0 15 24">
    <g fill="#FFF" fill-rule="evenodd">
        <path d="M7.09 13.036c-.01.186-.03.371-.061.555-.037.276-.084.552-.13.827-.04.23-.085.459-.122.689-.035.21-.056.424-.096.634-.054.288-.097.577-.136.866a44.97 44.97 0 0 1-.29 1.844c-.039.225-.089.45-.121.675-.05.348-.132.69-.17 1.04-.02.191-.06.38-.09.57-.022.19-.071.376-.146.553-.076.17-.17.333-.283.483a2.394 2.394 0 0 1-.466.483c-.273.204-.589.29-.907.378-.185.051-.37 0-.555.021-.17.02-.333-.04-.494-.081a1.12 1.12 0 0 1-.24-.068 3.036 3.036 0 0 1-.778-.53c-.412-.405-.585-.9-.586-1.463.007-.132.027-.263.06-.391.029-.15.009-.306.05-.455a.583.583 0 0 0 .016-.204.214.214 0 0 1 .034-.142.212.212 0 0 0 .031-.182.24.24 0 0 1-.007-.133c.041-.142.069-.287.082-.434.013-.119.051-.238.071-.357.102-.617.259-1.223.367-1.838.014-.038.025-.078.034-.117.015-.298.12-.58.158-.873.034-.258.13-.514.055-.78-.016-.057.014-.113 0-.175a.596.596 0 0 0-.201-.314.678.678 0 0 0-.992.06c-.04.047-.107.079-.111.153a.686.686 0 0 1-.067.193c-.044.124-.107.242-.126.376-.049.361-.15.713-.2 1.075a1.647 1.647 0 0 1-.03.272c-.064.206-.077.422-.106.633-.05.363-.107.725-.16 1.087-.043.3-.095.597-.13.897-.022.182-.06.36-.082.542-.048.39-.095.779-.16 1.166a.369.369 0 0 0-.004.081c.022.318.08.632.173.937.057.195.168.374.252.561.055.124.148.22.226.327.132.192.286.368.458.527.3.28.649.505 1.03.664.18.07.345.175.544.203.193.026.381.087.574.106.24.023.482.029.723.017.286-.014.56-.082.838-.135.186-.036.347-.134.52-.2.161-.06.314-.139.457-.233.31-.203.59-.445.834-.721a3.15 3.15 0 0 0 .753-1.556c.044-.299.085-.598.128-.897.04-.29.082-.58.124-.87.038-.262.085-.523.115-.786.027-.236.059-.472.094-.707.038-.257.067-.516.104-.774.037-.262.09-.523.116-.786.035-.345.1-.687.14-1.032.046-.403.123-.803.17-1.206.038-.331.088-.66.137-.99.05-.334.1-.667.013-1.005-.064-.242-.103-.49-.225-.715a.577.577 0 0 1-.087-.185.308.308 0 0 0-.087-.167c-.14-.165-.27-.337-.401-.508a2.43 2.43 0 0 0-.98-.758c-.179-.08-.364-.145-.539-.232a1.107 1.107 0 0 0-.416-.1c-.209-.015-.417.034-.624.072-.249.045-.374.233-.467.43a.434.434 0 0 0 .017.35.78.78 0 0 0 .466.424c.074.027.154.037.217.089.016.01.034.015.053.015.19.018.351.11.523.178.094.037.16.105.242.152.12.064.226.15.313.251.391.46.591 1.047.561 1.644z"/>
        <path d="M5.283 4.665a.391.391 0 0 1-.13.224c-.1.108-.203.214-.304.322-.204.22-.404.446-.606.668-.356.39-.726.763-1.071 1.165-.121.14-.246.277-.373.412-.066.07-.128.146-.184.227-.168.243-.31.506-.466.757-.103.167-.154.357-.223.539-.043.112-.042.237-.08.35-.042.115-.07.236-.082.36 0 .069-.004.137-.014.204-.066.288-.026.576.005.861.029.196.072.389.13.576.056.213.17.404.204.626.003.01.008.018.015.024.087.08.125.195.178.3.045.088.066.199.142.26.108.09.224.169.345.235.255.132.499.108.723-.094a.861.861 0 0 0 .147-.22c.087-.146.074-.303.045-.462a.184.184 0 0 0-.057-.096c-.135-.14-.228-.317-.334-.482a.663.663 0 0 1-.098-.153c-.064-.206-.175-.395-.179-.62-.002-.108-.047-.205-.046-.315.01-.42.112-.832.296-1.2.105-.217.219-.435.422-.565.018-.012.043-.025.042-.052-.002-.081.056-.117.098-.163.57-.622 1.14-1.24 1.708-1.864.352-.386.712-.764 1.067-1.147.163-.177.327-.355.487-.537.197-.224.383-.46.62-.643.184-.14.349-.308.488-.502.184-.266.451-.436.624-.709a.038.038 0 0 1 .01-.009c.12-.087.212-.21.314-.317.05-.045.098-.093.143-.144.069-.093.16-.162.229-.251.097-.124.237-.172.35-.268.077-.07.162-.13.252-.177.16-.078.318-.165.491-.198.234-.045.47-.113.707-.013.03.008.06.01.09.006.044 0 .088.005.13.016.195.05.384.124.564.221.21.12.397.283.552.48.128.152.234.325.314.513.075.175.132.359.17.548a2.2 2.2 0 0 1-.135 1.247c-.036.088-.042.186-.096.268-.297.453-.612.886-1.015 1.23a.343.343 0 0 0-.073.082 1.526 1.526 0 0 1-.302.337 1.18 1.18 0 0 0-.217.22.681.681 0 0 1-.1.116c-.244.228-.473.474-.71.71-.154.154-.303.313-.462.458-.158.144-.273.34-.455.455a.133.133 0 0 0-.027.031l-.225.284a.62.62 0 0 0-.117.172c-.078.227-.05.576.14.75.072.07.153.127.24.171.09.042.178.105.282.095a.865.865 0 0 0 .478-.216c.15-.127.27-.287.411-.424.107-.103.182-.248.325-.305a.076.076 0 0 0 .043-.07c.006-.102.07-.164.133-.224.157-.154.298-.327.462-.473.087-.079.159-.175.247-.256.078-.07.128-.179.215-.246a.393.393 0 0 0 .098-.094c.082-.133.201-.225.299-.34.084-.1.187-.174.274-.268.164-.18.313-.373.484-.545.21-.21.404-.443.6-.67.035-.04.09-.057.103-.126.02-.116.095-.204.148-.303.086-.163.172-.324.198-.516a.25.25 0 0 1 .02-.069c.063-.14.078-.297.106-.446.047-.275.064-.556.052-.836-.003-.08.023-.161 0-.241a5.41 5.41 0 0 1-.097-.49c-.035-.184-.066-.37-.159-.534-.09-.16-.162-.332-.248-.494a2.159 2.159 0 0 0-.221-.354c-.179-.217-.341-.456-.57-.619-.152-.108-.294-.233-.442-.348-.157-.12-.346-.159-.521-.228-.219-.087-.44-.173-.677-.196a2.62 2.62 0 0 1-.324-.034 1.383 1.383 0 0 0-.398-.009c-.124.009-.249.042-.373.044-.251.005-.473.123-.7.212-.147.06-.29.135-.424.224-.19.125-.393.23-.534.43a.2.2 0 0 1-.051.045c-.095.068-.18.151-.254.247-.145.189-.31.355-.468.527-.404.44-.817.869-1.225 1.303-.338.36-.674.724-1.012 1.085-.072.077-.151.144-.22.228-.1.125-.196.265-.36.31z"/>
    </g>
</svg>
