<svg xmlns="http://www.w3.org/2000/svg" width="24" height="24" viewBox="0 0 24 24">
    <path fill="#242635" fill-rule="evenodd" d="M13.875 12.123a.75.75 0 0 1-1.5.004 3.011 3.011 0 0 0-3-3.002H4.877a3.01 3.01 0 0 0-3.002 2.998 3.01 3.01 0 0 0 3 3.002h4.5a.75.75 0 0 1 0 1.5H4.873a4.51 4.51 0 0 1-4.498-4.502 4.511 4.511 0 0 1 4.5-4.498h4.502a4.512 4.512 0 0 1 4.498 4.498zM9.228 19.32l-.073.084-1.5 1.5a.75.75 0 0 1-1.133-.976l.073-.084 1.5-1.5a.75.75 0 0 1 1.133.976zM9.155 5.905a.75.75 0 0 1-.976.073l-.084-.073-1.5-1.5a.75.75 0 0 1 .976-1.133l.084.073 1.5 1.5a.75.75 0 0 1 0 1.06zm14.47 6.222a4.511 4.511 0 0 1-4.288 4.493l-.212.005h-5.252a4.513 4.513 0 0 1-4.498-4.5.75.75 0 0 1 1.5 0 3.013 3.013 0 0 0 2.803 2.992l.197.008h5.248a3.01 3.01 0 0 0 3.002-2.998 3.012 3.012 0 0 0-2.824-2.996l-.176-.006h-4.5a.75.75 0 0 1-.102-1.493l.102-.007h4.502a4.513 4.513 0 0 1 4.498 4.502zm-11.25-6.752a.75.75 0 0 1-1.493.102l-.007-.102v-3a.75.75 0 0 1 1.493-.102l.007.102v3zm0 16.5a.75.75 0 0 1-1.493.102l-.007-.102v-3a.75.75 0 0 1 1.493-.102l.007.102v3zm4.353-17.554l-.073.084-1.5 1.5a.75.75 0 0 1-1.133-.976l.073-.084 1.5-1.5a.75.75 0 0 1 1.133.976zm-.073 16.584a.75.75 0 0 1-.976.073l-.084-.073-1.5-1.5a.75.75 0 0 1 .976-1.133l.084.073 1.5 1.5a.75.75 0 0 1 0 1.06z"/>
</svg>
