<svg version="1.1" xmlns="http://www.w3.org/2000/svg" xmlns:xlink="http://www.w3.org/1999/xlink" style="enable-background:new 0 0 1920 1080;" xml:space="preserve" width="75" height="26"><rect id="backgroundrect" width="100%" height="100%" x="0" y="0" fill="none" stroke="none" style="" class=""/>
<style type="text/css">
	.st0{fill-rule:evenodd;clip-rule:evenodd;fill:url(#SVGID_1_);}
	.st1{fill-rule:evenodd;clip-rule:evenodd;fill:#FF8F1C;}
	.st2{fill-rule:evenodd;clip-rule:evenodd;fill:url(#SVGID_2_);}
	.st3{fill-rule:evenodd;clip-rule:evenodd;fill:#333333;}
	.st4{fill-rule:evenodd;clip-rule:evenodd;fill:url(#SVGID_3_);}
	.st5{fill-rule:evenodd;clip-rule:evenodd;fill:url(#SVGID_4_);}
	.st6{fill-rule:evenodd;clip-rule:evenodd;fill:#FFFFFF;}
	.st7{fill-rule:evenodd;clip-rule:evenodd;fill:url(#SVGID_5_);}
	.st8{fill-rule:evenodd;clip-rule:evenodd;fill:url(#SVGID_6_);}
	.st9{fill-rule:evenodd;clip-rule:evenodd;fill:url(#SVGID_7_);}
	.st10{fill-rule:evenodd;clip-rule:evenodd;fill:url(#SVGID_8_);}
	.st11{enable-background:new    ;}
	.st12{fill:#FFFFFF;}
	.st13{fill-rule:evenodd;clip-rule:evenodd;fill:url(#SVGID_9_);}
	.st14{fill-rule:evenodd;clip-rule:evenodd;fill:url(#SVGID_10_);}
	.st15{fill:#333333;}
	.st16{fill-rule:evenodd;clip-rule:evenodd;fill:url(#SVGID_11_);}
	.st17{fill-rule:evenodd;clip-rule:evenodd;fill:url(#SVGID_12_);}
</style>

<g class="currentLayer" style=""><title>Layer 1</title>
	
		
			
				
					
					<g id="svg_7" class="selected">
						<path class="st6" d="M74.79206036540381,13.70270019761665 c0,-4.87959624332052 -2.860572634730204,-8.245521707780426 -7.211026683226123,-8.245521707780426 c-4.1915335487760785,0 -7.369947425597502,3.365925464459906 -7.369947425597502,7.827270225088796 c0,4.620678937405501 3.098953748287272,7.827270225088796 7.628194177916953,7.827270225088796 c2.344080343348992,0 4.529239944326605,-0.7568353284847262 5.860201101024018,-2.011588618593578 l0.15892071203993652,-0.15933375015754336 l-1.8474532054270867,-2.8680073809446185 l-0.15892071203993652,0.15933375015754336 c-0.9137940259838899,0.9161690176966886 -2.5228662391796775,1.3543369677574901 -3.5161207576750257,1.3543369677574901 c-1.926913576612776,0 -3.357199772652109,-1.0954195399513083 -3.7743667820398628,-2.8680073809446185 h10.309981402119547 v-1.015752634399746 H74.79206036540381 zM70.75944804430219,11.770775985805813 h-6.29723302121954 c0.258246145690606,-1.3543369677574901 1.172040171674496,-2.68875691963558 3.1784141194729614,-2.68875691963558 C68.6736154238788,8.9824356932495 70.52105940854744,9.579936418338548 70.75944804430219,11.770775985805813 L70.75944804430219,11.770775985805813 z" id="svg_8"/>
						<polygon class="st6" points="12.31635437931186,16.650371741561685 4.191540828322218,16.650371741561685 4.191540828322218,0 0,0 0,20.753210703926015 13.905561803025648,20.753210703926015 " id="svg_9"/>
						<polygon class="st6" points="59.6945883842136,20.753210703926015 53.913856147179104,12.766612152836387 59.53567298017606,5.955091697705029 54.48994584015054,5.955091697705029 49.88124382607748,11.691104021771025 49.88124382607748,0 45.68970445366449,0 45.68970445366449,20.753210703926015 49.88124382607748,20.753210703926015 49.88124382607748,13.941690736359305 55.085898017414365,20.753210703926015 " id="svg_10"/>
						<polygon class="st6" points="43.60386795081649,20.753210703926015 37.803273229489605,12.766612152836387 43.42509006248656,5.955091697705029 38.39922540675343,5.955091697705029 33.79052339268037,11.691104021771025 33.79052339268037,0 29.598982079055077,0 29.598982079055077,20.753210703926015 33.79052339268037,20.753210703926015 33.79052339268037,13.941690736359305 38.995177584017256,20.753210703926015 " id="svg_11"/>
						<polygon class="st6" points="23.142828315464158,5.7160884822815206 19.78563557970665,14.618864400612438 16.42843119667532,5.7160884822815206 11.899192708257942,5.7160884822815206 17.600475008122885,20.095961856586655 15.335850910883437,25.9713947545024 19.706170112838663,25.9713947545024 27.751530329537218,5.7160884822815206 " id="svg_12"/>
					</g>
				
			
		
	
	
</g></svg>