<svg version="1.1" xmlns="http://www.w3.org/2000/svg" xmlns:xlink="http://www.w3.org/1999/xlink" style="" xml:space="preserve" width="75" height="26"><rect id="backgroundrect" width="100%" height="100%" x="0" y="0" fill="none" stroke="none" style="" class=""/>
<style type="text/css">
	.st0{fill-rule:evenodd;clip-rule:evenodd;fill:url(#SVGID_1_);}
	.st1{fill-rule:evenodd;clip-rule:evenodd;fill:#FF8F1C;}
	.st2{fill-rule:evenodd;clip-rule:evenodd;fill:url(#SVGID_2_);}
	.st3{fill-rule:evenodd;clip-rule:evenodd;fill:#333333;}
	.st4{fill-rule:evenodd;clip-rule:evenodd;fill:url(#SVGID_3_);}
	.st5{fill-rule:evenodd;clip-rule:evenodd;fill:url(#SVGID_4_);}
	.st6{fill-rule:evenodd;clip-rule:evenodd;fill:#FFFFFF;}
	.st7{fill-rule:evenodd;clip-rule:evenodd;fill:url(#SVGID_5_);}
	.st8{fill-rule:evenodd;clip-rule:evenodd;fill:url(#SVGID_6_);}
	.st9{fill-rule:evenodd;clip-rule:evenodd;fill:url(#SVGID_7_);}
	.st10{fill-rule:evenodd;clip-rule:evenodd;fill:url(#SVGID_8_);}
	.st11{enable-background:new    ;}
	.st12{fill:#FFFFFF;}
	.st13{fill-rule:evenodd;clip-rule:evenodd;fill:url(#SVGID_9_);}
	.st14{fill-rule:evenodd;clip-rule:evenodd;fill:url(#SVGID_10_);}
	.st15{fill:#333333;}
	.st16{fill-rule:evenodd;clip-rule:evenodd;fill:url(#SVGID_11_);}
	.st17{fill-rule:evenodd;clip-rule:evenodd;fill:url(#SVGID_12_);}
</style>

<g class="currentLayer" style=""><title>Layer 1</title>
	
		
			
				
					
					<g id="svg_7" class="selected">
						<path class="st3" d="M74.76319147917911,13.697619462322564 c0,-4.877786778269524 -2.8594690530831883,-8.242463632902854 -7.208243829695618,-8.242463632902854 c-4.189916571387698,0 -7.3671037148446885,3.3646773240898256 -7.3671037148446885,7.824367086815187 c0,4.618965553983344 3.0977579208500288,7.824367086815187 7.625250488236247,7.824367086815187 c2.3431762262676443,0 4.5274925673862185,-0.7565546684077873 5.857939845701537,-2.01084272225512 l0.15885940517068775,-0.1592746762988071 l-1.8467402251254583,-2.866944056014404 l-0.15885940517068775,0.1592746762988071 c-0.913441459736859,0.9158292860245325 -2.521892817095477,1.3538348365629531 -3.514763859423084,1.3538348365629531 c-1.9261699277108022,0 -3.3559044542523964,-1.0950132601844018 -3.7729103928254517,-2.866944056014404 h10.306002710502412 v-1.015376068740153 H74.76319147917911 zM70.73214103265946,11.766412523142208 h-6.294802729942546 c0.2581464734050698,-1.3538348365629531 1.1715881131338222,-2.6877600231724728 3.1771876234353726,-2.6877600231724728 C68.64711493963205,8.979104719659063 70.49384136537901,9.576385768045157 70.73214103265946,11.766412523142208 L70.73214103265946,11.766412523142208 z" id="svg_8"/>
						<polygon class="st3" points="12.311601020858006,16.644198831955237 4.1899232910850515,16.644198831955237 4.1899232910850515,0 0,0 0,20.74551724280127 13.900196992478413,20.74551724280127 " id="svg_9"/>
						<polygon class="st3" points="59.671553747704365,20.74551724280127 53.89305176422067,12.76187718146707 59.512700102274266,5.952883464017191 54.46892214773743,5.952883464017191 49.861997477873956,11.686769228763524 49.861997477873956,0 45.672070346961846,0 45.672070346961846,20.74551724280127 49.861997477873956,20.74551724280127 49.861997477873956,13.936522116981905 55.06464443714913,20.74551724280127 " id="svg_10"/>
						<polygon class="st3" points="43.58704041410738,20.74551724280127 37.78868268490169,12.76187718146707 43.40833486278234,5.952883464017191 38.3844126539675,5.952883464017191 33.77748414427697,11.686769228763524 33.77748414427697,0 29.587560853191917,0 29.587560853191917,20.74551724280127 33.77748414427697,20.74551724280127 33.77748414427697,13.936522116981905 38.98013110355214,20.74551724280127 " id="svg_11"/>
						<polygon class="st3" points="23.1338982381003,5.713968603488979 19.77800074353445,14.613443643007713 16.42209172948742,5.713968603488979 11.894601561993113,5.713968603488979 17.593684402415875,20.088511000206836 15.329932598971368,25.961762906257718 19.69856624116528,25.961762906257718 27.740822907963775,5.713968603488979 " id="svg_12"/>
					</g>
				
			
		
	
	
</g></svg>