<?xml version="1.0" encoding="utf-8"?><!-- Generator: Adobe Illustrator 24.1.0, SVG Export Plug-In . SVG Version: 6.00 Build 0)  -->
<svg version="1.1" id="Layer_1" xmlns="http://www.w3.org/2000/svg" x="0px" y="0px"
    viewBox="0 0 24 24" style="enable-background:new 0 0 24 24;" xml:space="preserve">

    <g class="st0">
	<path class="st1" d="M7.1,9.8C7,9.9,6.9,9.9,6.9,10s0,0.2,0,0.5v4.2c0,0.2,0,0.4,0,0.5s0.1,0.2,0.2,0.2s0.2,0.1,0.4,0.1v0.2
		c-0.3,0-0.8,0-1.3,0c-0.6,0-1,0-1.3,0v-0.2c0.2,0,0.3,0,0.4-0.1c0.1,0,0.2-0.1,0.2-0.2s0.1-0.2,0.1-0.5v-4.4l-2,5.3H3.4l-2.3-5.4v4
		c0,0.3,0,0.6,0.1,0.7c0,0.2,0.1,0.3,0.2,0.3c0.1,0.1,0.3,0.1,0.5,0.1v0.2c-0.2,0-0.5,0-0.9,0c-0.3,0-0.6,0-0.7,0v-0.2
		c0.2,0,0.3-0.1,0.4-0.1c0.1-0.1,0.1-0.2,0.2-0.3c0-0.1,0-0.4,0-0.6v-3.8c0-0.2,0-0.4,0-0.5c0-0.1-0.1-0.2-0.2-0.2
		c-0.1,0-0.2-0.1-0.4-0.1V9.6c0.2,0,0.4,0,0.7,0c0.5,0,1,0,1.3,0L4,13.7l1.5-4.1h0.6c0.6,0,1,0,1.3,0v0.2C7.3,9.8,7.2,9.8,7.1,9.8z" fill="#37374B"/>
        <path class="st1" d="M10.1,11.4c-0.1-0.1-0.3-0.2-0.5-0.2c-0.1,0-0.2,0-0.3,0.1c-0.1,0-0.2,0.1-0.3,0.2c0.2,0.1,0.3,0.1,0.4,0.2
		s0.1,0.2,0.1,0.4c0,0.1,0,0.2-0.1,0.3c-0.1,0.1-0.1,0.2-0.2,0.2c-0.1,0.1-0.2,0.1-0.4,0.1c-0.2,0-0.3-0.1-0.4-0.2s-0.2-0.3-0.2-0.5
		c0-0.3,0.2-0.5,0.5-0.7c0.3-0.2,0.8-0.3,1.3-0.3c0.6,0,1,0.1,1.2,0.4c0.1,0.1,0.2,0.3,0.2,0.4c0,0.2,0.1,0.4,0.1,0.7v2.3
		c0,0.1,0,0.2,0,0.3c0,0.1,0.1,0.1,0.1,0.1c0.1,0,0.2,0,0.3-0.1l0.1,0.1c-0.1,0.1-0.3,0.2-0.4,0.2c-0.2,0-0.3,0.1-0.5,0.1
		c-0.3,0-0.5-0.1-0.6-0.2c-0.1-0.1-0.2-0.3-0.2-0.5c-0.1,0.2-0.3,0.4-0.5,0.5S9.3,15.6,9,15.6c-0.3,0-0.6-0.1-0.8-0.3S8,14.9,8,14.6
		c0-0.3,0.1-0.5,0.3-0.7c0.2-0.2,0.5-0.4,0.9-0.5c0,0,0.2-0.1,0.4-0.2C9.8,13.1,10,13,10.1,13s0.2-0.2,0.2-0.3V12
		C10.2,11.8,10.2,11.6,10.1,11.4z M10.1,13.2c-0.1,0.1-0.2,0.1-0.3,0.2c-0.2,0.1-0.3,0.3-0.4,0.4s-0.2,0.3-0.2,0.6
		c0,0.2,0,0.4,0.1,0.5C9.4,15,9.5,15,9.7,15c0.2,0,0.4-0.1,0.6-0.3V13C10.2,13,10.1,13.1,10.1,13.2z" fill="#37374B"/>
        <path class="st1" d="M15.6,11.2c0.3,0,0.5,0,0.6,0v0.2c-0.1,0-0.2,0.1-0.3,0.2c-0.1,0.1-0.2,0.3-0.3,0.5l-1.2,3.5
		c-0.1,0-0.2,0-0.3,0c-0.1,0-0.2,0-0.3,0l-1.5-3.7c-0.1-0.3-0.3-0.5-0.5-0.5v-0.2c0.4,0,0.8,0,1.2,0c0.4,0,0.7,0,1.1,0v0.2
		c-0.2,0-0.3,0-0.3,0s-0.1,0.1-0.2,0.1c0,0.1,0,0.2,0,0.3l1,2.5l0.6-1.7c0.1-0.3,0.1-0.5,0.1-0.7c0-0.4-0.2-0.6-0.6-0.7v-0.2
		C15.1,11.2,15.3,11.2,15.6,11.2z" fill="#37374B"/>
        <path class="st1" d="M19.6,11.1c0.2,0,0.4,0,0.6,0.1s0.3,0.1,0.4,0.2s0.2,0.2,0.2,0.4c0,0.2,0.1,0.4,0.1,0.7v2.3
		c0,0.2,0,0.3,0.1,0.4c0,0.1,0.1,0.1,0.2,0.2s0.2,0.1,0.3,0.1v0.2c-0.6,0-0.9,0-1.1,0c-0.2,0-0.5,0-1.1,0v-0.2c0.1,0,0.2,0,0.3-0.1
		s0.1-0.1,0.1-0.2c0-0.1,0-0.2,0-0.4v-2.6c0-0.2,0-0.4-0.1-0.5s-0.2-0.2-0.4-0.2c-0.2,0-0.3,0-0.4,0.1c-0.1,0.1-0.2,0.2-0.3,0.4
		c-0.1,0.1-0.1,0.3-0.1,0.5v2.3c0,0.2,0,0.3,0,0.4c0,0.1,0.1,0.1,0.1,0.2s0.2,0.1,0.3,0.1v0.2c-0.5,0-0.9,0-1,0c-0.2,0-0.6,0-1.2,0
		v-0.2c0.1,0,0.2,0,0.3-0.1c0.1,0,0.1-0.1,0.2-0.2c0-0.1,0.1-0.2,0.1-0.4v-2.6c0-0.3,0-0.4-0.1-0.6s-0.2-0.2-0.4-0.2v-0.2
		c0.2,0,0.4,0,0.5,0c0.5,0,0.9,0,1.2-0.1v0.8C18.4,11.3,18.9,11.1,19.6,11.1z" fill="#37374B" />
</g>
    <g id="Group-3" transform="translate(87.000000, 0.000000)">
	<path id="Oval" class="st2"
        d="M-64.9,6.4c1,0,1.9,0.8,1.9,1.9s-0.8,1.9-1.9,1.9s-1.9-0.8-1.9-1.9S-65.9,6.4-64.9,6.4z" fill="#6B4D6A" />
        <path id="Combined-Shape" class="st3" d="M-64.9,8.4c0,0,0.1,0,0.1,0l0,0l0.5,0.5c0,0,0,0.1,0,0.2s-0.1,0-0.2,0l0,0l-0.4-0.5
		l-0.5,0.4c0,0-0.1,0-0.1,0l0,0c0,0,0-0.1,0-0.2l0,0L-64.9,8.4C-64.9,8.4-64.9,8.4-64.9,8.4L-64.9,8.4z M-65.1,8.1
		c0.1,0,0.1,0.1,0.1,0.1s-0.1,0.1-0.1,0.1l0,0h-0.6c-0.1,0-0.1-0.1-0.1-0.1s0.1-0.1,0.1-0.1l0,0H-65.1z M-64.8,7.4
		c0.1,0,0.1,0.1,0.1,0.1l0,0v0.6h0.6c0.1,0,0.1,0,0.1,0.1v0c0,0.1,0,0.1-0.1,0.1l0,0h-0.8c0,0,0,0,0,0c-0.1,0-0.1-0.1-0.1-0.1l0,0
		V7.5C-64.9,7.4-64.8,7.4-64.8,7.4z" fill="#FFFFFF"/>
</g>
</svg>
