<svg xmlns="http://www.w3.org/2000/svg" width="24" height="24" viewBox="0 0 24 24">
    <path fill="#242635" d="M14.908.355A12.005 12.005 0 0 1 23.895 10.4a.75.75 0 0 1-1.487.2c-.23-1.707-.86-3.27-1.788-4.6h-3.183c.154.715.265 1.44.33 2.172a.75.75 0 1 1-1.494.133A16.258 16.258 0 0 0 15.899 6H8.137a26.372 26.372 0 0 0-.598 4.5h2.963a.75.75 0 0 1 0 1.5h-3c0 4.222.875 8.06 2.252 10.26.275.06.554.109.837.147a.75.75 0 1 1-.201 1.487A12.001 12.001 0 1 1 14.908.355zm1.335 2.038c.311.686.579 1.39.801 2.107h2.306a10.536 10.536 0 0 0-3.107-2.107zm-2.016-.656a10.508 10.508 0 0 0-4.474.005C9.286 2.49 8.876 3.425 8.54 4.5h6.928c-.326-.955-.74-1.88-1.24-2.763zM2.51 16.5H6.33a30.32 30.32 0 0 1-.328-4.5H1.5c-.001 1.6.36 3.129 1.011 4.5zm.871 1.5a10.51 10.51 0 0 0 4.337 3.591c-.458-1.045-.835-2.26-1.118-3.59H3.382zm0-12a10.453 10.453 0 0 0-1.775 4.5h4.43c.075-1.587.268-3.107.564-4.5H3.383zm1.27-1.5h2.322c.216-.751.465-1.451.744-2.089a10.513 10.513 0 0 0-3.066 2.09zm13.66 12.75l1.72 1.72a.75.75 0 0 1-1.06 1.06l-1.72-1.719-1.72 1.72a.75.75 0 0 1-1.06-1.061l1.719-1.72-1.72-1.72a.75.75 0 0 1 1.061-1.06l1.72 1.72 1.72-1.72a.75.75 0 0 1 1.06 1.06l-1.72 1.72zM17.252 24a6.75 6.75 0 1 1 0-13.5 6.75 6.75 0 0 1 0 13.5zm0-1.5a5.25 5.25 0 1 0 0-10.5 5.25 5.25 0 0 0 0 10.5z"/>
</svg>
