<svg xmlns="http://www.w3.org/2000/svg" xmlns:xlink="http://www.w3.org/1999/xlink" width="24" height="24" viewBox="0 0 24 24">
        <path id="a" d="M11.285 21.539a.75.75 0 1 1 1.44.422 2.837 2.837 0 0 1-5.445 0 .75.75 0 1 1 1.44-.422 1.337 1.337 0 0 0 2.565 0zM10 0a.75.75 0 0 1 .75.75v1.534a8.25 8.25 0 0 1 7.5 8.216c0 3.011.272 5.144.715 6.54.145.459.295.79.435 1.012.062.098.089.129.07.113.552.444.238 1.335-.47 1.335H1a.75.75 0 0 1-.59-1.212c.127-.164.366-.636.62-1.5.448-1.516.72-3.586.72-6.288a8.25 8.25 0 0 1 7.5-8.216V.75A.75.75 0 0 1 10 0zm0 3.75a6.75 6.75 0 0 0-6.75 6.75c0 2.84-.29 5.052-.78 6.713-.087.293-.175.555-.263.787h15.505a8.65 8.65 0 0 1-.177-.506c-.494-1.558-.785-3.84-.785-6.994A6.75 6.75 0 0 0 10 3.75z" fill-rule="evenodd" transform="translate(2)"/>

</svg>
