<svg height="24" viewBox="0 0 24 24" width="24" xmlns="http://www.w3.org/2000/svg">
    <g fill="#242635" fill-rule="evenodd">
        <path
            d="M21.747 2.25v19.5a2.25 2.25 0 0 1-2.25 2.25h-15a2.25 2.25 0 0 1-2.25-2.25V2.25A2.25 2.25 0 0 1 4.497 0h15a2.25 2.25 0 0 1 2.25 2.25zm-1.5 0a.75.75 0 0 0-.75-.75h-15a.75.75 0 0 0-.75.75v19.5c0 .414.336.75.75.75h15a.75.75 0 0 0 .75-.75V2.25z" />
        <path
            d="M17.698 10.024a5.751 5.751 0 0 1-11.396 0 .748.748 0 0 1-.04-.406 5.75 5.75 0 1 1 11.477 0 .755.755 0 0 1-.04.406zm-9.761.476a4.252 4.252 0 0 0 8.126 0H7.937zM7.757 9h8.486a4.25 4.25 0 0 0-8.486 0zM10.75 19.75h3a.75.75 0 1 0 0-1.5h-3a.75.75 0 1 0 0 1.5z" />
        <path
            d="M12 15c1.707 0 2.75-2.608 2.75-5.75S13.707 3.5 12 3.5 9.25 6.108 9.25 9.25 10.293 15 12 15zm0-1.5c-.503 0-1.25-1.869-1.25-4.25C10.75 6.869 11.497 5 12 5s1.25 1.869 1.25 4.25c0 2.381-.747 4.25-1.25 4.25z" />
    </g>
</svg>
