<svg xmlns="http://www.w3.org/2000/svg" width="24" height="24" viewBox="0 0 24 24">
    <path d="M9.22 12.22a.75.75 0 0 1 1.06 1.06L8.56 15H15a.75.75 0 0 1 .102 1.493L15 16.5H8.561l1.72 1.72a.75.75 0 0 1 .072.976l-.073.084a.75.75 0 0 1-1.06 0l-3-3-.064-.072A.752.752 0 0 1 6 15.75v-.016c0-.02.002-.041.004-.061L6 15.75a.754.754 0 0 1 .22-.53l-.069.078a.754.754 0 0 1 .069-.078zm5.476-7.573l.084.073 3 3a.754.754 0 0 1 .092.11l.031.051a.705.705 0 0 1 .047.099l.011.031a.728.728 0 0 1 .027.103l.008.066.002.019.001.023.001.028a.763.763 0 0 1-.074.326l-.023.043a.778.778 0 0 1-.032.051l-.026.034.004-.002a.751.751 0 0 1-.005.006l-.011.011-.004.008-.049.053-3 3a.75.75 0 0 1-1.133-.976l.073-.084L15.438 9H9a.75.75 0 0 1-.743-.648L8.25 8.25a.75.75 0 0 1 .648-.743L9 7.5h6.44l-1.72-1.72a.75.75 0 0 1-.073-.976l.073-.084a.75.75 0 0 1 .976-.073z"/>
</svg>
