<svg xmlns="http://www.w3.org/2000/svg" width="24" height="24" viewBox="0 0 24 24">
    <path fill="none" d="M0 0h24v24H0z"/>
    <path fill="#000" d="M22.5 9h-5.25A2.25 2.25 0 0 1 15 6.75V1.5H5.25a.75.75 0 0 0-.75.75v3a.75.75 0 0 1-1.5 0v-3A2.25 2.25 0 0 1 5.25 0h10.629a2.25 2.25 0 0 1 1.59.659l5.872 5.872c.422.422.659.994.659 1.59V21.75A2.25 2.25 0 0 1 21.75 24h-4.5a.75.75 0 1 1 0-1.5h4.5a.75.75 0 0 0 .75-.75V9zm-.31-1.5L16.5 1.81v4.94c0 .414.336.75.75.75h4.94zM4.337 21.251A6.72 6.72 0 0 0 8.25 22.5a6.72 6.72 0 0 0 3.912-1.249 4.712 4.712 0 0 0-7.824 0zm-1.125-1.008a6.215 6.215 0 0 1 3.799-2.452A3.752 3.752 0 0 1 8.25 10.5a3.75 3.75 0 0 1 1.238 7.29 6.215 6.215 0 0 1 3.8 2.453 6.75 6.75 0 1 0-10.075 0zM8.25 24a8.25 8.25 0 1 1 0-16.5 8.25 8.25 0 0 1 0 16.5zm0-7.5a2.25 2.25 0 1 0 0-4.5 2.25 2.25 0 0 0 0 4.5z"/>
</svg>
