<svg height="24" viewBox="0 0 24 24" width="24" xmlns="http://www.w3.org/2000/svg">
    <path
        d="M4.5 10.5a3.75 3.75 0 1 1 0-7.5 3.75 3.75 0 0 1 0 7.5zm0-1.5a2.25 2.25 0 1 0 0-4.5 2.25 2.25 0 0 0 0 4.5zm-2.912 9H.75a.75.75 0 0 1-.75-.75V15a4.5 4.5 0 0 1 9 0v2.25a.75.75 0 0 1-.75.75h-.838l-.668 5.343A.75.75 0 0 1 6 24H3a.75.75 0 0 1-.744-.657L1.588 18zM7.5 16.5V15a3 3 0 0 0-6 0v1.5h.75a.75.75 0 0 1 .744.657l.668 5.343h1.676l.668-5.343a.75.75 0 0 1 .744-.657h.75zm3.6-12.552A6.723 6.723 0 0 1 17.249 0a6.75 6.75 0 1 1-1.199 13.384l-3.656 2.255a.75.75 0 0 1-1.133-.767l.69-3.977a6.723 6.723 0 0 1-.851-6.947zm2.389 6.861l-.465 2.679 2.494-1.538a.75.75 0 0 1 .567-.092A5.25 5.25 0 1 0 17.255 1.5h-.008a5.223 5.223 0 0 0-3.935 8.684c.15.17.216.401.177.625zM15.75 6a.75.75 0 1 1 0-1.5h3a.75.75 0 1 1 0 1.5h-3zm0 3a.75.75 0 1 1 0-1.5h3a.75.75 0 1 1 0 1.5h-3z"
        fill="#242635" id="a" />

</svg>
