<?xml version="1.0" encoding="UTF-8"?>
<svg width="22px" height="19px" viewBox="0 0 22 19" version="1.1" xmlns="http://www.w3.org/2000/svg" xmlns:xlink="http://www.w3.org/1999/xlink">
    <!-- Generator: Sketch 63.1 (92452) - https://sketch.com -->
    <title>name</title>
    <desc>Created with Sketch.</desc>
    <defs>
        <rect id="path-1" x="0" y="0" width="24" height="24"></rect>
    </defs>
    <g id="Icons" stroke="none" stroke-width="1" fill="none" fill-rule="evenodd">
        <g transform="translate(-887.000000, -132.000000)" id="name">
            <g transform="translate(886.000000, 129.000000)">
                <mask id="mask-2" fill="white">
                    <use xlink:href="#path-1"></use>
                </mask>
                <g id="Mask"></g>
                <g mask="url(#mask-2)" fill="#000000" fill-rule="nonzero">
                    <g transform="translate(1.000000, 3.000000)">
                        <path d="M19.4791107,18.3333893 L2.52088929,18.3333893 C1.13027956,18.3333893 -1.22124533e-15,17.2031097 -1.22124533e-15,15.8125 L-1.22124533e-15,4.35411071 C-1.22124533e-15,2.96350098 1.13027956,1.83338929 2.52088929,1.83338929 L8.02088929,1.83338929 C8.40039062,1.83338929 8.70838929,2.14138796 8.70838929,2.52088929 C8.70838929,2.90039062 8.40039062,3.20838929 8.02088929,3.20838929 L2.52088929,3.20838929 C1.88928223,3.20838929 1.375,3.72250364 1.375,4.35411071 L1.375,15.8125 C1.375,16.4441071 1.88928223,16.9583893 2.52088929,16.9583893 L19.4791107,16.9583893 C20.1107178,16.9583893 20.625,16.4441071 20.625,15.8125 L20.625,4.35411071 C20.625,3.72250364 20.1107178,3.20838929 19.4791107,3.20838929 L13.9791107,3.20838929 C13.5996094,3.20838929 13.2916107,2.90039062 13.2916107,2.52088929 C13.2916107,2.14138796 13.5996094,1.83338929 13.9791107,1.83338929 L19.4791107,1.83338929 C20.8697204,1.83338929 22,2.96350098 22,4.35411071 L22,15.8125 C22,17.2031097 20.8697204,18.3333893 19.4791107,18.3333893 Z" id="Path"></path>
                        <path d="M13.0625,5.04161071 L8.9375,5.04161071 C8.05294798,5.04161071 7.33338929,4.32205202 7.33338929,3.4375 L7.33338929,1.60411071 C7.33338929,0.719558727 8.05294798,0 8.9375,0 L13.0625,0 C13.947052,0 14.6666107,0.719558727 14.6666107,1.60411071 L14.6666107,3.4375 C14.6666107,4.32205202 13.947052,5.04161071 13.0625,5.04161071 Z M8.9375,1.375 C8.81094362,1.375 8.70838929,1.47772217 8.70838929,1.60411071 L8.70838929,3.4375 C8.70838929,3.56405637 8.81094362,3.66661071 8.9375,3.66661071 L13.0625,3.66661071 C13.1890564,3.66661071 13.2916107,3.56405637 13.2916107,3.4375 L13.2916107,1.60411071 C13.2916107,1.47772217 13.1890564,1.375 13.0625,1.375 L8.9375,1.375 Z" id="Shape"></path>
                        <path d="M6.875,11 C5.61178587,11 4.58338929,9.97143555 4.58338929,8.70838929 C4.58338929,7.44517516 5.61178587,6.41661071 6.875,6.41661071 C8.13821413,6.41661071 9.16661071,7.44517516 9.16661071,8.70838929 C9.16661071,9.97143555 8.13821413,11 6.875,11 Z M6.875,7.79161071 C6.36994935,7.79161071 5.95838929,8.20317077 5.95838929,8.70838929 C5.95838929,9.21343994 6.36994935,9.625 6.875,9.625 C7.38005065,9.625 7.79161071,9.21343994 7.79161071,8.70838929 C7.79161071,8.20317077 7.38005065,7.79161071 6.875,7.79161071 Z" id="Shape"></path>
                        <path d="M10.3125,15.5833893 C9.93299867,15.5833893 9.625,15.2753906 9.625,14.8958893 L9.625,14.4375 C9.625,13.8058929 9.11071777,13.2916107 8.47911071,13.2916107 L5.27088929,13.2916107 C4.63928223,13.2916107 4.125,13.8058929 4.125,14.4375 L4.125,14.8958893 C4.125,15.2753906 3.81700133,15.5833893 3.4375,15.5833893 C3.05799867,15.5833893 2.75,15.2753906 2.75,14.8958893 L2.75,14.4375 C2.75,13.0468903 3.88027956,11.9166107 5.27088929,11.9166107 L8.47911071,11.9166107 C9.86972044,11.9166107 11,13.0468903 11,14.4375 L11,14.8958893 C11,15.2753906 10.6920013,15.5833893 10.3125,15.5833893 L10.3125,15.5833893 Z" id="Path"></path>
                        <path d="M18.5625,8.25 L13.5208893,8.25 C13.141388,8.25 12.8333893,7.94200133 12.8333893,7.5625 C12.8333893,7.18299867 13.141388,6.875 13.5208893,6.875 L18.5625,6.875 C18.9420013,6.875 19.25,7.18299867 19.25,7.5625 C19.25,7.94200133 18.9420013,8.25 18.5625,8.25 Z" id="Path"></path>
                        <path d="M18.5625,11.9166107 L13.5208893,11.9166107 C13.141388,11.9166107 12.8333893,11.608612 12.8333893,11.2291107 C12.8333893,10.8496094 13.141388,10.5416107 13.5208893,10.5416107 L18.5625,10.5416107 C18.9420013,10.5416107 19.25,10.8496094 19.25,11.2291107 C19.25,11.608612 18.9420013,11.9166107 18.5625,11.9166107 Z" id="Path"></path>
                        <path d="M18.5625,15.5833893 L13.5208893,15.5833893 C13.141388,15.5833893 12.8333893,15.2753906 12.8333893,14.8958893 C12.8333893,14.516388 13.141388,14.2083893 13.5208893,14.2083893 L18.5625,14.2083893 C18.9420013,14.2083893 19.25,14.516388 19.25,14.8958893 C19.25,15.2753906 18.9420013,15.5833893 18.5625,15.5833893 Z" id="Path"></path>
                    </g>
                </g>
            </g>
        </g>
    </g>
</svg>