<svg height="24" viewBox="0 0 24 24" width="24" xmlns="http://www.w3.org/2000/svg">
    <path d="M21 6.597V1.502a.75.75 0 0 0-.75-.75H16.5a.75.75 0 0 0-.75.75v1.136L12.452.151a.75.75 0 0 0-.904 0L.675 8.351c-.424.388-.645.856-.674 1.355L0 22.27A1.731 1.731 0 0 0 1.726 24H8.25a.75.75 0 0 0 .75-.75v-7.5a.75.75 0 0 1 .75-.75h4.5a.75.75 0 0 1 .75.75v7.5c0 .414.336.75.75.75h6.522A1.731 1.731 0 0 0 24 22.273V9.75a1.955 1.955 0 0 0-.617-1.35l-.058-.05L21 6.597zm1.501 3.196L22.5 22.27a.23.23 0 0 1-.23.229H16.5v-6.75a2.25 2.25 0 0 0-2.25-2.25h-4.5a2.25 2.25 0 0 0-2.25 2.25v6.75H1.728a.23.23 0 0 1-.228-.23V9.748a.43.43 0 0 1 .137-.25L12 1.689l4.048 3.053a.75.75 0 0 0 1.202-.599V2.252h2.25v4.719c0 .235.11.457.298.599l2.585 1.95c.07.073.112.17.118.273z"
        fill="#242635" />
</svg>
