<?xml version="1.0" encoding="UTF-8"?>
<svg width="20px" height="20px" viewBox="0 0 20 20" version="1.1" xmlns="http://www.w3.org/2000/svg" xmlns:xlink="http://www.w3.org/1999/xlink">
    <!-- Generator: Sketch 63.1 (92452) - https://sketch.com -->
    <title>qr - home</title>
    <desc>Created with Sketch.</desc>
    <defs>
        <rect id="path-1" x="0" y="0" width="24" height="24"></rect>
    </defs>
    <g id="Icons" stroke="none" stroke-width="1" fill="none" fill-rule="evenodd">
        <g transform="translate(-309.000000, -203.000000)" id="qr---home">
            <g transform="translate(307.000000, 201.000000)">
                <mask id="mask-2" fill="white">
                    <use xlink:href="#path-1"></use>
                </mask>
                <g id="Mask"></g>
                <g id="qr" mask="url(#mask-2)" fill="#000000" fill-rule="nonzero">
                    <g transform="translate(2.000000, 2.000000)" id="Shape">
                        <path d="M10,2.34375 L10,3.90625 L8.4375,3.90625 L8.4375,2.34375 L10,2.34375 Z M8.4375,11.5234375 L8.4375,13.75 L10,13.75 L10,11.5234375 L8.4375,11.5234375 Z M13.125,20 L13.125,18.4375 L11.5625,18.4375 L11.5625,16.875 L10,16.875 L10,20 L13.125,20 Z M16.25,8.3984375 L11.5625,8.3984375 L11.5625,9.9609375 L16.25,9.9609375 L16.25,8.3984375 Z M16.25,11.5234375 L18.4375,11.5234375 L18.4375,9.9609375 L16.25,9.9609375 L16.25,11.5234375 Z M16.25,13.75 L16.25,15.3125 L20,15.3125 L20,11.5234375 L18.4375,11.5234375 L18.4375,13.75 L16.25,13.75 Z M11.5625,0 L10,0 L10,2.34375 L11.5625,2.34375 L11.5625,0 Z M10,7.03125 L11.5625,7.03125 L11.5625,3.90625 L10,3.90625 L10,5.46875 L8.4375,5.46875 L8.4375,9.9609375 L10,9.9609375 L10,7.03125 Z M0,8.3984375 L0,11.5234375 L1.5625,11.5234375 L1.5625,9.9609375 L3.90625,9.9609375 L3.90625,8.3984375 L0,8.3984375 Z M11.5625,11.5234375 L11.5625,9.9609375 L10,9.9609375 L10,11.5234375 L11.5625,11.5234375 Z M14.6875,13.0859375 L16.25,13.0859375 L16.25,11.5234375 L14.6875,11.5234375 L14.6875,13.0859375 Z M18.4375,9.9609375 L20,9.9609375 L20,8.3984375 L18.4375,8.3984375 L18.4375,9.9609375 Z M13.125,11.5234375 L11.5625,11.5234375 L11.5625,13.75 L10,13.75 L10,15.3125 L13.125,15.3125 L13.125,11.5234375 Z M8.4375,16.875 L10,16.875 L10,15.3125 L8.4375,15.3125 L8.4375,16.875 Z M13.125,15.3125 L13.125,16.875 L16.25,16.875 L16.25,15.3125 L13.125,15.3125 Z M17.8125,18.4375 L17.8125,16.875 L16.25,16.875 L16.25,18.4375 L17.8125,18.4375 Z M20,20 L20,18.4375 L17.8125,18.4375 L17.8125,20 L20,20 Z M14.6875,20 L16.25,20 L16.25,18.4375 L14.6875,18.4375 L14.6875,20 Z M7.03125,9.9609375 L7.03125,8.3984375 L5.46875,8.3984375 L5.46875,9.9609375 L3.90625,9.9609375 L3.90625,11.5234375 L8.4375,11.5234375 L8.4375,9.9609375 L7.03125,9.9609375 Z M7.03125,7.03125 L0,7.03125 L0,0 L7.03125,0 L7.03125,7.03125 Z M5.46875,1.5625 L1.5625,1.5625 L1.5625,5.46875 L5.46875,5.46875 L5.46875,1.5625 Z M4.296875,2.734375 L2.734375,2.734375 L2.734375,4.296875 L4.296875,4.296875 L4.296875,2.734375 Z M20,0 L20,7.03125 L12.96875,7.03125 L12.96875,0 L20,0 Z M18.4375,1.5625 L14.53125,1.5625 L14.53125,5.46875 L18.4375,5.46875 L18.4375,1.5625 Z M17.265625,2.734375 L15.703125,2.734375 L15.703125,4.296875 L17.265625,4.296875 L17.265625,2.734375 Z M0,12.96875 L7.03125,12.96875 L7.03125,20 L0,20 L0,12.96875 Z M1.5625,18.4375 L5.46875,18.4375 L5.46875,14.53125 L1.5625,14.53125 L1.5625,18.4375 Z M2.734375,17.265625 L4.296875,17.265625 L4.296875,15.703125 L2.734375,15.703125 L2.734375,17.265625 Z"></path>
                    </g>
                </g>
            </g>
        </g>
    </g>
</svg>