<?xml version="1.0" encoding="UTF-8"?>
<svg width="24px" height="16px" viewBox="0 0 24 16" version="1.1" xmlns="http://www.w3.org/2000/svg" xmlns:xlink="http://www.w3.org/1999/xlink">
    <!-- Generator: Sketch 63.1 (92452) - https://sketch.com -->
    <title>Coins</title>
    <desc>Created with Sketch.</desc>
    <defs>
        <rect id="path-1" x="0" y="0" width="24" height="24"></rect>
    </defs>
    <g id="Icons" stroke="none" stroke-width="1" fill="none" fill-rule="evenodd">
        <g transform="translate(-561.000000, -138.000000)" id="Coins">
            <g transform="translate(561.000000, 133.000000)">
                <mask id="mask-2" fill="white">
                    <use xlink:href="#path-1"></use>
                </mask>
                <g id="Mask"></g>
                <g mask="url(#mask-2)">
                    <g transform="translate(-1.000000, 5.000000)">
                        <g id="Group" stroke-width="1" fill="none" fill-rule="evenodd" transform="translate(5.409779, 8.062348) rotate(45.000000) translate(-5.409779, -8.062348) translate(1.763946, 4.416515)">
                            <polygon id="Path" fill="#000000" fill-rule="nonzero" transform="translate(2.531772, 3.632624) rotate(90.000000) translate(-2.531772, -3.632624) " points="2.53177246 3.77655053 4.76906695 5.96788202 6.03465969 4.72828963 2.53177246 1.29736572 -0.971114766 4.72828963 0.29447798 5.96788202"></polygon>
                            <polygon id="Path-Copy" fill="#000000" fill-rule="nonzero" transform="translate(4.733475, 3.632624) rotate(-90.000000) translate(-4.733475, -3.632624) " points="4.73347512 3.77655053 6.97076961 5.96788202 8.23636235 4.72828963 4.73347512 1.29736572 1.23058789 4.72828963 2.49618064 5.96788202"></polygon>
                        </g>
                        <path d="M18.2536987,0.129736564 C19.9107987,0.129736564 21.4849847,0.395811324 22.6837409,0.877315242 C23.9258353,1.37624352 24.6009173,2.01513968 24.8658322,2.70728946 C24.9598241,2.96017225 24.9934573,3.19159475 24.9991077,3.38111626 L24.9992536,3.38400097 L24.9992536,3.38400097 L25,3.44083932 C25,3.49158655 24.9976253,3.54571677 24.992836,3.60185282 L24.992836,3.60185282 L24.9808266,3.74261782 L25,3.74238093 L25,12.3870215 L24.999423,12.4350284 C24.9949865,12.6199213 24.9640685,12.8458476 24.8758505,13.0933047 C24.6184686,13.795995 23.9420706,14.4450958 22.6837395,14.9505461 C21.4850736,15.4320704 19.910923,15.6981242 18.2536987,15.6981242 C16.5965987,15.6981242 15.0224127,15.4320495 13.8236564,14.9505456 L13.8236564,14.9505456 L13.7265081,14.9107573 L13.6298013,14.8695642 C12.1019833,14.2057364 11.5073973,13.3158137 11.5073973,12.3870215 L11.5073973,12.3870215 L11.5073973,3.74238093 L11.5265707,3.74261782 L11.5145613,3.60185282 L11.5105754,3.54643639 C11.5084528,3.51000585 11.5073973,3.4746708 11.5073973,3.44083932 C11.5073973,2.47373441 12.1520484,1.54877187 13.8236578,0.877314679 C15.0224127,0.395811324 16.5965987,0.129736564 18.2536987,0.129736564 Z M22.9286128,10.3184218 L22.7492393,10.3927014 L22.5537493,10.4709284 C21.3725283,10.9202964 19.8517364,11.1676858 18.2536987,11.1676858 C16.5965987,11.1676858 15.0224127,10.9016111 13.8236564,10.4201071 L13.8236564,10.4201071 L13.5787845,10.3184218 L13.5787845,12.3837735 L13.5946512,12.4128342 L13.6120417,12.4422946 C13.9862987,13.0322562 15.9405423,13.6637045 18.2536987,13.6637045 C20.6054622,13.6637045 22.5861808,13.0110558 22.9127504,12.4128265 L22.9127504,12.4128265 L22.9286128,12.3837687 L22.9286128,10.3184218 Z M22.9286128,5.90273538 L22.7492393,5.97701498 L22.5537462,6.05523731 C21.372498,6.50456433 19.8516949,6.75194204 18.2536987,6.75194204 C16.5965987,6.75194204 15.0224127,6.48586729 13.8236564,6.00436337 L13.8236564,6.00436337 L13.5787845,5.90267803 L13.5787845,7.8511597 L13.5940911,7.87981047 L13.6108493,7.90879805 C13.9777933,8.49899532 15.935944,9.13326609 18.2536987,9.13326609 C20.6094493,9.13326609 22.5937091,8.47802911 22.9133062,7.87981047 L22.9133062,7.87981047 L22.9286128,7.8511597 L22.9286128,5.90273538 Z M18.2536987,2.16415631 C15.9730839,2.16415631 14.0705529,2.76623931 13.6281844,3.36306974 L13.6281844,3.36306974 L13.5716301,3.43937106 L13.636883,3.52938735 L13.6761122,3.57502795 L13.7133898,3.61243082 L13.7553259,3.65029311 L13.8130298,3.69707492 L13.87815,3.74487503 L13.9390834,3.78602355 L14.0175837,3.83504711 L14.1141286,3.89054787 L14.2910192,3.981833 L14.4645244,4.06138933 L14.523727,4.08663843 L14.6474364,4.13662144 L14.7452066,4.17366455 L14.8656317,4.21676322 L15.0290993,4.27125468 L15.1886513,4.32023394 L15.3370282,4.3622951 L15.5260502,4.41156651 L15.6779743,4.44777277 L15.9465298,4.50514284 L16.1423593,4.54190393 L16.293706,4.56753845 L16.4992679,4.59873854 L16.775843,4.63458094 L17.0702321,4.66511737 L17.4541576,4.69396567 L17.7182408,4.70713525 L18.12555,4.71702473 L18.2537569,4.71763699 C18.3387587,4.71763699 18.4244861,4.71681495 18.5118975,4.71520645 L18.5118975,4.71520645 L18.6811592,4.71078422 L18.9164223,4.70130155 L19.182249,4.68561287 L19.3183673,4.67520229 L19.6415578,4.64469105 L19.8593462,4.61891849 L20.1206078,4.58231031 L20.4117006,4.5335208 L20.5602122,4.50529975 L20.7854192,4.45782208 L20.8824009,4.43543427 L21.0545169,4.39297035 L21.3101425,4.32283067 L21.6284101,4.22143729 L21.8909276,4.12444766 L22.0418151,4.06192073 L22.1001889,4.03615495 L22.1839783,3.99739669 L22.2712886,3.95464466 L22.4110321,3.88075128 L22.5571447,3.79325419 L22.6395346,3.73773088 L22.7038668,3.68981102 L22.7844283,3.62151401 L22.8310938,3.57535745 L22.871048,3.52885374 L22.9366538,3.44037709 L22.8793138,3.36304857 L22.8551262,3.33217599 C22.3710352,2.74562653 20.494961,2.16415631 18.2536987,2.16415631 Z" id="Combined-Shape" fill="#000000" fill-rule="nonzero"></path>
                    </g>
                </g>
            </g>
        </g>
    </g>
</svg>