<svg xmlns="http://www.w3.org/2000/svg" width="24" height="24" viewBox="0 0 24 24">
    <path d="M9 11H5.5V7.5h-2V11H0v2h3.5v3.5h2V13H9v-2zm14.96.32c-.59.67-1.3 1.24-2.09 1.68-.44 1.73-2.01 3-3.87 3-1.86 0-3.43-1.27-3.87-3-.79-.44-1.5-1.01-2.09-1.68A6.005 6.005 0 0 0 18 18a6.005 6.005 0 0 0 5.96-6.68zm0 6c-.59.67-1.3 1.24-2.09 1.68-.44 1.73-2.01 3-3.87 3-1.86 0-3.43-1.27-3.87-3-.79-.44-1.5-1.01-2.09-1.68A6.005 6.005 0 0 0 18 24a6.005 6.005 0 0 0 5.96-6.68zM18 0a6 6 0 1 0 0 12 6 6 0 0 0 0-12zm0 2c2.206 0 4 1.794 4 4s-1.794 4-4 4-4-1.794-4-4 1.794-4 4-4z"/>
</svg>
