<svg xmlns="http://www.w3.org/2000/svg" width="100" height="100" viewBox="0 0 100 100">
    <g fill="none" fill-rule="nonzero">
        <path fill="#333" d="M69.864 11.784c.557 1.115 1.221 2.17 1.79 3.279.344.67.73 1.32 1.093 1.982.083.15.155.305.234.457.036.06.049.13.037.199-.165.76-.09 1.533-.128 2.3-.01.215-.001.432-.001.661-.378.034-.759.03-1.136-.012-.33-.02-.66-.034-.992-.04a44.28 44.28 0 0 1-2.027-.079c-.364-.022-.728-.033-1.092-.049-.18-.008-.371.041-.533-.086-.04-.032-.084-.015-.13-.009-.526.075-1.049.018-1.573-.026-.465-.039-.935-.019-1.402-.036-.947-.035-1.897-.046-2.84-.13-.614-.055-1.229.007-1.838-.068-.522-.065-1.042-.036-1.533-.061-.26.428-.227.877-.24 1.32-.026.951-.018 1.902-.09 2.877.244.002.472.044.713.036.386.004.77.052 1.144.143.271.041.538.102.8.183a9.68 9.68 0 0 1 2.017.918c.62.39 1.188.854 1.695 1.382a9.74 9.74 0 0 1 1.229 1.595c.329.533.592 1.096.873 1.653.13.279.239.567.327.862.101.305.271.58.347.892a3.9 3.9 0 0 0 .245.731c.587.246 1.184.453 1.74.739a16.458 16.458 0 0 1 2.674 1.66 15.825 15.825 0 0 1 3 3.051c.143.194.292.385.425.586.582.844 1.07 1.75 1.456 2.7.252.614.466 1.243.642 1.883.218.851.37 1.718.454 2.593.074.626.1 1.257.077 1.887a10.36 10.36 0 0 1-.089 1.236 8.323 8.323 0 0 1-1.149.527.9.9 0 0 1 .02-.47c.18-.615.127-1.246.16-1.87a9.838 9.838 0 0 0-.144-1.973 14.69 14.69 0 0 0-2.343-5.952 16.771 16.771 0 0 0-.931-1.223c-.662-.815-1.462-1.48-2.242-2.167a7.879 7.879 0 0 0-.767-.519 14.335 14.335 0 0 0-2.693-1.428 12.496 12.496 0 0 0-2.263-.683c-.427-.088-.857-.15-1.284-.23a8.815 8.815 0 0 0-.95-.168c.381-.33.807-.603 1.266-.81a.462.462 0 0 1 .303-.007c.403.082.808.156 1.213.231.054.01.11.04.164-.004a6.862 6.862 0 0 0-.349-.926.744.744 0 0 1-.1-.39.204.204 0 0 0-.054-.157c-.429-.596-.717-1.279-1.148-1.87-.241-.33-.448-.69-.789-.952a7.316 7.316 0 0 1-.749-.73 1.336 1.336 0 0 0-.206-.18c-.364-.271-.742-.522-1.131-.754a8.24 8.24 0 0 0-.949-.463c-.466-.177-.965-.255-1.42-.429-.385-.146-.736-.014-1.098-.077-.437-.077-.884-.025-1.327-.061-.36-.025-.72 0-1.074.071-.682.132-1.354.297-2.028.457-.587.14-1.17.294-1.764.395-.17.028-.34.06-.51.076-.146.014-.297.043-.432-.058a.188.188 0 0 0-.194-.008c-.424.165-.858.086-1.288.029-.54-.072-1.063-.244-1.597-.332-.809-.133-1.608-.313-2.42-.437a21.367 21.367 0 0 0-2.218-.193h-.034c-1.648-.06-2.737.231-3.959.882.142.193.274.39.423.57a14.537 14.537 0 0 1 1.821 2.722c.349.709.66 1.435.933 2.176.408 1.082.72 2.197.933 3.333.016.164.065.323.142.468.16.034.316.088.474-.06.097-.09.242-.036.367-.02.5.063.991.175 1.496.212.548.041 1.093.093 1.645.086.278-.004.57-.078.842.042.065.024.138.01.19-.035a.519.519 0 0 1 .267-.058 18.982 18.982 0 0 0 2.144-.198c.417-.051.824-.185 1.237-.274.129-.028.266-.087.356.018.72-.468 1.377-.984 2.123-1.367a17.44 17.44 0 0 1 1.863-.867 15.236 15.236 0 0 1 2.456-.748c.527-.1 1.06-.177 1.591-.249.194-.02.39-.022.584-.005.398.021.553-.154.454-.54-.06-.234-.136-.463-.2-.696-.078-.276 0-.41.29-.448.41-.052.822-.084 1.234-.124l.515-.049c.295-.029.443.102.442.41 0 .276-.015.551-.026.827-.007.193-.046.39.119.564-.43.22-.83.492-1.195.809-.17.138-.312.306-.42.496-.2.385-.098.743.29.924.332.154.673.29 1.02.406.42.143.835.306 1.172.615a.516.516 0 0 1-.013.707 1.82 1.82 0 0 1-.834.46 9.807 9.807 0 0 1-1.72.314c-.626.063-1.249.163-1.874.228-.843.088-1.676.237-2.506.392-.856.154-1.692.4-2.495.734a7.938 7.938 0 0 0-3.338 2.614 6.93 6.93 0 0 0-.998 1.905c-.25.76-.447 1.538-.587 2.326-.12.66-.194 1.327-.221 1.996-.056 1.153.056 2.304.466 3.396.18.447.42.867.714 1.249.062.084.159.087.245.11 1.1.266 2.215.461 3.34.584.544.068 1.088.142 1.635.194.638.06 1.277.105 1.917.144.684.042 1.37.082 2.055.1.79.02 1.582.017 2.373.02a59.75 59.75 0 0 0 4.224-.153c.628-.042 1.261-.063 1.883-.144 1.156-.15 2.317-.282 3.46-.516 1.211-.248 2.411-.535 3.544-1.052.5-.213.99-.454 1.464-.72.207.352.232.782.07 1.157a2.207 2.207 0 0 1-.655.911 5.95 5.95 0 0 1-1.555.932c-1.068.47-2.183.825-3.327 1.059-.81.153-1.608.357-2.424.485-.894.14-1.792.242-2.691.337-.455.048-.907.122-1.364.15-.704.045-1.406.108-2.113.124-.583.013-1.166.074-1.75.083-.617.01-1.233.008-1.85.028-.544.018-1.087-.034-1.633-.018-.593.018-1.19-.018-1.783-.059-.18-.012-.364-.028-.542-.036a44.475 44.475 0 0 1-3.18-.232 36.672 36.672 0 0 1-2.34-.324c-.492-.09-1.002-.105-1.495-.212a49.083 49.083 0 0 1-2.5-.599 16.86 16.86 0 0 1-1.796-.57c-.864-.346-1.69-.761-2.333-1.463-.569-.62-.648-1.387-.172-2.075a3.45 3.45 0 0 1 1.15-1.012 11.728 11.728 0 0 1 2.39-1.038c.293-.09.604-.12.9-.264.037-2.191.436-4.307 1.386-6.337a4.263 4.263 0 0 0-.846-.039c-.978-.026-1.956-.01-2.934-.03-.494-.01-.995-.012-1.493.002-.786.023-1.576.082-2.362-.009-.199-.023-.387.034-.583.03-.74-.019-1.48-.026-2.221-.032-.752-.007-1.504-.01-2.257-.009-1.371 0-2.743.005-4.115 0-.799-.002-1.599-.05-2.397-.017-.524.021-1.045-.062-1.569 0a.88.88 0 0 1-.572-.073.15.15 0 0 0-.126-.014 4.603 4.603 0 0 1-1.312.088c-.91-.025-1.82.049-2.73-.018-.33-.024-.664.028-.995.02-.981-.026-1.966.018-2.941-.06a8.066 8.066 0 0 0-1.356 0 .248.248 0 0 0-.253.177c-.001.101.075.146.131.198a416658.007 416658.007 0 0 1 4.605 4.25c.651.597 1.306 1.19 1.958 1.785l2.11 1.925c1.033.938 2.072 1.872 3.104 2.813.623.568 1.226 1.157 1.856 1.716.497.44 1.002.873 1.484 1.33.207.196.403.41.615.592.242.207.484.415.722.627.667.593 1.325 1.196 1.987 1.796.375.339.787.632 1.182.946a.295.295 0 0 0 .117.07c.39.066.616.339.799.649.216.338.405.692.566 1.06.167.451.265.925.293 1.406.059.749.082 1.502.094 2.253.011.657-.022 1.315-.022 1.973 0 .534-.045 1.067-.031 1.604.012.499-.025 1.003-.039 1.504-.014.52-.07 1.04-.017 1.559.027.264-.042.517-.034.78.023.75 0 1.5-.02 2.25-.012.399-.035.797-.027 1.197a.535.535 0 0 1-.039.2.474.474 0 0 0-.005.32c.085.312-.017.632 0 .95.018.33.004.662.004.992.359.042.72-.033 1.057.115a.111.111 0 0 0 .068-.002c.619-.167 1.25-.082 1.873-.058.36.014.72-.038 1.081.034.254.05.517-.061.782-.053.922.031 1.844.007 2.765.017.6.007 1.21-.051 1.794.035.52.077 1.015-.063 1.52-.003.386.036.774.045 1.162.028.382-.008.766.105 1.147-.005.135-.02.273-.02.408 0 .79 0 1.579-.018 2.367.007.752.024 1.504-.005 2.256.023.012 0 .023 0 .034.004.469.179.939-.065 1.406.003.437.063.88-.047 1.315.047a.22.22 0 0 0 .067.01c.258-.029.52.017.771 0 1.117-.072 2.232-.001 3.347-.017.662-.009 1.323.001 1.985.003.069 0 .152-.025.205.004.297.165.597.036.896.023.567-.02 1.135-.009 1.701.035.08.004.16.001.24-.008.056-.006.116-.044.166-.033.606.135 1.214-.02 1.823.024.578.042 1.165.004 1.748.011.822.01 1.644.006 2.466.009.034 0 .079-.013.102.004.233.17.476.052.717.034.328-.025.653-.066.985.008.183.04.377-.064.571-.022.41.088.828-.01 1.243.056.29.046.582-.058.883-.05.96.028 1.921-.012 2.88.016.64.019 1.29-.065 1.914.037.533.086 1.04-.078 1.557-.007a8.22 8.22 0 0 0 1.222.035c.415-.005.834.107 1.254-.018.258-.076.539-.004.805.006.52.022 1.038-.018 1.558 0 .656.023 1.312.024 1.968.033.08.014.161-.009.22-.063.018-.246.059-.517.05-.786-.022-.785.031-1.567.055-2.35.013-.386-.009-.775.004-1.163 0-.012-.006-.025-.003-.034.188-.466.006-.943.042-1.413.036-.467.02-.935.062-1.404.043-.47.003-.948.007-1.423.007-.84-.005-1.683.04-2.522.028-.549.017-1.096.041-1.644 0-.012-.004-.025 0-.035.196-.43-.012-.872.041-1.309.052-.419.024-.843.065-1.267.06-.61-.09-1.205-.301-1.779a5.885 5.885 0 0 0-.244-.562c-.146-.296-.15-.294-.094-.661.144-.083.296-.15.454-.2.313.052.593.167.765.451.267.465.431.98.483 1.513.043.335-.11.634-.028.982.113.47.057.977.03 1.466a24.908 24.908 0 0 0-.044 1.505c.006.758.01 1.517-.015 2.274-.028.809-.013 1.619-.07 2.428-.034.476-.02.96-.025 1.44-.006.593-.003 1.187-.051 1.778-.032.312-.029.627.009.939-.013.502-.028 1.003-.027 1.506.003.731-.03 1.462-.047 2.192-.002.08 0 .16 0 .247.448-.098.91-.124 1.366-.078.077.272.08 1.058.006 1.449a.754.754 0 0 1-.453.105c-.472-.096-.953.08-1.428-.07-.195-.063-.422.028-.634.04-.39.022-.777-.02-1.158.003-.49.028-.981-.015-1.47.032-.019.096.097.09.113.15.05.19.186.205.346.184a.286.286 0 0 1 .135.003c.525.208 1.049-.06 1.573.004.464.056.93 0 1.398.044.365.034.744.019 1.116.022.142.002.283-.076.428-.044v1.57c-1.249-.026-2.453.009-3.665-.055-.042.445-.064.875-.127 1.299-.12.797-.173 1.6-.257 2.4-.065.622-.132 1.244-.194 1.867-.03.306-.077.61-.098.918-.014.204-.029.443-.244.58a.089.089 0 0 0-.037.056c-.041.36-.342.405-.6.522-.552.249-1.05.006-1.56-.14-.127-.038-.132-.144-.143-.248-.029-.274-.056-.548-.086-.822a3.274 3.274 0 0 0-.144-.81.557.557 0 0 1-.05-.234c.038-.402-.062-.793-.104-1.186-.037-.355-.068-.714-.126-1.07a9.23 9.23 0 0 1-.12-1.132 7.326 7.326 0 0 0-.077-.853 4.437 4.437 0 0 0-.17-1.075 1.275 1.275 0 0 0-.241-.054c-.431-.01-.864-.038-1.294-.013-.48.028-.955-.027-1.433-.022-.73.007-1.46-.005-2.191-.027a37.26 37.26 0 0 0-1.672-.01c-.217.003-.433.046-.648.031a17.83 17.83 0 0 0-1.6-.017c-.66.012-1.32-.064-1.979-.017-.24.017-.48 0-.72.016-.153.01-.286-.087-.436-.064a5.388 5.388 0 0 1-.924.025c-.583-.012-1.171.03-1.75-.026-.522-.052-1.052.114-1.565-.078a.189.189 0 0 0-.1.015c-.32.086-.652.057-.978.076-.408.024-.816-.03-1.228-.004-.777.05-1.554-.053-2.333-.02-.34.014-.682-.032-1.018-.042-.393-.013-.796.006-1.195.006-.605 0-1.21-.01-1.814-.023-.387-.008-.779-.043-1.158-.019-.616.04-1.23.027-1.844.04-.98.019-1.96-.063-2.94-.012-.28.014-.546-.056-.819-.055-.273 0-.546.016-.821.006-.458-.016-.917-.004-1.375.005-.455.01-.906-.094-1.364-.02a.811.811 0 0 1-.506-.054.392.392 0 0 0-.266-.01c-.358.055-.72.079-1.082.072-.33.005-.659-.02-.99-.011-.81.022-1.623-.01-2.434-.009-.343 0-.685-.035-1.024-.044-.397-.01-.799.001-1.199 0-.423-.003-.847.002-1.27-.001-.481-.004-.963-.001-1.443-.025-.307-.016-.367 0-.381.305-.016.328-.112.64-.12.975-.012.58-.112 1.159-.174 1.738-.032.296-.067.591-.088.888-.05.753-.223 1.492-.248 2.247a.533.533 0 0 1-.102.358.273.273 0 0 0-.044.281c.096.42-.083.678-.509.767-.133.03-.264.071-.391.12-.284.114-.578.2-.877.258-.3.046-.534-.172-.784-.307-.023-.012-.034-.06-.037-.092-.036-.329-.206-.651-.019-.99a.365.365 0 0 0-.008-.302.921.921 0 0 1-.058-.371c.001-.713-.16-1.409-.234-2.114-.083-.78-.127-1.567-.25-2.345-.073-.458-.109-.923-.162-1.39-.373-.077-.742.031-1.108-.043a.997.997 0 0 0-.144-.232c-.535-.477-.98-1.04-1.48-1.55-.422-.43-.856-.847-1.256-1.296-.573-.642-1.185-1.246-1.786-1.86-.573-.587-1.12-1.197-1.703-1.773-.235-.233-.454-.479-.677-.722-.414-.452-.853-.88-1.278-1.323-.516-.537-1.027-1.08-1.543-1.616-.458-.477-.923-.946-1.381-1.424-.599-.626-1.184-1.264-1.79-1.883-.433-.442-.856-.894-1.293-1.333-.725-.728-1.4-1.507-2.129-2.233-.665-.662-1.287-1.365-1.955-2.026-.894-.884-1.731-1.825-2.614-2.722-.74-.75-1.447-1.532-2.175-2.294A705.552 705.552 0 0 0 9.38 53.84c-.046-.048-.085-.111-.17-.094-.073.04-.063.114-.072.18-.038.298-.056.604-.093.897-.048.372-.084.746-.125 1.12-.085.77-.144 1.544-.253 2.311-.06.415-.218.802-.726.871-.067.018-.132.04-.196.065-.3.08-.602.156-.892-.039a.389.389 0 0 0-.126-.05c-.339-.08-.347-.089-.385-.408-.1-.844-.201-1.688-.303-2.531-.203-1.665-.415-3.328-.609-4.993-.052-.452-.13-.879-.468-1.218a.437.437 0 0 1-.151-.3c-.005-.424-.037-.848-.007-1.268.035-.49.045-.987.032-1.47-.017-.635-.014-1.272-.045-1.907-.021-.446.037-.891.018-1.334-.024-.549.01-1.096.002-1.645-.015-1.007.011-2.015.012-3.022 0-1.216-.008-2.431-.011-3.647-.001-.364-.004-.73.012-1.093.032-.697-.075-1.398.054-2.092-.156-.402.03-.81-.028-1.224-.077-.537-.036-1.09-.045-1.636-.006-.697.032-1.393.014-2.091-.015-.615.027-1.23.02-1.844-.01-.943.066-1.885 0-2.83-.042-.621-.006-1.248-.006-1.872 0-.549-.016-1.097.003-1.645.026-.752.054-1.504.022-2.255-.022-.513.037-1.02.027-1.533-.008-.44.007-.882-.04-1.323.001-.158.047-.314.132-.447l1.784.053v.597l-.016 2.775c-.003.526.025 1.055-.014 1.579-.06.775.038 1.547.004 2.318-.038.877-.003 1.753-.044 2.63-.022.474.011.959.01 1.438 0 .35.015.704-.108 1.043a.509.509 0 0 0-.008.171c.006.667-.036 1.339.034 1.999.054.568.072 1.139.054 1.71-.013.555.004 1.111-.018 1.668-.015.403.004.819.01 1.229a8.66 8.66 0 0 1-.058 1.507c-.032.209.018.427.022.642.01.614.03 1.227 0 1.842-.023.453.034.909.022 1.363-.01.383-.013.767-.032 1.15-.016.35.013.704.004 1.057-.012.536.018 1.074-.012 1.608-.054.935.03 1.868 0 2.801-.02.594-.006 1.187-.033 1.781-.015.41-.01.821.017 1.231a.62.62 0 0 0 .262.466c.556.419.966.98 1.452 1.466.594.593 1.13 1.247 1.752 1.804.419.374.83.754 1.211 1.16.387.416.817.787 1.189 1.22.319.37.695.69 1.044 1.035.251.278.52.54.805.783.033-.196.046-.395.04-.594-.016-.434-.007-.868.025-1.301.023-.398.007-.801.04-1.199.064-.791.053-1.587.126-2.375.099-1.06.07-2.127.208-3.181.056-.432.014-.867.077-1.295.087-.595.085-1.199.196-1.791.056-.295.135-.588.021-.896a1.125 1.125 0 0 1-.015-.445c.026-.39.082-.779.09-1.168.026-.39.16-.763.39-1.078.136-.208.393-.335.635-.445.256-.116.535-.12.804-.164.3-.048.603-.067.905-.114.407-.07.824-.066 1.23.014.078.014.159.018.239.01.542-.039 1.086-.046 1.63-.022.841.05 1.682.012 2.523.063.83.05 1.663.028 2.495.04.092 0 .204-.024.271.018.227.145.446.116.687.047.298-.086.61-.03.915-.03.534 0 1.067.036 1.601.051 1.203.033 2.405.015 3.607.064.624.026 1.249.025 1.872.034a.828.828 0 0 1 .434.08.323.323 0 0 0 .236.01c.637-.127 1.276-.049 1.914-.01.283.016.566.024.848.017 1.11-.025 2.218.008 3.327.04.286.008.572 0 .857.017.212.013.439-.053.633.094.04.025.089.027.13.005.504-.17 1.021-.056 1.529-.04.616.02 1.23.005 1.846.021.388.01.777.002 1.198.002a17.06 17.06 0 0 1 3.178-4.122c-.096-.01-.147-.03-.18-.015-.526.25-1.097.305-1.662.378a6.648 6.648 0 0 0-1.22.337c-.862.302-1.747.534-2.647.693-.209.033-.415.156-.636.047-.278.176-.597.098-.893.15-.292.05-.59.066-.885.05-.925-.04-1.852-.085-2.76-.292-.53-.121-1.07-.21-1.577-.422-.06-.025-.112.004-.165-.007-.123-.026-.285-.024-.356-.102-.194-.215-.413-.152-.633-.112-.39.07-.774.194-1.179.127-.43.248-.924.204-1.386.265-.638.083-1.276.204-1.926.207-.33.002-.659.088-.989.094a9.7 9.7 0 0 0-1.1.069.698.698 0 0 1-.472-.109c-.26.251-.598.134-.905.164-.648.065-1.299.108-1.95.13-.706.026-1.408.112-2.112.163-.734.053-1.471.137-2.207.196-.785.063-1.57.129-2.36.15-.463.012-.933.067-1.397.06-.67-.012-1.343.081-2.01-.023-.47-.074-.943-.082-1.414-.165a14.41 14.41 0 0 1-1.447-.28c-.62-.16-1.23-.358-1.827-.59a15.79 15.79 0 0 1-1.95-.967c-.59-.35-1.192-.675-1.732-1.103a.86.86 0 0 0-.18-.084c-.53.372-.719.931-.834 1.522a7.886 7.886 0 0 0-.072 1.98c.012.219-.039.423-.039.637 0 .95-.023 1.9-.042 2.85-.033 1.706-.07 3.412-.103 5.117-.006.365 0 .73 0 1.147a2.88 2.88 0 0 1-.626-.579c-.059-.061-.038-.153-.037-.232l.072-3.649c.01-.54.018-1.079.03-1.618.02-1.022.043-2.044.066-3.065.013-.517.056-1.035.032-1.55a5.46 5.46 0 0 1 .032-1.058c.086-.581.194-1.156.554-1.645.087-.118.188-.227.29-.348-.037-.043-.06-.09-.095-.107-.325-.149-.422-.457-.53-.754-.08-.22.014-.4.247-.426.468-.05.94-.046 1.405.014.13.031.266.035.398.011.175-.05.36.001.583-.052-.172-.225-.358-.391-.52-.574A21.883 21.883 0 0 1 8.14 30.69c-.095-.136-.236-.24-.253-.437-.02-.228.027-.387.217-.484.173-.089.283.018.389.128.419.435.877.842 1.237 1.322.183.245.459.35.625.588.163.225.365.418.595.57.224.157.405.374.625.538.198.148.35.392.652.367.06.005.11.049.123.108.046.193.211.26.355.35.318.202.62.44.962.592.374.166.741.348 1.124.498.69.27 1.39.507 2.094.743.308.103.631.158.957.164.262.02.517.09.755.202.454.189.937.207 1.402.323.78.195 1.584.245 2.379.341.498.06 1.003.053 1.504.092.718.056 1.438.016 2.157.035.885.022 1.773-.052 2.659-.086.55-.021 1.097-.066 1.646-.09.435-.017.87-.058 1.304-.069.923-.022 1.835-.166 2.756-.22.578-.033 1.152-.147 1.726-.23.766-.11 1.537-.196 2.295-.348.825-.165 1.664-.256 2.497-.48-.09-.433-.255-.836-.374-1.252-.167-.583-.434-1.134-.598-1.713-.1-.348-.279-.635-.428-.948-.222-.463-.458-.92-.669-1.386a8.572 8.572 0 0 0-.46-.764c-.154-.265-.284-.544-.461-.796a6.21 6.21 0 0 1-.47-.794.437.437 0 0 1 .094-.49c.13-.1.306-.115.45-.038a.705.705 0 0 1 .29.288c.302.539.635 1.059.945 1.591.305.524.547 1.077.854 1.598.086.175.16.355.221.54.12.291.24.582.348.878.105.29.266.572.374.871.23.624.417 1.262.56 1.91.104.475.32.63.805.601-.035-.211-.059-.424-.109-.63-.253-1.035-.517-2.07-1.008-3.021-.34-.66-.739-1.288-1.122-1.924-.448-.744-.89-1.49-1.369-2.214a8.645 8.645 0 0 0-.82-.973c-.27-.3-.208-.661.152-.827.385-.178.766-.364 1.153-.537a8.237 8.237 0 0 1 1.864-.565c.404-.077.816-.068 1.213-.17a.152.152 0 0 1 .069-.004c.427.096.85-.036 1.277-.024.923.033 1.84.14 2.746.32.963.186 1.922.408 2.9.502a6.302 6.302 0 0 0 2.031-.114c.745-.17 1.488-.348 2.257-.516.016-1.187.155-2.36.165-3.538.01-1.2.204-2.387.298-3.581.094-1.189.182-2.378.272-3.56-.212-.097-.394-.04-.6-.056l-.206 3.07c-.314.148-.634.068-.945.055-1.003-.041-2.006-.085-3.01-.11-.639-.017-1.279-.03-1.916-.07-.737-.043-1.477-.032-2.213-.101-.465-.044-.938.006-1.403-.038-.786-.075-1.576-.032-2.362-.096-.592-.048-1.19-.015-1.784-.053-.558-.034-1.118-.026-1.677-.08-.45-.045-.907-.004-1.358-.038-.9-.07-1.802-.048-2.702-.11-.35-.024-.708-.025-1.063-.027-.73-.005-1.461-.052-2.192-.081-.398-.016-.796-.023-1.193-.047-.846-.05-1.695-.036-2.538-.093-1.04-.07-2.08-.076-3.12-.118-.8-.033-1.6-.086-2.402-.09-.8-.004-1.6-.07-2.4-.101-.501-.02-1.004-.014-1.504-.043-.501-.029-1.006-.008-1.506-.076a6.94 6.94 0 0 0-.889-.008c-.649-.003-1.295-.073-1.945-.076-.8-.003-1.6-.053-2.4-.085-.203-.008-.407-.024-.624-.037a2.812 2.812 0 0 1-.017-.672c.775.038 1.526.014 2.276.071.562.044 1.127.04 1.692.05a.313.313 0 0 0 .244-.1 35.595 35.595 0 0 1 1.948-1.881c.468-.42.924-.855 1.422-1.237.805-.619 1.56-1.3 2.388-1.888.606-.43 1.203-.87 1.841-1.255.43-.26.827-.574 1.254-.843a39.148 39.148 0 0 1 2.54-1.5c.736-.39 1.473-.777 2.22-1.146a23.553 23.553 0 0 1 1.875-.853c.497-.193.982-.417 1.477-.617.699-.283 1.403-.55 2.118-.79.477-.16.945-.345 1.433-.47.842-.215 1.66-.514 2.507-.717.567-.135 1.13-.304 1.703-.412 1.323-.25 2.64-.53 3.975-.717.51-.072 1.023-.139 1.537-.161.72-.032 1.43-.174 2.15-.195.88-.027 1.76-.112 2.643-.076.73.03 1.461-.01 2.193.026.97.049 1.943.07 2.908.193 1.098.14 2.203.222 3.294.408.54.093 1.08.184 1.618.301.332.073.658.177.997.224.59.081 1.16.264 1.738.4.692.161 1.375.346 2.05.563 1.368.44 2.754.836 4.07 1.42.875.388 1.784.697 2.633 1.148.176.086.373.12.568.094 1.541-.12 3.085-.191 4.631-.157 1.385.03 2.768.102 4.145.266.83.094 1.65.258 2.453.489.274.082.535.2.777.353.579.36.56.962-.008 1.363-.425.3-.929.445-1.435.55-1.143.236-2.302.39-3.467.46a47.3 47.3 0 0 1-3.465.105 48.476 48.476 0 0 1-3.468-.145 27.077 27.077 0 0 1-2.967-.409c.233.395.562.696.805 1.061.532.795 1.185 1.501 1.68 2.324.165.272.41.493.59.757.41.603.853 1.182 1.281 1.771.487.671.977 1.34 1.47 2.007.108.144.185.31.307.503a609.844 609.844 0 0 0 8.127-7.808c.222.135.142.247.045.36l-1.322 1.54-.658.766a50.008 50.008 0 0 1 9.741 10.404h-.31a52.237 52.237 0 0 0-2.475 0c-.657.02-1.325-.023-1.987-.069-.33-.023-.666-.006-.994-.047-.783-.099-1.573-.08-2.358-.113-.937-.038-1.876-.077-2.814-.107-.316-.01-.644.026-.951-.1a.187.187 0 0 0-.1-.01c-.652.12-1.296-.055-1.942-.042-.467.01-.934-.07-1.417-.013-.033.173-.02.35-.102.504a.126.126 0 0 0-.009.099c.192.382.015.786.078 1.2.288.013.581.029.874.04.649.026 1.298.035 1.945.078.82.054 1.64.051 2.46.09 1.096.05 2.191.122 3.288.166.994.041 1.99.047 2.983.092.318.015.637.046.955.069.301.021.607.007.912.025.487.03.975.062 1.462.056.376-.004.751-.037 1.129-.018.15-.003.29.07.373.195.238.337.49.663.702 1.012-.103.109-.225.079-.335.072-.98-.063-1.96-.134-2.94-.194-1.246-.076-2.494-.143-3.742-.217-1.37-.08-2.742-.165-4.113-.246-1.236-.073-2.471-.14-3.706-.214-.628-.037-1.255-.083-1.882-.128a1.486 1.486 0 0 0-.411.008c.03.34.013.677.016 1.013.01.125 0 .25-.03.371a.85.85 0 0 0-.047.372c.072.41.027.82.033 1.228.011.911.001 1.822-.015 2.733-.006.354-.077.706-.048 1.061.04.327.015.66-.071.978a.608.608 0 0 0 .027.267c.044.354.074.708-.159 1.04.29.357.143.774.135 1.174 0 .045-.034.092-.028.134.102.7-.033 1.403.02 2.104a1.37 1.37 0 0 1-.038.269c-.03.122-.044.248-.04.373.068.462.016.929.054 1.392-.001.177-.02.353-.055.526-.104.003-.125-.073-.164-.124-.383-.502-.762-1.009-1.149-1.508a.583.583 0 0 1-.14-.437c.032-.409.016-.821.036-1.231.027-.564-.03-1.13.035-1.694.022-.197-.019-.405.003-.609.083-.772-.025-1.547.018-2.318.016-.292-.01-.586.03-.883.035-.247-.008-.514.007-.775.027-.448.002-.9.014-1.346.01-.377-.01-.754.013-1.131.054-.89-.005-1.785.07-2.675.021-.25-.04-.507-.02-.756.06-.721-.003-1.447.1-2.165.023-.171-.081-.318-.071-.496.046-.8.068-1.603.059-2.406a1.24 1.24 0 0 1 .031-.204.745.745 0 0 0-.189-.661c-.178-.2-.388-.402-.39-.706 0-.083-.058-.124-.111-.163-.423-.312-.682-.757-.971-1.179-.104-.15-.24-.281-.328-.439-.226-.402-.59-.71-.77-1.143a.438.438 0 0 0-.11-.132c-.38-.364-.655-.807-.944-1.24a4.665 4.665 0 0 0-.378-.443l-.002-.03-.028-.01a.092.092 0 0 0-.02-.037c-.106-.31-.383-.496-.571-.75l.5.906zm-16.36 23.632h-.023l-.004.023a11.387 11.387 0 0 0-2.27 1.863c-.553.564-1.052 1.18-1.488 1.838-.326.494-.707.958-.84 1.557a.26.26 0 0 1-.095.14.952.952 0 0 0-.263.395c-.23.474-.41.968-.594 1.462a13.831 13.831 0 0 0-.683 2.972c-.121.887-.078 1.783-.05 2.677.012.38.097.747.12 1.123a.2.2 0 0 0 .058.152c.328.292.689.543 1.075.75.096-.066.074-.14.067-.205-.08-.69-.156-1.381-.2-2.076-.013-.22.045-.44.018-.65-.086-.666.042-1.32.082-1.976.041-.674.25-1.32.427-1.969.24-.872.545-1.724.913-2.55.34-.787.732-1.55 1.175-2.286a11.524 11.524 0 0 1 1.659-2.139c.356-.355.724-.699 1.074-1.06.172-.122.325-.27.451-.438-.18.133-.41.18-.56.355a.087.087 0 0 0-.049.042zM7.645 56.564l.058-.358a.034.034 0 0 0 .006-.052c.09-.369.054-.75.104-1.12.09-.677.098-1.362.233-2.036.038-.194.1-.432-.074-.624a10.904 10.904 0 0 0-.914-.922c.155 1.731.323 3.423.53 5.11-.063.139-.012.268.03.4a.71.71 0 0 0 .027-.398zm75.476-50.13c-.062-.053-.085-.083-.114-.093-.182-.066-.363-.14-.55-.188a18.393 18.393 0 0 0-3.222-.506 44.426 44.426 0 0 0-4.19-.137c-.802.013-1.605.022-2.404.087-.582.048-1.164.103-1.745.172-.785.08-1.562.225-2.324.432-.179.052-.37.088-.51.232.069.07.157.118.253.136.78.23 1.577.394 2.383.49.932.125 1.868.193 2.805.236 1.154.053 2.31.05 3.466.017 1.558-.044 3.111-.142 4.645-.43.503-.095 1.012-.189 1.507-.448zM55.868 24.276c.113-.246.1-.47.112-.697.022-.379-.037-.78.21-1.122a4.346 4.346 0 0 1-.094-.354c-.068-.29.049-.56.07-.834.033-.444.004-.89.07-1.332.065-.43.184-.857.099-1.299a.22.22 0 0 1 .011-.101c.183-.594.061-1.215.167-1.82.075-.429.037-.88.084-1.32a.324.324 0 0 0-.04-.28 8.11 8.11 0 0 0-1.155-.121c.053.347-.006.66-.025.974a41.516 41.516 0 0 1-.15 1.957c-.024.23.025.454-.007.68-.066.472-.083.95-.111 1.423-.031.534-.107 1.066-.089 1.602.01.287-.09.567-.077.846.005.443-.017.887-.064 1.328a1.31 1.31 0 0 0 .02.522c.33.08.635-.097.969-.052zm33.39 61.935c.123-.297.493-4.217.448-4.59-.405-.014-.81 0-1.212.04.317 1.52.52 3.006.764 4.55zm-50.13-.03c.161-1.615.35-3.228.46-4.858h-.981c.193 1.637.277 3.254.521 4.859zm23.05-55.39c-.642.053-.793.432-.525 1.008.098 0 .2-.003.303.001a.18.18 0 0 0 .198-.154c.044-.283.194-.566.025-.855z"/>
        <path fill="#E3AD94" d="M4.809 29.315c.01.546-.031 1.1.045 1.636.06.414-.127.822.028 1.224-.128.694-.022 1.395-.053 2.092-.017.362-.014.729-.013 1.093.003 1.216.013 2.432.011 3.647 0 1.008-.027 2.015-.012 3.022.008.549-.025 1.096-.002 1.646.02.442-.039.888-.017 1.333.03.635.027 1.272.044 1.907.014.484.003.98-.032 1.47-.03.42.003.845.007 1.267a.437.437 0 0 0 .151.302c.338.338.416.765.469 1.217.193 1.666.405 3.329.609 4.993.103.843.203 1.687.302 2.531.037.32.047.33.385.408.045.01.088.026.127.05.29.195.59.12.891.04.064-.026.13-.048.196-.065.509-.07.667-.457.726-.872.11-.766.168-1.54.253-2.311.042-.373.077-.748.125-1.12.038-.293.055-.598.093-.897.009-.065 0-.14.072-.18.085-.017.124.046.17.094 1.01 1.049 2.018 2.098 3.026 3.148.728.761 1.436 1.544 2.175 2.295.883.896 1.72 1.837 2.615 2.721.668.66 1.29 1.364 1.955 2.027.728.725 1.403 1.504 2.128 2.233.437.438.86.89 1.293 1.332.606.619 1.192 1.258 1.79 1.883.457.478.923.948 1.382 1.424.516.537 1.026 1.079 1.542 1.616.425.442.864.87 1.278 1.323.223.244.442.49.677.722.583.577 1.13 1.187 1.704 1.773.6.614 1.213 1.218 1.785 1.86.4.45.835.867 1.256 1.297.5.51.945 1.072 1.48 1.549.059.07.107.149.145.232.365.075.734-.034 1.108.044.053.467.088.931.161 1.39.124.777.168 1.564.25 2.345.074.704.236 1.4.235 2.113a.921.921 0 0 0 .058.372c.046.095.049.205.008.302-.188.337-.018.66.018.989.004.033.015.08.038.093.25.134.483.352.783.306.3-.058.593-.144.877-.257.127-.05.258-.09.391-.12.426-.09.605-.348.51-.767a.273.273 0 0 1 .043-.282.533.533 0 0 0 .102-.357c.026-.756.198-1.495.249-2.248.02-.296.056-.592.087-.888.062-.58.161-1.158.175-1.738.007-.334.104-.647.12-.975.014-.304.073-.321.38-.305.48.025.962.021 1.443.025.424.003.847-.002 1.27 0 .4.003.802-.009 1.2.002.339.009.68.044 1.023.044.812-.001 1.623.03 2.435.008.33-.009.66.016.99.011.361.007.723-.017 1.081-.072a.392.392 0 0 1 .266.01c.159.072.337.091.507.054.457-.073.909.03 1.363.02.458-.01.917-.021 1.375-.005.275.01.548-.006.822-.006.273 0 .54.07.817.055.98-.051 1.961.031 2.94.012.615-.013 1.23 0 1.845-.04.38-.025.772.011 1.158.02.605.012 1.21.023 1.815.023.398 0 .801-.019 1.195-.007.335.01.678.057 1.017.042.779-.033 1.557.07 2.333.02.412-.026.82.028 1.228.004.327-.02.658.01.979-.076a.189.189 0 0 1 .1-.014c.512.191 1.042.025 1.564.077.579.057 1.167.014 1.75.026.309.018.618.01.924-.025.15-.022.283.074.436.064.24-.016.481.002.72-.016.66-.047 1.319.03 1.98.017.53-.01 1.066-.02 1.6.018.214.015.43-.029.648-.032a37.074 37.074 0 0 1 1.67.01c.731.022 1.463.034 2.192.027.479-.005.954.05 1.434.022.43-.024.862.002 1.293.013.082.01.163.028.242.054.1.35.157.711.169 1.076-.29.17-.368.31-.295.592.066.254-.054.448-.185.637-.243.32-.516.616-.814.886a80.325 80.325 0 0 1-3.022 2.861c-.47.42-.964.812-1.46 1.2a60.604 60.604 0 0 1-3.46 2.542c-.417.28-.859.525-1.279.802a31.95 31.95 0 0 1-2.973 1.723c-1.159.596-2.316 1.194-3.51 1.717-.651.285-1.322.518-1.98.784-.594.241-1.195.46-1.795.684-.514.191-1.041.345-1.568.497-.834.241-1.668.487-2.512.695-.988.243-1.973.508-2.98.659-.973.145-1.935.364-2.91.47-.614.065-1.227.148-1.847.173-.807.032-1.61.137-2.418.178-.642.033-1.286.017-1.929.022-1.044.007-2.085-.079-3.128-.09-.347-.004-.707-.074-1.056-.087-.539-.022-1.067-.1-1.598-.165-.544-.067-1.09-.12-1.632-.207-.982-.157-1.973-.283-2.937-.516-.955-.23-1.919-.424-2.864-.696-.824-.236-1.656-.453-2.463-.743-1.364-.49-2.745-.935-4.066-1.537-.77-.351-1.533-.72-2.302-1.073-.75-.342-1.481-.72-2.192-1.136-.866-.51-1.746-.997-2.592-1.541-.811-.521-1.626-1.037-2.396-1.615-1.19-.893-2.397-1.767-3.502-2.768-.568-.514-1.163-1.002-1.702-1.544-.482-.484-.996-.938-1.458-1.446-.284-.31-.596-.603-.868-.924-.695-.82-1.45-1.587-2.119-2.43-.34-.43-.683-.86-1.004-1.304-.648-.895-1.31-1.78-1.916-2.706a34.383 34.383 0 0 1-.981-1.572c-.522-.9-1.075-1.782-1.545-2.71-.32-.634-.664-1.256-.906-1.926-.063-.172-.17-.326-.248-.492a33.535 33.535 0 0 1-1.549-3.82c-.169-.523-.39-1.03-.554-1.554a53.817 53.817 0 0 1-.615-2.07 62.68 62.68 0 0 1-.838-3.501c-.201-.962-.403-1.93-.473-2.912-.037-.513-.16-1.011-.199-1.522-.076-1.024-.178-2.044-.22-3.071A66.57 66.57 0 0 1 .144 48a9.777 9.777 0 0 1 .118-1.606c.033-.273.05-.547.05-.822.022-.366.068-.73.1-1.095a23.1 23.1 0 0 1 .283-2.14c.115-.641.208-1.287.333-1.925.11-.56.206-1.123.369-1.673.06-.207.063-.431.124-.639.35-1.207.64-2.432 1.048-3.622.112-.325.207-.654.313-.98a.844.844 0 0 1 .264-.433.836.836 0 0 0 .294-.447c.426-1.113.844-2.23 1.369-3.304z"/>
        <path fill="#333" d="M90.829 57.924c-.075.123.075.207.061.316-.302.31-.375.322-.682.043-.42-.383-.829-.778-1.24-1.17-.504-.482-1.006-.965-1.507-1.45-.533-.513-1.053-1.041-1.597-1.54-.64-.588-1.265-1.193-1.897-1.79-.815-.769-1.622-1.547-2.428-2.326-.558-.54-1.13-1.068-1.698-1.6-.61-.572-1.207-1.156-1.815-1.73a.44.44 0 0 1-.16-.324c-.007-.19-.03-.38-.046-.591.27.13.446.35.638.532.939.886 1.93 1.713 2.857 2.61.251.244.566.43.734.755.494.263.838.704 1.25 1.064.859.753 1.698 1.529 2.544 2.297.147.128.286.264.415.409a.63.63 0 0 0 .553.207c.529-.033 1.051.043 1.577.065.614.025 1.227.075 1.84.118.364.025.728.052 1.091.09.138.015.278 0 .41-.044.077-.653.052-1.306.117-1.953.092-.904.062-1.813.154-2.718.061-.599.066-1.204.078-1.807.006-.297.031-.594.057-.886.052-.579.078-1.162.094-1.738.027-.908.139-1.812.128-2.721-.005-.389.053-.773.083-1.16.04-.523.037-1.05.062-1.574.042-.855.102-1.709.134-2.564.017-.455.041-.91.08-1.364.057-.691.027-1.386.11-2.078.065-.54.043-1.09.077-1.633.052-.833.075-1.666.13-2.498.08-1.204.187-2.405.278-3.607l.014-.177c.121.02.134.128.175.2.176.31.337.627.514.936.085.187.208.353.36.49.139.11.2.326.281.501.217.466.477.91.677 1.384.378.893.824 1.756 1.144 2.676.183.527.42 1.036.596 1.566.305.92.672 1.82.9 2.762.159.654.39 1.287.522 1.95.136.681.326 1.352.478 2.03.075.334.114.675.173 1.012.104.592.243 1.18.307 1.777.078.723.224 1.435.285 2.16.059.713.076 1.432.153 2.144.063.577.054 1.156.084 1.733a23.61 23.61 0 0 1-.013 2.437c-.02.397-.006.797-.034 1.193-.073 1.014-.078 2.035-.23 3.04-.12.787-.149 1.588-.327 2.365-.09.39-.1.79-.195 1.18-.089.363-.006.748-.136 1.109-.027.074-.04.153-.058.22-.095.075-.222.01-.296.103a.806.806 0 0 1-.576-.256c-.554-.551-1.197-.994-1.785-1.502-.587-.506-1.192-.99-1.797-1.476-.507-.407-.988-.845-1.49-1.257-.431-.354-.898-.664-1.307-1.047a.407.407 0 0 0-.276-.12c-.25-.004-.5-.032-.749-.04-.762-.028-1.525-.032-2.287-.08a3.396 3.396 0 0 0-.909.013c.364.27.607.573.896.821.73.626 1.44 1.272 2.15 1.921a.717.717 0 0 1 .274.592zM10.132 16.752c.12.449.14.91.232 1.362.107.452.191.91.25 1.372.044.467.192.914.25 1.377.058.463.174.914.243 1.374.069.46.169.917.223 1.378.054.46.19.895.267 1.385.279-.235.592-.321.881-.439a7.653 7.653 0 0 1 1.56-.485c.348-.06.693-.138 1.037-.22.211-.053.428-.081.646-.084.522.002 1.038-.082 1.567-.017.285.035.591.014.878.065.379.066.771.075 1.133.22.127.05.25 0 .374.027.63.136 1.26.267 1.897.367.841.132 1.682.27 2.529.187a11.149 11.149 0 0 0 1.822-.312c.539-.146 1.089-.25 1.634-.355a12.527 12.527 0 0 1 3.028-.215c.25.025.5.062.747.112 1.253.202 2.481.535 3.665.992.714.27 1.442.505 2.165.751.153.052.273.13.275.306.002.15-.128.25-.325.29a.729.729 0 0 1-.434-.07A30.326 30.326 0 0 0 34 25.14c-.513-.157-1.038-.277-1.56-.407a8.684 8.684 0 0 0-2.719-.227c-.603.046-1.204.124-1.8.233-.75.134-1.474.377-2.223.518-.458.086-.919.21-1.375.22-.34.009-.659.148-1.005.099-.325-.046-.66-.02-.988-.049-.341-.03-.68-.086-1.02-.133-.574-.08-1.15-.148-1.72-.25-.254-.045-.51-.098-.763-.156a5.976 5.976 0 0 0-.85-.078 12.564 12.564 0 0 0-2.388.007c-.907.1-1.742.383-2.582.7-.477.184-.941.4-1.39.648-.468.253-.888.597-1.35.864-.438.253-.776.629-1.194.901a.882.882 0 0 0-.129.133c.43.69.925 1.337 1.478 1.932.711.762 1.491 1.456 2.33 2.073.463.354.948.678 1.453.97.168.094.32.213.484.314.06.034.104.091.12.158.035.144-.042.234-.18.196a.613.613 0 0 1-.186-.088c-.533-.367-1.116-.65-1.664-.996-.802-.51-1.553-1.1-2.24-1.757-.55-.525-1.101-1.058-1.525-1.7-.158-.24-.377-.432-.525-.68a.456.456 0 0 0-.278-.188.763.763 0 0 1-.521-.658c-.036-.224.163-.376.324-.51.167-.137.343-.265.526-.38.1-.061.154-.176.138-.292-.005-.149-.006-.298-.013-.447-.039-.867-.034-1.733-.032-2.6.003-.672.01-1.346-.012-2.018-.03-.878.003-1.756-.013-2.634-.01-.65-.026-1.3-.04-1.949-.007-.373-.037-.747-.015-1.119.037-.614-.02-1.226-.007-1.839a.757.757 0 0 1 .099-.342H9.77c.041.822-.071 1.622-.009 2.465.388-.064.743.08 1.125.05.4-.015.801-.007 1.201.022.687.023 1.373.038 2.06.075.42.024.84.007 1.263.072.259.04.544-.012.819-.001 1.121.043 2.243.069 3.364.122.762.036 1.525.05 2.287.07.769.02 1.54.023 2.305.088.593.05 1.187.043 1.78.068.72.03 1.444.032 2.164.075.697.041 1.394.048 2.09.078.697.03 1.397.039 2.095.06 1.202.035 2.403.088 3.605.13 1.326.047 2.652.09 3.978.134 1.27.044 2.541.071 3.81.136 1.155.059 2.31.07 3.465.12.869.037 1.739.04 2.607.089 1.213.068 2.428.077 3.641.132.026.005.051.013.075.023a.444.444 0 0 1-.025.33 3.1 3.1 0 0 1-.75.007 775.173 775.173 0 0 1-3.68-.102c-1.41-.042-2.82-.086-4.23-.132l-2.472-.075c-1.34-.041-2.68-.085-4.02-.123-1.203-.034-2.407-.047-3.609-.1-.698-.03-1.397-.037-2.096-.083-.398-.026-.801-.012-1.202-.022-.962-.025-1.923-.07-2.884-.106-.512-.02-1.027-.013-1.541-.028-.849-.025-1.697-.057-2.545-.08-1.225-.035-2.45-.064-3.675-.099-1.544-.044-3.088-.078-4.632-.142-.87-.036-1.741-.011-2.61-.063-.88-.052-1.762-.026-2.64-.106-.193-.018-.388.025-.579-.042-.054-.017-.11.025-.173.1z"/>
        <path fill="#E3AD94" d="M90.829 57.924a.717.717 0 0 0-.276-.593 86.603 86.603 0 0 0-2.149-1.921c-.289-.248-.532-.551-.895-.821.3-.045.607-.05.909-.014.761.049 1.524.053 2.286.08.25.009.5.037.75.04a.407.407 0 0 1 .276.12c.409.384.875.694 1.306 1.047.503.412.984.85 1.49 1.258.605.485 1.21.97 1.797 1.476.588.508 1.231.95 1.785 1.502.15.16.357.252.576.255.037.923-.159 1.81-.439 2.678-.315.976-.54 1.978-.888 2.943-.313.87-.637 1.738-.98 2.597-.48 1.198-1.028 2.369-1.475 3.582a6.424 6.424 0 0 1-1.074 1.831c-.113.14-.22.302-.429.318a4.245 4.245 0 0 1-.009-.939c.048-.59.045-1.185.051-1.778.005-.48-.01-.964.025-1.439.058-.81.042-1.62.07-2.428.025-.757.02-1.516.015-2.275-.004-.497.018-1.003.045-1.504.026-.49.082-.996-.03-1.466-.084-.349.07-.647.027-.982a3.77 3.77 0 0 0-.482-1.513c-.172-.284-.452-.399-.765-.451a10.069 10.069 0 0 0-1.393-1.55.407.407 0 0 0-.124-.053z"/>
        <path fill="#333" d="M91.22 61.835c-.243.138-.495.07-.725.063-1.439-.049-2.877.004-4.315-.017-1.55-.023-3.1-.004-4.649-.008-1.731-.004-3.463-.017-5.195-.02-1.096-.002-2.193.02-3.29.004-.454-.006-.911-.014-1.364-.017-.547-.005-1.099.026-1.647.008-1.151-.038-2.302.029-3.453-.004a66.463 66.463 0 0 0-1.568-.023c-.498-.003-1.005.034-1.504.02a43.576 43.576 0 0 0-3.007-.004c-.634.025-1.27-.004-1.905-.01-1.139-.013-2.278.005-3.416-.017-.468-.009-.938.038-1.403-.056-.2-.04-.406.018-.607.024a65.66 65.66 0 0 1-2.234.017c-.859-.004-1.717.005-2.576.005-.877.001-1.755.017-2.631-.012-.285-.01-.567.01-.85.006-.148-.002-.294.029-.437-.05a.44.44 0 0 0-.237-.019c-.849.078-1.698.044-2.548.054a8.079 8.079 0 0 0-.959.007c-.223.03-.427-.056-.641-.067a.206.206 0 0 1-.143-.085c-.222-.245-.277-.786-.07-1.046.154-.194.416-.194.626-.16.2.04.407.041.608.002a.4.4 0 0 1 .17-.007c.4.092.807.001 1.208.041.41.041.825.008 1.23.053.392.043.77-.052 1.159-.019.83.072 1.669.003 2.5.06.486.034.971.018 1.456.03.566.012 1.134.026 1.7.042.7.02 1.4.007 2.102.049.889.053 1.782.023 2.674.036.316.005.638-.016.948.017.646.069 1.299-.054 1.939.092.34-.09.681.004 1.022-.001.326-.005.657.015.982.006.673-.018 1.342.09 2.015.04.525-.038 1.049.031 1.574.022a26.69 26.69 0 0 1 2.085.033c1.06.064 2.121.038 3.181.094.673.036 1.35-.002 2.023.02.557.02 1.115.003 1.674.054.347.032.703.016 1.056.021.433.006.867.01 1.3.017.674.01 1.347.017 2.02.035.787.02 1.575.026 2.362.06.845.036 1.692.018 2.538.034 1.224.023 2.448.057 3.672.082 1.179.024 2.358.027 3.535.069.562.02 1.124.012 1.686.03.288.008.342.07.33.395zM72.79 22.534v.78l-14.372-.576a2.315 2.315 0 0 1-.01-.793l14.382.589z"/>
        <path fill="#E3AD94" d="M69.864 11.784l-.5-.905c.187.253.464.439.57.749-.075.028-.062.097-.07.156zM69.955 11.665l.028.01.002.03-.03-.01zM53.662 35.456c-.01-.063-.062-.068-.11-.081.152-.175.382-.223.561-.356a1.986 1.986 0 0 1-.451.437zM7.589 56.562a.068.068 0 0 1 .056.002c.03.133.02.27-.027.398-.041-.132-.093-.261-.03-.4zM7.703 56.206a.307.307 0 0 1-.015-.041c0-.002.014-.008.022-.011a.034.034 0 0 1-.007.052zM53.504 35.416l-.004.023h-.024l.005-.023z"/>
    </g>
</svg>
