<?xml version="1.0" encoding="UTF-8"?>
<svg width="22px" height="14px" viewBox="0 0 22 14" version="1.1" xmlns="http://www.w3.org/2000/svg" xmlns:xlink="http://www.w3.org/1999/xlink">
    <!-- Generator: Sketch 63.1 (92452) - https://sketch.com -->
    <title>RefeeralTracking</title>
    <desc>Created with Sketch.</desc>
    <defs>
        <rect id="path-1" x="0" y="0" width="24" height="24"></rect>
    </defs>
    <g id="Icons" stroke="none" stroke-width="1" fill="none" fill-rule="evenodd">
        <g transform="translate(-755.000000, -138.000000)" id="RefeeralTracking">
            <g transform="translate(754.000000, 131.000000)">
                <mask id="mask-2" fill="white">
                    <use xlink:href="#path-1"></use>
                </mask>
                <g id="Mask"></g>
                <g mask="url(#mask-2)" fill="#000000" fill-rule="nonzero" id="Shape">
                    <g transform="translate(1.000000, 7.000000)">
                        <path d="M11.0326563,0.0408203125 C9.37019531,0.0408203125 8.01796875,1.46953125 8.01796875,3.22609375 C8.01796875,4.98222656 9.37019531,6.4109375 11.0326563,6.4109375 C12.6951172,6.4109375 14.0473437,4.98222656 14.0473437,3.22609375 C14.0473437,1.46953125 12.6951172,0.0408203125 11.0326563,0.0408203125 Z M11.0326563,5.121875 C10.0808984,5.121875 9.30703125,4.27152344 9.30703125,3.22609375 C9.30703125,2.18066406 10.0808984,1.32988281 11.0326563,1.32988281 C11.9844141,1.32988281 12.7582812,2.18066406 12.7582812,3.22609375 C12.7582812,4.27152344 11.9844141,5.121875 11.0326563,5.121875 Z"></path>
                        <path d="M17.4517578,0.46921875 L17.4311328,0.46921875 C15.9891016,0.48125 14.8263672,1.72777344 14.8388281,3.24757812 C14.8512891,4.76007812 16.0230469,5.98253906 17.4560547,5.98253906 L17.4766797,5.98253906 C18.1835156,5.97652344 18.8435156,5.67875 19.3346484,5.14378906 C19.8141797,4.62085938 20.075,3.93207031 20.0689844,3.20417969 C20.0565234,1.69167969 18.8847656,0.46921875 17.4517578,0.46921875 Z M18.3846094,4.27195312 C18.1379687,4.5409375 17.8118359,4.69046875 17.4659375,4.69347656 L17.4560547,4.69347656 C16.7294531,4.69347656 16.1343359,4.0425 16.1278906,3.23683594 C16.1210156,2.42773438 16.7105469,1.76429687 17.441875,1.75828125 L17.4517578,1.75828125 C18.1783594,1.75828125 18.7734766,2.4096875 18.7799219,3.21492187 C18.7833594,3.61539062 18.6428516,3.9909375 18.3846094,4.27195312 Z"></path>
                        <path d="M18.1199219,6.30480469 L16.7878906,6.30480469 C15.7630859,6.30480469 14.8298047,6.70441406 14.1358594,7.35582031 C13.4603906,6.95621094 12.6736328,6.72675781 11.8335937,6.72675781 L10.2312891,6.72675781 C9.37492188,6.72675781 8.573125,6.96523438 7.88949219,7.37902344 C7.19253906,6.71386719 6.249375,6.30480469 5.21210938,6.30480469 L3.88007813,6.30480469 C1.74066406,6.30480469 2.44249065e-15,8.04546875 2.44249065e-15,10.1848828 L2.44249065e-15,11.8275781 L5.69507813,11.8275781 L5.69507813,13.1076172 L16.3698047,13.1076172 L16.3698047,11.8275781 L22,11.8275781 L22,10.1848828 C22,8.04546875 20.2593359,6.30480469 18.1199219,6.30480469 Z M5.75308594,10.5385156 L1.2890625,10.5385156 L1.2890625,10.1848828 C1.2890625,8.75617187 2.45136719,7.59386719 3.88007812,7.59386719 L5.21210937,7.59386719 C5.84804687,7.59386719 6.43113281,7.82417969 6.88273437,8.20617187 C6.29964844,8.84382812 5.89617188,9.64820312 5.75308594,10.5385156 Z M15.0807422,11.8185547 L12.9078125,11.8185547 L9.0921875,11.8185547 L6.98414062,11.8185547 L6.98414062,11.2629687 C6.98414062,11.0141797 7.0125,10.7714062 7.06578125,10.5385156 C7.17019531,10.0813281 7.37171875,9.66023437 7.64714844,9.29886719 C7.92085937,8.93921875 8.26804687,8.6384375 8.66636719,8.41886719 C9.13085937,8.16191406 9.66453125,8.01582031 10.2312891,8.01582031 L11.8335937,8.01582031 C12.3805859,8.01582031 12.8957812,8.15160156 13.3482422,8.39136719 C13.7461328,8.60191406 14.0954687,8.89324219 14.3739062,9.24300781 C14.6721094,9.61683594 14.8891016,10.0572656 14.9991016,10.5385156 C15.0523828,10.7714062 15.0807422,11.0141797 15.0807422,11.2629687 L15.0807422,11.8185547 L15.0807422,11.8185547 Z M20.7109375,10.5385156 L16.3117969,10.5385156 C16.1661328,9.63402344 15.7519141,8.81804687 15.1542187,8.17523437 C15.6002344,7.81171875 16.1691406,7.59386719 16.7878906,7.59386719 L18.1199219,7.59386719 C19.5486328,7.59386719 20.7109375,8.75617187 20.7109375,10.1848828 L20.7109375,10.5385156 Z"></path>
                        <path d="M4.54394531,0.46921875 L4.52332031,0.46921875 C3.08128906,0.48125 1.91855469,1.72777344 1.93101562,3.24757812 C1.94347656,4.76007812 3.11523438,5.98253906 4.54824219,5.98253906 L4.56886719,5.98253906 C5.27570312,5.97652344 5.93570312,5.67875 6.42683594,5.14378906 C6.90636719,4.62085938 7.1671875,3.93207031 7.16117187,3.20417969 C7.14871094,1.69167969 5.97695312,0.46921875 4.54394531,0.46921875 Z M5.47679687,4.27195312 C5.23015625,4.5409375 4.90402344,4.69046875 4.558125,4.69347656 L4.54824219,4.69347656 C3.82164062,4.69347656 3.22652344,4.0425 3.22007812,3.23683594 C3.21320312,2.42773438 3.80273438,1.76429687 4.5340625,1.75828125 L4.54394531,1.75828125 C5.27054687,1.75828125 5.86566406,2.4096875 5.87210937,3.21492187 C5.87554688,3.61539062 5.73503906,3.9909375 5.47679687,4.27195312 Z"></path>
                    </g>
                </g>
            </g>
        </g>
    </g>
</svg>