<svg xmlns="http://www.w3.org/2000/svg" width="100" height="100" viewBox="0 0 100 100">
    <g fill="none" fill-rule="nonzero">
        <path fill="#333" d="M97.6 63.1c.157.005.318-.043.488.03a3.591 3.591 0 0 1-.239.807c-.614 0-1.23-.005-1.846.003a7.05 7.05 0 0 0-.72.055c-.29.034-.56-.078-.852-.07-.984.024-1.97.016-2.956.016-1.122 0-2.244-.009-3.365-.005-1.003.003-2.006.04-3.008.02-.858-.016-1.716-.01-2.574-.015-.785-.004-1.57.014-2.357.02a1.144 1.144 0 0 1-.601-.094c-.126-.07-.271-.01-.408-.017a9.183 9.183 0 0 0-2.081.097 3.393 3.393 0 0 0-1.59.684h22.085c.058.129-.036.225-.055.333-.03.172-.146.212-.303.205-.811-.031-1.622.013-2.433.02-.788.008-1.577.054-2.364.03-.387-.012-.766.02-1.164.028l.203 4.93c-.259.08-.506.042-.772.032v-4.954h-1.315c-.026 1.839.063 3.66.058 5.513l6.533.146a.508.508 0 0 1-.014.113c-.196.49-.196.462-.725.458-.544-.004-1.089-.011-1.633-.014-1.065-.006-2.13-.017-3.194-.022-.824-.004-1.648.003-2.472-.005-.582-.005-1.164-.034-1.746-.039-.626-.004-1.253.014-1.88.012-.719-.003-1.437-.017-2.156-.027-.366-.005-.732-.01-1.098-.02-.286-.008-.365-.065-.437-.333a29.525 29.525 0 0 1-.29-1.167 5.28 5.28 0 0 0-.165-.544 4.22 4.22 0 0 0-1.289-.06c-.287.05-.54.22-.697.465-.28.405-.536.828-.764 1.265a.637.637 0 0 1-.76.366c-.336-.062-.677-.018-1.012-.016-.401.003-.8-.039-1.2-.03-.709.017-1.418.03-2.126.01-.513-.013-1.026-.004-1.54-.02-.452-.012-.91-.026-1.366 0-.34.02-.68-.018-1.022.02-.702.076-1.408.129-2.11.205-1.135.124-2.272.224-3.406.357-.909.107-1.82.184-2.729.293-.647.078-1.298.121-1.947.188-.456.046-.91.11-1.366.157-.831.087-1.663.16-2.493.254-.852.097-1.705.158-2.537.42a2.27 2.27 0 0 0-1.419 1.252c-.365.744-.574 1.542-.81 2.331-.125.416-.264.827-.39 1.242-.183.6-.361 1.199-.545 1.813.153.078.297.037.455.04.174-.523.33-1.048.525-1.556.249-.644.408-1.316.656-1.96.168-.437.296-.89.442-1.334.103-.315.172-.345.493-.337.643.014 1.286.015 1.929.007.194 0 .386.039.566.112a.273.273 0 0 1 .185.348c-.027.152-.133.18-.256.158-.166-.028-.366.085-.494-.118-.015-.024-.086-.019-.13-.018l-1.652.012c-.057.004-.114.011-.17.021l-1.031 3.398 2.052.124.822-2.906c.194-.09.41-.015.658-.048l-1.14 4.137c.329.053.66.077.993.072.685.022 1.37.032 2.055.063a.367.367 0 0 0 .378-.225c.398-.7.923-1.32 1.548-1.827a6.81 6.81 0 0 1 4.052-1.599c2.315-.117 4.232.725 5.766 2.447.378.457.706.953.978 1.48.547.01 1.105.011 1.663.036.657.028 1.313-.002 1.972.036.853.049 1.711.01 2.567.02.32.004.643-.041.958.046.13.037.24-.042.37-.038 1.564.049 3.13.054 4.696.067 1.06.009 2.12.074 3.18.07.869-.005 1.737.007 2.605.018.881.011 1.762.043 2.643.036a.446.446 0 0 1 .168.022.192.192 0 0 1 .12.191c-.003.104-.077.133-.165.135-.172.003-.345.002-.517.002-1.733.007-3.467.017-5.2.019-1.89.002-3.781-.007-5.672-.004-.949.002-1.898.036-2.847.026-.694-.008-1.387.036-2.081-.006-.364-.022-.732.012-1.099.012-.856 0-1.711.024-2.567.009-.158-.003-.315.015-.494.025.148.574.32 1.12.36 1.718.436.02.855.054 1.274.055.985.005 1.97.006 2.955.03 1.636.041 3.273.055 4.91.076 1.74.022 3.48.008 5.219.07 1.294.047 2.588.073 3.883.086.141 0 .141.003.298.12-.018.176-.146.177-.277.18-.574.009-1.148.025-1.722.029-.87.006-1.74.003-2.61.004-.903 0-1.806-.003-2.71 0-.675.003-1.35.015-2.025.017-.822.003-1.644-.001-2.466.002-.963.003-1.925.014-2.888.016-.894.002-1.787-.004-2.68-.002-.376 0-.752.014-1.137.022a8.457 8.457 0 0 1-.264 1.851c.087.087.182.053.268.057.785.042 1.571.001 2.357.018 1.168.024 2.336.068 3.504.07.664.001 1.329-.006 1.992.02.8.03 1.598.024 2.396.054.49.019.986-.012 1.479-.004.743.011 1.487.02 2.23.049.285.01.567-.064.853-.008.37.071.53.463.276.741a16.28 16.28 0 0 1-1.46 1.358 49.153 49.153 0 0 1-2.475 2.012c-.69.52-1.381 1.042-2.117 1.501-.347.217-.673.47-1.016.697-.773.51-1.573.973-2.377 1.43-.656.372-1.304.76-1.984 1.086-.668.32-1.33.65-2.003.961-.799.37-1.607.715-2.424 1.038-.614.243-1.243.45-1.86.684-1.04.395-2.112.688-3.177.997a37.58 37.58 0 0 1-2.497.615c-.692.15-1.387.29-2.084.41-.796.137-1.592.273-2.397.363-1.146.128-2.292.267-3.444.322-.649.03-1.3.06-1.954.057-.835-.004-1.673.052-2.506 0-.854-.053-1.708-.087-2.562-.158a44.644 44.644 0 0 1-2.792-.313c-.644-.094-1.285-.207-1.928-.316-.406-.069-.814-.13-1.214-.223-1.045-.242-2.09-.48-3.128-.755-.82-.216-1.621-.484-2.43-.728-.587-.178-1.147-.443-1.732-.625-.668-.208-1.3-.5-1.948-.752-.636-.248-1.25-.555-1.872-.837a33.96 33.96 0 0 1-2.11-1.063c-.964-.522-1.928-1.044-2.856-1.63-.965-.613-1.928-1.227-2.856-1.893a32.227 32.227 0 0 1-1.555-1.172c-.568-.462-1.163-.89-1.712-1.372-.662-.58-1.331-1.151-1.956-1.772-.396-.394-.821-.759-1.209-1.16a87.085 87.085 0 0 1-1.917-2.053c-.866-.954-1.668-1.965-2.446-2.991-.532-.7-1.063-1.404-1.528-2.153-.087-.142-.17-.3-.35-.36-.038-.013-.065-.063-.09-.1l-.473-.752c.061-.104.15-.069.222-.072.892-.034 1.783-.06 2.677-.066.522-.004 1.048-.024 1.57-.008.49.016.977-.037 1.468-.022.74.024 1.482.003 2.223-.003.523-.005 1.05.047 1.567.012.574-.038 1.144.014 1.717-.013.547-.026 1.1.008 1.648.004.619-.004 1.238-.015 1.857-.018.855-.005 1.71.006 2.565.003.858-.003 1.715-.018 2.573-.021.742-.003 1.485.035 2.226-.002.57-.03 1.14.012 1.71-.008.497-.019 1-.065 1.5.018.236.04.476-.03.718-.029.909.008 1.819-.04 2.727-.012.936.028 1.87-.013 2.806 0 .812.012 1.625-.012 2.438-.012 1.132 0 2.265-.002 3.397 0 .904.002 1.81-.01 2.714-.018.354-.003.71 0 1.078 0 .206-.431.298-.895.478-1.325-.097-.393.117-.713.26-1.04.27-.613.745-.98 1.397-1.162.378-.104.765-.142 1.14-.24 1.323-.348 2.69-.416 4.033-.62.766-.117 1.538-.206 2.307-.302.792-.098 1.581-.235 2.373-.342.78-.105 1.56-.205 2.341-.31.8-.107 1.597-.222 2.397-.325.69-.089 1.375-.21 2.072-.257.235-.025.469-.062.7-.112.296-.053.45-.304.65-.482 1.1-.982 2.19-1.98 3.283-2.97.331-.3.665-.598.997-.897.085-.077.164-.185.288-.17.371.05.553-.215.773-.424-.057-.103-.157-.034-.245-.104.507-.459.982-.946 1.53-1.35.558-.41 1.23-.53 1.9-.681l.165-7.73a5.847 5.847 0 0 0-1.245-.106c-.86.016-1.717-.044-2.575-.077-.726-.03-1.454-.042-2.178-.089-1.018-.066-2.037-.07-3.054-.114-.639-.027-1.281-.048-1.919-.083-.973-.053-1.947-.046-2.919-.113-.737-.052-1.48-.036-2.216-.093-.892-.068-1.785-.058-2.677-.102a93.32 93.32 0 0 0-2.842-.11c-.892-.017-1.783-.075-2.675-.11-.262-.01-.524-.001-.805-.001-.052-.271-.017-.509-.033-.766.417-.057.823-.02 1.226-.03.39-.008.78.008 1.168.047.414.044.828-.001 1.243.025.34.023.7-.021 1.049-.004 1.062.054 2.124.005 3.186.034.329.01.664.009.985.043.327.035.642-.012.963-.004.82.022 1.64.022 2.461.032.72.008 1.44-.002 2.159.033.362.018.735.064 1.087.052.437-.015.876.033 1.313-.013.228-.034.46-.02.682.04.16.052.314-.011.467-.014.833-.016 1.666.009 2.497.036.38.012.77-.068 1.147.072.077.029.192-.065.29-.066.396-.001.792-.001 1.187.022.717.041 1.436.018 2.153.033.777.018 1.553.02 2.33.056.337.018.674.02 1.011.004.442-.025.888.009 1.332.016.125.002.25 0 .386 0l1.028-1.849-31.36-.29v-.689c.038-.07.077-.18.167-.132.248.129.491-.006.737.008.507.028 1.017.03 1.525.04.408.01.82.012 1.23.013 1.311.004 2.623.041 3.934.057 1.066.012 2.13.018 3.196.016.84 0 1.68.07 2.52.065.35-.002.701 0 1.028 0a.137.137 0 0 0 0-.166 3.52 3.52 0 0 0-1.194-1.347c-.677-.47-1.36-.937-1.931-1.54-.363-.383-.723-.767-.977-1.237-.294-.543-.597-1.075-.746-1.689-.108-.445-.22-.888-.287-1.34a6.85 6.85 0 0 1 .024-1.915c.058-.454.139-.904.242-1.35.077-.327.234-.619.332-.935a6.658 6.658 0 0 1 1.37-2.402c.546-.634 1.225-1.094 1.92-1.538.184-.117.357-.254.55-.354a2.06 2.06 0 0 0 .76-.729.966.966 0 0 0 .187-.544 3.294 3.294 0 0 0-.172-1.012 10.827 10.827 0 0 1-.394-1.387 3.404 3.404 0 0 1 .595-2.74c.544-.762 1.288-1.3 2.122-1.706.591-.277 1.2-.513 1.823-.707a6.182 6.182 0 0 0 1.607-.751c.75-.516 1.282-1.24 1.872-1.908.364-.412.698-.842 1.128-1.197.68-.56 1.412-.945 2.3-1.06 1.546-.2 2.783.296 3.755 1.512.438.548.77 1.164 1.17 1.736.48.7 1.08 1.31 1.77 1.805.596.407 1.229.756 1.89 1.044a9.52 9.52 0 0 1 2.152 1.278c.17.137.331.284.485.439.383.361.716.773.99 1.223.349.643.638 1.318.863 2.014.243.74.421 1.5.532 2.271.055.363.047.73.087 1.093.052.456.059.916.02 1.373a10.913 10.913 0 0 1-.57 2.677 6.094 6.094 0 0 1-.893 1.731c-.166.215-.324.436-.504.678.235.078.355.268.516.41a8.607 8.607 0 0 1 1.575 1.89 7.462 7.462 0 0 1 1.004 2.574c.1.514.166 1.034.196 1.557.023.42.057.843.038 1.262-.02.489-.105.975-.152 1.462a7.085 7.085 0 0 1-.592 2.21c-.135.305-.3.594-.437.901a5.655 5.655 0 0 1-1.228 1.674 7.886 7.886 0 0 1-2.178 1.574c-.808.385-1.667.54-2.502.8a.583.583 0 0 1-.102.016c-.588.073-1.18.079-1.77.112-.536.012-1.072-.019-1.603-.09a.619.619 0 0 0-.36.024.372.372 0 0 0-.052.273c-.006.941-.016 1.882-.015 2.824 0 .179-.037.316-.211.389-.27-.061-.279-.061-.276-.363.018-1.719.041-3.437.06-5.155.005-.479 0-.957 0-1.427l-3.577-.148-.203 7.702c.427.01.816-.002 1.199-.02.443-.038.888-.047 1.332-.027.465.024.931.022 1.396-.005.25.05.498.11.754.039.179-.044.363-.059.546-.044.285.013.576.039.854.027.662-.028 1.323-.025 1.984-.036.504-.007 1.01.01 1.513-.009.5-.019.994.055 1.496.007.702-.066 1.41.013 2.117-.047.582-.038 1.166-.04 1.748-.007.671.027 1.347-.098 2.014.057a.243.243 0 0 0 .134-.02c.165-.05.338-.067.51-.052.64-.004 1.281-.005 1.922-.008zM61.874 88.293c2.552.074 4.78-2.008 4.902-4.638.127-2.753-2.118-5.116-4.87-5.094-2.487.02-4.694 1.83-4.908 4.767.052 2.588 1.897 4.922 4.876 4.965zm-13.854-5.798a.77.77 0 0 0 .378.105c.28.03.564.038.845.063 1.334.118 2.673.136 4.011.168.57.015 1.142.003 1.737.003.079-.844.299-1.669.65-2.44-.279-.048-.527.007-.776.01-1.228.01-2.456.018-3.683.022-.386.002-.779-.03-1.155-.002-.466.035-.933.024-1.398.055a2.17 2.17 0 0 0-.609.1v1.916zm6.94.757c-2.2.175-4.385.168-6.609.19.553.698 1.212 1.232 1.783 1.85.056.04.125.059.193.052.598-.01 1.196.032 1.793.036.549.004 1.1.008 1.65 0 .488-.007.976.067 1.487-.001a9.883 9.883 0 0 1-.298-2.127zm1.216 2.439c-.103-.385-.25-.76-.3-1.15-.148-1.145-.123-2.274.37-3.361.174-.42.382-.824.622-1.21a5.81 5.81 0 0 1 2.659-2.166 6.904 6.904 0 0 1 1.678-.446c.59-.08 1.19-.064 1.774.047.671.13 1.32.36 1.924.679.207.104.362.286.555.391.304.184.58.408.824.666.755.725 1.159 1.66 1.515 2.62.11.295.063.61.117.912.094.636.1 1.281.016 1.919-.013.09-.038.177-.074.26a9.835 9.835 0 0 0-.36 1.087c.166-.017.301.036.44-.043.215-.58.355-1.185.417-1.8a5.186 5.186 0 0 0-.066-1.88c-.116-.464-.187-.94-.464-1.35-.148-.219-.17-.494-.304-.724a6.589 6.589 0 0 0-.753-1.024 6.264 6.264 0 0 0-3.142-1.935 6.165 6.165 0 0 0-3.462.061c-1.779.547-3.112 1.64-3.928 3.307-.474.97-.756 2.004-.656 3.115.034.503.115 1.001.242 1.489.042.118.06.242.055.367-.015.192.019.203.301.169zm21.676-20.297c-1.473 1.726-2.984 3.36-4.5 5.094.39-.029.689.03.994.035a.565.565 0 0 0 .518-.243c.357-.46.735-.904 1.098-1.36.777-.974 1.551-1.95 2.324-2.928.152-.192.306-.383.478-.598h-.912zM49.782 79.876c.723.094 1.405.028 2.11.084.001-.29.162-.517.14-.806-.704.057-1.395.012-2.069.108l-.181.614z"/>
        <path fill="#A3AE71" d="M82.075 62.636c.175-.073.21-.21.21-.389 0-.941.01-1.883.016-2.824a.372.372 0 0 1 .052-.273.619.619 0 0 1 .36-.024c.53.071 1.067.102 1.602.09.59-.033 1.183-.04 1.771-.112a.583.583 0 0 0 .102-.015c.835-.26 1.694-.416 2.502-.8a7.886 7.886 0 0 0 2.178-1.574 5.655 5.655 0 0 0 1.229-1.675c.136-.307.302-.596.436-.9.316-.7.516-1.447.592-2.211.048-.487.132-.973.153-1.462.018-.42-.015-.842-.038-1.262a11.73 11.73 0 0 0-.196-1.557 7.462 7.462 0 0 0-1.004-2.574 8.607 8.607 0 0 0-1.575-1.89c-.162-.142-.282-.333-.516-.41.18-.242.337-.463.503-.678.389-.525.69-1.11.894-1.731.301-.865.493-1.764.57-2.677a6.937 6.937 0 0 0-.02-1.373c-.04-.363-.032-.73-.088-1.093-.11-.771-.288-1.531-.532-2.27a11.853 11.853 0 0 0-.863-2.015 5.882 5.882 0 0 0-.99-1.224 6.065 6.065 0 0 0-.485-.439 9.52 9.52 0 0 0-2.152-1.277 11.452 11.452 0 0 1-1.89-1.045 7.294 7.294 0 0 1-1.771-1.804c-.4-.573-.731-1.188-1.17-1.737-.971-1.215-2.208-1.711-3.754-1.511-.888.115-1.621.5-2.3 1.06-.43.354-.765.785-1.128 1.196-.59.668-1.122 1.392-1.872 1.908a6.182 6.182 0 0 1-1.607.752c-.623.193-1.232.43-1.823.706-.835.407-1.58.944-2.122 1.706a3.404 3.404 0 0 0-.595 2.74c.1.47.232.934.393 1.387.11.326.169.668.173 1.013a.966.966 0 0 1-.188.543 2.06 2.06 0 0 1-.76.729c-.192.1-.365.237-.55.355-.694.444-1.374.903-1.92 1.537a6.658 6.658 0 0 0-1.37 2.402c-.097.316-.254.608-.332.936-.103.446-.184.896-.241 1.35a6.85 6.85 0 0 0-.025 1.913c.067.453.18.896.287 1.341.15.615.453 1.146.746 1.69.254.469.615.854.977 1.236.572.603 1.255 1.07 1.931 1.54.508.339.92.803 1.195 1.348a.137.137 0 0 1 0 .165c-.328 0-.678-.002-1.029 0-.84.006-1.679-.065-2.52-.064-1.065 0-2.13-.005-3.195-.017-1.312-.015-2.623-.052-3.935-.057-.41 0-.821-.003-1.23-.012-.507-.011-1.017-.012-1.525-.04-.245-.014-.488.12-.736-.009-.09-.047-.13.062-.167.133-.15-.106-.351-.08-.496-.199-.005-.114-.015-.229-.015-.343a97.18 97.18 0 0 1 .047-2.918c.033-1.03.008-2.061.01-3.092.004-1.63.005-3.26.016-4.89.007-.972.033-1.944.053-2.915a3.731 3.731 0 0 1 .027-.715c.567-.104 1.125-.13 1.66-.26.079-.315-.024-.597-.021-.882.01-.966-.002-1.931-.008-2.897 0-.086.03-.186-.08-.257l-16.492 2.188a.41.41 0 0 1-.013-.314c.22-.818.311-1.666.27-2.513a7.686 7.686 0 0 0-.341-2.055c-.368-1.126-1.092-2.012-1.997-2.745-.838-.66-1.764-1.2-2.75-1.605a8.677 8.677 0 0 1-2.023-1.146c-.396-.316-.773-.662-.911-1.178a1.664 1.664 0 0 1 .047-1.139c.22-.51.584-.906.949-1.296.422-.452.87-.878 1.255-1.367a5.51 5.51 0 0 0 1.016-1.96c.34-1.22.168-2.398-.284-3.53a6.923 6.923 0 0 0-1.294-2.09 8.775 8.775 0 0 0-2.095-1.696 7.588 7.588 0 0 0-2.305-.87 7.41 7.41 0 0 0-2.844-.092 9.613 9.613 0 0 0-2.541.814c-.336.164-.379.153-.662-.11a38.599 38.599 0 0 1 3.113-2.067c.778-.461 1.576-.889 2.362-1.335 1.018-.578 2.084-1.054 3.138-1.554.723-.343 1.471-.634 2.218-.925.864-.337 1.74-.634 2.614-.941.484-.171.98-.31 1.476-.446.44-.121.88-.25 1.322-.372a38.752 38.752 0 0 1 2.398-.587c.504-.106 1.012-.183 1.515-.295.523-.116 1.062-.155 1.59-.251.732-.133 1.475-.173 2.21-.285.42-.064.844-.056 1.265-.106.6-.072 1.209-.104 1.814-.124.756-.025 1.513-.02 2.27-.026.8-.006 1.601.009 2.399.074 1.036.084 2.075.137 3.108.264 1.17.143 2.327.35 3.488.54.928.15 1.839.373 2.748.596 1.42.348 2.822.765 4.206 1.248 1.047.365 2.095.73 3.107 1.178 1.23.545 2.465 1.081 3.653 1.72 1.3.7 2.596 1.403 3.834 2.207 1.249.812 2.485 1.64 3.65 2.571.985.787 1.967 1.572 2.9 2.421.915.833 1.814 1.681 2.672 2.571.53.55 1.052 1.111 1.534 1.708.344.427.708.84 1.078 1.244.326.357.598.755.892 1.134.484.623.947 1.263 1.4 1.909a38.47 38.47 0 0 1 1.675 2.59c.273.463.578.908.824 1.385.368.709.774 1.396 1.112 2.125.3.65.66 1.277.948 1.936.299.68.59 1.364.855 2.059.257.672.546 1.331.77 2.016.225.685.476 1.363.67 2.057.272.97.58 1.93.775 2.92.15.762.356 1.514.499 2.277.092.494.188.989.239 1.49.047.466.144.926.202 1.39.08.635.147 1.271.213 1.908.106 1.013.15 2.032.165 3.048.01.64.077 1.28.025 1.92-.058.71-.019 1.422-.064 2.13-.07 1.107-.15 2.217-.296 3.317a73.18 73.18 0 0 1-.345 2.308c-.132.801-.313 1.591-.462 2.389-.086.46-.2.917-.322 1.37-.058.215-.121.455-.417.477a.15.15 0 0 0-.127.103c-.065.171-.197.312-.224.5-.64.002-1.282.003-1.923.008a1.364 1.364 0 0 0-.51.05.243.243 0 0 1-.133.021c-.668-.155-1.343-.03-2.014-.057a14.142 14.142 0 0 0-1.748.007c-.707.06-1.415-.019-2.118.047-.502.048-.997-.025-1.496-.006-.503.019-1.008 0-1.513.008-.661.01-1.322.008-1.983.036-.279.012-.57-.014-.854-.026-.183-.015-.368 0-.546.043-.256.072-.505.011-.755-.039.064-.036.161.011.205-.08.014-.176-.112-.312-.137-.477z"/>
        <path fill="#333" d="M20.91 9.315c.284.263.327.274.662.11a9.613 9.613 0 0 1 2.542-.814 7.41 7.41 0 0 1 2.843.092c.811.162 1.59.456 2.306.87a8.775 8.775 0 0 1 2.096 1.697c.553.614.991 1.322 1.294 2.09.452 1.13.624 2.31.284 3.53a5.51 5.51 0 0 1-1.016 1.959c-.386.49-.833.915-1.256 1.367-.364.39-.728.786-.949 1.296-.149.363-.165.766-.046 1.14.137.515.514.86.91 1.177.62.471 1.3.857 2.023 1.146.987.406 1.913.946 2.75 1.605.906.733 1.63 1.62 1.998 2.745.206.666.321 1.358.342 2.055a8.184 8.184 0 0 1-.272 2.514.41.41 0 0 0 .014.313l16.493-2.188c.111.07.08.172.08.258.007.965.018 1.93.008 2.896-.003.285.1.567.022.882-.535.13-1.094.156-1.66.26a3.731 3.731 0 0 0-.028.715c-.02.971-.045 1.943-.052 2.914-.012 1.63-.012 3.261-.016 4.892-.002 1.03.023 2.062-.01 3.091a96.76 96.76 0 0 0-.047 2.918c0 .114.01.229.015.344-.013.757-.032 1.514-.035 2.272-.004.779-.01 1.558-.035 2.337-.02.605.042 1.213.038 1.82-.006 1.198-.038 2.395-.05 3.592-.009.892.007 1.783-.005 2.675-.01.777.002 1.554-.028 2.332-.014.348.022.71-.025 1.05-.078.561-.05 1.12-.07 1.679-.015.457-.002.916-.002 1.401-.337.01-.638.03-.945.022-.501-.015-1.003.015-1.505.012-.604-.003-1.208-.023-1.811-.03a36.665 36.665 0 0 0-1.19.006 8.905 8.905 0 0 1-1.283-.01c-.16-.011-.32-.01-.48.002-.73.014-1.46.051-2.188.032-.364-.01-.729.014-1.091-.025-.23-.025-.462.028-.684-.006-.438-.067-.87.032-1.306.004-.444-.028-.893.016-1.338-.007-.524-.028-1.048.047-1.605-.001l-.076-1.028c4.455 0 8.893.014 13.345.01.037-4.367.074-8.682.113-13.046-11.836.003-23.641.048-35.496.062.082.442.007.858.01 1.274.003.433-.029.869.008 1.3.036.432.013.864.017 1.295.004.43-.041.87-.032 1.294.009.427 0 .861.031 1.291.032.428-.006.86-.007 1.291 0 .43 0 .862.016 1.29.016.433-.016.864.006 1.296.021.433.02.866.008 1.299-.011.432.008.86.02 1.333H30.3c.065-.533.034-1.055.047-1.575.018-.663.002-1.327.004-1.991.006-1.491.012-2.982.02-4.474.004-.81.004-1.62.009-2.431.003-.47.216-.692.697-.712.717-.03 1.434-.047 2.15-.072.595-.02 1.19-.036 1.785-.045.08-.004.161-.003.242.002a.204.204 0 0 1 .21.252c-.106 1.316 0 2.632.025 3.947.022 1.13.07 2.261.07 3.39 0 .643.028 1.284.043 1.925.012.492.051.981.041 1.476-.007.362.113.723.101 1.092a.43.43 0 0 1-.03.25c-.45.034-.903.039-1.354.016-.578-.006-1.157-.008-1.735-.02-.284-.005-.568.011-.852.01-1.19-.005-2.38.018-3.57.004a11.56 11.56 0 0 1-1.337-.035c-.262-.033-.543.065-.807-.056-.697.18-1.407.079-2.109.067-.626-.01-1.25.035-1.877.016-.652-.02-1.305.023-1.956 0-.397-.014-.8-.043-1.19-.03-.358.013-.719-.012-1.078.013-.408.045-.82.039-1.227-.018-.218-.04-.431.011-.645.017-.87.021-1.739.002-2.608.02-.386.008-.77-.094-1.155-.007-.189.042-.358-.131-.525-.074-.16.052-.33.072-.5.06-.533-.013-1.07.028-1.602-.002-.655-.037-1.308.025-1.962.005-.672-.02-1.345-.004-2.072-.004.412.951.857 1.819 1.317 2.68a69.42 69.42 0 0 0 1.476 2.581c-.37.046-.743.06-1.115.045-.155 0-.213-.125-.268-.237-.187-.379-.42-.73-.614-1.106-.233-.454-.51-.888-.739-1.346-.376-.755-.79-1.494-1.102-2.28-.093-.234-.219-.451-.306-.688a.943.943 0 0 1-.049-.645c1.563-.07 3.149-.017 4.733-.024 1.578-.006 3.157-.001 4.74-.001a.976.976 0 0 0 .048-.507 7.88 7.88 0 0 1-.023-1.67c.06-.522.015-1.048.013-1.572-.004-1.383-.035-2.767.006-4.148.04-1.4.065-2.798.074-4.197.001-.126-.003-.253-.005-.379.017-.365 0-.731-.05-1.094-.064-.352-.028-.724-.036-1.101-.148-.008-.261-.01-.375-.02-.375-.031-.753-.05-1.125-.104-.601-.087-1.175-.29-1.756-.46-.208-.062-.422-.11-.625-.187A8.429 8.429 0 0 1 7.23 52.4a9.788 9.788 0 0 1-1.435-1.424c-.274-.356-.484-.747-.722-1.123a8.521 8.521 0 0 1-.876-1.934 7.12 7.12 0 0 1-.328-3.042c.093-.75.267-1.487.518-2.199.339-.996.829-1.93 1.296-2.87.422-.85.84-1.7 1.11-2.617.204-.737.352-1.488.44-2.247a.24.24 0 0 0-.144-.28 1.77 1.77 0 0 1-.433-.335c-.439-.408-.68-.93-.898-1.474a4.52 4.52 0 0 1-.275-1.819c.012-.523.16-1.028.293-1.534.086-.325.271-.605.378-.917.254-.7.608-1.359 1.052-1.957.525-.735 1.158-1.388 1.775-2.05.487-.522 1.013-1.008 1.445-1.586.256-.35.474-.728.649-1.125.211-.436.277-.928.187-1.404-.105-.55-.171-1.108-.354-1.642a.956.956 0 0 0-.05-.335c-.132-.646-.255-1.293-.384-1.94a7.579 7.579 0 0 1-.087-2.177c.046-.59.157-1.175.328-1.742a5.89 5.89 0 0 1 1.225-2.202c.937-1.046 2.072-1.779 3.47-2.062a7.472 7.472 0 0 1 2.011-.15 7.91 7.91 0 0 1 3.042.872c.15.076.258.232.449.23zm3.859 42.062c-.21.21-.4.44-.567.686-.182.238-.404.451-.541.73.763.111 1.504-.089 2.262.014.019.23.02.46.005.69-.858.013-1.702.044-2.545.03-.829-.012-1.657-.01-2.486-.01H18.35c.011-.227-.026-.43.014-.612.085-.112.228 0 .279-.104.048-.67-.031-1.32-.03-1.972 0-.663-.055-1.326-.032-1.988.022-.646-.09-1.286-.03-1.926h-4.056c-.066 1.54-.037 3.033-.021 4.523.016 1.497-.025 2.996.04 4.504l35.475-.069.085-9.428c-.748-.053-1.464.043-2.248.023.068.966.109 1.907.127 2.849.018.945.094 1.89.065 2.858-.288.048-.582.06-.873.034-.206-.57.028-1.129-.055-1.764l-.958 2.213c.059.013.118.022.178.027.47-.016.942.025 1.411-.04.19-.025.386-.037.531.066v.779c-2.553-.063-5.08.063-7.59.01a.44.44 0 0 1-.054-.296 1.406 1.406 0 0 1 .023-.435c.11-.101.26-.01.396-.13l.136-6.088-4.36.07c.06.654-.02 1.27-.005 1.89.014.618.003 1.243.01 1.863.008.618-.021 1.233.007 1.87h-.983c-.052-.275.027-.557-.048-.857-.519.456-1.03.862-1.537 1.328 1.04.114 2.022-.116 3.031.029.01.252 0 .505-.034.755-.419-.062-.823.048-1.234-.02a2.584 2.584 0 0 0-.812-.022c-.31.05-.611.006-.916.034-.438.041-.883-.021-1.326 0-1.183.056-2.367-.01-3.55.028a.56.56 0 0 1-.2-.043.442.442 0 0 1-.25-.41c.016-.18.137-.242.3-.276.109-.023.23.034.339-.056.012-.127.036-.263.037-.398.002-.76-.007-1.52-.002-2.28.007-.999.024-1.996.034-2.995.002-.122.02-.252-.086-.347l-4.006.062c.075 1.863-.004 3.685.084 5.509a3.833 3.833 0 0 1-.891.08v-.995c.025.017.035.014.032-.007l-.028.014zm4.917-5.108c-.069-.384.025-.722-.09-1.058-.077-.232.041-.39.283-.457.134-.03.272-.038.41-.026.706.025 1.41-.02 2.115-.029.688-.007 1.376.005 2.064-.011.153-.004.275.098.433.06.515-.123 1.046-.025 1.565-.096a.255.255 0 0 1 .289.19c.044.116.102.267.062.366-.134.337.084.662-.023.976h4.336a.774.774 0 0 0 .05-.335c.02-.24.043-.477-.208-.636-.103-.065-.088-.174-.031-.276a.553.553 0 0 1 .532-.308c.33.007.662.017.993.015.628-.005 1.256-.032 1.884-.02.607.01 1.21-.03 1.817-.032.4-.002.798-.015 1.197-.02a.61.61 0 0 1 .52.197c-.066.434-.134.894-.03 1.366.748 0 1.478.003 2.221-.035l.057-6.324a.694.694 0 0 0-.362-.044c-.87.02-1.742.022-2.611.07-1.828.1-3.66.09-5.488.172-1.877.084-3.757.112-5.635.166-.754.022-1.508.07-2.261.064-.664-.004-1.323.055-1.984.07-.844.018-1.688.044-2.531.066-.695.019-1.39.032-2.085.054-.996.032-1.99.075-2.986.104-.938.027-1.877.02-2.812.128-1.077.125-2.155.236-3.234.35-.554.058-1.11.096-1.663.168-.66.107-1.328.166-1.998.177-.023.16-.038.32-.044.48.011.691.023 1.382.012 2.073-.01.635.005 1.27.017 1.904.003.189-.064.385.045.577h4.005c-.04-.791-.012-.783.124-1.23.074-.247.203-.3.418-.302.846-.013 1.692.004 2.538-.025.846-.03 1.69-.022 2.536-.028.41-.003.819 0 1.265 0 0 .282-.002.532 0 .782.002.079-.01.21.03.229.223.112.102.33.169.488h4.089zm-17.293-5.73c.475-.066.934-.158 1.397-.188.641-.042 1.27-.163 1.903-.255.73-.107 1.465-.193 2.196-.298.45-.065.905-.095 1.356-.154.482-.062.96-.165 1.444-.207.752-.065 1.49-.219 2.236-.32.42-.056.837-.13 1.258-.162.51-.038 1.014-.13 1.52-.194.404-.05.813-.107 1.217-.157.837-.104 1.675-.208 2.51-.33.665-.097 1.332-.184 2-.272.45-.06.903-.1 1.354-.157.224-.018.447-.048.668-.091.32-.075.643-.122.97-.143.744-.053 1.471-.212 2.209-.303.454-.056.905-.133 1.358-.191.506-.065 1.015-.109 1.52-.18.415-.06.83-.12 1.245-.167a51.66 51.66 0 0 0 2.445-.319c.673-.108 1.35-.17 2.023-.277.303-.048.61-.078.916-.107.674-.064 1.344-.181 2.017-.271.724-.097 1.453-.158 2.171-.286.75-.134 1.51-.185 2.26-.322.265-.049.535-.066.842-.102-.156-.633-.093-1.267-.231-1.9-.348.077-.687.08-1.024.14-.513.091-1.038.097-1.553.188-.234.053-.47.093-.708.12-.743.052-1.47.21-2.21.285-.532.054-1.062.126-1.592.2-.731.101-1.463.202-2.197.288-1.145.134-2.278.352-3.43.43-.237.015-.468.11-.712.055-.061-.014-.105.038-.158.057a1.435 1.435 0 0 1-.296.081c-.778.098-1.558.185-2.335.286-1.108.145-2.211.327-3.325.433-.25.009-.499.038-.744.087-.398.104-.809.098-1.209.18-.354.072-.717.079-1.073.125-.623.081-1.242.188-1.863.276-.476.068-.953.122-1.43.185-.476.063-.953.09-1.428.182-.433.084-.88.127-1.322.179-.678.079-1.354.17-2.03.26-.566.074-1.13.162-1.697.232-.431.054-.87.062-1.295.141-.468.088-.942.127-1.41.209-.28.048-.564.05-.84.089-.475.067-.952.131-1.423.215-.888.158-1.786.222-2.679.328-.312.037-.6.149-.92.148.02.66.005 1.293.1 1.954zm23.403 10.327c.03-1.85-.028-3.624-.044-5.39-.443-.091-.86-.058-1.262-.056-.463.002-.933.03-1.399.038-.791.013-1.583.001-2.374.005-.254.001-.277.037-.259.28.03.272.044.545.043.818a23.998 23.998 0 0 0-.01 1.806c.019.522-.01 1.045-.008 1.568.001.315.02.63.03.931h5.283zm-10.983-5.403c-1.832.077-3.666.005-5.529.054.017 1.592-.078 3.158-.017 4.748l5.546.053v-4.855zm22.57-.047c-1.932-.04-3.855.003-5.787.016-.073.438.107.86-.038 1.268.047.973.035 1.947.05 2.92a.668.668 0 0 0 .034.125c.924-.03 1.848.053 2.774.051.921-.001 1.842.07 2.776.05a6.587 6.587 0 0 1 .02-.936c.021-.297.032-.594.048-.891.016-.286.038-.571.05-.857.01-.278-.003-.56.01-.835.013-.293.088-.584.063-.911zm2.752-7.933l-18.341 2c.625-.015 1.25.107 1.873-.006a.622.622 0 0 1 .103 0c.557-.005 1.113-.006 1.67-.025 1.149-.039 2.297-.046 3.446-.068.79-.015 1.58-.043 2.37-.047.628-.002 1.26.015 1.883-.004.645-.02 1.296-.033 1.943-.063 1.28-.06 2.562-.05 3.843-.072.398-.007.796-.024 1.21-.038v-1.677zm.221 18.828v13.024c.33-.016.644.031.993-.05 0-.555.028-1.102-.008-1.646-.036-.547.121-1.09.014-1.636a.653.653 0 0 1-.007-.171c.058-.797.032-1.595.039-2.393.005-.722.016-1.443.01-2.165 0-.161.118-.3.053-.47a1.167 1.167 0 0 1-.04-.477c.018-.431.055-.864.042-1.294-.022-.722.003-1.443.004-2.164 0-.187.058-.387-.046-.58-.341.008-.681-.045-1.054.022zm.036-9.885v9.433h1.024c.08-.2.1-.418.054-.627a.618.618 0 0 1-.004-.138c.054-.49-.11-.988.046-1.476a.256.256 0 0 0-.004-.102c-.064-.536-.01-1.074-.003-1.61.008-.602.04-1.208.038-1.806-.002-.79.022-1.58.001-2.37-.011-.43-.002-.861-.002-1.304h-1.15zm.02-6.708c-.07 2.366-.052 6.083.032 6.366h1.12c-.008-.415.036-.812.036-1.199 0-.467-.002-.934.005-1.402.01-.687 0-1.374.004-2.06.003-.567-.037-1.136.061-1.728-.43-.072-.832.04-1.258.023zm-19.28 29.594c1.27-.008 2.52.044 3.78-.01a1.381 1.381 0 0 0-.03-.648c-.746 0-1.473.002-2.2 0a8.43 8.43 0 0 1-1.09-.025 1.01 1.01 0 0 0-.488.052c-.015.21-.006.422.028.63zm3.788-1.437l-.071-6.14-.04-.002-.65 6.143h.76zM51.636 37.32a9.928 9.928 0 0 0-1.217.152v.844c0 .28-.08.56.01.838h1.185c.04-.61.048-1.223.021-1.834h.001z"/>
        <path fill="#A3AE71" d="M10.908 18.821c.182.533.248 1.092.354 1.642.089.475.023.968-.188 1.403a6.057 6.057 0 0 1-.649 1.126c-.432.577-.957 1.064-1.445 1.586-.617.662-1.25 1.314-1.775 2.05a7.668 7.668 0 0 0-1.051 1.957c-.107.312-.292.592-.378.917-.134.506-.282 1.01-.294 1.534a4.52 4.52 0 0 0 .275 1.819c.219.544.46 1.066.898 1.474.126.134.273.247.434.335a.24.24 0 0 1 .144.28c-.089.76-.236 1.511-.441 2.248-.27.917-.688 1.767-1.11 2.617-.467.94-.957 1.874-1.296 2.87-.251.713-.425 1.45-.518 2.199a7.12 7.12 0 0 0 .328 3.042c.21.679.504 1.329.876 1.934.238.376.448.768.722 1.123.428.523.909 1 1.435 1.424a8.429 8.429 0 0 0 2.543 1.464c.203.076.417.125.625.186.58.17 1.155.373 1.756.46.372.055.75.073 1.125.105.113.01.227.012.375.019.008.378-.028.749.036 1.101.05.363.067.729.05 1.094l-.677-.06a.307.307 0 0 0-.313-.097c-.265.02-.522-.035-.784-.035-1.267-.003-2.534-.03-3.801-.06-1.635-.04-3.27-.057-4.906-.09-.777-.014-1.555.024-2.332-.04a.707.707 0 0 0-.198.043c-.094-.436-.224-.865-.237-1.315a.184.184 0 0 0-.046-.125c-.275-.228-.252-.555-.273-.856-.06-.88-.112-1.76-.142-2.64a40.406 40.406 0 0 1 .024-3.678c.038-.659.049-1.32.106-1.978.063-.74.172-1.478.248-2.217.06-.58.132-1.158.227-1.733.15-.902.332-1.798.529-2.692.09-.413.17-.83.274-1.239.214-.84.453-1.672.697-2.504.283-.964.595-1.918.963-2.855.209-.532.404-1.069.62-1.598.281-.689.55-1.382.871-2.053.277-.577.529-1.168.839-1.726.415-.75.768-1.531 1.232-2.254.27-.423.497-.875.761-1.302.132-.213.266-.428.408-.633.442-.638.822-1.316 1.307-1.928.338-.427.625-.902.961-1.334.266-.34.484-.719.81-1.01z"/>
        <path fill="#333" d="M68.14 67.907c-.031.11-.115.11-.195.11-1.124.017-2.248.033-3.372.047-.457.005-.914.001-1.367.001-.231.4-.431.819-.599 1.25.276.063.53-.05.8.056.075.312.046.644.097.955-.162.137-.327.075-.483.069-.394-.017-.788-.06-1.18.005a2.037 2.037 0 0 1-.373-.021c-.406-.005-.814.036-1.218.01-.637-.04-1.273.002-1.909-.006-.387-.006-.774.018-1.161.007-.5-.016-1-.018-1.497-.024-.385-.005-.775-.08-1.172.01-.268.061-.562-.019-.85.009-.336.032-.677.007-1.026.007a5.533 5.533 0 0 1-.045-1.036c1.048-.09 2.082.038 3.149-.023 0-.248-.004-.462 0-.677.02-.844.023-1.688.058-2.531.008-.206.046-.432-.066-.634a.14.14 0 0 1-.001-.101c.172-.492.067-1 .086-1.5.037-.924.035-1.848.049-2.772.014-.991.03-1.982.04-2.973.002-.216.057-.433-.008-.666-.15-.072-.332-.015-.505-.087a3.15 3.15 0 0 1 .063-.89c2.11.052 4.206.057 6.303.079 2.102.022 4.205.043 6.308.086 2.095.043 4.192.001 6.273.091.08.208.096.435.044.65-.125.093-.277.078-.459.096-.088 2.245-.062 4.498-.137 6.765h-.528v-1.53c-.348-.088-15.77-.175-16.83-.1.01.79-.038 1.582 0 2.38.15.074.288.013.42.017.777.03 1.554.047 2.332.069.959.026 1.919.038 2.877.084 1.52.074 3.042.08 4.562.155.665.032 1.33.028 1.994.053a.63.63 0 0 1 .335.053c.064.03.107.091.115.161a.187.187 0 0 1-.14.177.493.493 0 0 1-.17.023l-2.992.002c-1.157.001-2.314.006-3.471.004-.967-.002-1.933.03-2.9-.002a17.65 17.65 0 0 0-1.288.01c-.435.018-.867-.034-1.302-.013a.753.753 0 0 0-.362.064v1.802c.319.076.63.039.935.043 2.098.025 4.196.033 6.294.051 1.367.012 2.733.029 4.1.05.127.001.279-.06.373.085zm5.039-8.136c-5.582-.059-11.164-.105-16.733-.185v2.598l16.791.26c-.025-.896.004-1.757-.058-2.673zm-16.742-.444l16.74-.096c0-.3.003-.572-.001-.845-.005-.282-.017-.564-.027-.862-5.583-.086-11.135-.07-16.712-.095v1.898zM13.012 57.742v.699c-.448.053-.9.045-1.346-.023-.017 1.518.066 3.023.083 4.529.017 1.49.05 2.98.117 4.472l1.088.05v.775a.414.414 0 0 1-.284.091c-.447-.009-.893.007-1.34-.015-.454-.023-.91-.005-1.39-.005-.047-.291.019-.581.022-.896.38.02.76.019 1.14-.003l.226-8.98H9.304c.017 3.278.038 6.543.09 9.836-.656.051-1.29.012-1.931.01-.082-.287-.044-.548-.044-.83.414-.132.842.006 1.283-.086l.162-8.969H6.969c0 .303-.002.598 0 .893.002.309.012.617.014.926 0 .299-.008.597-.009.896 0 .293.005.585.007.878.002.296.015.592-.001.887-.018.309.008.616.008.924-.001.299-.004.597.012.894.016.298-.008.597-.01.894.01.297.002.595-.025.891-.041.291.107.6-.07.882.184.28.008.574.083.872-.547.02-1.045.1-1.556-.032a3.577 3.577 0 0 1-.01-.788c.294-.058.58.033.904-.027l.244-9.008c-.608-.054-1.208-.01-1.85-.039-.01 1.67.014 3.315.062 4.96.049 1.647-.128 3.284-.127 4.941a8.034 8.034 0 0 1-1.038.043c-.201-.406-.414-.81-.576-1.238-.258-.684-.483-1.378-.711-2.072-.358-1.085-.64-2.189-.917-3.296a52.855 52.855 0 0 1-.678-3.217 6.866 6.866 0 0 1-.11-.727c4.125-.006 8.244-.003 12.397.008zm-11.208.537A44.264 44.264 0 0 0 4.01 66.47c.136-2.71.244-5.414.316-8.133l-2.522-.06zM25.6 65.27h-.89c-.104-.251-.065-.492-.057-.728.008-.22.062-.44-.01-.727l-1.454 1.97h2.744v.73c-.498.06-1.007.008-1.512.032-.515.024-1.031.013-1.547.016-.504.002-1.008 0-1.513.001h-3.12l-.055-.714c.121-.102.26-.01.4-.083.074-.305.04-.636.05-.962.04-1.38.073-2.762.099-4.143.012-.641.032-1.282.06-1.922-.005-.31-.03-.62-.073-.928a.43.43 0 0 1 .318-.098c.798-.013 1.595-.019 2.393-.028.354-.005.708-.033 1.06-.016.809.037 1.616-.031 2.423-.015a.58.58 0 0 1 .294.057c.298.164.371.313.233.628a.566.566 0 0 0-.044.262c.026.776.05 1.55.074 2.326.023.743.075 1.485.105 2.227.04.523.044 1.049.012 1.573-.017.178.072.359.01.543zm-.603-6.776h-5.86c.088 1.562.014 3.082.078 4.608 1.136.025 2.232.049 3.329.075.638.015 1.276.038 1.915.05.28.005.292-.021.304-.286.031-.719.066-1.438.103-2.156.04-.752.086-1.505.13-2.29zM45.352 65.836h3.024c.037.255.053.513.046.77-2.642.064-5.258-.024-7.893.05-.032-.25-.03-.503.005-.753.152-.081.31-.009.478-.078.118-2.649.06-5.315.268-7.967a.249.249 0 0 1 .222-.081c.39.036.776-.028 1.165-.014.5.018 1.001-.008 1.502-.012 1.077-.01 2.153-.02 3.23-.023.37-.001.619.277.484.597-.132.313-.077.613-.057.912.038.573.036 1.147.064 1.72.033.698.073 1.397.076 2.096.002.706.06 1.409.093 2.113-.002.05-.006.1-.014.15-.324.046-.638.003-.97.003-.092-.424.075-.816.032-1.21-.205.084-1.456 1.304-1.755 1.727zm2.059-7.297h-5.84l.042 4.691 5.522.15.276-4.84zM.727 56.491a.707.707 0 0 1 .198-.042c.777.063 1.555.025 2.332.04 1.635.032 3.27.049 4.906.089 1.267.03 2.535.057 3.801.06.262 0 .52.056.784.035a.307.307 0 0 1 .313.097l-.057.35c-4.137.036-8.277.103-12.418.06-.17-.289-.032-.492.14-.689zM62.097 81.463c1.062.113 1.696.928 1.741 1.88a1.88 1.88 0 0 1-1.668 1.966 2.046 2.046 0 0 1-.024-.583c.726-.245 1.145-.746 1.064-1.518-.065-.623-.512-.973-1.112-1.144v-.601zM61.651 84.74v.54c-.738.08-1.578-.706-1.702-1.621-.13-.956.443-1.992 1.69-2.194.025.189.031.38.02.57-.647.25-1.108.65-1.096 1.402.01.717.478 1.066 1.088 1.304z"/>
    </g>
</svg>
