<svg xmlns="http://www.w3.org/2000/svg" width="24" height="24" viewBox="0 0 24 24">
    <path fill="#242635" id="a" d="M6 7.5A3.75 3.75 0 1 1 6 0a3.75 3.75 0 0 1 0 7.5zM6 6a2.25 2.25 0 1 0 0-4.5A2.25 2.25 0 0 0 6 6zM2.321 16.5H.75a.75.75 0 0 1-.75-.75V13.5a6.001 6.001 0 0 1 11.42-2.577.75.75 0 1 1-1.355.644A4.501 4.501 0 0 0 1.5 13.5V15H3a.75.75 0 0 1 .746.675L4.43 22.5H7.57l.454-4.54a.75.75 0 0 1 1.492.149l-.52 5.216A.75.75 0 0 1 8.25 24h-4.5a.75.75 0 0 1-.746-.675L2.32 16.5zm13.549-5.175a1.55 1.55 0 0 1 2.74.005l.016.034 1.34 2.886h2.493c.626-.024 1.2.347 1.435.928.234.582.079 1.248-.362 1.64l-2.233 2.2 1.243 2.853a1.536 1.536 0 0 1-2.18 1.924l-3.119-1.755-3.11 1.75a1.536 1.536 0 0 1-2.184-1.93l1.238-2.842-2.204-2.174a1.484 1.484 0 0 1-.396-1.657c.23-.58.799-.955 1.401-.937h2.522l1.36-2.925zm1.368.678c-.018 0-.035.01-.026-.01l-1.544 3.323a.75.75 0 0 1-.68.434h-2.98l2.598 2.56a.75.75 0 0 1 .162.834l-1.439 3.303a.036.036 0 0 0 .01.041c.012.01.028.012.05 0l3.486-1.962a.75.75 0 0 1 .736 0l3.494 1.966c.013.007.03.006.042-.005.011-.01.015-.026.014-.029l-1.443-3.314a.75.75 0 0 1 .162-.833l2.6-2.561h-2.992a.75.75 0 0 1-.68-.434l-1.53-3.293a.05.05 0 0 0-.04-.02z"/>
</svg>
