<?xml version="1.0" encoding="UTF-8"?>
<svg width="22px" height="22px" viewBox="0 0 22 22" version="1.1" xmlns="http://www.w3.org/2000/svg" xmlns:xlink="http://www.w3.org/1999/xlink">
    <!-- Generator: Sketch 63.1 (92452) - https://sketch.com -->
    <title>Get started</title>
    <desc>Created with Sketch.</desc>
    <defs>
        <rect id="path-1" x="0" y="0" width="24" height="24"></rect>
    </defs>
    <g id="Icons" stroke="none" stroke-width="1" fill="none" fill-rule="evenodd">
        <g transform="translate(-436.000000, -131.000000)" id="Get-started">
            <g transform="translate(435.000000, 130.000000)">
                <mask id="mask-2" fill="white">
                    <use xlink:href="#path-1"></use>
                </mask>
                <g id="Mask"></g>
                <g id="get-started" mask="url(#mask-2)" fill="#000000" fill-rule="nonzero" stroke="#000000" stroke-width="0.5">
                    <g transform="translate(2.000000, 2.000000)">
                        <path d="M19.9765625,1.49304688 C19.9332422,0.69859375 19.3014062,0.0668359375 18.5069531,0.0234765625 C16.9039062,-0.0641015625 13.7670312,0.02109375 10.7675,1.57253906 C9.23839844,2.36347656 7.62121094,3.70445313 6.330625,5.25164063 C6.31472656,5.27070313 6.29925781,5.28988281 6.28347656,5.30898437 L3.35457031,5.53523438 C2.87246094,5.5725 2.44304687,5.82519531 2.17640625,6.22847656 L0.178203125,9.25082031 C-0.0240234375,9.55667969 -0.056171875,9.93945312 0.0921484375,10.2747266 C0.240507812,10.6100391 0.545351562,10.8437109 0.90765625,10.8998437 L3.37527344,11.2820312 C3.3665625,11.33 3.3578125,11.3779297 3.34980469,11.4258984 C3.26765625,11.9173047 3.43046875,12.4225391 3.78539062,12.7774219 L7.22257812,16.2146484 C7.51683594,16.5089062 7.91445312,16.6711328 8.321875,16.6711328 C8.40578125,16.6711328 8.49015625,16.6642187 8.57414062,16.6501953 C8.62210937,16.6421875 8.67003906,16.6334375 8.71800781,16.6247266 L9.10019531,19.0923828 C9.15632812,19.4546875 9.39,19.7595703 9.72523437,19.9078906 C9.86472656,19.9696094 10.0123437,20.0000781 10.1592969,20.0000781 C10.3656641,20.0000781 10.5705859,19.9399609 10.7491797,19.821875 L13.7715234,17.8236328 C14.1748437,17.5569531 14.4275,17.1275391 14.4646875,16.6454687 L14.6909375,13.7166016 C14.7100391,13.7008203 14.7292578,13.6853516 14.7483203,13.6694531 C16.2955469,12.3788672 17.6365625,10.7616797 18.4274609,9.23253906 C19.9789844,6.23289063 20.0640234,3.09597656 19.9765625,1.49304688 Z M13.1252344,16.8460547 L10.2341797,18.7575 L9.86167969,16.3526172 C11.0835547,15.9933594 12.2922656,15.4179687 13.4437891,14.6471484 L13.2964062,16.5551562 C13.2872266,16.6741797 13.2248047,16.7802344 13.1252344,16.8460547 L13.1252344,16.8460547 Z M8.05121094,15.3860156 L4.61398437,11.9487891 C4.52628906,11.8610547 4.48574219,11.7378125 4.505625,11.6191016 C4.6078125,11.0080469 4.76660156,10.4263672 4.96316406,9.87839844 L10.1205078,15.0357422 C9.46238281,15.2714844 8.87289062,15.4121094 8.38089844,15.494375 C8.26199219,15.5141406 8.13890625,15.4737109 8.05121094,15.3860156 Z M3.44484375,6.70363281 L5.3528125,6.55625 C4.58195312,7.70777344 4.0065625,8.91648437 3.64730469,10.1383594 L1.24246094,9.76589844 L3.15394531,6.87480469 C3.21980469,6.77519531 3.32585937,6.7128125 3.44484375,6.70363281 L3.44484375,6.70363281 Z M13.9977734,12.7694922 C13.0511719,13.5590625 12.1323047,14.1301562 11.2853516,14.5433984 L5.45640625,8.71445312 C5.99773437,7.60882812 6.65839844,6.68816406 7.23050781,6.00230469 C8.42484375,4.57046875 9.91027344,3.33527344 11.3059375,2.61339844 C14.0588281,1.18945312 16.9592578,1.11277344 18.4431641,1.19355469 C18.6395703,1.20425781 18.7957812,1.36046875 18.8064844,1.55691406 C18.8873828,3.04082031 18.8105469,5.94121094 17.3866016,8.69414062 C16.6647656,10.0897656 15.4295703,11.5751562 13.9977734,12.7694922 Z" id="Shape"></path>
                        <path d="M13.7000391,9.2282422 C14.4501172,9.22816406 15.2005078,8.94261719 15.7715625,8.3715625 C16.3249219,7.81824219 16.6296094,7.08253906 16.6296094,6.30003906 C16.6296094,5.51753906 16.3248828,4.78183594 15.7715625,4.22851562 C14.6292969,3.08621094 12.7707031,3.08628906 11.6285156,4.22851562 C11.0751562,4.78183594 10.7704297,5.51753906 10.7704297,6.30003906 C10.7704297,7.08253906 11.0751953,7.81824219 11.6285156,8.3715625 C12.1996875,8.94273437 12.9496875,9.22832031 13.7000391,9.2282422 Z M12.4570703,5.05710938 C12.7997266,4.71441406 13.2498438,4.54308594 13.6999609,4.54308594 C14.1501172,4.54308594 14.6002344,4.71441406 14.9428906,5.05710938 C15.2748828,5.38910156 15.4576953,5.83050781 15.4576953,6.3 C15.4576953,6.76949219 15.2748828,7.2109375 14.9428906,7.54292969 C14.2575781,8.22828125 13.1423828,8.22824219 12.4570313,7.54292969 C12.1250391,7.2109375 11.9421875,6.76953125 11.9421875,6.30003906 C11.9421875,5.83054687 12.1250781,5.38910156 12.4570703,5.05710938 Z" id="Shape"></path>
                        <path d="M0.597695312,16.4819531 C0.74765625,16.4819531 0.897617187,16.4247656 1.01199219,16.3103125 L2.925,14.3973047 C3.15382812,14.1684766 3.15382812,13.7975 2.925,13.5686719 C2.69621094,13.3398438 2.32519531,13.3398438 2.09636719,13.5686719 L0.183398437,15.4816797 C-0.0454296875,15.7105078 -0.0454296875,16.0814844 0.183398437,16.3103125 C0.297773437,16.4247266 0.447734375,16.4819531 0.597695312,16.4819531 Z" id="Path"></path>
                        <path d="M4.67816406,15.3218359 C4.449375,15.0930078 4.07835937,15.0930078 3.84953125,15.3218359 L0.171640625,18.9997656 C-0.0571875,19.2285938 -0.0571875,19.5995703 0.171640625,19.8283984 C0.286054688,19.9428125 0.435976563,20 0.5859375,20 C0.735898438,20 0.885859375,19.9428125 1.00023438,19.8283594 L4.678125,16.1504688 C4.90699219,15.9216406 4.90699219,15.5506641 4.67816406,15.3218359 Z" id="Path"></path>
                        <path d="M5.60269531,17.075 L3.6896875,18.9880078 C3.46085938,19.2168359 3.46085938,19.5878125 3.6896875,19.8166406 C3.80410156,19.9310547 3.9540625,19.9882813 4.10398437,19.9882813 C4.25390625,19.9882813 4.40390625,19.9310938 4.51828125,19.8166406 L6.43128906,17.9036328 C6.66011719,17.6748047 6.66011719,17.3038281 6.43128906,17.075 C6.2025,16.8461719 5.83148438,16.8461719 5.60269531,17.075 Z" id="Path"></path>
                    </g>
                </g>
            </g>
        </g>
    </g>
</svg>