<svg xmlns="http://www.w3.org/2000/svg" width="24" height="24" viewBox="0 0 24 24">
    <path fill="#242635" fill-rule="evenodd" d="M19.5 16.5v-3A1.5 1.5 0 0 0 18 12H6a1.5 1.5 0 0 0-1.5 1.5v3h15zm0 1.5h-15v3A1.5 1.5 0 0 0 6 22.5h12a1.5 1.5 0 0 0 1.5-1.5v-3zm-12-7.5h9V6a4.5 4.5 0 1 0-9 0v4.5zm10.5 0a3 3 0 0 1 3 3V21a3 3 0 0 1-3 3H6a3 3 0 0 1-3-3v-7.5a3 3 0 0 1 3-3V6a6 6 0 1 1 12 0v4.5zM6.375 14.25a1.125 1.125 0 1 1 2.25 0 1.125 1.125 0 0 1-2.25 0zm0 6a1.125 1.125 0 1 1 2.25 0 1.125 1.125 0 0 1-2.25 0z"/>
</svg>
