<?xml version="1.0" encoding="UTF-8"?>
<svg width="22px" height="20px" viewBox="0 0 22 20" version="1.1" xmlns="http://www.w3.org/2000/svg" xmlns:xlink="http://www.w3.org/1999/xlink">
    <!-- Generator: Sketch 63.1 (92452) - https://sketch.com -->
    <title>social</title>
    <desc>Created with Sketch.</desc>
    <defs>
        <rect id="path-1" x="0" y="0" width="24" height="24"></rect>
    </defs>
    <g id="Icons" stroke="none" stroke-width="1" fill="none" fill-rule="evenodd">
        <g transform="translate(-432.000000, -202.000000)" id="social">
            <g transform="translate(431.000000, 199.000000)">
                <mask id="mask-2" fill="white">
                    <use xlink:href="#path-1"></use>
                </mask>
                <g id="Mask"></g>
                <g id="group-(3)" mask="url(#mask-2)" fill="#000000" fill-rule="nonzero">
                    <g transform="translate(1.000000, 3.000000)">
                        <path d="M20.8323702,12.8186984 C18.9973535,11.7636727 16.9096804,11.1633414 14.747268,11.0025745 C15.1901989,11.2007705 15.6357836,11.3944513 16.0552669,11.635582 C16.542994,11.9162805 16.9340391,12.3213863 17.2216293,12.7913692 C18.2494446,13.0768206 19.2377712,13.4755892 20.1534972,14.0017751 C20.345356,14.1123593 20.4646143,14.3342011 20.4646143,14.5813521 L20.4646143,17.7536376 L17.7360122,17.7536376 L17.7360122,19.1179584 L21.1467747,19.1179584 C21.5238383,19.1179584 21.8289351,18.8128616 21.8289351,18.435798 L21.8289351,14.5813521 C21.8289351,13.8465929 21.4466037,13.1711261 20.8323702,12.8186984 Z" id="Path"></path>
                        <path d="M15.3751265,12.8186984 C11.081037,10.3498821 5.29073364,10.3498821 0.996564947,12.8186984 C0.381697723,13.1724332 0,13.8472662 0,14.5813917 L0,18.4358376 C0,18.8129013 0.305096768,19.117998 0.68216041,19.117998 L15.689531,19.117998 C16.0665947,19.117998 16.3716914,18.8129013 16.3716914,18.4358376 L16.3716914,14.5807183 C16.3716914,13.8472662 15.9899937,13.1724332 15.3751265,12.8186984 L15.3751265,12.8186984 Z M15.0074102,17.7536772 L1.36436043,17.7536772 L1.36436043,14.5813917 C1.36436043,14.3342407 1.48361869,14.112399 1.67611126,14.0018147 C5.55852012,11.7701683 10.8132505,11.7701683 14.6956594,14.0018147 C14.8881916,14.112399 15.0074102,14.3342407 15.0074102,14.5807183 L15.0074102,17.7536772 Z" id="Shape"></path>
                        <path d="M13.3034152,1.41402827 C13.4165739,1.40218562 13.5286632,1.38198578 13.6431686,1.38198578 C15.5237735,1.38198578 17.053931,2.91218291 17.053931,4.79274822 C17.053931,6.67331353 15.5237339,8.20351067 13.6431686,8.20351067 C13.5287425,8.20351067 13.4166532,8.18319201 13.3034945,8.17134936 C13.0140427,8.6084184 12.6597137,8.99249257 12.2711243,9.34171213 C12.7153623,9.47851652 13.1737798,9.56779188 13.6431686,9.56779188 C16.2758412,9.56779188 18.4182519,7.42542083 18.4182519,4.79270861 C18.4182519,2.1599964 16.2758808,0.0176253488 13.6431686,0.0176253488 C13.1737006,0.0176253488 12.7152831,0.106900711 12.2710451,0.243705104 C12.6596345,0.593003871 13.0139635,0.976959222 13.3034152,1.41402827 L13.3034152,1.41402827 Z" id="Path"></path>
                        <path d="M8.18592493,9.56783149 C10.8185975,9.56783149 12.9610082,7.42546044 12.9610082,4.79274822 C12.9610082,2.16003601 10.8186371,0.0176649563 8.18592493,0.0176649563 C5.55321271,0.0176649563 3.41084166,2.16003601 3.41084166,4.79274822 C3.41084166,7.42546044 5.55325232,9.56783149 8.18592493,9.56783149 Z M8.18592493,1.38198578 C10.0665298,1.38198578 11.5966874,2.91218291 11.5966874,4.79274822 C11.5966874,6.67331353 10.0664902,8.20351067 8.18592493,8.20351067 C6.30535962,8.20351067 4.77516248,6.67331353 4.77516248,4.79274822 C4.77516248,2.91218291 6.30535962,1.38198578 8.18592493,1.38198578 Z" id="Shape"></path>
                    </g>
                </g>
            </g>
        </g>
    </g>
</svg>