<svg xmlns="http://www.w3.org/2000/svg" width="24" height="24" viewBox="0 0 24 24">
    <title>Redeem-Icon</title>
    <path d="M18,6a2,2,0,1,1-2,2,2,2,0,0,1,2-2m0-2a4,4,0,1,0,4,4A4,4,0,0,0,18,4ZM17,0V2.09a5.6,5.6,0,0,1,2,0V0ZM13.62,1.23,12.09,2.51l1.34,1.6a6.065,6.065,0,0,1,1.53-1.28ZM10.3,5.63,9.95,7.6,12,7.96a5.874,5.874,0,0,1,.35-1.97ZM22,14a5.593,5.593,0,0,0-1.94.35l-6.38,2.395A4,4,0,0,1,12.274,17H9.2a.1.1,0,0,1-.083-.155L11.89,12.66a2.006,2.006,0,0,0-.55-2.77,2.374,2.374,0,0,0-1.3-.36,2.409,2.409,0,0,0-1.36.39L0,16v2.44l10.135-7.1a.1.1,0,0,1,.141.137L7.061,16.3a1,1,0,0,0-.051,1.024l.607,1.142A1,1,0,0,0,8.5,19h4.134a4,4,0,0,0,1.405-.255L20.77,16.22a3.425,3.425,0,0,1,.8-.194.1.1,0,0,1,.069.181L14.4,21.277A4,4,0,0,1,12.109,22H0v2H12.739a4,4,0,0,0,2.294-.723L23.573,17.3A1,1,0,0,0,24,16.479V16A2.006,2.006,0,0,0,22,14Z" fill="#373535"/>
</svg>
