<?xml version="1.0" encoding="UTF-8"?>
<svg width="22px" height="22px" viewBox="0 0 22 22" version="1.1" xmlns="http://www.w3.org/2000/svg" xmlns:xlink="http://www.w3.org/1999/xlink">
    <!-- Generator: Sketch 63.1 (92452) - https://sketch.com -->
    <title>TermsOfUse</title>
    <desc>Created with Sketch.</desc>
    <defs>
        <rect id="path-1" x="0" y="0" width="24" height="24"></rect>
    </defs>
    <g id="Icons" stroke="none" stroke-width="1" fill="none" fill-rule="evenodd">
        <g transform="translate(-1067.000000, -129.000000)" id="TermsOfUse">
            <g transform="translate(1066.000000, 128.000000)">
                <mask id="mask-2" fill="white">
                    <use xlink:href="#path-1"></use>
                </mask>
                <g id="Mask"></g>
                <g mask="url(#mask-2)" fill="#000000" fill-rule="nonzero">
                    <g transform="translate(1.000000, 1.000000)">
                        <path d="M7.14489746,4.23829652 L3.29818723,4.23829652 C2.94218444,4.23829652 2.65365598,4.52682493 2.65365598,4.88282777 C2.65365598,5.23883057 2.94218444,5.52735902 3.29818723,5.52735902 L7.14489746,5.52735902 C7.50073242,5.52735902 7.78942871,5.23883057 7.78942871,4.88282777 C7.78942871,4.52682493 7.50073242,4.23829652 7.14489746,4.23829652 Z" id="Path"></path>
                        <path d="M7.14489746,6.81658936 L3.29818723,6.81658936 C2.94218444,6.81658936 2.65365598,7.10511781 2.65365598,7.46112061 C2.65365598,7.8171234 2.94218444,8.10565186 3.29818723,8.10565186 L7.14489746,8.10565186 C7.50073242,8.10565186 7.78942871,7.8171234 7.78942871,7.46112061 C7.78942871,7.10511781 7.50073242,6.81658936 7.14489746,6.81658936 Z" id="Path"></path>
                        <path d="M7.14489746,9.39488219 L3.29818723,9.39488219 C2.94218444,9.39488219 2.65365598,9.68341064 2.65365598,10.0394134 C2.65365598,10.3954163 2.94218444,10.6839447 3.29818723,10.6839447 L7.14489746,10.6839447 C7.50073242,10.6839447 7.78942871,10.3954163 7.78942871,10.0394134 C7.78942871,9.68341064 7.50073242,9.39488219 7.14489746,9.39488219 Z" id="Path"></path>
                        <path d="M7.14489746,11.9731751 L3.29818723,11.9731751 C2.94218444,11.9731751 2.65365598,12.2617035 2.65365598,12.6177063 C2.65365598,12.9737091 2.94218444,13.2622376 3.29818723,13.2622376 L7.14489746,13.2622376 C7.50073242,13.2622376 7.78942871,12.9737091 7.78942871,12.6177063 C7.78942871,12.2617035 7.50073242,11.9731751 7.14489746,11.9731751 Z" id="Path"></path>
                        <path d="M7.14489746,14.5946045 L3.29818723,14.5946045 C2.94218444,14.5946045 2.65365598,14.8833008 2.65365598,15.2391357 C2.65365598,15.5951385 2.94218444,15.883667 3.29818723,15.883667 L7.14489746,15.883667 C7.50073242,15.883667 7.78942871,15.5951385 7.78942871,15.2391357 C7.78942871,14.8833008 7.50073242,14.5946045 7.14489746,14.5946045 Z" id="Path"></path>
                        <path d="M9.30944824,5.52735902 L13.1561585,5.52735902 C13.5121613,5.52735902 13.8006897,5.23883057 13.8006897,4.88282777 C13.8006897,4.52682493 13.5121613,4.23829652 13.1561585,4.23829652 L9.30944824,4.23829652 C8.95361328,4.23829652 8.66491699,4.52682493 8.66491699,4.88282777 C8.66491699,5.23883057 8.95361328,5.52735902 9.30944824,5.52735902 Z" id="Path"></path>
                        <path d="M9.30944824,8.10565186 L13.1561585,8.10565186 C13.5121613,8.10565186 13.8006897,7.8171234 13.8006897,7.46112061 C13.8006897,7.10511781 13.5121613,6.81658936 13.1561585,6.81658936 L9.30944824,6.81658936 C8.95361328,6.81658936 8.66491699,7.10511781 8.66491699,7.46112061 C8.66491699,7.8171234 8.95361328,8.10565186 9.30944824,8.10565186 Z" id="Path"></path>
                        <path d="M11.8066712,10.0394134 C11.8066712,9.68341064 11.5181427,9.39488219 11.1621399,9.39488219 L9.30944824,9.39488219 C8.95361328,9.39488219 8.66491699,9.68341064 8.66491699,10.0394134 C8.66491699,10.3954163 8.95361328,10.6839447 9.30944824,10.6839447 L11.1621399,10.6839447 C11.5181427,10.6839447 11.8066712,10.3954163 11.8066712,10.0394134 Z" id="Path"></path>
                        <path d="M17.9124298,14.8666839 C17.6348114,14.6439514 17.2292938,14.6884308 17.0063934,14.9660492 L15.3463898,17.0355988 L14.3186646,16.2910309 C14.0304718,16.0820618 13.6273041,16.1465149 13.4185028,16.4347077 C13.2097015,16.7230682 13.2741547,17.1260681 13.5623474,17.3348694 L15.0868988,18.4394684 C15.2010345,18.522049 15.3332977,18.5621643 15.4647217,18.5621643 C15.6538849,18.5621643 15.8408661,18.4790802 15.9677582,18.3208008 L18.0119629,15.7727203 C18.2346954,15.4951019 18.1902161,15.0894165 17.9124298,14.8666839 Z" id="Path"></path>
                        <path d="M19.5415497,12.8881073 C18.7019806,12.0337677 17.62323,11.4953156 16.4543457,11.3367005 L16.4543457,2.59574889 C16.4543457,1.16452024 15.2898255,-2.44249065e-15 13.8585968,-2.44249065e-15 L2.59591673,-2.44249065e-15 C1.16452024,-2.44249065e-15 -2.44249065e-15,1.16452024 -2.44249065e-15,2.59574889 L-2.44249065e-15,17.5262146 C-2.44249065e-15,18.9576111 1.16452024,20.1221313 2.59574889,20.1221313 L11.6542663,20.1221313 C12.6735993,21.3195495 14.1392365,22 15.7248841,22 C18.6764679,22 21.0776825,19.5971069 21.0776825,16.6435089 C21.0776825,15.2295685 20.5321808,13.8958588 19.5415497,12.8881073 Z M1.2890625,17.5262146 L1.2890625,2.59574889 C1.2890625,1.87535094 1.87535094,1.2890625 2.59591673,1.2890625 L13.8585968,1.2890625 C14.5791626,1.2890625 15.1652832,1.87535094 15.1652832,2.59574889 L15.1652832,11.3162231 C12.475708,11.5970306 10.3720856,13.8789062 10.3720856,16.6435089 C10.3720856,17.409729 10.5318756,18.1506042 10.8383636,18.832901 L2.59591673,18.832901 C1.87535094,18.832901 1.2890625,18.2467804 1.2890625,17.5262146 Z M15.7248841,20.7109375 C14.4376678,20.7109375 13.2543488,20.1199494 12.4780579,19.0897064 C11.9436341,18.3802185 11.6609802,17.5344391 11.6609802,16.6435089 C11.6609802,14.4007416 13.4841309,12.5760803 15.7248841,12.5760803 C15.7460327,12.5760803 15.7673493,12.576416 15.7884979,12.5767517 L15.7984009,12.5769196 C16.8680878,12.5958862 17.8709717,13.0272522 18.6222534,13.791626 C19.3743744,14.556839 19.78862,15.5697937 19.78862,16.6435089 C19.78862,18.8862762 17.9656372,20.7109375 15.7248841,20.7109375 L15.7248841,20.7109375 Z" id="Shape"></path>
                    </g>
                </g>
            </g>
        </g>
    </g>
</svg>