<?xml version="1.0" encoding="utf-8"?><!-- Generator: Adobe Illustrator 24.1.0, SVG Export Plug-In . SVG Version: 6.00 Build 0)  -->
<svg version="1.1" id="Layer_1" xmlns="http://www.w3.org/2000/svg" x="0px" y="0px"
    viewBox="0 0 24 24" style="enable-background:new 0 0 24 24;" xml:space="preserve">

<desc>Created with Sketch.</desc>
    <path class="st0" d="M12,0C5.4,0,0,5.4,0,12s5.4,12,12,12s12-5.4,12-12S18.6,0,12,0z M6,11c0-0.4,0.3-0.7,0.7-0.7h3.4
	c0.4,0,0.7,0.3,0.7,0.7c0,0.4-0.3,0.8-0.7,0.7H6.8C6.4,11.7,6,11.4,6,11z M15.4,16.6c-0.3,0.3-0.8,0.3-1.1,0L12,14.2l-2.5,2.5
	c-0.1,0.1-0.3,0.2-0.5,0.2c-0.2,0-0.4,0-0.5-0.2c-0.3-0.3-0.3-0.8,0-1.1l3-3c0.3-0.3,0.8-0.3,1.1,0l2.9,2.9
	C15.7,15.8,15.7,16.3,15.4,16.6z M17,11.7h-4.3c-0.4,0-0.7-0.3-0.7-0.7V6.8C12,6.4,12.3,6,12.7,6c0.4,0,0.7,0.3,0.7,0.7v3.4H17
	c0.4,0,0.7,0.3,0.7,0.8C17.8,11.4,17.4,11.7,17,11.7z" fill="#6A4D69" />
</svg>
