<svg xmlns="http://www.w3.org/2000/svg" width="24" height="24" viewBox="0 0 24 24">
    <path fill="#242635"
          d="M8.56 16.5l1.72 1.72a.75.75 0 0 1-1.06 1.06l-3-3a.75.75 0 0 1 0-1.06l3-3a.75.75 0 0 1 1.06 1.06L8.56 15H15a.75.75 0 1 1 0 1.5H8.56zm6.88-9l-1.72-1.72a.75.75 0 0 1 1.06-1.06l3 3a.75.75 0 0 1 0 1.06l-3 3a.75.75 0 0 1-1.06-1.06L15.44 9H9a.75.75 0 0 1 0-1.5h6.44zM3.75 0h16.5A3.75 3.75 0 0 1 24 3.75v16.5A3.75 3.75 0 0 1 20.25 24H3.75A3.75 3.75 0 0 1 0 20.25V3.75A3.75 3.75 0 0 1 3.75 0zm0 1.5A2.25 2.25 0 0 0 1.5 3.75v16.5a2.25 2.25 0 0 0 2.25 2.25h16.5a2.25 2.25 0 0 0 2.25-2.25V3.75a2.25 2.25 0 0 0-2.25-2.25H3.75z"/>
</svg>
