<?xml version="1.0" encoding="UTF-8"?>
<svg width="22px" height="17px" viewBox="0 0 22 17" version="1.1" xmlns="http://www.w3.org/2000/svg" xmlns:xlink="http://www.w3.org/1999/xlink">
    <!-- Generator: Sketch 63.1 (92452) - https://sketch.com -->
    <title>Voucher</title>
    <desc>Created with Sketch.</desc>
    <defs>
        <rect id="path-1" x="0" y="0" width="24" height="24"></rect>
    </defs>
    <g id="Icons" stroke="none" stroke-width="1" fill="none" fill-rule="evenodd">
        <g transform="translate(-821.000000, -134.000000)" id="Voucher">
            <g transform="translate(820.000000, 131.000000)">
                <mask id="mask-2" fill="white">
                    <use xlink:href="#path-1"></use>
                </mask>
                <g id="Mask"></g>
                <g mask="url(#mask-2)" fill="#000000" fill-rule="nonzero">
                    <g transform="translate(1.000000, 3.000000)">
                        <path d="M19.9078739,16.4945462 L2.05944958,16.4945462 C0.923815126,16.4945462 -1.31360842e-15,15.5707311 -1.31360842e-15,14.4350966 L-1.31360842e-15,11.0026807 C-1.31360842e-15,10.6232269 0.307029412,10.3161975 0.686483193,10.3161975 C1.82211765,10.3161975 2.74593277,9.39238235 2.74593277,8.2567479 C2.74593277,7.12111345 1.82211765,6.19729832 0.686483193,6.19729832 C0.307029412,6.19734454 -1.31360842e-15,5.89031513 -1.31360842e-15,5.51086134 L-1.31360842e-15,2.07844538 C-1.31360842e-15,0.942810924 0.923815126,0.0189957983 2.05944958,0.0189957983 L19.9079202,0.0189957983 C21.0435546,0.0189957983 21.9673697,0.942810924 21.9673697,2.07844538 L21.9673697,5.51086134 C21.9673697,5.89031513 21.6603403,6.19734454 21.2808866,6.19734454 C20.1452521,6.19734454 19.221437,7.12115966 19.221437,8.25679412 C19.221437,9.39242857 20.1452521,10.3162437 21.2808866,10.3162437 C21.6603403,10.3162437 21.9673697,10.6232731 21.9673697,11.0027269 L21.9673697,14.4351429 C21.9673697,15.5707311 21.0435546,16.4945462 19.9078739,16.4945462 L19.9078739,16.4945462 Z M1.37296639,11.6201134 L1.37296639,14.4350966 C1.37296639,14.8138571 1.68068908,15.1215798 2.05944958,15.1215798 L19.9079202,15.1215798 C20.2866807,15.1215798 20.5944034,14.8138571 20.5944034,14.4350966 L20.5944034,11.6201134 C19.0297227,11.301021 17.8484706,9.91465126 17.8484706,8.2567479 C17.8484706,6.59884454 19.0296765,5.21252101 20.5944034,4.89338235 L20.5944034,2.07844538 C20.5944034,1.69968487 20.2866807,1.39196218 19.9079202,1.39196218 L2.05944958,1.39196218 C1.68068908,1.39196218 1.37296639,1.69968487 1.37296639,2.07844538 L1.37296639,4.89342857 C2.93764706,5.21252101 4.11889916,6.59889076 4.11889916,8.25679412 C4.11889916,9.91469748 2.93764706,11.301021 1.37296639,11.6201134 L1.37296639,11.6201134 Z" id="Shape"></path>
                        <polygon id="Path" transform="translate(10.983336, 8.249305) rotate(-69.443955) translate(-10.983336, -8.249305) " points="5.12013281 7.56283196 16.8465382 7.56283196 16.8465382 8.93577769 5.12013281 8.93577769"></polygon>
                        <path d="M7.73614286,8.48788655 C6.6005084,8.48788655 5.67669328,7.56407143 5.67669328,6.42843697 C5.67669328,5.29280252 6.6005084,4.36898739 7.73614286,4.36898739 C8.87177731,4.36898739 9.79559244,5.29280252 9.79559244,6.42843697 C9.79559244,7.56407143 8.87177731,8.48788655 7.73614286,8.48788655 Z M7.73614286,5.74195378 C7.35738235,5.74195378 7.04965966,6.04967647 7.04965966,6.42843697 C7.04965966,6.80719748 7.35738235,7.11492017 7.73614286,7.11492017 C8.11490336,7.11492017 8.42262605,6.80719748 8.42262605,6.42843697 C8.42262605,6.04967647 8.11490336,5.74195378 7.73614286,5.74195378 Z" id="path-1_20_"></path>
                        <path d="M14.832021,12.745395 C13.6963866,12.745395 12.7725714,11.8215798 12.7725714,10.6859454 C12.7725714,9.55031092 13.6963866,8.6264958 14.832021,8.6264958 C15.9676555,8.6264958 16.8914706,9.55031092 16.8914706,10.6859454 C16.8914706,11.8215798 15.9676555,12.745395 14.832021,12.745395 L14.832021,12.745395 Z M14.832021,9.99946218 C14.4532605,9.99946218 14.1455378,10.3071849 14.1455378,10.6859454 C14.1455378,11.0647059 14.4532605,11.3724286 14.832021,11.3724286 C15.2107815,11.3724286 15.5185042,11.0647059 15.5185042,10.6859454 C15.5185042,10.3071849 15.2107815,9.99946218 14.832021,9.99946218 Z" id="path-1_19_"></path>
                    </g>
                </g>
            </g>
        </g>
    </g>
</svg>