<?xml version="1.0" encoding="UTF-8"?>
<svg width="28px" height="28px" viewBox="0 0 28 28" version="1.1" xmlns="http://www.w3.org/2000/svg" xmlns:xlink="http://www.w3.org/1999/xlink">
    <!-- Generator: Sketch 63.1 (92452) - https://sketch.com -->
    <title>wallet</title>
    <desc>Created with Sketch.</desc>
    <g id="Page-1" stroke="none" stroke-width="1" fill="none" fill-rule="evenodd">
        <g id="Artboard" transform="translate(-306.000000, -316.000000)" fill="#000000" fill-rule="nonzero">
            <g id="wallet" transform="translate(306.000000, 316.000000)">
                <path d="M22.1484375,14.0547619 C20.3391562,14.0547619 18.8671875,15.5267285 18.8671875,17.3360072 C18.8671875,19.1452859 20.3391562,20.6172526 22.1484375,20.6172526 L26.796875,20.6172526 C26.8154141,20.6172526 26.8335156,20.6153932 26.8518359,20.6144636 C26.8699922,20.6153385 26.887875,20.6171979 26.90625,20.6171979 C27.5103281,20.6171979 28,20.1275267 28,19.5234495 L28,10.9375241 C28,9.48141677 27.2843047,8.18997328 26.1868359,7.39432596 L22.4658984,1.29011583 C22.3141953,1.04117868 22.0693594,0.863116433 21.78575,0.795522779 C21.5021406,0.727819749 21.2033281,0.776218118 20.9555391,0.929889776 L18.2114844,2.63154362 L16.9740156,0.537343456 C16.8252109,0.285562561 16.5818516,0.103890942 16.2981875,0.0327972928 C16.0145781,-0.0382963569 15.7141797,0.00725826632 15.4643125,0.159070552 L4.92783594,6.56253026 L3.28125,6.56253026 C2.68728906,6.56253026 2.202375,6.08664031 2.18782813,5.49612552 C2.202375,4.90561073 2.68728906,4.42972077 3.28125,4.42972077 L5.3046875,4.42972077 C5.90876562,4.42972077 6.3984375,3.94004959 6.3984375,3.33597232 C6.3984375,2.73189505 5.90876562,2.24222386 5.3046875,2.24222386 L3.28125,2.24222386 C1.73370313,2.24222386 0.433070312,3.31923797 0.089140625,4.76304062 C0.0319375,4.8957123 0,5.04172772 0,5.19534469 L0,5.46878181 L0,5.52346923 L0,23.6250062 C0,26.0373778 1.962625,28 4.375,28 L23.625,28 C25.5111719,28 27.1793047,26.7984626 27.7758359,25.0101839 C27.9670234,24.4371691 27.6574375,23.81767 27.0844219,23.6265374 C26.5114609,23.4354049 25.8919063,23.7449357 25.7007734,24.3179505 C25.4025625,25.2118711 24.5684141,25.8125031 23.625,25.8125031 L4.375,25.8125031 C3.1688125,25.8125031 2.1875,24.831192 2.1875,23.6250062 L2.1875,8.56239463 C2.52978906,8.68380071 2.89789063,8.75002717 3.28125,8.75002717 L23.625,8.75002717 C24.8311875,8.75002717 25.8125,9.73133829 25.8125,10.9375241 L25.8125,14.0547619 L22.1484375,14.0547619 Z M25.8125,18.429701 L22.1484375,18.429701 C21.5453438,18.4297557 21.0546875,17.9391001 21.0546875,17.3359526 C21.0546875,16.7328597 21.5453438,16.2422041 22.1484375,16.2422041 L25.8125,16.2422041 L25.8125,18.429701 Z M9.1398125,6.56258495 L15.6541328,2.60359835 L16.8188125,4.57458776 C16.8411797,4.62845487 16.8668828,4.68155636 16.8986016,4.73274378 C16.9223906,4.77107967 16.94875,4.80679055 16.9762578,4.84113426 L17.9934453,6.56258495 L9.1398125,6.56258495 Z M20.5343359,6.56253026 L19.3245938,4.5152519 L21.1717188,3.36982383 L23.1179375,6.56253026 L20.5343359,6.56253026 Z" id="Shape"></path>
            </g>
        </g>
    </g>
</svg>