<svg xmlns="http://www.w3.org/2000/svg" xmlns:xlink="http://www.w3.org/1999/xlink" width="24" height="24" viewBox="0 0 24 24">
    <path fill="#242635" id="a" d="M21 9.25V2.625c0-.875-.186-1.125-.65-1.125H2.15c-.304 0-.65.464-.65 1.125v18.75c0 .661.346 1.125.65 1.125h18.2c.304 0 .65-.464.65-1.125V16.75h-4.75c-.69 0-1.25-.56-1.25-1.25v-5c0-.69.56-1.25 1.25-1.25H21zm1.5 7.5v4.625c0 1.41-.907 2.625-2.15 2.625H2.15C.907 24 0 22.785 0 21.375V2.625C0 1.215.907 0 2.15 0h18.2c1.403 0 2.15 1 2.15 2.625V9.25h.25c.69 0 1.25.56 1.25 1.25v5c0 .69-.56 1.25-1.25 1.25h-.25zm0-6h-6v4.5h6v-4.5zM19.25 14a1 1 0 1 1 0-2 1 1 0 0 1 0 2zm-10.539.004l-.56-6.986 2.17.014-.546 6.972H8.711zm-.448 1.036h1.96V17h-1.96v-1.96z"/>
</svg>
