<svg xmlns="http://www.w3.org/2000/svg" width="160" height="121" viewBox="0 0 160 121">
    <g>
        <path d="M51.885 7.366a.824.824 0 0 1 .33-.258 49.101 49.101 0 0 1 2.77-1.609c.119-.06.243-.109.37-.147a2.2 2.2 0 0 0 .658-.283c.263-.195.593-.217.888-.331.456-.176.958-.293 1.365-.53.458-.266 1.003-.268 1.42-.592.4.016.71-.253 1.074-.334.273-.053.538-.142.789-.263a.466.466 0 0 1 .183-.07c.814-.022 1.514-.432 2.267-.66.063-.019.127-.065.186-.058.515.057.942-.248 1.419-.338.638-.12 1.262-.3 1.897-.432.611-.128 1.248-.074 1.835-.3.33-.126.684-.027 1.018-.139.14-.034.278-.078.412-.131.312-.154.656-.077.984-.11.181-.02.36-.053.537-.096.39-.075.786-.124 1.183-.145.29-.024.585.005.86-.121a.272.272 0 0 1 .195-.007c.53.152 1.052-.028 1.57-.08.397-.038.79-.038 1.184-.062.674-.041 1.347-.137 2.023-.103.424.021.848.046 1.272.057.116.013.234.01.35-.01.354-.09.71-.005 1.055.058.18.042.365.054.55.036.49-.063.976.064 1.468.054a16.589 16.589 0 0 1 2.28.178c.025.004.051.034.073.03.401-.086.78.084 1.172.1.266.01.533 0 .758.185.043.033.096.05.15.048.383-.013.766.019 1.142.093.441.078.899.042 1.333.197.27.075.546.125.824.151.639.108 1.272.25 1.91.36.396.069.758.24 1.141.345.086.025.175.04.264.043.198-.005.395.035.576.118.447.202.918.349 1.4.436.13.03.256.07.378.12.237.1.468.232.75.191a.49.49 0 0 1 .344.076c.269.22.642.179.907.395a.213.213 0 0 0 .19.022.732.732 0 0 1 .426.08c.47.215.956.392 1.455.53a.4.4 0 0 1 .146.062c.593.432 1.314.545 1.984.787.266.096.488.266.744.378.584.256 1.196.438 1.768.723.335.166.636.39.98.534.577.265 1.135.57 1.67.912.328.195.697.323 1.024.532.505.324 1.132.45 1.531.948.045.056.127.032.187.052.212.068.41.174.584.313.32.232.657.441 1.006.627.166.084.316.197.442.335.157.19.4.256.595.392.486.339.998.637 1.467 1.008.551.435 1.166.79 1.712 1.232.473.382.975.73 1.396 1.181.274.293.583.55.92.767.565.36.966.903 1.51 1.29.263.22.514.453.752.7.62.56 1.098 1.26 1.776 1.76.21.184.396.393.554.622.306.37.684.668 1.008 1.022.422.46.786.97 1.208 1.426.55.596.97 1.288 1.511 1.89.302.317.578.657.826 1.017a7.6 7.6 0 0 0 .718.95.515.515 0 0 1 .08.182c.048.21.171.394.347.518a.421.421 0 0 1 .158.176c.237.54.685.94.937 1.476.168.358.485.644.66.999.333.678.862 1.242 1.115 1.968.096.275.336.473.478.734.541.988 1.004 2.016 1.543 3.004.235.432.315.931.586 1.352.212.368.383.757.511 1.161.125.336.304.648.333 1.016.004.054.085.098.118.153.12.16.2.346.236.543.011.134.055.263.128.375.147.223.24.477.272.741.011.065.031.128.059.188.36.812.647 1.656.854 2.52.044.21.115.412.212.602.111.199.17.423.17.65.019.255.087.503.199.732.214.544.373 1.11.476 1.686.113.668.325 1.312.405 1.991.06.594.177 1.18.353 1.75.049.138.075.283.079.43-.004.133.01.266.04.397.143.54.138 1.104.24 1.647.168.9.118 1.823.34 2.713a1.03 1.03 0 0 1 0 .278c-.003.276.012.553.044.827.054.606.184 1.215.086 1.83-.018.277-.006.556.035.831.045.818-.037 1.63-.072 2.444a.276.276 0 0 1-.097.218.698.698 0 0 1-.416-.095 21.548 21.548 0 0 0-3.269-.923c-.534-.104-1.08-.148-1.613-.256-.941-.19-1.899-.157-2.844-.263-.592-.066-1.175.005-1.762-.002-1.021-.013-2.035.117-3.053.175-.289.016-.574.094-.864.134a1.01 1.01 0 0 1-.514.002.434.434 0 0 0-.31.028c-.624.232-1.295.27-1.925.47a2.9 2.9 0 0 1-.51.047c-.577.079-1.076.382-1.628.52-.917.228-1.767.641-2.658.936-.544.18-1.042.464-1.573.67-.767.3-1.441.788-2.186 1.117-.445.197-.801.494-1.204.735a21.28 21.28 0 0 0-1.706 1.168c-.479.353-.962.7-1.431 1.065-.284.22-.536.48-.82.702-.235.184-.503.316-.708.554-.42.489-.926.9-1.36 1.372-.25.272-.598.457-.757.833-.093.22-.312.386-.475.576-.49.573-.936 1.181-1.408 1.768-.293.365-.49.788-.788 1.143-.448.53-.74 1.161-1.126 1.732-.208.338-.392.69-.554 1.051a.466.466 0 0 1-.123.2.593.593 0 0 0-.237.442c-.05.41-.325.723-.48 1.088-.212.501-.397 1.013-.614 1.512-.333.765-.546 1.574-.827 2.357-.256.715-.336 1.466-.563 2.18-.135.426-.14.882-.333 1.292a.818.818 0 0 0-.015.317 6.22 6.22 0 0 1-.074.793 31.317 31.317 0 0 0-.277 3.334c.01.344-.01.69-.06 1.03a.405.405 0 0 0-.006.12c.084.823.02 1.653.093 2.472.082.864.214 1.722.395 2.57.179.856.38 1.706.552 2.56.086.435.279.825.363 1.246.104.52.4.977.45 1.51.026.09.069.174.125.248.032.057.102.119.094.169-.053.345.183.566.327.829.128.204.217.43.265.666.05.343.312.581.446.886a25.04 25.04 0 0 0 1.394 2.624c.317.538.688 1.04 1.003 1.571.24.403.52.773.765 1.167.1.14.211.271.331.394a54.28 54.28 0 0 0 2.18 2.43c-.004.126-.088.15-.152.19-.94.582-1.889 1.15-2.865 1.673-.521.054-.884.522-1.441.526-.245.001-.475.213-.716.32-.595.266-1.213.475-1.804.752-.406.19-.844.308-1.267.46-.476.17-.965.295-1.441.46-.46.16-.91.364-1.4.428-.23.03-.418.17-.642.218-1.036.224-2.05.535-3.084.766a2.372 2.372 0 0 1-.433.066 1.49 1.49 0 0 0-.62.13.53.53 0 0 1-.264.082c-.57-.073-1.095.133-1.637.234-.549.103-1.092.25-1.646.309-.512.053-1.02.168-1.538.167-.318.025-.633.07-.944.138-.5.065-1.003.084-1.503.124a9.704 9.704 0 0 1-1.188.072 10.19 10.19 0 0 0-1.068.069 22.23 22.23 0 0 1-2.19.042 7.908 7.908 0 0 0-1.455.013.29.29 0 0 1-.119-.01c-.95-.246-1.922-.078-2.88-.16-.449-.038-.897-.058-1.346-.11a14.377 14.377 0 0 0-1.698-.174c-.375 0-.733-.112-1.106-.132a5.54 5.54 0 0 1-1.176-.172c-.769-.215-1.581-.15-2.339-.425a4.49 4.49 0 0 0-.896-.166c-.556-.08-1.064-.35-1.628-.372a.57.57 0 0 1-.298-.103c-.299-.202-.643-.227-.98-.307-.476-.114-.952-.23-1.428-.35-.492-.104-.976-.24-1.449-.408-.468-.187-.974-.262-1.418-.508a.913.913 0 0 0-.264-.086 1.31 1.31 0 0 1-.349-.08c-.702-.379-1.5-.5-2.217-.847-.643-.311-1.315-.563-1.981-.822-.3-.117-.544-.327-.842-.446-.875-.35-1.666-.874-2.536-1.232-.395-.162-.75-.395-1.14-.567a6.045 6.045 0 0 1-.983-.591 5.878 5.878 0 0 0-.787-.47 20.28 20.28 0 0 1-2.19-1.299 55.755 55.755 0 0 1-2.85-1.977 9.35 9.35 0 0 1-1.107-.905c-.39-.394-.871-.698-1.31-1.045-.636-.502-1.305-.97-1.89-1.527-.336-.317-.683-.63-1.014-.955a11.95 11.95 0 0 0-.992-.913 1.652 1.652 0 0 1-.511-.553.428.428 0 0 0-.169-.157c-.27-.195-.51-.43-.712-.694-.184-.244-.445-.416-.646-.651-.371-.433-.772-.84-1.156-1.263-.17-.186-.274-.416-.453-.603-.765-.796-1.362-1.734-2.096-2.554-.581-.649-1.017-1.395-1.534-2.085-.294-.394-.646-.761-.86-1.196-.275-.562-.712-1.007-.994-1.563-.292-.576-.684-1.1-1.013-1.658a6.141 6.141 0 0 1-.614-1.162c-.081-.246-.267-.429-.39-.647-.24-.43-.44-.881-.672-1.315-.29-.54-.503-1.114-.81-1.648a12.465 12.465 0 0 1-.571-1.317c-.214-.5-.45-.992-.642-1.502l-.661-1.752c-.22-.583-.447-1.168-.628-1.765a12.576 12.576 0 0 1-.376-1.298c-.084-.44-.303-.848-.414-1.288-.146-.578-.338-1.144-.489-1.72-.145-.553-.259-1.114-.396-1.669a3.914 3.914 0 0 1-.12-.748 1.83 1.83 0 0 0-.151-.739 1.192 1.192 0 0 1-.104-.504c-.006-.36-.162-.692-.208-1.051-.095-.736-.161-1.479-.294-2.21-.167-.922-.14-1.86-.282-2.781-.1-.672-.16-1.348-.184-2.027a37.289 37.289 0 0 1 .026-3.76c.023-.385.114-.46.47-.339.999.34 2.029.57 3.04.864.53.154 1.1.172 1.647.27.576.102 1.16.127 1.74.182a27.7 27.7 0 0 0 2.902.12c.677.015 1.355-.01 2.03-.075.618-.08 1.238-.15 1.858-.203.597-.05 1.18-.17 1.766-.272.548-.095 1.083-.257 1.628-.364.263-.048.53-.065.796-.052.2.007.398-.028.584-.103 1.12-.432 2.237-.876 3.366-1.286.52-.189.941-.546 1.445-.755.785-.326 1.51-.773 2.265-1.16.46-.235.9-.506 1.316-.81a45.692 45.692 0 0 1 1.534-1.07c.404-.273.774-.596 1.16-.897.523-.407 1.017-.85 1.503-1.3.446-.413.862-.859 1.314-1.264.283-.254.483-.59.822-.79.094-.055.143-.188.214-.283.38-.51.771-1.013 1.191-1.492.488-.556.846-1.206 1.292-1.791.396-.521.69-1.102 1.032-1.653.28-.448.53-.912.753-1.39.092-.201.225-.384.328-.585.326-.64.596-1.306.859-1.97.265-.67.528-1.346.747-2.038.213-.67.413-1.344.595-2.02.179-.664.318-1.34.434-2.02.042-.248.048-.52.192-.751.04-.1.053-.208.038-.314.016-.718.136-1.424.205-2.137a9.008 9.008 0 0 0 .069-1.62c-.031-.37.024-.743.017-1.117a22.175 22.175 0 0 0-.118-2.134c-.042-.357-.02-.714-.07-1.073-.115-.83-.283-1.648-.42-2.473-.136-.814-.364-1.602-.565-2.399a21.777 21.777 0 0 0-.758-2.291c-.25-.67-.548-1.32-.787-1.99-.212-.594-.567-1.1-.843-1.652-.2-.4-.384-.812-.624-1.198-.386-.618-.798-1.222-1.162-1.854-.909-1.58-2.21-2.835-3.41-4.203zm29.946 54.78a14.016 14.016 0 0 1-.175 1.618c-.106.807-.237 1.61-.372 2.412-.112.67-.238 1.338-.344 2.009-.099.616-.16 1.238-.272 1.85a47.01 47.01 0 0 0-.387 2.526c-.231 1.8-.521 3.589-.825 5.377-.112.658-.255 1.312-.347 1.97-.142 1.015-.374 2.015-.481 3.036-.059.556-.174 1.105-.259 1.659a6.06 6.06 0 0 1-.415 1.613 7.403 7.403 0 0 1-.805 1.41 6.91 6.91 0 0 1-1.328 1.408c-.776.595-1.674.844-2.581 1.103-.524.15-1.053 0-1.579.062-.485.057-.947-.12-1.405-.239a3.13 3.13 0 0 1-.681-.198 8.634 8.634 0 0 1-2.217-1.543c-1.171-1.183-1.664-2.624-1.667-4.267.02-.386.077-.768.17-1.143.081-.44.025-.892.142-1.328.05-.194.065-.395.046-.594a.637.637 0 0 1 .098-.413.63.63 0 0 0 .087-.53.714.714 0 0 1-.02-.39c.117-.413.195-.837.234-1.264.037-.347.145-.696.201-1.042.292-1.798.737-3.566 1.045-5.36.038-.113.07-.227.097-.343.042-.868.34-1.69.45-2.544.097-.755.37-1.499.155-2.277-.046-.165.041-.33.001-.51a1.744 1.744 0 0 0-.573-.916 1.902 1.902 0 0 0-2.823.176c-.113.136-.304.23-.316.445-.035.196-.099.385-.19.563-.126.362-.306.707-.358 1.096-.14 1.054-.428 2.082-.568 3.136a4.917 4.917 0 0 1-.089.794c-.181.601-.217 1.23-.3 1.846-.141 1.059-.304 2.114-.453 3.171-.125.872-.273 1.74-.373 2.615-.061.531-.169 1.053-.233 1.582-.138 1.135-.271 2.27-.457 3.399a1.102 1.102 0 0 0-.01.238c.062.926.227 1.843.492 2.732.162.568.48 1.09.718 1.637.156.36.422.64.643.954a9.321 9.321 0 0 0 1.303 1.536 9.837 9.837 0 0 0 2.932 1.936c.511.207.982.512 1.548.592.549.078 1.085.254 1.634.311a13.72 13.72 0 0 0 2.059.048c.814-.039 1.593-.238 2.384-.393.53-.105.988-.39 1.481-.582a6.516 6.516 0 0 0 1.299-.681 11.892 11.892 0 0 0 2.375-2.103 9.283 9.283 0 0 0 2.144-4.537c.123-.873.241-1.745.362-2.618.117-.845.233-1.69.353-2.535.11-.765.242-1.527.328-2.295a65.31 65.31 0 0 1 .266-2.06c.108-.75.192-1.505.297-2.257.106-.765.255-1.525.331-2.293.1-1.008.286-2.004.397-3.011.13-1.176.352-2.341.485-3.517.11-.965.25-1.926.389-2.887.141-.976.288-1.947.037-2.931-.18-.706-.293-1.43-.64-2.085a1.703 1.703 0 0 1-.247-.54.907.907 0 0 0-.247-.487c-.398-.48-.771-.983-1.142-1.482a6.942 6.942 0 0 0-2.789-2.211c-.51-.23-1.036-.424-1.534-.676a3.088 3.088 0 0 0-1.184-.291c-.594-.044-1.188.097-1.776.208-.708.133-1.064.68-1.33 1.256-.124.332-.106.7.048 1.019.249.582.73 1.031 1.328 1.238.21.08.437.107.618.258a.288.288 0 0 0 .15.046c.539.052 1 .322 1.488.518.268.107.456.306.69.443.34.188.641.436.89.732a6.976 6.976 0 0 1 1.597 4.795zM75.956 37.7a1.056 1.056 0 0 1-.394.616c-.309.295-.622.586-.928.883-.621.605-1.23 1.223-1.847 1.831-1.084 1.069-2.21 2.096-3.263 3.197-.368.386-.749.762-1.136 1.13-.202.194-.39.402-.56.625-.512.666-.943 1.387-1.419 2.077-.314.456-.471.978-.681 1.478-.13.306-.128.651-.242.959-.13.317-.213.65-.25.99.001.188-.014.374-.045.559-.199.79-.078 1.581.016 2.363.088.537.22 1.065.395 1.58.173.585.52 1.107.624 1.718a.123.123 0 0 0 .044.065c.266.22.38.535.544.823.138.241.202.545.433.712.33.248.681.464 1.051.646.775.363 1.519.296 2.202-.258.18-.176.331-.38.448-.603.263-.401.226-.832.135-1.269a.497.497 0 0 0-.171-.262c-.412-.384-.697-.87-1.019-1.323a1.808 1.808 0 0 1-.299-.42c-.194-.563-.534-1.082-.545-1.702-.005-.295-.144-.56-.139-.863a7.18 7.18 0 0 1 .9-3.294c.32-.594.668-1.19 1.285-1.55.057-.032.132-.068.13-.14-.006-.224.17-.323.299-.45 1.733-1.705 3.474-3.402 5.202-5.112 1.072-1.061 2.17-2.096 3.25-3.148a86.97 86.97 0 0 0 1.483-1.474c.6-.613 1.168-1.264 1.888-1.765a6.73 6.73 0 0 0 1.488-1.376c.562-.73 1.375-1.195 1.903-1.945.01-.01.02-.018.032-.024.363-.239.642-.576.952-.872.154-.123.3-.255.438-.395.21-.253.485-.444.697-.688.295-.341.721-.47 1.063-.734a3.81 3.81 0 0 1 .77-.488c.487-.213.971-.452 1.497-.543.712-.123 1.43-.31 2.153-.034.09.02.184.025.276.015.133 0 .265.015.395.045a7.856 7.856 0 0 1 1.718.607 5.693 5.693 0 0 1 1.681 1.315c.39.417.713.893.957 1.41.229.48.403.984.517 1.502a5.482 5.482 0 0 1-.41 3.422c-.111.242-.128.51-.293.736-.904 1.243-1.865 2.43-3.092 3.374a.98.98 0 0 0-.222.225c-.26.353-.57.665-.921.925a3.435 3.435 0 0 0-.66.603c-.089.118-.19.225-.303.32-.746.623-1.443 1.3-2.167 1.95-.467.418-.92.854-1.405 1.252-.482.396-.833.936-1.388 1.25a.378.378 0 0 0-.082.086c-.228.258-.458.516-.684.777a1.704 1.704 0 0 0-.356.474c-.237.621-.154 1.58.427 2.055.219.192.464.35.73.47.275.116.543.29.859.262a2.777 2.777 0 0 0 1.457-.594c.454-.347.823-.786 1.252-1.161.325-.285.555-.68.99-.84a.208.208 0 0 0 .13-.188c.017-.283.216-.451.405-.618.479-.422.909-.896 1.407-1.298.266-.214.484-.48.754-.7.236-.192.39-.491.654-.677.113-.068.214-.155.298-.258.251-.365.614-.617.912-.934.256-.273.57-.476.834-.734.5-.49.955-1.022 1.476-1.494.64-.58 1.228-1.215 1.827-1.838.106-.11.277-.157.314-.346.062-.32.29-.56.45-.83.264-.449.526-.892.603-1.418.01-.065.03-.13.06-.188.192-.386.24-.816.323-1.225a9.787 9.787 0 0 0 .16-2.293c-.008-.222.069-.443 0-.663-.122-.443-.22-.891-.296-1.344-.105-.505-.2-1.014-.483-1.464-.277-.438-.493-.91-.756-1.357a5.87 5.87 0 0 0-.675-.97c-.543-.596-1.037-1.251-1.736-1.698-.462-.296-.896-.64-1.347-.954-.477-.333-1.053-.437-1.586-.628-.666-.238-1.339-.474-2.062-.536a8.83 8.83 0 0 1-.988-.093c-.4-.061-.808-.07-1.21-.025-.378.023-.76.115-1.139.121-.764.011-1.44.336-2.13.58-.45.164-.884.37-1.295.616-.577.34-1.197.63-1.625 1.18a.598.598 0 0 1-.156.123 3.5 3.5 0 0 0-.773.677c-.442.517-.943.973-1.425 1.446-1.23 1.206-2.49 2.383-3.733 3.576-1.03.99-2.053 1.987-3.083 2.976-.22.212-.46.396-.67.626-.306.342-.598.728-1.099.85z"/>
        <path d="M129.538 62.985c.57 0 1.14-.01 1.71.002.864.02 1.726.102 2.588.155.839.051 1.658.237 2.492.32 1.346.134 2.631.551 3.906.98.866.292 1.725.617 2.56.988.52.23 1.035.486 1.534.762.256.142.524.256.782.393.895.474 1.789.944 2.576 1.595.22.17.453.325.697.46.362.245.706.516 1.029.81.753.607 1.443 1.295 2.149 1.96a20.73 20.73 0 0 1 2.39 2.625c.304.404.624.797.903 1.218.498.752 1.034 1.49 1.434 2.295.328.661.773 1.277.936 2.022.05.23.272.383.373.607.446.983.876 1.969 1.125 3.025.037.154.113.3.162.452.18.584.315 1.181.406 1.786.056.328.13.653.221.973.14.504.153 1.024.224 1.536.185 1.158.271 2.33.259 3.503-.018.613.012 1.228-.032 1.84-.047.634-.196 1.261-.23 1.895-.031.603-.199 1.174-.303 1.76-.086.36-.146.727-.18 1.095a.27.27 0 0 1-.013.08c-.33.94-.436 1.95-.884 2.857-.09.235-.168.474-.23.718a1.61 1.61 0 0 1-.323.637.295.295 0 0 0-.071.139c-.156.73-.565 1.354-.884 2.007-.226.48-.499.939-.813 1.367-.212.279-.31.64-.501.947a21.962 21.962 0 0 1-1.392 1.99c-.313.394-.608.806-.947 1.18-.481.532-1.004 1.028-1.48 1.564-.465.488-.966.94-1.498 1.355-.535.448-1.027.95-1.613 1.35-.445.304-.863.667-1.32.961-.515.33-1.017.681-1.563.96-.708.363-1.416.728-2.123 1.094-.826.43-1.708.733-2.57 1.076-.884.352-1.784.69-2.738.83-.208.032-.406.134-.615.171-.928.166-1.857.326-2.788.475-.75.108-1.506.16-2.263.158-.185.003-.37.032-.552.051a14.19 14.19 0 0 1-2.784-.008c-.49-.048-.997-.003-1.465-.125-.558-.145-1.136-.1-1.685-.277a6.328 6.328 0 0 0-.787-.141c-.837-.155-1.646-.426-2.472-.628a16.938 16.938 0 0 1-3.08-1.09 98.446 98.446 0 0 1-1.511-.709c-.624-.3-1.211-.665-1.83-.972-.34-.18-.66-.393-.958-.636-.141-.109-.312-.15-.445-.26-.66-.556-1.414-.98-2.096-1.505a25.198 25.198 0 0 1-2.83-2.586c-.504-.527-.942-1.117-1.423-1.668-.403-.462-.733-.978-1.095-1.47-.283-.386-.577-.764-.835-1.166a15.812 15.812 0 0 1-1.16-2c-.136-.301-.33-.577-.463-.88-.259-.58-.494-1.172-.739-1.76-.128-.306-.25-.616-.391-.917a3.008 3.008 0 0 1-.11-.423c-.18-.582-.361-1.162-.546-1.742a20.377 20.377 0 0 1-.706-3.272c-.055-.381-.138-.76-.17-1.143-.073-.875-.152-1.753-.17-2.63-.023-.8.018-1.6.122-2.393.018-.134.012-.266.02-.398 0-.307.041-.612.121-.908.106-.329.04-.686.085-1.03.032-.25.068-.5.103-.75.2-1.25.504-2.482.908-3.683.212-.67.51-1.31.748-1.973.21-.591.523-1.133.784-1.7.285-.66.609-1.303.968-1.926.392-.65.81-1.284 1.236-1.911.377-.547.786-1.072 1.224-1.572.2-.23.386-.473.556-.726.11-.134.234-.256.37-.362.336-.322.585-.727.985-.989.103-.067.147-.221.238-.315.734-.754 1.478-1.5 2.356-2.088.212-.143.375-.334.578-.484a29.898 29.898 0 0 1 2.088-1.39 36.132 36.132 0 0 1 3.314-1.812 8.839 8.839 0 0 1 1.702-.679c.252-.083.498-.182.738-.295a2.12 2.12 0 0 1 .768-.208.347.347 0 0 0 .155-.033c.637-.324 1.366-.339 2.022-.603.166-.044.337-.072.509-.082.858-.157 1.713-.339 2.576-.467a41.987 41.987 0 0 1 1.947-.239zm3.16 19.17l-.191 8.296c.222.168.443.069.649.086.954.077 1.913.06 2.868.077.713.013 1.424.069 2.138.07.443.002.902-.095 1.344.068.078.029.183-.025.275-.025.266 0 .522-.107.791-.07.507.071 1.013.163 1.528.078.157-.026.332-.097.47-.054.474.151.948-.032 1.42.042.314.05.645-.068.949.045.226.07.466.09.701.058.277-.018.55-.09.829-.009a.203.203 0 0 0 .22-.104c-.049-.858-.1-1.732-.228-2.6-.05-.339 0-.69-.114-1.02a1.247 1.247 0 0 1-.067-.552c.016-.16-.007-.32-.066-.469a2.709 2.709 0 0 1-.084-.349c-.13-.59-.272-1.178-.41-1.766-.007-.025-.027-.047-.036-.072-.143-.427-.31-.85-.32-1.309a.822.822 0 0 0-.134-.372 6.108 6.108 0 0 1-.437-1.067c-.112-.357-.18-.437-.525-.342-.895.243-1.816.356-2.718.557-.915.204-1.85.288-2.775.415-.601.082-1.21.151-1.819.182a8.525 8.525 0 0 0-.952.045c-.645.08-1.295.117-1.944.11-.448.012-.895.034-1.361.051zm-16.922 7.855c1.58.052 3.133.102 4.686.155 1.553.054 3.106.144 4.66.157 1.553.013 3.105.128 4.68.133l.236-8.334c-.664-.081-1.287-.1-1.904-.146-.57-.043-1.136-.12-1.707-.139-.462-.016-.898-.197-1.36-.201a12.15 12.15 0 0 1-1.973-.253c-1.07-.186-2.133-.42-3.199-.634a3.623 3.623 0 0 1-.723-.195c-.39-.171-.793-.186-1.199-.274-.392.764-.6 1.578-.893 2.36-.294.784-.414 1.616-.664 2.41-.254.803-.279 1.635-.414 2.45a13.18 13.18 0 0 0-.226 2.51zm13.792 10.974c0-.082.006-.162-.001-.24-.024-.61-.003-1.22.064-1.827.044-.657.039-1.317.07-1.973.042-.844.013-1.696.046-2.544.01-.262-.103-.521 0-.783.07-.23.08-.474.028-.71a1.5 1.5 0 0 0-.494-.03c-.832.05-1.664-.042-2.497-.01-.497.019-.997-.087-1.497-.011a1.515 1.515 0 0 1-.316-.008 13.344 13.344 0 0 0-1.379-.041 7.458 7.458 0 0 1-1.299-.048 5.102 5.102 0 0 0-1.105-.026c-.65.058-1.3.032-1.948.035-.577.003-1.152-.068-1.733-.013-.339.029-.68.01-1.014-.056a1.579 1.579 0 0 0-.735.043c.03.596-.077 1.175.119 1.738a.417.417 0 0 1 .03.116c.021.5.08.997.176 1.488.122.639.2 1.288.353 1.919.253 1.044.53 2.082.88 3.1.105.306.236.601.32.92.078.293.283.552.428.82.676-.128 1.29-.341 1.92-.49.784-.187 1.587-.287 2.38-.434.479-.089.946-.28 1.449-.233.04 0 .08-.009.115-.027.313-.112.642-.173.974-.18.485-.043.978-.043 1.454-.13.747-.136 1.502-.15 2.252-.237.316-.035.64-.011.962-.127h-.002zm2.874-8a.624.624 0 0 0-.022.142c.058.516-.029 1.031-.036 1.546.018.367.009.735-.027 1.101a4.715 4.715 0 0 0-.074 1.024c.014.238.09.47.058.714-.06.447-.025.898-.053 1.348-.043.681-.032 1.366-.044 2.064.066.078.177.066.281.077.277.03.553-.015.825-.01.698.01 1.395.076 2.092.118.583.036 1.166.075 1.749.102.771.017 1.538.112 2.29.283.479.106.965.17 1.454.194.676.053 1.307.292 1.977.35.562.048 1.081.33 1.657.361a24.439 24.439 0 0 0 1.412-4.52c.299-1.565.61-3.136.648-4.735-.799-.016-1.551-.047-2.304-.04-.435.004-.868-.076-1.296-.038-.477.042-.952-.032-1.421.008-.226.02-.4-.15-.61-.081-.44.144-.893-.03-1.336.053-.036.007-.077-.017-.116-.023a4.154 4.154 0 0 0-1.094-.075c-.566.068-1.137.094-1.707.077-.486-.018-.972-.009-1.457-.02a6.594 6.594 0 0 1-1.012-.047c-.573-.106-1.135.064-1.698-.02-.033-.003-.073.026-.134.048h-.002zm-19.091-.316c-.492.048-.971-.063-1.464-.03-.578.04-1.162-.008-1.744-.018-.444-.007-.893-.052-1.33-.034-.554.024-1.106-.035-1.657.009-.164.013-.292-.156-.46-.09-.424.169-.866-.033-1.294.066a.17.17 0 0 1-.116-.016c-.196-.12-.383-.048-.544-.007-.137.176-.06.34-.042.49.026.239-.095.49-.02.695.242.675.144 1.396.339 2.078.137.48.143.997.27 1.482.115.544.266 1.08.452 1.603.087.213-.006.448.123.653.271.432.368.937.561 1.403.112.25.21.505.295.766.088.257.21.502.363.727.087.135.153.282.195.436.078.251.194.488.343.704.283.51.58 1.013.862 1.524.171.312.385.599.58.898a.262.262 0 0 0 .343.114c.09-.025.177-.057.262-.096.72-.398 1.467-.742 2.237-1.03.174-.065.327-.196.503-.24a8.613 8.613 0 0 0 1.668-.635.569.569 0 0 1 .187-.062c.522-.054.94-.386 1.484-.509-.288-.81-.56-1.583-.84-2.352a2.374 2.374 0 0 1-.091-.302 34.58 34.58 0 0 0-.333-1.394c-.104-.391-.267-.775-.37-1.174-.216-.95-.382-1.91-.496-2.877-.105-.71-.128-1.43-.167-2.147-.01-.198.032-.402-.098-.635h-.001zm40.368-14.941a.317.317 0 0 0-.26.044c-.518.306-1.098.469-1.645.706-.571.248-1.163.448-1.751.656-.605.232-1.221.43-1.847.596-.37.087-.724.254-1.103.332-.072.015-.159.043-.17.147a33.083 33.083 0 0 1 2.056 10.541c.282.08.579.097.868.048.105-.016.211-.023.317-.021.823.07 1.648-.024 2.472.079.537.067 1.08-.056 1.623.006.172.002.343.028.509.075a.666.666 0 0 0 .392.028c.608-.128 1.208-.166 1.759.191.228-.107.4-.3.664-.261.064-.96-.051-1.882-.161-2.797a17.785 17.785 0 0 0-.494-2.736 48.58 48.58 0 0 0-.84-2.644c-.308-.888-.724-1.726-1.063-2.599-.333-.86-.946-1.574-1.324-2.39l-.002-.001zm-44.519-.815c-.384.37-.542.836-.816 1.225a8.57 8.57 0 0 0-.695 1.25c-.235.491-.557.935-.749 1.45a7.5 7.5 0 0 1-.534 1.238c-.185.31-.124.707-.396.97-.04.656-.354 1.241-.49 1.875-.199.93-.47 1.843-.577 2.792-.04.357-.042.734-.167 1.061-.114.3-.072.56-.05.874.615.02 1.206.043 1.796.056.486.01.968.068 1.458.037.518-.032 1.036.154 1.56.04a.216.216 0 0 1 .078.01c.454.084.928.01 1.372.179.052.01.106.007.157-.01.499-.077 1.005-.1 1.51-.065.253.026.508.018.76-.022.113-3.557 1.051-6.94 2.24-10.28-.72-.365-1.497-.511-2.212-.823-.702-.305-1.443-.527-2.124-.87-.694-.35-1.423-.61-2.121-.987zm22.702 40.116a.932.932 0 0 0 .17-.048c.445-.231.813-.596 1.301-.756.023-.007.038-.037.058-.054.332-.282.68-.546 1.043-.789a29.81 29.81 0 0 0 2.001-1.565 14.97 14.97 0 0 0 1.712-1.668c.37-.432.788-.821 1.176-1.237.507-.545.943-1.14 1.4-1.72.287-.363.521-.768.783-1.15a.575.575 0 0 1 .184-.206.75.75 0 0 0 .315-.397c.206-.428.435-.845.685-1.25.345-.511.51-1.103.867-1.624-.104-.032-.156-.044-.204-.063-.397-.153-.84-.115-1.23-.3a.692.692 0 0 0-.316-.032 1.56 1.56 0 0 1-.392-.055 14.764 14.764 0 0 0-1.717-.31c-.912-.074-1.817-.207-2.727-.299-.925-.093-1.854-.11-2.78-.19-.553-.048-1.113-.017-1.67-.015-.14 0-.297-.04-.42.124.09.21-.022.424-.032.644-.014.331.031.664.023.995-.014.557-.053 1.116-.058 1.672-.005.56-.034 1.121-.029 1.683.006.623-.053 1.246-.021 1.87.019.368-.028.736-.045 1.1-.03.635-.018 1.27-.042 1.904-.013.328.071.667-.104.98-.048.085-.009.183-.004.276.05.556.05 1.115.003 1.672-.062.27-.037.553.07.808zm-1.67-50.945c-.678.439-1.362.844-2.002 1.317-.618.457-1.266.875-1.848 1.381-.39.338-.783.671-1.156 1.026-.366.348-.802.628-1.074 1.072a.897.897 0 0 1-.142.14 6.011 6.011 0 0 0-.52.532c-.404.525-.863 1.002-1.286 1.51-.363.438-.681.903-1.02 1.355-.183.244-.31.543-.528.745-.2.21-.362.451-.48.715a9.321 9.321 0 0 1-.755 1.305c-.217.28-.25.633-.502.848.042.09.125.153.222.171.237.027.472.076.7.148.697.288 1.45.301 2.171.467.564.13 1.141.233 1.711.344.506.098 1.017.16 1.523.245.586.099 1.189.117 1.783.186a39.3 39.3 0 0 0 2.016.169c.332.028.665.017.994-.034-.04-.414.063-.8.032-1.203a7.833 7.833 0 0 1 .05-1.232c.07-.824.053-1.654.095-2.482.037-.742-.041-1.489.04-2.233.04-.37-.08-.75-.018-1.104.067-.5.077-1.006.03-1.508a.775.775 0 0 1-.008-.238c.101-.352.054-.708.042-1.063-.021-.29-.018-.58.01-.87.058-.412.007-.817.02-1.225.004-.15.07-.321-.1-.484zm16.693 36.827c.268.252.596.231.883.318.396.12.762.311 1.158.43.711.211 1.418.444 2.113.702.31.116.655.186.922.373.495.347 1.08.415 1.64.663.303-.498.603-.965.876-1.448.361-.64.592-1.349 1.04-1.943a.534.534 0 0 0 .097-.26c.066-.704.491-1.286.658-1.958.035-.196.086-.388.153-.575a9.46 9.46 0 0 0 .56-2.018c.092-.482.28-.94.31-1.438.031-.527.142-1.047.217-1.569.064-.303.07-.615.02-.92-.47.08-.903-.075-1.357-.068-.4.006-.793.074-1.192.06-.607-.02-1.214-.04-1.82-.03-.447.007-.892-.06-1.339-.007a2.776 2.776 0 0 1-.818-.026 2.03 2.03 0 0 0-.807.007.374.374 0 0 1-.157.003c-.367-.092-.733.001-1.114-.018-.052.57-.157 1.12-.178 1.662-.057.9-.181 1.792-.371 2.672-.116.607-.241 1.22-.407 1.821-.29 1.049-.587 2.093-.976 3.109-.07.143-.107.299-.11.458zm-3.324-24.292a1.705 1.705 0 0 0-.244-.782c-.279-.494-.563-.985-.838-1.48a6.157 6.157 0 0 0-.393-.595c-.23-.322-.491-.636-.623-1.014a1.218 1.218 0 0 0-.304-.502 5.538 5.538 0 0 1-.496-.574 14.23 14.23 0 0 0-1.038-1.257c-.446-.44-.794-.96-1.242-1.4-.336-.332-.646-.702-1.002-1.019a68.984 68.984 0 0 0-2.006-1.732c-.231-.192-.47-.378-.705-.563-.373-.292-.813-.497-1.178-.812-.144-.11-.31-.19-.486-.233.094.306.014.562.012.822-.004.744-.002 1.487-.005 2.23.01.08 0 .16-.029.234a.862.862 0 0 0-.078.58c.013.159.015.32.036.477.065.487-.036.97-.045 1.456.015.364.007.728-.023 1.091-.056.325-.08.654-.07.983.037.33.049.661.033.992-.038.367-.05.737-.035 1.106.024.44-.011.876-.018 1.312a3.26 3.26 0 0 1-.045.74c-.095.388.045.777.043 1.155 3.66-.009 7.22-.473 10.779-1.215zm-14.31 37.594c-.06-.372-.054-.75.016-1.12.065-.512-.089-1.026-.002-1.546.061-.364-.024-.738.013-1.111a3.8 3.8 0 0 0 .03-.752c-.078-.72.026-1.435.046-2.149.017-.619.015-1.24.034-1.859.016-.516.039-1.033.075-1.546.018-.259-.1-.506-.04-.742.166-.661.03-1.315.024-2.01-.246 0-.471-.015-.694.004-.526.044-1.05.123-1.576.153-.704.041-1.396.168-2.093.256-.512.065-1.021.15-1.532.223a8.308 8.308 0 0 0-1.329.224c-.268.077-.54.138-.816.184-.663.128-1.322.282-1.979.443a.585.585 0 0 0-.396.217c.067.293.278.526.416.791.206.386.434.76.682 1.119.108.159.067.357.212.507.33.364.624.76.878 1.181.268.415.625.768.84 1.221a.436.436 0 0 0 .156.179c.303.184.49.477.722.729.137.147.21.348.359.47.496.405.897.902 1.352 1.346.58.567 1.198 1.088 1.788 1.643.472.408.97.787 1.488 1.135.243.18.544.302.736.522a.712.712 0 0 0 .59.288zm6.385 1.18a.6.6 0 0 0 .425-.033c.64-.313 1.362-.31 2.026-.55.718-.259 1.476-.404 2.19-.69.331-.132.686-.209 1.014-.35.584-.253 1.155-.536 1.732-.804.096-.044.164-.154.279-.146.286.02.464-.164.653-.33.066-.066.14-.123.22-.17.485-.243.951-.52 1.397-.827a25.336 25.336 0 0 0 2.443-1.773c.53-.456 1.111-.85 1.57-1.394.165-.196.326-.436.57-.55a.806.806 0 0 0 .362-.353c.048-.082.088-.17.18-.206a.664.664 0 0 0 .375-.393c.153-.364.487-.584.724-.88.162-.188.293-.4.388-.63-.708-.278-1.384-.575-2.08-.812-.713-.242-1.362-.657-2.112-.787-.724-.126-1.39-.46-2.11-.613-.277.6-.58 1.14-.87 1.688-.35.66-.765 1.274-1.144 1.913-.25.422-.554.805-.812 1.218-.255.407-.598.741-.862 1.14-.186.282-.464.503-.656.782-.378.51-.791.993-1.236 1.446-.396.437-.84.841-1.26 1.26-.408.404-.854.762-1.27 1.156-.248.236-.533.437-.798.66-.413.347-.855.66-1.338 1.028zm16.57-41.661a1.067 1.067 0 0 0-.215-.331c-.312-.376-.617-.76-.936-1.13-.408-.471-.825-.939-1.262-1.379-.657-.66-1.388-1.25-2.086-1.87-.255-.226-.601-.372-.874-.605a9.555 9.555 0 0 0-.96-.63c-.528-.351-1.055-.702-1.61-1.014-.325-.182-.662-.34-.987-.519-.218-.12-.375-.331-.639-.381-.553-.106-1.008-.459-1.539-.63a1.613 1.613 0 0 1-.609-.258 1.102 1.102 0 0 0-.7-.259 2.297 2.297 0 0 1-.834-.244 1.066 1.066 0 0 0-.22-.09c-.821-.156-1.625-.38-2.43-.595-.083-.022-.187-.056-.246.074.24.203.478.41.723.609.35.282.714.547 1.055.84.334.28.653.578.955.893.338.36.74.65 1.077 1.008.679.72 1.346 1.45 1.966 2.225a28.403 28.403 0 0 1 2.39 3.371c.326.525.623 1.068.888 1.626.233.525.607.988.833 1.507a4.647 4.647 0 0 0 1.348-.319c.8-.29 1.613-.531 2.418-.802a1.11 1.11 0 0 0 .257-.101c.327-.215.71-.306 1.066-.438.41-.153.817-.284 1.17-.558zm-25.577 41.644c-.131-.255-.387-.286-.537-.44-.53-.545-1.17-.956-1.742-1.45-.532-.46-1.075-.905-1.563-1.416-.385-.403-.746-.834-1.142-1.216-.568-.55-.962-1.238-1.539-1.772a.531.531 0 0 1-.062-.102 10.74 10.74 0 0 0-.94-1.285.957.957 0 0 1-.128-.15 33.347 33.347 0 0 0-1.265-2.068 3.006 3.006 0 0 1-.402-.64c-.144-.41-.448-.72-.63-1.143-2.114.582-4.092 1.456-6.04 2.373.08.505.592.638.736 1.042.554.392.954.947 1.46 1.39.695.606 1.367 1.237 2.1 1.8.363.28.816.454 1.066.874.023.034.055.06.093.074.654.26 1.206.704 1.836 1.008.285.128.555.286.806.473.264.191.565.328.883.402.125.045.246.102.361.168.177.116.365.214.561.294.665.189 1.274.526 1.936.714.763.216 1.495.535 2.276.696.257.054.516.092.772.17.364.089.732.157 1.104.204zm-10.03-39.98a2.56 2.56 0 0 0 .25-.344c.353-.729.75-1.436 1.189-2.117.42-.627.848-1.25 1.25-1.888a5.63 5.63 0 0 1 .502-.718c.079-.09.2-.154.248-.256.26-.537.699-.934 1.056-1.394.214-.276.502-.482.709-.76.409-.548.938-.98 1.427-1.443.469-.471.97-.909 1.499-1.31.378-.268.704-.606 1.103-.855.2-.151.384-.321.551-.508-.165-.173-.338-.08-.464-.027-.736.312-1.562.28-2.29.616a.194.194 0 0 1-.117.007.614.614 0 0 0-.485.13 2.032 2.032 0 0 1-.47.213c-.418.12-.828.267-1.227.438-.874.385-1.77.72-2.597 1.203-.157.092-.343.04-.49.15-.413.312-.849.592-1.305.837-.345.183-.624.48-1.013.592-.056.016-.102.083-.145.132a2.352 2.352 0 0 1-.674.555c-.35.18-.608.47-.9.713-.547.457-1.12.889-1.603 1.419-.384.422-.857.75-1.204 1.209-.149.22-.323.42-.521.597a.456.456 0 0 0-.222.4c.407.425 4.647 2.147 5.943 2.408zM57.66 27.629c.115 1.474-.03 2.76-.093 4.044-.019.76-.14 1.514-.362 2.241a4.31 4.31 0 0 0-.077.592c-.167.92-.507 1.793-.72 2.7-.147.508-.33 1.006-.546 1.49-.395 1.023-.746 2.07-1.276 3.038-.306.561-.587 1.14-.944 1.669-.416.616-.82 1.241-1.243 1.853-.304.438-.652.836-.977 1.253-.766.983-1.552 1.958-2.491 2.784-.479.42-.934.865-1.442 1.259-.576.448-1.193.852-1.72 1.36-.17.165-.394.21-.583.333-.332.214-.62.492-1.005.64a3.008 3.008 0 0 0-.68.474 1.915 1.915 0 0 1-.334.215c-.645.31-1.237.727-1.906.985-.681.263-1.33.596-2.027.832-.688.234-1.383.46-2.07.704-.506.163-1.023.287-1.547.371-.156.022-.31.06-.458.113-.452.16-.919.273-1.394.338-.953.18-1.919.289-2.889.325-.767.027-1.534.071-2.304.07-.786 0-1.564-.09-2.342-.157-1.304-.112-2.62-.204-3.886-.57-.789-.23-1.596-.381-2.373-.666-.546-.2-1.106-.379-1.648-.584a16.122 16.122 0 0 1-1.488-.66c-.144-.071-.288-.131-.436-.193-1.027-.43-2.01-.96-2.936-1.58-.354-.237-.74-.422-1.079-.685a2.536 2.536 0 0 1-.427-.358c-.025-.03-.049-.07-.083-.086-.64-.29-1.059-.885-1.667-1.218a.93.93 0 0 1-.202-.188c-.252-.254-.468-.541-.78-.738a1.368 1.368 0 0 1-.467-.486c-.128-.229-.39-.31-.57-.49-.73-.738-1.466-1.466-2.054-2.33-.127-.185-.305-.336-.435-.52-.368-.521-.743-1.037-1.065-1.59-.2-.345-.442-.666-.666-.997-.022-.033-.059-.059-.072-.094-.297-.775-.783-1.45-1.138-2.194a28.904 28.904 0 0 1-.905-2.129 21.207 21.207 0 0 1-.592-1.777c-.128-.446-.242-.898-.361-1.348a19.827 19.827 0 0 1-.428-2.228c-.06-.416-.2-.821-.245-1.243-.07-.66-.19-1.323-.18-1.984.01-.533-.044-1.061-.046-1.592-.001-.271.114-.53.078-.792-.091-.658.06-1.302.113-1.946.04-.478.046-.985.236-1.45.061-.15.015-.315.035-.475.117-.974.326-1.934.624-2.869.227-.693.387-1.408.704-2.08.208-.439.361-.914.557-1.365.253-.582.525-1.154.824-1.717.184-.349.421-.685.516-1.101.066-.292.318-.547.506-.804.075-.108.143-.22.205-.334a9.885 9.885 0 0 1 1.157-1.675c.154-.172.235-.387.38-.562.583-.707 1.211-1.374 1.816-2.06.512-.581 1.105-1.066 1.647-1.61a17.837 17.837 0 0 1 2.77-2.268c.465-.31.907-.656 1.392-.932.611-.347 1.244-.656 1.852-1.01a19.976 19.976 0 0 1 2.015-.945c1.127-.496 2.264-.987 3.468-1.264.775-.178 1.531-.428 2.326-.546.587-.087 1.177-.2 1.766-.293.519-.082 1.05-.112 1.577-.152a22.414 22.414 0 0 1 2.306-.126c.837.022 1.677.005 2.506.11.67.085 1.341.2 2.011.276.624.07 1.207.31 1.83.358.188.011.37.068.531.166.182.114.394.044.584.093 1.069.277 2.14.544 3.141 1.03.19.093.4.138.597.216.907.356 1.728.89 2.622 1.26.629.26 1.112.72 1.701 1.022a13.041 13.041 0 0 1 2.363 1.63c.55.457 1.134.876 1.643 1.39.522.529 1.063 1.044 1.58 1.576a6.36 6.36 0 0 1 1.032 1.26c.137.241.403.373.567.61.098.141.249.27.357.419.392.536.84 1.044 1.152 1.625.37.69.85 1.309 1.185 2.026.274.584.564 1.171.869 1.746.205.431.387.874.545 1.326.215.542.448 1.079.633 1.632.235.68.43 1.372.583 2.075.065.313.182.618.224.934.112.869.242 1.737.37 2.602.106.728 0 1.466.163 1.996zM2.71 33.673c.281.539.311 1.148.51 1.712.04.099.062.204.065.31-.01.298.25.53.187.837.228.306.3.677.426 1.025.282.783.603 1.552.963 2.302.226.467.416.954.667 1.408.307.556.663 1.085.97 1.643.124.224.227.51.402.657.51.43.79 1.029 1.214 1.52a51.64 51.64 0 0 0 2.377 2.61c.154.194.329.37.52.527.555.365 1.009.857 1.542 1.242.216.155.344.404.597.501.248.097.48.232.687.4.472.343.966.654 1.479.931.519.314 1.05.605 1.593.88.45.227.904.457 1.362.656.563.27 1.15.488 1.752.653.206.048.324.237.53.262.315.037.623.113.918.228.552.214 1.152.27 1.729.403.362.082.72.19 1.086.24.301.04.6.093.9.139.524.08 1.055.155 1.58.183.683.038 1.372.06 2.06.075.22.004.455-.097.663.015a.61.61 0 0 0 .465.025c.335-.082.678-.13 1.023-.144.21.013.42.007.628-.017.842-.188 1.708-.24 2.549-.436.386-.09.798-.085 1.169-.184.545-.146 1.09-.326 1.623-.52.599-.217 1.261-.267 1.795-.662.02-.015.052-.011.076-.02.288-.095.57-.206.844-.333.853-.453 1.747-.824 2.582-1.316.433-.256.89-.493 1.292-.78.493-.35 1.002-.684 1.482-1.057.184-.144.339-.35.555-.427a.804.804 0 0 0 .396-.3c.13-.169.278-.321.445-.454a20.356 20.356 0 0 0 1.67-1.585 17.617 17.617 0 0 0 1.736-1.97c.66-.883 1.39-1.726 1.856-2.744.035-.072.075-.141.12-.207.423-.644.702-1.366 1.09-2.028.007-.011.006-.027.012-.038.258-.54.47-1.1.708-1.648.087-.2.255-.366.276-.6.045-.483.285-.91.406-1.371.054-.269.135-.532.24-.785.078-.15.12-.316.124-.485.007-.226.047-.45.118-.665a5.7 5.7 0 0 0 .17-.688c.083-.495.148-.993.223-1.49.033-.222-.045-.299-.263-.23-.138.044-.262.135-.4.174-1.1.313-2.202.613-3.3.93-.447.13-.909.208-1.348.338-.495.146-.987.315-1.49.442-.603.152-1.19.363-1.791.52-.819.214-1.64.42-2.445.688-.23.098-.467.181-.708.25-.576.109-1.125.31-1.683.473-1.145.336-2.31.6-3.442.986-.316.108-.659.122-.967.218-.416.129-.832.261-1.251.385-.585.173-1.171.352-1.758.51-.652.177-1.31.334-1.949.556-.154.053-.335-.026-.526.129.757.107 1.385.432 2.045.659.94.324 1.835.78 2.791 1.058.61.178 1.136.56 1.77.67.199.013.394.06.577.138.372.182.77.304 1.18.363a.93.93 0 0 1 .522.273c.31.335.452.762.6 1.183-.125.276-.049.644-.412.812-.307.12-.595.284-.855.485a.263.263 0 0 1-.337-.004c-.201-.186-.463-.19-.693-.284-.337-.138-.633-.372-1.002-.442-.022-.004-.04-.033-.058-.053a1.438 1.438 0 0 0-.79-.431c-.321-.082-.66-.132-.94-.318a4.096 4.096 0 0 0-.944-.469c-.84-.286-1.63-.687-2.458-1-.21-.08-.395-.219-.604-.275-.627-.167-1.203-.471-1.824-.654a.381.381 0 0 1-.208-.108c-.199-.314-.503-.352-.832-.356a.939.939 0 0 1-.273-.056c-.752-.247-1.504-.493-2.254-.748-.395-.133-.758-.37-1.197-.352a.19.19 0 0 1-.11-.042 2.234 2.234 0 0 0-1.092-.374 2.386 2.386 0 0 1-.508-.092 9.538 9.538 0 0 0-1.934-.57c-.013-.001-.024-.013-.036-.017-.825-.234-1.647-.48-2.476-.699-.752-.2-1.513-.368-2.27-.554a.636.636 0 0 1-.366-.144.608.608 0 0 0-.508-.175 4.152 4.152 0 0 1-.437-.032c-.754-.069-1.461-.356-2.206-.468a1.279 1.279 0 0 1-.46-.096c-.261-.158-.542-.094-.809-.145-.28-.055-.53-.236-.83-.242a.675.675 0 0 0-.08-.01c-.552.058-1.077-.118-1.602-.228-.48-.1-.97-.114-1.45-.23a9.504 9.504 0 0 0-1.404-.208c-.372-.032-.727-.155-1.098-.17-.379-.017-.742-.126-1.121-.161-.61-.057-1.21-.238-1.812-.376-.125-.032-.203.007-.326.143zm25.24-31.032a.65.65 0 0 0-.163-.036c-.729.045-1.463.033-2.185.166a4.545 4.545 0 0 1-.474.057c-.42.033-.832.124-1.254.162-.35.032-.705.195-1.066.281-.236.029-.47.077-.698.144-.403.166-.832.27-1.251.396-.239.072-.486.118-.719.206-.594.225-1.179.473-1.773.698-.178.05-.353.113-.522.19a4.256 4.256 0 0 1-.923.45c-.443.13-.507.374-.288.797.293.567.507 1.17.757 1.755.375.88.772 1.753 1.088 2.658.103.296.334.55.268.9.003.066.03.13.074.179.327.444.464.981.712 1.464.2.388.335.805.53 1.198a3.1 3.1 0 0 1 .315.73c.1.491.403.896.553 1.367.062.242.152.475.268.696.277.445.365.962.62 1.406.138.237.143.52.277.743.318.53.467 1.13.74 1.674.345.688.486 1.461.879 2.13a.62.62 0 0 1 .108.454.37.37 0 0 0 .081.263c.298.517.555 1.057.768 1.615.117.267.21.546.341.806.347.69.619 1.412.896 2.13.191.495.502.945.571 1.486.386.459.51 1.045.725 1.58.178.444.44.852.568 1.317.022.08.055.183.188.2.06-.484.026-.968.046-1.45.013-.301-.026-.598.01-.908.036-.31-.048-.654-.045-.986-.02-.478-.014-.956.019-1.433.05-.341.059-.687.025-1.03a4.482 4.482 0 0 1-.043-.558c.001-.929.019-1.858.011-2.786-.002-.267.086-.517.066-.79a12.971 12.971 0 0 1-.077-1.514c.018-.423.038-.851.025-1.272-.024-.744-.01-1.485-.01-2.228 0-.364.107-.728.014-1.097-.092-.365-.032-.74-.03-1.112.006-.84.028-1.68.055-2.52.026-.802-.093-1.61-.054-2.417.03-.622-.026-1.245.006-1.864.023-.37.014-.742-.026-1.111a.702.702 0 0 1-.005-.12c.057-1.02.028-2.04.004-3.06-.01-.407.04-.81.02-1.22-.014-.255.01-.517-.022-.786zM41.214 5.64c-.25-.328-.666-.407-.999-.6-.293-.17-.656-.252-.985-.394-.727-.314-1.487-.552-2.237-.81a8.942 8.942 0 0 0-1.1-.332c-.798-.164-1.558-.509-2.39-.507a.266.266 0 0 1-.04-.009c-.756-.119-1.496-.354-2.28-.297a1.878 1.878 0 0 1-.706-.083.296.296 0 0 0-.36.088c.084.532.05 1.098.07 1.662.015.474-.137.948-.003 1.422-.133.77-.05 1.549-.034 2.319.015.727.028 1.458-.018 2.178-.033.53.109 1.048 0 1.58-.07.346.005.715.003 1.073 0 .229.096.451.045.674-.133.566-.053 1.138-.043 1.704.01.502.043 1.001.014 1.506-.024.417.025.839.04 1.259.018.16.017.32-.005.48-.135.567-.011 1.138-.032 1.707-.014.358-.202.708-.04 1.083.112.26.01.544-.001.82-.026.596.028 1.195.053 1.793.006.093.007.185.003.277-.035.51-.133 1.017-.037 1.53.043.112.06.233.053.353a5.234 5.234 0 0 0-.052 1.464c.012.225.084.457.038.673-.086.4-.036.796-.036 1.193 0 .568.07 1.135-.016 1.706a.62.62 0 0 0 .096.513c.304-.647.608-1.26.88-1.886.151-.352.357-.68.463-1.052.086-.376.215-.74.384-1.087.118-.16.206-.338.261-.528.066-.283.167-.557.302-.814.207-.471.4-.948.612-1.417.06-.134.037-.304.15-.408.223-.205.26-.484.328-.753a.864.864 0 0 1 .068-.186c.186-.378.353-.766.501-1.161.153-.387.468-.705.484-1.152a.21.21 0 0 1 .056-.105c.23-.326.393-.695.478-1.085.021-.076.01-.167.081-.218.205-.145.24-.363.275-.589.046-.292.259-.522.35-.782.168-.455.36-.901.576-1.336.396-.784.722-1.602.976-2.444a.846.846 0 0 1 .11-.254c.38-.566.501-1.244.803-1.846.271-.54.453-1.126.677-1.691a.281.281 0 0 1 .082-.134.593.593 0 0 0 .224-.41c.158-.679.547-1.265.76-1.922.054-.168.232-.275.253-.482a1.62 1.62 0 0 1 .224-.544c.171-.337.272-.71.484-1.03a.577.577 0 0 0 .051-.194l.106-.515zM5.044 17.356c-.247.432-.463.881-.647 1.344-.078.203-.121.441-.263.602a.788.788 0 0 0-.202.5c-.02.172-.062.34-.124.502-.164.42-.305.847-.422 1.282-.162.75-.384 1.485-.538 2.24-.208 1.017-.308 2.046-.438 3.072-.024.183.05.398-.022.55-.121.259-.066.494-.024.74.043.263.045.532.004.795-.029.17-.034.342-.015.512.058.435.063.874.1 1.309.018.208-.043.442.073.666.432-.211.881-.415 1.316-.279.458.144.919.057 1.367.16.078.01.156.027.232.048.362.13.74.21 1.122.24.612.064 1.194.246 1.798.328.47.064.935.223 1.398.28.846.105 1.658.342 2.488.506.198.016.394.041.59.076.558.171 1.13.289 1.694.43.249.063.503.043.741.124a10.96 10.96 0 0 0 1.568.416c.534.097 1.031.332 1.57.423.265.022.526.072.78.15.569.227 1.182.293 1.76.486.136.052.275.097.416.134.558.119 1.106.284 1.637.494.225.078.454.14.687.188.45.113.914.178 1.313.44a.774.774 0 0 0 .606.076c-.654-.486-1.122-1.062-1.696-1.525-.217-.176-.51-.31-.586-.63-.007-.03-.06-.049-.093-.07-.606-.388-1.06-.955-1.62-1.396-.162-.128-.189-.373-.374-.456-.328-.148-.539-.42-.764-.672-.306-.345-.78-.514-.988-.957-.04-.083-.137-.075-.2-.12-.227-.157-.496-.272-.6-.561a.237.237 0 0 0-.145-.128c-.347-.162-.587-.464-.83-.729a10.907 10.907 0 0 0-1.5-1.424c-.675-.5-1.219-1.131-1.878-1.643-.514-.4-.97-.882-1.454-1.326-.184-.17-.44-.283-.551-.509-.11-.222-.3-.33-.473-.47-.092-.076-.203-.13-.29-.21-.61-.556-1.163-1.175-1.822-1.679a.777.777 0 0 1-.12-.157c-.256-.336-.689-.496-.88-.894-.525-.255-.879-.71-1.285-1.102-.553-.535-1.093-1.083-1.654-1.608a8.564 8.564 0 0 0-.761-.568zm26.768 16.496c.58-.477 1.074-.955 1.57-1.421.655-.615 1.241-1.306 1.906-1.914.294-.268.55-.57.856-.828.41-.345.777-.74 1.17-1.104.29-.268.535-.579.838-.836.312-.266.602-.558.892-.849.327-.326.655-.65.979-.978.333-.338.712-.624 1.022-.992.346-.41.798-.72 1.171-1.114.292-.308.597-.638 1-.83.054-.026.088-.098.128-.151.237-.32.502-.62.79-.895.82-.78 1.66-1.54 2.463-2.336.978-.968 1.957-1.933 2.964-2.872.529-.493 1.037-1.012 1.552-1.523.083-.083.188-.154.2-.256-.595-1.175-1.415-2.171-2.23-3.152a21.374 21.374 0 0 0-2.739-2.726 30.425 30.425 0 0 0-3.124-2.297c-.203.523-.402.985-.588 1.45-.094.236-.259.445-.317.68-.131.535-.438.992-.608 1.506-.137.416-.432.763-.5 1.208-.03.102-.072.2-.125.293-.115.266-.23.533-.343.8-.198.465-.388.933-.595 1.395-.086.19-.237.338-.297.557-.104.379-.188.78-.51 1.062a.336.336 0 0 0-.084.176c-.13.617-.42 1.174-.65 1.753-.253.64-.496 1.287-.778 1.914-.245.545-.49 1.092-.718 1.643-.262.633-.596 1.237-.783 1.899-.076.27-.234.496-.331.756-.208.554-.464 1.09-.682 1.644-.379.963-.823 1.9-1.24 2.848-.115.265-.169.562-.42.754a.35.35 0 0 0-.085.176 9.4 9.4 0 0 1-.314.89c-.41 1.02-.776 2.057-1.264 3.044-.101.194-.161.407-.176.625zm-6.528-1.03c-.176-.376-.251-.8-.458-1.158-.267-.461-.268-1.032-.629-1.447-.007-.009-.005-.026-.007-.04a2.521 2.521 0 0 0-.387-.952c-.048-.077-.146-.134-.12-.24.057-.244-.103-.406-.219-.576a1.063 1.063 0 0 1-.244-.578.572.572 0 0 0-.13-.288 4.57 4.57 0 0 1-.405-.981 15.137 15.137 0 0 0-.677-1.662c-.187-.395-.416-.768-.578-1.178-.059-.149-.05-.311-.137-.455-.412-.679-.63-1.446-.973-2.157-.14-.288-.22-.596-.34-.885-.122-.288-.289-.563-.414-.856a6.24 6.24 0 0 0-.277-.654 6.691 6.691 0 0 1-.454-1.128c-.13-.383-.338-.733-.449-1.13-.098-.35-.352-.672-.487-1.037-.126-.344-.278-.68-.403-1.027-.185-.512-.33-1.055-.608-1.512-.397-.65-.62-1.373-.96-2.046-.333-.654-.542-1.371-.89-2.025a.314.314 0 0 1-.047-.15 1.037 1.037 0 0 0-.237-.626 2.199 2.199 0 0 1-.32-.766c-.07-.344-.295-.346-.522-.163-.134.108-.25.242-.393.338-.548.371-1.074.772-1.578 1.2a7.878 7.878 0 0 0-.667.571c-.134.14-.348.131-.471.288-.427.545-.952.998-1.425 1.499a.987.987 0 0 1-.261.233.667.667 0 0 0-.304.41c-.065.21-.33.161-.395.368-.085.27-.288.473-.462.692-.18.194-.349.397-.505.61-.32.52-.657 1.03-1.028 1.515-.129.14-.2.323-.195.513.108.127.287.204.331.384a.554.554 0 0 0 .3.358c.409.212.676.588 1.036.857.468.348.858.79 1.312 1.16.229.159.439.345.625.552.353.46.839.778 1.252 1.172.192.183.336.422.561.558.45.272.744.713 1.163 1.017.26.188.412.498.67.675.554.38.97.907 1.492 1.317.606.476 1.06 1.112 1.684 1.568.22.13.391.33.485.568.032.107.14.162.229.218.453.281.82.663 1.214 1.015.514.46 1.012.936 1.538 1.38.436.37.836.776 1.245 1.172.438.424.965.757 1.318 1.269.537.262.853.784 1.32 1.125.218.158.352.393.558.556.239.189.482.373.723.56zm30.088-3.452c.009-.182.008-.366-.003-.548-.081-.725.06-1.454-.094-2.183-.102-.488-.09-1.002-.146-1.503-.02-.185-.142-.36-.087-.539a.779.779 0 0 0-.087-.572 2.433 2.433 0 0 1-.17-.615 3.288 3.288 0 0 0-.074-.51c-.304-.921-.485-1.88-.848-2.782-.229-.568-.36-1.172-.658-1.713-.096-.174-.163-.365-.244-.546-.122-.271-.212-.57-.429-.794a.902.902 0 0 0-.545.392.778.778 0 0 1-.18.211 3.322 3.322 0 0 0-.795.763.584.584 0 0 1-.258.181.75.75 0 0 0-.285.21c-.185.209-.378.411-.562.618-.629.704-1.367 1.293-2.008 1.985-.54.583-1.162 1.088-1.716 1.658-.4.41-.891.718-1.258 1.152-.276.326-.672.52-.9.89a2.302 2.302 0 0 1-.444.444 4.858 4.858 0 0 0-.61.555c-.333.389-.694.75-1.082 1.084-.248.235-.436.544-.788.656-.043.014-.07.076-.106.115-.187.205-.376.408-.573.604-.422.42-.816.866-1.27 1.255-.167.133-.322.28-.463.439-.57.691-1.26 1.26-1.912 1.865-.158.146-.253.337-.424.467-.356.27-.734.509-1 .893a1.295 1.295 0 0 1-.69.524.196.196 0 0 0-.14.126 1.87 1.87 0 0 1-.64.785c-.378.325-.729.68-1.05 1.06l1.524-.425c.206-.083.42-.14.64-.173a1.41 1.41 0 0 0 .676-.192.62.62 0 0 1 .414-.105.917.917 0 0 0 .57-.15c.309-.155.633-.275.967-.357.126-.037.264-.034.389-.072.427-.132.846-.297 1.279-.407.844-.214 1.665-.508 2.514-.71.706-.168 1.39-.423 2.085-.636a.78.78 0 0 1 .35-.069c.25.041.506-.017.714-.162.093-.051.19-.094.291-.127.49-.17 1-.284 1.484-.453.549-.192 1.155-.194 1.662-.513a.19.19 0 0 1 .116-.014c.338.046.624-.094.905-.248a1.66 1.66 0 0 1 .486-.175c.806-.157 1.575-.45 2.36-.677.572-.165 1.147-.314 1.716-.484.464-.139.957-.202 1.397-.478z"/>
    </g>
</svg>
