<svg xmlns="http://www.w3.org/2000/svg" width="160" height="120" viewBox="0 0 160 120">
    <g fill="#333" fill-rule="nonzero">
        <path d="M99.439 93.488c-.703.034-1.366.069-2.03.094a4.438 4.438 0 0 1-.717-.002 2.014 2.014 0 0 0-1.117.245c-.23.112-.47.305-.455.632.007.146-.12.24-.127.373-.016.413.157.81.47 1.078.448.439 1.012.446 1.556.456.567.011 1.138-.008 1.707-.022.354-.008.708-.109 1.099.054.16.329.195.74.289 1.131.128.538.22 1.086.32 1.63.03.157.077.31.142.456.313.731.475 1.517.802 2.242.18.398.314.817.47 1.222.194.505.507.956.629 1.494.05.22.22.417.341.616.206.354.383.723.53 1.105.125.292.285.569.475.824.224.313.466.608.66.943.925 1.588 2.139 2.949 3.388 4.28.091.098.182.196.27.296.012.023.02.048.023.073a.533.533 0 0 1-.215.176c-.792.47-1.585.936-2.376 1.407-.207.123-.45.141-.66.272-.6.369-1.29.535-1.93.818-.096.042-.19.087-.283.136-.345.203-.72.348-1.111.43-.384.062-.682.34-1.063.433-.254.061-.494.183-.759.223-.145.018-.287.06-.418.125-.38.205-.802.258-1.213.352-.026.006-.063-.008-.078.005-.359.326-.84.282-1.261.413-.633.196-1.28.349-1.9.591-.44-.056-.83.162-1.246.225a1.25 1.25 0 0 0-.45.14 1.15 1.15 0 0 1-.586.1 2.288 2.288 0 0 0-.992.217c-.312.148-.655.07-.978.15a5.798 5.798 0 0 1-1.052.21c-.247.017-.486.152-.742.046a.105.105 0 0 0-.078.006c-.343.178-.729.134-1.087.219a2.8 2.8 0 0 1-.668.076c-.337-.002-.682-.047-1 .116a.49.49 0 0 1-.236.022c-.622.005-1.248-.05-1.857.143-.245.077-.497-.015-.751.013-.18.02-.367.022-.549.052a1.195 1.195 0 0 1-.43-.007 4.16 4.16 0 0 0-1.19.032c-.239.025-.474.072-.702-.049a.279.279 0 0 0-.194-.021c-.38.079-.771-.004-1.15.086a.803.803 0 0 1-.396-.021 1.071 1.071 0 0 0-.23-.06c-.712-.019-1.423-.042-2.134-.04-.25-.014-.5-.045-.747-.09-.393-.045-.792-.039-1.189-.052a.96.96 0 0 1-.238.001c-.548-.17-1.132-.107-1.68-.265a1.455 1.455 0 0 0-.703-.067.815.815 0 0 1-.394-.042 6.66 6.66 0 0 0-1.333-.213c-.408-.04-.792-.201-1.202-.25a1.383 1.383 0 0 0-.383-.048.767.767 0 0 1-.392-.05 2.84 2.84 0 0 0-1.16-.24c-.168.002-.293-.118-.452-.15-.551-.112-1.123-.175-1.644-.371-.72-.272-1.515-.28-2.197-.663a.838.838 0 0 0-.229-.072 6.75 6.75 0 0 1-1.71-.614c-.023-.012-.05-.032-.073-.029-.349.043-.635-.142-.948-.242a12.995 12.995 0 0 1-1.582-.62 2.356 2.356 0 0 0-.739-.235.374.374 0 0 1-.185-.064c-.513-.375-1.125-.526-1.707-.747-.05-.019-.116-.015-.151-.047-.32-.297-.773-.348-1.111-.61a.618.618 0 0 0-.254-.096 2.452 2.452 0 0 1-.944-.407c-.247-.189-.546-.275-.817-.408a6.685 6.685 0 0 1-1.108-.689c-.01-.008-.022-.02-.033-.021-.634-.08-1.03-.64-1.629-.806-.241-.067-.418-.308-.644-.452-.436-.277-.89-.517-1.344-.759a3.149 3.149 0 0 1-.437-.343 3.348 3.348 0 0 0-.93-.574.566.566 0 0 1-.237-.14 3.572 3.572 0 0 0-1.217-.862c-.204-.097-.297-.302-.472-.425-.378-.266-.765-.52-1.135-.793a8.529 8.529 0 0 1-.957-.767c-.226-.222-.51-.376-.752-.581a3.098 3.098 0 0 1-.492-.458 1.146 1.146 0 0 0-.507-.426.696.696 0 0 1-.25-.193 11.88 11.88 0 0 0-1.41-1.286c-.29-.228-.49-.56-.788-.786-.563-.43-.933-1.057-1.51-1.474a.87.87 0 0 1-.206-.241 3.22 3.22 0 0 0-.61-.678c-.14-.1-.265-.222-.369-.36-.269-.427-.6-.811-.984-1.139a6.95 6.95 0 0 1-.856-.994c-.173-.22-.36-.426-.538-.64a15.24 15.24 0 0 1-.865-1.179c-.098-.143-.222-.264-.323-.401-.407-.556-.78-1.138-1.207-1.678-.421-.533-.71-1.153-1.148-1.672a.895.895 0 0 1-.153-.23 4.703 4.703 0 0 0-.831-1.351c-.195-.221-.237-.501-.377-.742-.2-.343-.465-.64-.64-.998-.324-.668-.692-1.313-1.017-1.982-.264-.544-.472-1.12-.806-1.629a3.198 3.198 0 0 1-.296-.565c-.423-1.061-.96-2.075-1.34-3.153-.23-.652-.522-1.282-.717-1.943-.218-.74-.527-1.45-.73-2.19-.29-1.048-.634-2.085-.805-3.16-.095-.593-.36-1.13-.477-1.71-.162-.808-.332-1.613-.498-2.42a.767.767 0 0 1-.021-.158c.005-.658-.219-1.28-.287-1.928-.038-.355-.072-.712-.115-1.065-.054-.436-.075-.872-.117-1.307-.021-.224-.058-.45-.061-.675.004-.25-.034-.5-.111-.739a.42.42 0 0 1-.026-.196c.095-.587-.081-1.173-.02-1.752.063-.579-.105-1.13-.094-1.697.012-.56.033-1.121.059-1.682.007-.155-.016-.325.136-.47.165.01.328.049.48.117 1.044.327 2.098.615 3.161.866.956.225 1.938.298 2.915.39.486.047.973.068 1.458.135.303.022.607.022.91.002.75 0 1.503.013 2.259-.04a68.05 68.05 0 0 0 2.404-.222 19.542 19.542 0 0 0 2.39-.427c.495-.116.99-.29 1.506-.266.508.023.956-.17 1.438-.346.077.372.093.754.048 1.13a3.82 3.82 0 0 0 0 .878c.035.49-.082.983.032 1.473.006.12-.008.239-.04.354-.047.372.062.734.082 1.103.014.27.51.628.789.632.172.01.345.011.518.004.186-.018.422.108.52-.213.027-.087.28-.073.365-.25.128-.266.204-.557.411-.792.11-.125.041-.342.023-.506a6.983 6.983 0 0 1 .007-.706c-.007-.633.024-1.267-.008-1.897-.018-.37.03-.734.003-1.1-.026-.356-.085-.71-.128-1.046.035-.042.048-.07.07-.081.704-.366 1.4-.751 2.119-1.087.673-.315 1.281-.746 1.947-1.062.783-.371 1.467-.89 2.153-1.394a35.797 35.797 0 0 0 2.191-1.71c.573-.492 1.097-1.034 1.67-1.525.458-.394.84-.877 1.269-1.307.431-.433.752-.957 1.16-1.405.172-.188.264-.467.542-.554.02-.006.035-.039.047-.062.392-.787.985-1.443 1.429-2.198.401-.683.815-1.359 1.199-2.053.34-.617.627-1.25.918-1.89.284-.624.554-1.256.799-1.894.307-.805.544-1.637.796-2.462.236-.771.355-1.572.571-2.348.166-.594.13-1.213.268-1.806.134-.607.21-1.224.23-1.845.029-.617.078-1.237.062-1.859-.017-.633.038-1.272-.022-1.902-.08-.844-.048-1.697-.23-2.534a8.249 8.249 0 0 1-.23-1.531c-.005-.187-.193-.341-.054-.562.199-.123.454-.034.67-.015.359.012.717-.004 1.072-.048a8.155 8.155 0 0 1 1.43-.01c.378.053.76.066 1.14.036.157-.018.308-.069.469-.083a.47.47 0 0 0 .439-.432c0-.08.025-.157.07-.223.198-.216.158-.494.104-.724a2.206 2.206 0 0 0-.304-.771.453.453 0 0 0-.423-.246c-.027.002-.058.013-.08.003-.68-.312-1.39-.054-2.083-.102a2.498 2.498 0 0 0-.992.056.156.156 0 0 1-.118.001c-.311-.212-.644-.083-.97-.07-.384.016-.761-.09-1.118-.053a.489.489 0 0 1-.144-.28c-.088-.513-.32-.977-.487-1.463-.103-.299-.191-.603-.282-.905a2.04 2.04 0 0 0-.122-.336c-.332-.664-.671-1.325-.975-2.001-.404-.898-.932-1.723-1.428-2.568-.234-.4-.537-.76-.757-1.161-.82-1.496-2.056-2.647-3.162-3.905l-.148-.17c.01-.133.112-.16.187-.205.721-.432 1.435-.878 2.17-1.285a24.332 24.332 0 0 1 1.714-.843c.336-.152.717-.175 1.055-.338.12-.05.234-.11.342-.182.13-.093.276-.16.431-.2.535-.143 1.085-.247 1.55-.579a.94.94 0 0 1 .375-.128c.44-.098.869-.246 1.276-.44.341-.156.72-.17 1.07-.293.113-.025.222-.065.325-.118a.754.754 0 0 1 .367-.142c.518-.011.986-.2 1.454-.384.278-.083.56-.153.844-.207.98-.274 1.976-.475 2.964-.712a1.76 1.76 0 0 1 .395-.05c.357.003.713-.057 1.05-.177.424-.157.891-.099 1.337-.163.13-.006.259-.034.38-.084.194-.085.403-.132.615-.138.422-.036.84-.098 1.267-.113a7.373 7.373 0 0 0 1.291-.18c.358-.077.76-.008 1.144-.043.159-.01.316-.03.472-.062a1.52 1.52 0 0 1 .59-.02c.424.068.845-.055 1.268-.077.78-.041 1.56-.074 2.343-.058a5.78 5.78 0 0 1 1.337.118c.624-.176 1.233.024 1.848.08a.783.783 0 0 0 .232-.027 1.06 1.06 0 0 1 .74.043.44.44 0 0 0 .311.032.481.481 0 0 1 .198-.016c.523.12 1.06.038 1.583.11.339.047.674.123 1.016.162.129.02.259.03.389.03.212-.009.424.024.623.096.325.105.664.158 1.006.157.237-.003.474.032.7.104.29.084.586.15.885.196.422.091.86.048 1.28.217.258.104.575.055.86.134.511.142 1.045.2 1.525.447.055.038.12.06.188.064.42-.07.772.15 1.15.258.28.08.549.199.848.195.264-.003.46.19.712.243a6.485 6.485 0 0 1 1.826.654.468.468 0 0 0 .232.037c.263.008.52.09.738.238.28.15.581.255.894.313.254.066.5.163.73.29.372.176.757.322 1.153.434.372.1.729.253 1.058.455.328.228.746.254 1.098.445.37.2.752.388 1.133.553.537.233 1.002.605 1.568.772.052.01.102.03.147.06.478.42 1.083.607 1.636.886.117.063.225.142.32.235a.911.911 0 0 0 .328.222c.351.116.61.417.983.49.053.01.1.036.137.076a2.59 2.59 0 0 0 1.01.693c.557.246.977.68 1.493.977.302.164.594.348.872.55.703.536 1.46 1.004 2.132 1.575.414.352.836.683 1.28.993.235.164.378.438.642.583.447.246.735.684 1.138.984.111.084.147.23.255.304.204.14.335.372.606.435.137.032.227.174.326.285.237.267.444.567.778.734a.615.615 0 0 1 .295.315c.06.12.15.22.263.292.123.082.226.19.302.316a.52.52 0 0 0 .288.254c.266.13.486.336.634.593.267.428.692.685.997 1.063.25.31.565.567.756.924.047.08.113.145.193.192a.79.79 0 0 1 .262.242c.294.548.79.927 1.155 1.408.28.37.547.754.855 1.1.46.516.773 1.137 1.24 1.648.23.25.339.594.557.866.122.154.23.325.36.477a.954.954 0 0 1 .257.442c.04.142.118.27.226.372.432.52.813 1.08 1.137 1.674.482.821 1.003 1.625 1.38 2.508.15.352.428.632.566.999.06.156.154.304.202.47.03.103.04.233.109.297.386.362.462.894.742 1.313.11.154.17.337.176.526a.226.226 0 0 0 .039.15c.264.248.327.606.48.91.168.338.271.715.446 1.056.225.438.278.945.558 1.359a.573.573 0 0 1 .07.266c.03.212.093.417.19.608.239.474.369.99.552 1.483.307.825.5 1.681.8 2.505.136.318.218.657.242 1.003a.432.432 0 0 0 .025.196c.28.496.33 1.055.468 1.593.138.539.198 1.095.361 1.633.169.554.198 1.15.317 1.722.111.533.208 1.071.264 1.612.06.56.245 1.105.191 1.683.01.212.046.421.107.624.084.551.125 1.108.123 1.665.004.242.129.483.128.74-.007.825.078 1.645.07 2.473-.008.853.005 1.706-.045 2.559a.561.561 0 0 1-.097.396.976.976 0 0 1-.445-.115 22.065 22.065 0 0 0-3.11-.896 14.858 14.858 0 0 0-2.467-.378c-.921-.036-1.847-.123-2.771-.17-.306-.017-.64.025-.943-.006-.462-.048-.916.059-1.372-.006a.476.476 0 0 0-.237-.012c-.37.172-.788.018-1.16.174a.552.552 0 0 1-.235.024c-.453-.024-.885.134-1.327.153a5.699 5.699 0 0 0-1.144.137c-.526.13-1.05.274-1.575.408-.103.03-.208.048-.315.052-.356-.002-.668.168-1 .244-.52.119-.997.348-1.507.491-.453.128-.899.307-1.347.467-.691.247-1.338.6-2.04.83a4.294 4.294 0 0 0-1.032.512c-.562.374-1.163.687-1.736 1.046-.527.33-1.073.625-1.574 1-.23.199-.494.356-.779.464a.572.572 0 0 0-.198.132c-.535.507-1.106.974-1.71 1.397-.625.412-1.034 1.043-1.634 1.48-.265.193-.436.524-.696.75-.35.302-.575.715-.95 1.004-.23.176-.38.47-.57.708-.372.461-.721.94-1.131 1.369-.17.177-.21.425-.358.62-.3.35-.58.714-.838 1.094-.055.091-.115.18-.16.277-.29.611-.654 1.182-.976 1.774a14.43 14.43 0 0 0-.763 1.558c-.151.381-.408.717-.525 1.102-.115.378-.349.698-.417 1.102a3.706 3.706 0 0 1-.406 1.106c-.201.39-.334.812-.393 1.247-.078.499-.262.968-.34 1.465-.076.482-.176.965-.293 1.435-.2.801-.226 1.624-.391 2.427-.065.4-.095.806-.089 1.211-.015.544-.14 1.075-.122 1.618-.005.187.002.373.02.559.108.65.036 1.305.078 1.956a1.665 1.665 0 0 1-.025.23zM89.119 60.98c.115-.032.146-.03.163-.046a71.559 71.559 0 0 0 1.946-1.893c.612-.623 1.274-1.201 1.838-1.87.267-.317.643-.504.895-.839.36-.478.858-.827 1.243-1.282.207-.245.526-.349.706-.629.262-.4.573-.766.924-1.09 1.151-1.09 2.18-2.304 3.407-3.319a13.517 13.517 0 0 0 1.586-1.616 5.52 5.52 0 0 0 .75-.975c.128-.238.185-.502.306-.736a8.703 8.703 0 0 0 .863-2.592c.091-.567.206-1.135.172-1.726-.013-.219-.051-.441-.047-.663.005-.5-.046-1-.155-1.488a9.35 9.35 0 0 0-.773-2.083 7.938 7.938 0 0 0-.67-1.174 5.726 5.726 0 0 1-.532-.737c-.215-.436-.63-.664-.936-1-.19-.208-.459-.367-.65-.582a2.411 2.411 0 0 0-.883-.599 4.144 4.144 0 0 1-.356-.174c-.737-.399-1.517-.711-2.326-.931-.179-.05-.37-.06-.545-.12a3.557 3.557 0 0 0-.931-.15c-.513-.033-1.03-.01-1.545.005a3.527 3.527 0 0 0-.948.079c-.532.162-1.076.288-1.6.473a5.946 5.946 0 0 0-1.372.61c-.563.383-1.15.731-1.639 1.242-.492.514-1.028.994-1.523 1.51-1.467 1.532-3.007 2.99-4.506 4.488-.735.736-1.476 1.464-2.214 2.195-.493.488-.997.966-1.475 1.468-.483.507-1.015.963-1.495 1.474-.777.825-1.584 1.623-2.39 2.42a128.063 128.063 0 0 0-4.382 4.559 7.77 7.77 0 0 0-1.394 2.312 7.69 7.69 0 0 0-.621 2.296c-.062.475-.1.953-.114 1.431.01.517.105 1.032.157 1.548.128 1.265.659 2.372 1.327 3.429.234.371.49.728.767 1.069.107.132.148.318.298.419.432.29.744.713 1.16 1.026.594.444 1.227.833 1.891 1.162.263.13.437.068.627-.135.296-.345.624-.661.98-.943.647-.464 1.135-1.085 1.724-1.589-.047-.085-.102-.08-.152-.09a6.322 6.322 0 0 1-1.935-.696 6.96 6.96 0 0 1-1.733-1.418c-.678-.77-1.073-1.672-1.359-2.635a1.833 1.833 0 0 1-.06-.515c0-1.985.637-3.728 2.035-5.15 2.657-2.705 5.333-5.39 7.998-8.087.373-.377.765-.736 1.125-1.123a32.434 32.434 0 0 1 2.583-2.535c.287-.247.508-.57.844-.764a.13.13 0 0 0 .05-.062c.182-.453.631-.665.93-1.016.33-.389.763-.69 1.14-1.04.531-.463 1.02-.971 1.463-1.52.04-.052.077-.125.13-.145.36-.131.62-.408.91-.631.56-.432 1.204-.665 1.86-.865.46-.138.931-.225 1.409-.26.99-.074 1.89.195 2.773.584.59.26 1.017.75 1.535 1.111a.735.735 0 0 1 .148.133c.653.8 1.237 1.632 1.32 2.71a5.888 5.888 0 0 1 .168 1.892c-.023.68-.301 1.287-.524 1.912-.096.262-.25.499-.452.692-2.892 2.904-5.784 5.808-8.675 8.714l-1.557 1.571c.438 1.629.546 3.328.318 4.999zm-23.273-3.619c-.092.05-.152.064-.18.101-.323.422-.779.704-1.114 1.12-.365.452-.832.817-1.24 1.236-.752.772-1.527 1.522-2.293 2.28l-5.407 5.356a.694.694 0 0 0-.16.177c-.166.367-.487.594-.758.866a3.022 3.022 0 0 0-.52.6 24.67 24.67 0 0 0-.504.918c-.16.274-.296.561-.407.858-.27.846-.543 1.694-.627 2.586a6.737 6.737 0 0 0-.084 1.224c.05.552.048 1.111.188 1.655.082.21.105.437.069.658a.254.254 0 0 0 .045.192c.36.475.42 1.081.71 1.594.44.774.863 1.55 1.475 2.206.227.243.468.47.692.713.331.344.707.643 1.116.89a8.633 8.633 0 0 0 1.566.843c.639.262 1.3.466 1.974.611a9.388 9.388 0 0 0 1.86.19c.393-.007.784-.054 1.184-.033.272.014.582-.131.868-.217.206-.062.42-.05.619-.134.511-.219 1.039-.398 1.54-.643a9.8 9.8 0 0 0 1.318-.73 8.274 8.274 0 0 0 1.064-.942c1.982-1.98 3.933-3.99 5.935-5.95.207-.204.457-.347.651-.576.293-.362.61-.703.948-1.023.332-.298.658-.61.968-.93.543-.561 1.057-1.15 1.662-1.649.139-.115.175-.339.395-.373a.112.112 0 0 0 .05-.096c-.075-.16.064-.217.14-.294 1.118-1.147 2.245-2.286 3.359-3.437.575-.594 1.236-1.093 1.807-1.693a7.102 7.102 0 0 0 1.349-1.905 9.878 9.878 0 0 0 .935-3.068c.068-.603.195-1.208.077-1.818-.062-.32.062-.63.013-.951a6.261 6.261 0 0 0-.704-2.24c-.259-.447-.433-.933-.72-1.37-.213-.32-.425-.645-.662-.943-.14-.175-.2-.405-.386-.545-.645-.484-1.151-1.128-1.865-1.538-.575-.33-1.133-.687-1.789-.895-.14.227-.442.219-.607.43-.194.247-.416.473-.625.706a50.099 50.099 0 0 1-1.746 1.812c-.1.1-.237.178-.253.336.066.09.176.137.287.125 1.129-.006 2.1.445 2.973 1.102.415.293.769.662 1.044 1.088.171.284.353.561.517.848.21.383.374.788.49 1.208.2.677.146 1.371.03 2.063a6.7 6.7 0 0 1-2.105 3.906c-.293.271-.59.54-.873.821-.652.65-1.3 1.305-1.95 1.958-.441.442-.922.848-1.362 1.288-1.632 1.633-3.209 3.321-4.867 4.93-.324.314-.707.575-.994.92-.512.61-1.223 1.015-1.68 1.675a11.269 11.269 0 0 0-1.098 1.043 1.681 1.681 0 0 1-.477.349c-.37.181-.73.378-.888.822a1.73 1.73 0 0 1-.422.574 8.09 8.09 0 0 1-1.204 1.039c-.558.382-1.149.715-1.83.838-.653.118-1.303.277-1.97.097-.556.108-1.045-.161-1.535-.325a5.447 5.447 0 0 1-2.021-1.308 4.24 4.24 0 0 1-.96-1.362c-.18-.41-.34-.83-.475-1.256a5.816 5.816 0 0 1-.22-1.811c.03-.584.158-1.16.378-1.702.16-.507.431-.972.794-1.36 2.581-2.612 5.16-5.224 7.739-7.837.29-.294.606-.562.882-.872a.37.37 0 0 0 .109-.358 13.709 13.709 0 0 1-.316-2.444 6.492 6.492 0 0 1 .052-1.433c.072-.258.08-.529.027-.79h-.001zM41.59 93.686c-.03-.31-.12-.602.037-.891a.348.348 0 0 0 .01-.236c-.097-.35-.025-.71-.087-1.064-.094-.533-.044-1.079-.12-1.619-.034-.24-.152-.482-.074-.737a1.384 1.384 0 0 0-.093-1.036.222.222 0 0 1-.026-.136c.029-.335-.125-.514-.448-.542-.093-.008-.2.016-.266-.058-.127-.144-.28-.103-.44-.106-.363-.007-.659.17-.963.322-.114.056-.256.13-.255.281.002.26-.166.497-.151.729.026.397-.012.794.03 1.19.056.54.14 1.08-.02 1.619-.022.074-.073.15-.022.23.127.205.057.438.096.65.146.805-.075 1.601-.007 2.406.028.419.135.829.316 1.207a.513.513 0 0 0 .575.332.567.567 0 0 1 .304.081.693.693 0 0 0 .39.05c.431-.074.868.018 1.305-.035.19-.019.38-.027.571-.023.594.002 1.186.041 1.777.042.742 0 1.482.059 2.223.028.468-.02.96.043 1.35-.322a.541.541 0 0 0 .229-.483 2.685 2.685 0 0 1 .053-.86c-.089-.078-.243-.063-.246-.233-.004-.259-.216-.372-.417-.411a.536.536 0 0 1-.339-.176c-.187-.244-.445-.246-.687-.194-.244.036-.492.04-.738.014-.82-.035-1.64-.027-2.458.024-.47.04-.942.025-1.409-.043zm68.126-73.608a1.997 1.997 0 0 0-.32.003c-.613.1-1.153.31-1.422.943-.144.336-.104.689-.146 1.034a.138.138 0 0 0 .046.106c.272.208.53.488.887.49.526.003 1.052.03 1.578.027.765-.003 1.531.016 2.297-.021.317-.016.548.086.51.485-.049.49.108.99-.062 1.476a.22.22 0 0 0 .005.08c.054.81.018 1.633.222 2.427.099.384.15.836.697.885.045.004.082.066.13.089a.97.97 0 0 0 .535.089c.266-.027.511-.158.68-.366.248-.29.5-.589.504-1.002a17 17 0 0 0-.043-1.573 2.93 2.93 0 0 1 .066-1.03.524.524 0 0 0-.031-.462.619.619 0 0 1-.047-.468c.11-.55.022-1.105.064-1.657.032-.425-.164-.802-.342-1.169a.475.475 0 0 0-.547-.306.31.31 0 0 1-.23-.047.944.944 0 0 0-.54-.104c-.731.008-1.462.021-2.192.01-.768-.013-1.53.182-2.3.061zM66.979 94.452c-.001-.212-.172-.296-.326-.4-.264-.175-.537-.359-.858-.366-.39-.008-.78.009-1.17.009-.83 0-1.66-.008-2.49.007-.578.011-1.159.078-1.744-.013-.38-.06-.783.03-1.171 0a7.299 7.299 0 0 0-1.265.076c-.585.057-1.011.833-.749 1.355.135.257.306.494.508.703.28.326.683.52 1.112.534.41.004.819.005 1.228 0 .593-.007 1.185-.026 1.778-.03.384-.002.768.006 1.151.024.603.028 1.207-.182 1.81.008.039.007.079.006.117-.004a4.61 4.61 0 0 1 .915-.008c.31.023.623-.029.91-.152.381-.179.481-.578.672-.905.03-.06.036-.13.016-.194-.068-.178.008-.363-.035-.532a1.105 1.105 0 0 0-.41-.112zm9.794.576c-.006.46.312.76.551 1.1.01.01.022.016.035.018.375.06.722.29 1.123.195.117-.014.235-.02.352-.017.453-.044.9.031 1.352.024.523-.008 1.05-.173 1.572.009.04.006.08.005.118-.004.736-.075 1.474.026 2.212-.022.6-.038 1.205.01 1.809-.008.364-.011.543-.233.774-.405a.394.394 0 0 0 .117-.405 1.18 1.18 0 0 1 .027-.65c.02-.066.026-.166-.03-.182-.2-.057-.147-.271-.242-.366-.3-.295-.674-.583-1.069-.61a7.577 7.577 0 0 0-1.174-.017 9.058 9.058 0 0 1-1.227.023c-.508-.024-1.015.01-1.523-.01a38.928 38.928 0 0 0-2.958.017 4.117 4.117 0 0 0-.662.015.993.993 0 0 1-.413.063c-.2-.036-.396.191-.44.419-.021.117-.013.26-.125.325-.204.117-.187.3-.18.488zm-38.017-19.51c-.091.564-.048 1.136-.056 1.702-.024.62-.007 1.24.052 1.858a.98.98 0 0 0 .674.831c.324.095.655.161.99.2.155.016.352.087.457-.046.224-.283.467-.548.503-.957.03-.35-.045-.689-.02-1.024.033-.42.027-.839.048-1.258.058-1.179-.109-2.356-.01-3.535a4.843 4.843 0 0 0-.087-1.125c-.036-.238-.099-.516-.365-.612a1.053 1.053 0 0 1-.333-.192.804.804 0 0 0-.567-.194 1.052 1.052 0 0 0-.64.272c-.287.235-.57.49-.63.875-.05.274-.068.552-.055.83.035.512.11 1.032-.021 1.546a.488.488 0 0 0 .016.236c.056.192.07.394.044.593zm53.726-55.521c-.564.06-1.09.071-1.579.342-.259.14-.447.382-.517.667-.069.26-.189.582.133.807.044.032.049.119.072.181.168.456.37.591.87.573a1.6 1.6 0 0 1 .666.087c.123.05.258.065.39.043.275-.035.555-.035.83-.002.258.021.515-.103.752-.044.448.11.889.007 1.332.026.576.025 1.151.01 1.728.01a7.91 7.91 0 0 0 1.5-.095.888.888 0 0 0 .38-.193c.298-.23.393-.794.258-1.169-.085-.238-.29-.373-.402-.574-.166-.3-.339-.54-.729-.494a.33.33 0 0 1-.182-.07.632.632 0 0 0-.501-.067c-.205.058-.42.072-.631.041a3.881 3.881 0 0 0-.873-.045c-.69.016-1.38.006-2.07.012-.482.004-.98.06-1.427-.036zm20.747 22.527c-.018.2-.01.4.023.597a.945.945 0 0 0 .367.75c.176.142.345.106.516.145.418.121.869-.002 1.166-.32.256-.266.546-.537.547-.932 0-.436.046-.868.033-1.306-.03-.995.01-1.992.01-2.99 0-.37-.006-.741.01-1.114a1.598 1.598 0 0 0-.133-.851 1.452 1.452 0 0 0-1.263-.765c-.247-.012-.538-.025-.738.089-.302.18-.5.493-.53.844-.034.431-.041.864-.021 1.296.032.64-.097 1.287.086 1.923a.105.105 0 0 1-.008.078c-.139.207-.071.431-.069.653.01.636.004 1.27.004 1.903zm2.647 11.362a2.121 2.121 0 0 0-.124-.78c-.132-.35-.28-.7-.69-.877-.51-.22-.823-.147-1.044.34-.034.075-.011.158-.137.208-.42.169-.6.556-.65.96-.106.876.05 1.757-.02 2.642-.049.615.002 1.244.01 1.866-.021.511.008 1.022.087 1.528.066.317.178.45.513.486.107.002.21.04.292.108.048.045.087.11.162.105.48-.035.943-.124 1.332-.435.04-.032.092-.079.095-.12.016-.297.186-.56.198-.85.018-.421 0-.845.008-1.268.012-.593-.065-1.19.004-1.785a1.199 1.199 0 0 0-.021-.158c-.013-.46-.132-.92.022-1.38a.567.567 0 0 0-.029-.273.417.417 0 0 1-.008-.317zM73.682 21.479c-.203.24.182.408.143.665-.005.032.059.084.1.114.333.24.67.434 1.114.416.627-.024 1.257.013 1.886.016.3.002.602-.034.902-.023.764.038 1.529.026 2.291-.034.237-.022.47-.086.711-.02.112.03.196-.044.277-.123.242-.239.4-.547.658-.772.066-.059.057-.14.056-.222-.005-.326-.064-.626-.322-.86-.264-.238-.51-.54-.885-.551-.39-.011-.776-.012-1.169-.054-.33-.035-.684-.017-1.028-.02a74.983 74.983 0 0 0-3.021.011 1.93 1.93 0 0 0-.846.153c-.36.184-.427.662-.83.804-.045.016-.064.141-.07.218.002.095.013.19.033.282z"/>
        <path d="M159.985 90.794c.038.665-.007 1.33-.029 1.994-.013.396-.077.795-.1 1.193a15.28 15.28 0 0 1-.248 1.81c-.215 1.213-.378 2.442-.781 3.612-.16.465-.276.946-.458 1.402-.277.689-.573 1.37-.867 2.052-.307.69-.66 1.36-1.055 2.005-.208.349-.332.75-.549 1.101a19.525 19.525 0 0 1-1.34 1.98c-.291.363-.54.761-.84 1.117a31.252 31.252 0 0 1-1.527 1.72c-.384.394-.755.82-1.228 1.133-.192.127-.309.364-.485.523-.721.649-1.434 1.308-2.261 1.827-.202.126-.377.297-.576.43-.74.492-1.518.92-2.281 1.372-.514.304-1.055.544-1.584.811-1.028.52-2.067 1.025-3.176 1.355-.546.163-1.09.337-1.642.483-.627.166-1.278.246-1.89.48a.685.685 0 0 1-.194.035c-.382.027-.757.096-1.135.156-1.492.234-2.987.44-4.509.41a38.665 38.665 0 0 1-2.111-.089c-.901-.059-1.797-.176-2.683-.35-.57-.118-1.154-.164-1.72-.293a16.238 16.238 0 0 1-2.565-.729c-.208-.085-.442-.106-.65-.19-.974-.387-1.928-.822-2.891-1.233a14.365 14.365 0 0 1-1.503-.804c-.883-.507-1.79-.975-2.622-1.58-.613-.445-1.19-.934-1.8-1.384-.639-.473-1.176-1.073-1.758-1.617-.74-.69-1.364-1.485-2.042-2.23a13.09 13.09 0 0 1-1.35-1.716c-.251-.389-.541-.75-.761-1.163-.212-.398-.505-.748-.711-1.154-.325-.64-.624-1.294-.967-1.92a14.62 14.62 0 0 1-.626-1.458 23.271 23.271 0 0 1-1.102-3.032c-.226-.862-.386-1.739-.546-2.616a22.993 22.993 0 0 1-.37-3.21c-.02-.516-.037-1.029-.094-1.543-.034-.314.082-.63.064-.954-.039-.705.073-1.406.09-2.11.016-.69.161-1.374.266-2.059.081-.527.274-1.026.34-1.556.06-.354.153-.702.279-1.039.13-.404.263-.809.378-1.217.211-.7.468-1.386.768-2.054.476-1.11.91-2.244 1.557-3.272.276-.44.506-.907.805-1.33.428-.605.911-1.174 1.312-1.796a7.82 7.82 0 0 1 .99-1.183c.444-.459.769-1.01 1.24-1.443.46-.423.866-.906 1.353-1.299.373-.301.696-.666 1.092-.932.617-.416 1.193-.885 1.799-1.316.486-.348.995-.662 1.524-.941.621-.327 1.17-.769 1.806-1.071a82.606 82.606 0 0 1 2.25-1.018c.524-.23 1.072-.381 1.604-.585.29-.112.61-.172.912-.274.488-.17.99-.298 1.5-.38.826-.124 1.608-.433 2.446-.522.551-.058 1.1-.201 1.657-.22.534-.018 1.06-.112 1.59-.117.94-.035 1.882-.02 2.82.047.843.082 1.694.093 2.533.234.496.084.992.194 1.488.25 1.166.134 2.26.52 3.357.881.74.245 1.498.477 2.187.857.248.137.53.182.764.322.481.288 1.027.43 1.512.696.604.333 1.251.6 1.804 1.015.67.503 1.41.895 2.07 1.42.58.464 1.154.939 1.73 1.405.462.38.894.794 1.293 1.238.27.296.596.527.863.826.59.665 1.2 1.31 1.704 2.046.12.175.29.317.405.494.556.854 1.117 1.703 1.636 2.582.433.733.777 1.506 1.177 2.253.375.689.689 1.41.94 2.153.277.844.565 1.683.781 2.55.17.68.276 1.376.473 2.052.126.431.119.893.196 1.34a16.63 16.63 0 0 1 .273 3.098c-.002.079 0 .159 0 .239zm-27.254-8.868a.586.586 0 0 0-.096.363c.06.472.078.948.055 1.424a2.235 2.235 0 0 0-.045.43c.082.732-.05 1.467-.004 2.199.017.286-.11.552-.068.821.088.558-.002 1.113-.013 1.666.019.341 0 .684-.058 1.021-.073.3.06.438.38.452.49.022.983.005 1.472.045.607.049 1.213.002 1.82.04.438.032.876.037 1.314.017.516-.03 1.051-.093 1.55.005.546.107 1.084-.113 1.614.057.433-.12.87-.054 1.3.006.258.036.521.034.78-.005a1.66 1.66 0 0 1 .277-.024c.722.019 1.442.211 2.166.021a.126.126 0 0 1 .077-.002c.32.146.66-.01.985.073a.571.571 0 0 0 .412-.088c.002-3.441-.793-6.727-1.997-9.94a60.66 60.66 0 0 1-11.92 1.419zm-2.65-.063c-.427-.02-.788-.133-1.176-.13-.794.005-1.586-.057-2.378-.123-.779-.064-1.546-.2-2.318-.296-.254-.032-.544-.018-.764-.117-.387-.173-.797-.151-1.189-.22a9.564 9.564 0 0 1-1.57-.337c-.871-.312-1.8-.321-2.689-.638-1.238 3.03-2.018 6.132-2.179 9.38-.006.132-.048.266.081.396.66.018 1.338.033 2.016.058.264.01.527.099.792.04.156-.027.316-.034.474-.021.675.019 1.348.076 2.024.073.6-.001 1.2.062 1.802.094.393.021.785-.008 1.182.028.329.025.659.027.988.007.56-.025 1.11.13 1.665.105.718-.033 1.433.027 2.148.023.269-.001.55.1.809-.046a.51.51 0 0 0 .066-.313c-.01-.488-.007-.975.013-1.465.036-.422.048-.846.035-1.27-.041-.574.029-1.142.014-1.714-.019-.685.157-1.367.056-2.057a.591.591 0 0 1 .087-.382.384.384 0 0 0 .044-.308 1.777 1.777 0 0 1-.034-.767zm-14.274 10.615a.567.567 0 0 0-.07.454c.203 1.066.198 2.159.434 3.221.12.544.174 1.103.313 1.642.128.5.228 1.006.407 1.494.241.657.308 1.373.655 1.997a.514.514 0 0 1 .064.187c.045.41.302.726.428 1.075.237.047.403-.064.58-.11 1.17-.307 2.36-.52 3.547-.748a4.88 4.88 0 0 1 .773-.157c.652-.016 1.287-.163 1.927-.244.588-.074 1.176-.206 1.769-.282.673-.086 1.35-.133 2.026-.157.254-.009.503-.038.753-.07.214-.027.263-.104.217-.33a2.526 2.526 0 0 1-.037-.635c.032-.622.05-1.242.046-1.865-.006-.998.047-1.996.078-2.994a.48.48 0 0 1 .053-.231.692.692 0 0 0 .048-.542 1.949 1.949 0 0 1-.016-.439c.01-.37.004-.741.004-1.132-.267.009-.499-.016-.737.005-.754.065-1.509-.017-2.263.01-.133.005-.246-.108-.388-.068-.404.114-.815.04-1.224.04-.394.019-.79.01-1.182-.025-.384-.05-.778.045-1.154-.091-.02-.008-.051.009-.077.014-.513.103-1.03.038-1.546.048-.827.014-1.653-.107-2.481-.018-.04.004-.094.018-.117 0-.257-.223-.58-.106-.84-.092-.66.033-1.32.03-1.99.043zm16.506 8.285c4.145-.096 8.227.51 12.276 1.35.057-.116.094-.186.126-.258.261-.587.376-1.22.594-1.822.317-.874.511-1.785.755-2.679.105-.438.19-.88.25-1.327.049-.29.058-.58.113-.87a8.335 8.335 0 0 0 .191-1.933c-.016-.337-.068-.38-.413-.383-.464-.007-.927.02-1.389.037-.617.023-1.224-.084-1.848-.037a9.495 9.495 0 0 1-1.737-.02 2.43 2.43 0 0 0-.612-.059c-.244.022-.49.021-.734-.002-.47-.016-.944-.005-1.417-.011-.39-.006-.796.036-1.188.019-.585-.026-1.17.047-1.762-.092a2.475 2.475 0 0 0-.939.005c-.603.102-1.217.007-1.826.015-.296.003-.394.07-.39.351.005.347-.065.7-.012 1.036.107.687-.004 1.371.032 2.057.027.525-.08 1.052-.027 1.578.026.26-.116.508-.067.748.096.464-.05.92.008 1.38a.631.631 0 0 1-.055.429c-.09.14-.041.28.071.488zm-23.017 5.223c.205-.07.297-.21.44-.285.718-.378 1.474-.67 2.216-.991.8-.346 1.63-.617 2.444-.932a8.824 8.824 0 0 1 1.02-.337.58.58 0 0 0 .393-.212 16.317 16.317 0 0 1-.584-1.538c-.065-.243-.228-.463-.27-.707-.106-.603-.454-1.138-.473-1.761-.384-.933-.443-1.941-.66-2.912-.137-.617-.15-1.26-.211-1.893-.02-.21-.129-.408-.08-.628.073-.335-.023-.662-.06-.991-.033-.304-.154-.412-.472-.425-.265-.01-.532.016-.798.025a12.99 12.99 0 0 1-1.86-.048c-.064-.007-.123-.05-.193-.028-.338.11-.687.034-1.03.056-.475.03-.951-.051-1.428-.009-.264-.183-.547.043-.808-.035-.294-.088-.58-.016-.87-.012-.13.002-.262.059-.393-.003-.306-.145-.586-.038-.86.066-.057.29-.067.589-.028.883.104.782.285 1.556.246 2.353.001.04.013.08.033.113.304.574.252 1.24.476 1.839.183.49.244 1.027.416 1.524.328.948.63 1.909 1.09 2.807a.247.247 0 0 1 .036.071c.058.462.398.796.56 1.215.058.215.156.417.288.597.18.211.328.447.442.7.257.54.627 1 .978 1.498zm48.36-15.43c-.047-.677-.069-1.338-.143-1.994a18.917 18.917 0 0 0-.274-1.97c-.139-.632-.179-1.296-.4-1.9-.226-.619-.343-1.268-.607-1.879-.261-.606-.447-1.247-.721-1.85-.273-.6-.484-1.237-.83-1.79-.345-.554-.55-1.198-1.044-1.69-.102.11-.262.075-.393.149-.635.357-1.329.58-2.001.85a4.87 4.87 0 0 1-.664.247c-.364.11-.722.239-1.071.387a6.552 6.552 0 0 1-1.295.364c-.362.048-.68.227-1.033.29-.078.015-.18.06-.195.144.137.786.467 1.485.693 2.216.229.737.394 1.487.588 2.23.097.373.113.767.197 1.135.154.676.21 1.363.337 2.04.038.101.052.209.04.315-.13.37.02.71.091 1.057.029.116.043.235.043.355-.02.437.006.875.076 1.307.32-.046.624-.1.909.057.028.016.08 0 .117-.011a.902.902 0 0 1 .549.017.86.86 0 0 0 .277.002c.536-.029 1.073-.173 1.607.027.079.013.16.009.236-.013.172-.014.343-.018.515-.011.462-.006.928.087 1.387-.042a.635.635 0 0 1 .199-.014c.407.018.819.013 1.221.068.41.056.814-.089 1.223.013a.496.496 0 0 0 .365-.106zm-41.948-11.199c-.045-.044-.062-.074-.083-.078-.71-.122-1.343-.47-2.014-.703-.518-.18-1.021-.418-1.55-.583a1.466 1.466 0 0 1-.218-.1c-.59-.298-1.173-.61-1.772-.888a4.176 4.176 0 0 0-.888-.313c-.155.112-.16.292-.25.418a20.763 20.763 0 0 0-1.532 2.68c-.328.62-.622 1.258-.88 1.91-.178.469-.352.942-.517 1.417-.11.317-.112.682-.367.95-.043.044-.018.152-.025.23a2.543 2.543 0 0 1-.04.397c-.143.48-.263.969-.357 1.462-.111.757-.273 1.508-.355 2.27-.034.322-.133.647-.037 1.012.952-.053 1.898.054 2.847.048.96-.006 1.914.136 2.875.118.944-.018 1.884.055 2.833.105a1.42 1.42 0 0 0 .09-.346 4.48 4.48 0 0 1 .096-.83c.043-.264-.033-.536.038-.784.06-.258.1-.52.119-.785.013-.265.05-.529.108-.788.171-.557.202-1.14.334-1.706.144-.618.308-1.235.45-1.854.237-.954.556-1.886.955-2.784.056-.155.103-.314.14-.475zm16.548 23.713c-.034.288-.12.544-.08.836.043.285.033.575-.032.856a4.363 4.363 0 0 0-.085 1.546c.077.74-.029 1.47.008 2.205.028.55-.04 1.104-.026 1.655.008.297-.119.583-.068.867.099.546-.037 1.085-.007 1.63.024.441-.108.886-.023 1.333.007.04.002.08-.016.117-.128.232-.057.467-.02.703a.6.6 0 0 1 .025.196c-.11.545-.007 1.11-.148 1.651-.017.066-.026.132.018.154.759-.269 1.34-.792 2-1.182.768-.454 1.428-1.064 2.105-1.64a30.358 30.358 0 0 0 2.262-2.07c.442-.46.913-.89 1.327-1.376.266-.312.506-.644.782-.952.693-.772 1.225-1.664 1.764-2.548.229-.375.431-.769.687-1.124.358-.498.509-1.098.927-1.629-1.004-.214-1.927-.43-2.872-.565-.922-.13-1.84-.277-2.767-.38-.948-.106-1.897-.156-2.845-.213-.954-.056-1.908-.182-2.916-.07zm-2.227-23.505c.013-.125.016-.204.03-.28.096-.471.03-.951.082-1.427.05-.46-.08-.93.067-1.387-.167-.511-.021-1.03-.03-1.545-.013-.714.005-1.43.041-2.145.043-.84-.05-1.693.189-2.52.01-.039.009-.08-.001-.119a3.237 3.237 0 0 1-.039-.874c.026-.927-.094-1.857.039-2.785a1.302 1.302 0 0 0-.09-.635 1.704 1.704 0 0 0-.242.107c-.641.42-1.306.804-1.913 1.276-.167.13-.373.214-.53.355-.628.564-1.335 1.032-1.947 1.616-.41.393-.879.735-1.26 1.145-.486.52-1.022.999-1.442 1.577-.248.342-.61.582-.827.947-.252.424-.578.795-.854 1.2-.366.537-.73 1.074-1.086 1.617-.312.477-.536 1.006-.901 1.455a1.172 1.172 0 0 0-.276.722c.351.151.716.269 1.09.351 1.477.257 2.937.608 4.429.802.642.084 1.29.127 1.927.246.609.115 1.25.023 1.834.294.026.01.053.01.08.003.26-.048.528-.049.79-.002.28.016.56.018.84.006zm16.84 23.109c.647.218 1.268.445 1.899.636.674.203 1.32.482 1.988.698.272.088.473.296.75.362a7.56 7.56 0 0 1 1.433.48c.22.1.437.248.673.273a.751.751 0 0 0 .241-.344c.346-.624.819-1.178 1.075-1.85.185-.482.448-.927.64-1.406.072-.18.096-.408.225-.539.178-.198.275-.457.27-.724.023-.144.065-.285.125-.418.064-.187.176-.36.224-.55.28-1.142.646-2.262.847-3.427.11-.637.2-1.276.275-1.916.03-.26.015-.526.116-.76-.067-.12-.18-.21-.263-.192-.335.055-.678.039-1.007-.047a.218.218 0 0 0-.077.016c-.524.115-1.054.021-1.58.048-.851.044-1.701-.12-2.553-.016a.192.192 0 0 1-.116-.012c-.305-.194-.644-.082-.959-.079-.621.007-1.241.075-1.863 0a.316.316 0 0 0-.235.043 2.605 2.605 0 0 0-.07.78c.017.366-.162.698-.153 1.062.015.587-.124 1.16-.207 1.735-.035.243-.043.517-.159.724-.087.189-.136.394-.142.602-.005.17-.022.34-.05.508-.147.533-.274 1.073-.421 1.606-.25.921-.56 1.825-.927 2.707zm-3.252-24.344a.535.535 0 0 0-.083-.397c-.241-.487-.506-.96-.78-1.43-.115-.198-.267-.362-.383-.555a25.891 25.891 0 0 0-1.847-2.695c-.394-.5-.765-1.02-1.184-1.497-.497-.567-1.03-1.103-1.555-1.644a6.07 6.07 0 0 0-.81-.765c-.458-.323-.845-.723-1.287-1.06-.413-.313-.796-.668-1.223-.96-.329-.225-.669-.434-.98-.685a.41.41 0 0 0-.421-.13c.179.348.034.69.035 1.029a3.61 3.61 0 0 1-.062.905c-.116.456-.058.927-.084 1.389-.025.443.041.892.044 1.343.004.762-.075 1.523-.031 2.286.026.157.027.318.003.476-.137.523-.05 1.056-.051 1.58 0 .486-.203.967-.039 1.455.003.01-.009.025-.014.037a1.69 1.69 0 0 0-.046 1.02c.017.093.055.195-.006.272-.128.163-.076.34-.037.5.053.256.063.52.028.779 1.53.01 3.06-.058 4.583-.203 2.094-.225 4.188-.52 6.23-1.05zm-14.085 24.775a54.16 54.16 0 0 0-5.297.533c-1.726.263-3.455.577-5.13 1.14.238.563.526 1.104.86 1.617.307.53.643 1.042 1.008 1.533.13.17.146.396.31.552.281.281.536.588.76.916.431.579.897 1.13 1.394 1.653a41.578 41.578 0 0 0 1.557 1.576c.219.213.45.414.68.607.407.339.731.77 1.188 1.05.126.073.249.154.366.24.48.369.957.743 1.436 1.113.18.127.382.22.595.275 0-.368-.052-.71.012-1.028.09-.44-.012-.872.037-1.309.05-.445.02-.898.027-1.347.005-.425.06-.857.038-1.272-.028-.522.056-1.034.024-1.551-.035-.586.09-1.166.07-1.75-.01-.292-.079-.58.087-.856a.371.371 0 0 0 .012-.235c-.087-.46-.038-.923-.035-1.386.003-.662 0-1.324 0-2.071zm16.382 1.763a30.207 30.207 0 0 1-4.324 6.724c-.871.991-1.727 1.998-2.699 2.895a29.573 29.573 0 0 1-3.08 2.555c.53-.072 1.04-.18 1.55-.291.13-.029.268-.12.383-.095.31.068.536-.092.783-.214a1.24 1.24 0 0 1 .223-.085 22.464 22.464 0 0 0 3.055-1.1c.61-.284 1.265-.462 1.833-.846.381-.259.821-.43 1.21-.678.252-.16.55-.237.766-.447.206-.209.442-.385.7-.522.387-.194.678-.508 1.025-.75a11.169 11.169 0 0 0 1.532-1.242c.437-.436.977-.756 1.342-1.277.23-.309.497-.586.797-.826.223-.217.43-.45.619-.698.22-.247.383-.557.66-.877-1.085-.4-2.068-.902-3.126-1.241-1.05-.337-2.09-.702-3.25-.985zm6.368-29.335a.295.295 0 0 0-.024-.09 30.538 30.538 0 0 0-1.583-1.886c-.378-.46-.792-.888-1.238-1.281-.656-.529-1.21-1.181-1.944-1.612a.117.117 0 0 1-.055-.055c-.059-.217-.265-.249-.424-.331-.119-.062-.218-.15-.329-.216-.351-.209-.617-.539-1.002-.701a3.65 3.65 0 0 1-.452-.253c-.486-.293-.962-.603-1.457-.879-.427-.237-.884-.416-1.313-.655a3.418 3.418 0 0 0-.523-.276 24.68 24.68 0 0 1-2.565-1 .727.727 0 0 0-.272-.048 3.036 3.036 0 0 1-1.037-.273 1.12 1.12 0 0 0-.42-.117 6.192 6.192 0 0 1-1.245-.256c-.09-.024-.171-.073-.252.011-.003.085.067.113.116.15a41 41 0 0 1 1.905 1.554c.463.398.876.848 1.316 1.27.477.438.924.91 1.337 1.41.26.327.576.6.809.96.154.24.431.421.615.665.16.21.287.448.46.647.303.367.585.751.844 1.15.27.394.5.811.753 1.214.269.427.586.835.772 1.298.233.584.64 1.069.852 1.66.085.236.175.254.399.162.118-.062.24-.114.367-.157.804-.194 1.554-.548 2.343-.788.57-.174 1.123-.403 1.678-.623.527-.208 1.047-.436 1.569-.655zm-35.41 29.847c-.973.224-1.83.688-2.768.888-1.015.541-2.105.916-3.13 1.434a.394.394 0 0 0-.221.196c.244.293.394.664.727.911.2.174.388.36.563.56.559.546 1.022 1.192 1.708 1.603.044.026.068.086.112.111.267.159.406.462.676.61.359.224.703.469 1.032.734.68.504 1.39.968 2.126 1.388.335.184.609.476.976.592.445.14.813.432 1.248.591a.847.847 0 0 1 .325.136c.306.29.787.24 1.08.557.011.007.024.011.038.01.658.003 1.206.382 1.82.544.872.23 1.74.473 2.621.673.205.046.418.057.599.197.077.07.194.073.276.009a.104.104 0 0 0-.04-.117c-.361-.35-.804-.593-1.175-.938-.386-.358-.826-.663-1.239-.997-.766-.621-1.416-1.355-2.099-2.057a26.66 26.66 0 0 1-.965-1.047c-.281-.317-.545-.65-.79-.995-.126-.18-.341-.274-.422-.468-.239-.573-.712-.979-1.04-1.492-.48-.748-1.007-1.468-1.421-2.256-.22-.416-.514-.805-.618-1.377zm-6.265-30.493c.208.096.436.118.641.22.928.461 1.915.787 2.864 1.2.249.122.509.222.776.298.45.113.89.263 1.317.448.394.161.607.115.772-.273.213-.503.49-.969.741-1.45a18.878 18.878 0 0 1 1.633-2.529c.305-.408.599-.829.942-1.215.41-.463.748-.995 1.197-1.43.256-.248.422-.601.69-.8.467-.343.764-.836 1.217-1.189.393-.306.722-.696 1.107-1.023.565-.48 1.155-.924 1.746-1.369.076-.056.222-.058.201-.26-.561.157-1.146.148-1.698.334a7.498 7.498 0 0 1-.837.248 7.31 7.31 0 0 0-.877.23c-.386.12-.764.262-1.133.425-.436.21-.904.343-1.346.549-.747.346-1.492.694-2.214 1.087-.359.195-.74.351-1.085.564-.405.25-.775.557-1.187.802-.404.24-.73.6-1.182.771a.332.332 0 0 0-.143.133c-.176.276-.443.455-.683.663-.1.086-.237.108-.326.222-.238.305-.554.533-.826.805-.364.364-.75.705-1.105 1.08-.326.346-.582.76-.985 1.037a.585.585 0 0 0-.217.422zM31.293 57.027a.779.779 0 0 0-.325-.006c-.672.078-1.35.1-2.027.066-.609-.007-1.217-.053-1.826-.055-.374 0-.731-.12-1.105-.11-.53.013-1.048-.113-1.565-.195-.613-.095-1.24-.136-1.836-.339a6.756 6.756 0 0 0-.702-.15c-.261-.058-.506-.174-.76-.222-.601-.111-1.145-.391-1.734-.538-.377-.094-.734-.293-1.114-.407a10.318 10.318 0 0 1-1.64-.705c-.632-.317-1.295-.59-1.893-.981-.286-.188-.622-.302-.9-.5-.697-.5-1.458-.9-2.131-1.44a16.28 16.28 0 0 0-1.415-1.096c-.173-.11-.267-.297-.43-.417-.52-.384-.905-.92-1.438-1.291-.146-.101-.204-.275-.322-.404-.4-.44-.871-.81-1.215-1.311-.165-.24-.41-.45-.597-.685-.338-.424-.611-.9-.95-1.322-.401-.498-.672-1.08-1.077-1.574-.153-.186-.206-.426-.343-.628a15.273 15.273 0 0 1-.96-1.775 20.302 20.302 0 0 1-1.189-2.83c-.272-.845-.527-1.696-.783-2.547-.069-.228-.079-.47-.137-.703-.14-.56-.244-1.13-.373-1.692-.042-.185-.002-.368-.038-.556a15.881 15.881 0 0 1-.285-2.325 17.038 17.038 0 0 1-.013-1.435c.035-.765.01-1.533.064-2.297.036-.508.021-1.027.192-1.524a2.5 2.5 0 0 0 .06-.593c.105-1.044.305-2.076.597-3.083.154-.57.36-1.136.55-1.7.152-.447.33-.89.462-1.346.042-.14.098-.276.166-.405a3 3 0 0 0 .303-.73c.06-.27.282-.47.377-.734.257-.715.656-1.366 1.022-2.022.302-.545.633-1.074.99-1.585.303-.43.681-.808.921-1.29.114-.228.349-.383.508-.598.404-.542.845-1.054 1.32-1.535.572-.585 1.128-1.185 1.722-1.749a23.338 23.338 0 0 1 1.817-1.546 13.35 13.35 0 0 1 1.003-.713c.558-.353 1.119-.706 1.653-1.092.285-.205.627-.28.906-.494.506-.386 1.145-.54 1.665-.904.201-.141.449-.142.662-.262.72-.401 1.509-.653 2.272-.957.22-.087.49-.06.696-.165.564-.285 1.187-.385 1.781-.534a15.26 15.26 0 0 1 1.979-.434c.629-.072 1.25-.217 1.88-.282.446-.046.895-.093 1.342-.122.54-.037 1.084-.042 1.625-.075.346-.021.688.03 1.033.032a14.53 14.53 0 0 1 2.016.125c.535.076 1.085.075 1.606.25.091.018.184.025.278.022.828.091 1.648.248 2.451.469 1.07.253 2.117.594 3.131 1.017.504.233 1.02.44 1.544.618a7.2 7.2 0 0 1 .931.444c.666.32 1.308.688 1.989.977.049.021.112.03.144.064.46.497 1.103.726 1.636 1.116.452.33.875.695 1.332 1.015.502.352.913.81 1.418 1.157.221.151.357.39.568.558.538.429.932 1.01 1.48 1.43.153.117.192.31.328.446.32.315.608.663.908.998a.504.504 0 0 1 .105.12c.166.401.511.668.76 1.007.33.45.632.92.905 1.406.07.143.163.273.276.384.205.183.21.473.38.69.394.532.716 1.115.956 1.733.26.622.591 1.208.834 1.838.257.667.51 1.337.735 2.014.177.529.296 1.078.435 1.62.112.435.245.868.315 1.31.075.483.233.951.22 1.449.005.186.033.37.085.549.162.673.151 1.365.222 2.047.068.655.005 1.324.037 1.985.027.543-.051 1.08-.051 1.623 0 .374-.105.755-.137 1.137a20.17 20.17 0 0 1-.52 3.257 43.71 43.71 0 0 1-.431 1.573c-.142.485-.345.947-.47 1.436a8.273 8.273 0 0 1-.429 1.07c-.074.14-.125.292-.15.449a.341.341 0 0 1-.062.186c-.27.328-.363.737-.51 1.119-.063.167-.187.291-.258.447-.142.313-.309.616-.464.92a14.526 14.526 0 0 1-1.037 1.738c-.273.393-.588.758-.836 1.163-.35.542-.736 1.06-1.153 1.553-.402.498-.85.968-1.292 1.438-.472.503-.956.994-1.46 1.46-.386.36-.787.71-1.205 1.04-.476.377-.987.707-1.455 1.098-.463.358-.95.684-1.457.976-.47.292-.975.517-1.434.823a1.81 1.81 0 0 1-.635.312c-.24.052-.437.243-.656.368-.303.193-.632.34-.978.438-.202.048-.33.207-.523.277-.65.234-1.304.449-1.954.676-.51.178-1.04.282-1.543.478-.51.198-1.061.249-1.586.393-.639.176-1.305.197-1.945.376-.313.088-.66.046-.988.096a7.12 7.12 0 0 1-.851.134zm.899-18.81c.165.153.369.26.59.31.241.067.478.151.708.252.237.088.42.274.684.314.332.044.646.175.91.38.056.06.135.092.217.087a1.13 1.13 0 0 1 .718.172c.582.3 1.23.41 1.815.687.15.071.314.048.46.118.371.173.765.292 1.17.354.133.02.256.086.344.188.053.078.13.137.22.166.351.058.457.317.456.605-.002.275.117.35.352.364a.34.34 0 0 1 .332.185c.122.3.3.597.064.925a.71.71 0 0 0-.098.219.74.74 0 0 1-.724.515 3.007 3.007 0 0 1-1.385-.365c-.356-.17-.647-.456-1.05-.567a1.726 1.726 0 0 1-.581-.296 1.012 1.012 0 0 0-.444-.24c-.443-.071-.81-.327-1.21-.495-.25-.105-.503-.226-.752-.339-.391-.177-.74-.447-1.158-.556-1.017-.261-1.948-.75-2.937-1.087a6.37 6.37 0 0 1-1.009-.424c-.244-.134-.57-.174-.857-.276-.585-.208-1.183-.382-1.772-.577-.338-.112-.676-.221-1.015-.328-.363-.115-.728-.25-1.093-.342-.45-.113-.847-.38-1.316-.418a2.426 2.426 0 0 1-.537-.139c-.29-.092-.579-.192-.87-.279-.503-.151-1.026-.236-1.501-.475a.727.727 0 0 0-.229-.06c-1.05-.15-2.059-.48-3.087-.727-.343-.082-.67-.234-1.03-.248a2.025 2.025 0 0 1-.311-.066c-.31-.062-.598-.211-.92-.238a7.024 7.024 0 0 1-.821-.137c-.25-.052-.477-.178-.72-.219a37.114 37.114 0 0 1-2.102-.396c-.782-.178-1.586-.26-2.376-.406-.468-.087-.941-.127-1.408-.226-.225-.048-.43-.157-.684-.156a10.755 10.755 0 0 1-1.545-.152c-.524-.075-1.043-.186-1.564-.277a2.103 2.103 0 0 1-.684-.18.478.478 0 0 0-.518.003c.013.149.044.295.093.437.09.534.214 1.062.367 1.582.234.745.443 1.497.732 2.226.464 1.166.872 2.354 1.56 3.416.014.023.029.045.042.068.347.681.74 1.338 1.173 1.968.725.976 1.411 1.975 2.234 2.877.384.42.834.783 1.145 1.27.848.633 1.55 1.435 2.42 2.047.876.614 1.703 1.31 2.651 1.8.77.4 1.442.994 2.314 1.193a16.042 16.042 0 0 0 2.372.986c1.135.351 2.25.76 3.43.954.77.126 1.524.317 2.307.4.907.096 1.812.17 2.723.196.664.019 1.327-.027 1.989-.055.16-.006.316.016.477 0 .695-.073 1.383-.221 2.087-.19a.631.631 0 0 0 .194-.037c.803-.23 1.633-.343 2.438-.557.208-.055.424-.022.622-.117.396-.19.82-.308 1.23-.46.56-.206 1.118-.418 1.677-.625.185-.069.386-.08.559-.2.415-.29.906-.436 1.35-.674.404-.216.857-.34 1.208-.658.12-.105.258-.19.405-.253a6.65 6.65 0 0 0 1.113-.683 24.981 24.981 0 0 0 3.018-2.394c.616-.594 1.318-1.103 1.814-1.817a14.98 14.98 0 0 0 1.353-1.54c.426-.54.78-1.135 1.168-1.704.486-.708.922-1.45 1.303-2.22a17.9 17.9 0 0 0 .854-1.79c.297-.818.656-1.609.905-2.45a26.71 26.71 0 0 0 .922-4.108c.027-.202.15-.39.113-.625a8.88 8.88 0 0 0-1.085.299c-.735.217-1.495.359-2.204.66-.154.066-.32.022-.466.09-.603.28-1.26.395-1.889.58-.928.274-1.854.568-2.803.775-.295.064-.565.245-.89.16a.352.352 0 0 0-.223.07c-.384.226-.822.297-1.238.417-.878.256-1.739.563-2.63.777-.746.18-1.47.438-2.206.662-.81.248-1.638.418-2.442.693-.731.241-1.475.443-2.228.605-.425.101-.842.23-1.25.386a.466.466 0 0 1-.229.053c-.505-.108-.85.326-1.311.357zm-4.2-5.415c.172-.2.034-.393.085-.57.169-.579-.072-1.176.072-1.758.006-.024-.013-.052-.012-.078.003-.357-.106-.7-.064-1.068.06-.478.07-.962.028-1.442-.083-.855 0-1.71-.03-2.564-.008-.222-.077-.452-.02-.671.096-.364.023-.735.03-1.097.008-.4.007-.813-.019-1.22-.015-.246-.102-.527.016-.747.158-.28.175-.616.048-.91a.948.948 0 0 1-.028-.237c-.074-.777.008-1.557-.025-2.334-.012-.292.106-.584.064-.854a2.522 2.522 0 0 1 .002-.937.998.998 0 0 0-.018-.474c-.169-.56-.069-1.136-.054-1.693.017-.636-.067-1.266-.025-1.9.04-.595-.006-1.19.034-1.787.021-.353.023-.707.005-1.06-.025-.543-.022-1.088-.03-1.63-.006-.376-.082-.776.18-1.117.064-.083.02-.178-.014-.267-.158-.418-.145-.857-.165-1.294-.016-.332.058-.658.036-.985a5.32 5.32 0 0 1 .024-1.255c.023-.133.079-.29-.029-.42-.14-.067-.266.01-.395.022-.866.08-1.737.072-2.598.245-.825.166-1.66.262-2.478.48-.976.26-1.942.542-2.893.884a4.25 4.25 0 0 0-.417.125c-.608.297-1.231.56-1.868.786-.26.1-.503.242-.719.418-.136.103-.204.227-.091.37.145.187.178.411.26.62.174.444.4.867.57 1.31.162.423.36.829.526 1.247.24.603.517 1.192.73 1.807.061.175.135.347.194.52.087.254.27.468.32.723.062.284.186.551.363.783.047.064.08.138.096.216.118.66.503 1.213.738 1.826.121.366.28.718.472 1.052a.368.368 0 0 1 .06.268.57.57 0 0 0 .124.411c.078.124.15.252.214.384.301.69.618 1.375.882 2.08.094.251.244.466.339.713.228.595.52 1.166.706 1.778.112.367.384.665.446 1.055.063.339.196.661.39.947a.998.998 0 0 1 .146.37c.03.285.142.556.322.779.24.278.304.649.415.984.077.235.28.405.312.628.062.42.358.735.441 1.137.063.303.318.534.341.84a.937.937 0 0 0 .158.481c.207.298.31.645.464.968.191.405.344.829.521 1.241.269.619.542 1.237.818 1.871zm2.249-30.36c0 .63-.018 1.2.005 1.765.032.473.013.948-.056 1.417-.014.119-.008.24.017.356.07.423.107.847-.057 1.26a.234.234 0 0 0-.02.19c.183.43.062.888.126 1.331.09.618-.016 1.24.01 1.865.053 1.221-.028 2.448.012 3.671.022.677-.08 1.345-.038 2.023.048.768.016 1.54.003 2.31-.003.201.073.394.024.597a3.544 3.544 0 0 0-.047 1.144c.063.692-.066 1.377-.006 2.065.024.264.056.528.056.792.002.824-.012 1.647-.014 2.47-.002.945-.022 1.89.011 2.834.026.728-.09 1.451-.032 2.179.02.243.024.488.035.732.134-.176.173-.39.29-.547.24-.326.32-.721.484-1.076.197-.428.38-.874.535-1.325.09-.263.147-.598.338-.752.347-.28.343-.661.463-1.011.168-.488.366-.965.592-1.43.217-.445.425-.905.609-1.362.182-.45.44-.868.58-1.329.102-.355.222-.705.359-1.048.063-.15.172-.266.226-.419.15-.42.307-.844.488-1.247.376-.842.706-1.706 1.105-2.54.317-.664.566-1.361.84-2.047.09-.225.17-.449.383-.594a.322.322 0 0 0 .146-.273c-.003-.344.153-.643.262-.955.33-.949.886-1.804 1.157-2.778a.377.377 0 0 1 .096-.125c.171-.206.284-.454.326-.718a2.53 2.53 0 0 1 .254-.709 7.51 7.51 0 0 0 .511-1.155c.163-.48.394-.929.563-1.404.132-.372.387-.696.434-1.165a26.475 26.475 0 0 0-11.07-2.992zM2.569 30.736c.275-.004.55.031.814.106.533.168 1.09.192 1.63.302.168.035.354-.002.516.047a8.008 8.008 0 0 0 1.7.376c.174.015.342.069.49.158a.4.4 0 0 0 .265.071c.405-.063.82-.01 1.197.153.193.087.402.132.614.134.301-.004.6.053.879.17.122.054.258.07.39.044a.844.844 0 0 1 .428.064c.464.152.958.172 1.41.382.4.186.86.092 1.284.219.428.128.89.144 1.312.285.63.211 1.291.275 1.927.463.335.1.696.16 1.039.25.856.225 1.701.495 2.551.746.33.097.653.232.976.316.38.098.787.106 1.143.292.448.234.996.144 1.419.456a.398.398 0 0 0 .229.06c.24.004.475.06.69.165.046.02.105.036.134-.076-.31-.279-.643-.56-.954-.862a20.555 20.555 0 0 0-1.51-1.438c-.83-.658-1.576-1.41-2.358-2.12-.165-.15-.278-.355-.464-.465-.346-.206-.59-.523-.893-.775-.658-.55-1.237-1.19-1.903-1.736a8.881 8.881 0 0 1-.759-.686c-.54-.56-1.142-1.052-1.712-1.578-.176-.163-.288-.384-.484-.515a6.607 6.607 0 0 1-1.072-.98c-.11-.115-.162-.281-.305-.365-.8-.469-1.396-1.18-2.103-1.758a4.927 4.927 0 0 1-.638-.643 1.598 1.598 0 0 0-.463-.428.959.959 0 0 1-.26-.183c-.342-.368-.71-.712-1.101-1.028a10.494 10.494 0 0 1-.843-.783c-.493-.5-1.056-.922-1.544-1.43-.28-.292-.623-.525-.887-.84-.057-.067-.123-.145-.23-.133-.022.018-.054.03-.061.05-.327.936-.803 1.811-1.11 2.76a28.653 28.653 0 0 0-.99 3.685c-.108.594-.27 1.177-.3 1.788-.04.843-.185 1.677-.177 2.53.01.901.029 1.8.084 2.75zm48.87-15.974A25.642 25.642 0 0 0 43.35 6.63c-.176.408-.341.755-.475 1.115-.144.39-.393.73-.518 1.121-.135.42-.333.813-.477 1.228a1.221 1.221 0 0 1-.295.516.304.304 0 0 0-.098.17 4.423 4.423 0 0 1-.45 1.188c-.372.732-.56 1.547-.995 2.252a.177.177 0 0 0-.011.038c-.263.81-.684 1.55-.983 2.346a5.064 5.064 0 0 1-.177.57c-.355.683-.62 1.406-.912 2.113-.43 1.043-.95 2.049-1.313 3.117-.16.469-.5.847-.609 1.334a1.522 1.522 0 0 1-.14.415c-.288.511-.466 1.07-.715 1.597-.109.231-.144.489-.26.705a10.394 10.394 0 0 0-.746 1.662 1.582 1.582 0 0 1-.349.624.283.283 0 0 0-.101.167c-.027.28-.178.527-.24.784-.18.758-.63 1.397-.855 2.134a14.865 14.865 0 0 1-.636 1.506.446.446 0 0 0-.048.33c.144-.066.27-.164.372-.286.23-.293.48-.57.75-.826.375-.335.726-.695 1.094-1.037.466-.432.904-.894 1.371-1.327.249-.23.559-.402.746-.697.192-.253.415-.481.663-.68.588-.56 1.175-1.123 1.78-1.665.513-.458.942-1.003 1.458-1.462.44-.392.847-.823 1.268-1.238.113-.112.27-.162.373-.295A8.49 8.49 0 0 1 43 22.966c.37-.32.676-.705 1.045-1.03.44-.369.858-.766 1.248-1.19.287-.325.693-.528.91-.918.018-.032.068-.043.096-.07a56.547 56.547 0 0 1 1.523-1.393c.45-.398.82-.897 1.28-1.3.415-.363.765-.795 1.197-1.145.44-.323.825-.714 1.14-1.158zm-25.795 18.29a3.098 3.098 0 0 1-.268-.5 9.924 9.924 0 0 0-.495-1.203c-.169-.36-.315-.728-.464-1.097-.223-.55-.468-1.094-.706-1.638-.216-.493-.411-.996-.643-1.484-.36-.761-.618-1.57-.948-2.346-.315-.742-.692-1.457-.99-2.206-.129-.319-.32-.615-.42-.94a9.797 9.797 0 0 0-.559-1.388c-.412-.859-.727-1.758-1.138-2.618-.436-.915-.802-1.864-1.194-2.8-.132-.316-.276-.63-.4-.947-.15-.387-.4-.753-.391-1.196a.14.14 0 0 0-.03-.073c-.38-.549-.61-1.172-.893-1.77-.194-.405-.365-.82-.514-1.245a3.272 3.272 0 0 0-.383-.851.246.246 0 0 1-.036-.07 11.928 11.928 0 0 0-.81-1.88c-1.482.816-2.654 2.015-3.964 3.025-1.512 1.642-2.976 3.323-4.12 5.27.244.28.51.539.795.775.307.241.533.582.878.792.089.06.158.145.2.243.063.133.16.247.28.33.22.168.432.34.64.524.407.358.825.703 1.21 1.088.326.326.717.593 1.04.915.564.562 1.212 1.03 1.748 1.623.24.264.563.442.78.735.13.148.27.287.417.417.204.215.497.335.648.583.127.2.303.365.512.478.184.127.353.274.504.438.23.215.396.496.685.654.395.218.667.59 1 .883.33.29.75.52.923.969.008.02.04.033.062.048.31.225.607.47.886.731.318.238.618.498.898.778.442.505.973.907 1.47 1.343.512.448.972.946 1.485 1.39.256.187.489.403.692.646.235.304.518.568.838.78.26.168.458.417.562.709.02.065.076.107.213.085zm7.458 2.595l.035.077c.254-.062.522-.05.765-.155.716-.31 1.482-.455 2.22-.693.602-.195 1.22-.339 1.824-.528.23-.057.457-.125.68-.204a7.99 7.99 0 0 1 1.242-.339c.378-.092.741-.248 1.142-.302.383-.052.75-.299 1.156-.382.296-.06.577-.196.873-.253.745-.13 1.476-.337 2.179-.617.395-.165.834-.186 1.216-.343.751-.309 1.557-.42 2.302-.723.347-.141.73-.1 1.066-.269.117-.061.239-.114.364-.157.773-.255 1.601-.32 2.343-.68a.203.203 0 0 1 .116-.023c.237.043.444-.072.661-.126.326-.082.608-.33.977-.25.07.016.117-.048.175-.08.255-.14.506-.297.818-.27a.183.183 0 0 0 .211-.19c.033-.443.033-.89 0-1.334-.067-.527-.06-1.059-.126-1.584-.043-.341.035-.69-.076-1.023a9.463 9.463 0 0 1-.247-1.25c-.047-.247-.08-.497-.138-.741-.142-.607-.26-1.222-.453-1.813-.237-.726-.41-1.475-.748-2.168a4.188 4.188 0 0 1-.369-.922c-.12-.567-.548-.96-.686-1.499a1.221 1.221 0 0 0-.458.376c-.4.405-.82.79-1.26 1.152-.316.265-.543.626-.89.885-.53.393-.887.973-1.407 1.39-.378.335-.735.693-1.07 1.07-.235.24-.536.403-.731.673a5.767 5.767 0 0 1-.778.784c-.443.416-.879.84-1.326 1.25-.332.304-.63.645-.96.942-.483.434-.914.921-1.413 1.34-.318.268-.682.514-.88.91a.307.307 0 0 1-.122.1c-.291.204-.559.44-.798.705-.275.262-.451.634-.84.775-.044.016-.07.078-.104.119-.368.433-.824.781-1.184 1.226-.226.278-.57.45-.795.718a6.98 6.98 0 0 1-.886.9c-.41.34-.75.744-1.146 1.095-.216.192-.498.297-.655.57-.13.224-.282.458-.568.533-.032.008-.06.052-.08.085-.154.2-.33.383-.525.544-.227.223-.432.465-.646.699z"/>
    </g>
</svg>
