<?xml version="1.0" encoding="UTF-8"?>
<svg width="1088px" height="1088px" viewBox="0 0 1088 1088" version="1.1" xmlns="http://www.w3.org/2000/svg" xmlns:xlink="http://www.w3.org/1999/xlink">
    <!-- Generator: Sketch 59.1 (86144) - https://sketch.com -->
    <title>Large 11</title>
    <desc>Created with Sketch.</desc>
    <defs>
        <rect id="path-1" x="229.544554" y="255.460674" width="459.089109" height="140.503371" rx="15"></rect>
        <filter x="-5.8%" y="-17.4%" width="111.5%" height="137.7%" filterUnits="objectBoundingBox" id="filter-2">
            <feOffset dx="0" dy="2" in="SourceAlpha" result="shadowOffsetOuter1"></feOffset>
            <feGaussianBlur stdDeviation="8.5" in="shadowOffsetOuter1" result="shadowBlurOuter1"></feGaussianBlur>
            <feColorMatrix values="0 0 0 0 0   0 0 0 0 0   0 0 0 0 0  0 0 0 0.0820585664 0" type="matrix" in="shadowBlurOuter1"></feColorMatrix>
        </filter>
    </defs>
    <g id="Large-11" stroke="none" stroke-width="1" fill="none" fill-rule="evenodd">
        <g id="Group-6" transform="translate(72.000000, 84.000000)">
            <g id="Group-9" transform="translate(558.000000, 147.000000)">
                <path d="M240.610162,36.8066317 C238.159192,26.7036814 233.52958,17.7095915 225.783303,10.8490813 C200.638159,-11.4543384 152.163406,5.78859099 135.61179,30.778518 C121.238814,52.4508789 128.500949,80.3106208 120.603377,103.966309 C112.917617,126.966899 110.587682,148.522063 119.877163,171.973409 C127.199817,190.448405 146.565511,205.831214 166.143017,201.843523 C175.886382,199.860196 184.177319,193.528573 191.28816,186.595942 C208.29366,169.978061 220.609031,148.951784 228.476345,126.576243 C236.615988,103.476487 247.569708,65.6279869 240.610162,36.8066317" id="Fill-164" fill="#75A2A5"></path>
                <path d="M171.832449,650.861657 C170.838178,650.861657 169.931637,650.155595 169.697691,649.108572 C169.434501,647.907663 142.530702,528.353876 135.746265,481.663268 C128.201504,429.939705 128.201504,340.287943 135.717022,241.846615 C143.817405,135.846803 172.534287,90.2907216 173.762504,88.4018551 C174.435099,87.3638837 175.809532,87.0862867 176.803803,87.7742444 C177.798074,88.4652196 178.090507,89.8713087 177.417912,90.9122975 C177.125479,91.3649013 148.086921,137.542559 140.103511,242.202663 C132.617236,340.321134 132.587993,429.589691 140.074268,480.993414 C146.858704,527.505999 173.704017,646.884779 173.967207,648.085687 C174.230396,649.301683 173.499315,650.517678 172.329584,650.80131 L171.832449,650.861657" id="Fill-165" fill="#2F6A6E"></path>
                <path d="M384.898346,180.747182 C388.889684,163.46159 387.569241,145.182332 377.695931,130.781675 C367.912652,116.51911 351.167038,108.209538 334.151334,105.11146 C294.928185,97.9666688 252.223869,118.170217 232.867381,153.0386 C223.174131,170.498309 219.092763,190.578775 209.969705,208.344689 C203.157421,221.613587 193.554202,233.564601 189.022682,247.779134 C175.488145,290.31766 217.952381,333.714762 257.44562,341.655087 C280.613386,346.305206 305.131606,342.477639 326.468759,332.363857 C347.925952,322.193036 367.522521,303.490494 369.803286,279.84964 C371.663909,260.972981 362.300771,241.688049 367.19241,223.357757 C371.153738,208.371707 381.417179,195.913352 384.898346,180.747182" id="Fill-166" fill="#75A2A5"></path>
                <path d="M152.916498,306.723842 C151.20718,294.272143 148.148401,282.489275 142.630603,273.378717 C135.97326,262.336985 124.69776,255.507079 115.941255,246.375431 C105.445444,235.457223 98.1583524,220.941789 84.9636186,213.584652 C65.8312546,202.919514 40.4014041,211.990907 26.3969934,228.868337 C13.1422836,244.805788 7.80441401,265.961324 5.22544331,286.137716 C2.31660428,308.537518 -1.04205523,331.437437 0.307406177,354.096336 C1.53691546,375.444688 7.35459354,397.0672 20.4293752,413.953669 C31.7948391,428.667943 48.1982922,439.073985 65.8612427,444.701803 C83.6741333,450.3718 103.97603,451.124988 120.349496,442.029493 C134.14399,434.33794 143.74016,420.349738 148.838125,405.328163 C153.936091,390.303575 154.955684,374.203435 154.985672,358.326238 C155.016807,343.639078 155.345528,324.499072 152.916498,306.723842" id="Fill-167" fill="#75A2A5"></path>
                <path d="M338.167796,424.555264 C327.433135,413.109255 312.60196,404.756763 299.116355,403.504339 C266.045227,400.434851 225.618315,438.046597 216.52824,467.942574 C214.644442,474.090561 213.956706,480.713087 215.451784,486.960187 C218.023318,497.703397 226.963885,506.133978 237.160318,510.236641 C247.386652,514.342307 258.749246,514.630635 269.693218,513.486334 C295.318857,510.810293 320.107252,500.415479 340.051594,483.983805 C361.371408,466.410833 354.434246,441.927007 338.167796,424.555264" id="Fill-168" fill="#75A2A5"></path>
                <path d="M160.311889,606.349017 C159.188992,606.349017 158.217838,605.515879 158.066095,604.372946 C158.005398,603.834565 150.782442,549.710678 115.517419,488.717164 C79.3115918,426.081435 66.2617126,303.571064 67.263215,300.641546 C67.6577462,299.459513 68.9627341,298.827892 70.1463278,299.218896 C71.2085273,299.570799 71.845847,300.635531 71.6637556,301.703271 C71.5120129,307.625468 84.4708464,425.90398 119.462732,486.473406 C155.213331,548.297051 162.527333,603.263098 162.58803,603.810503 C162.739773,605.043667 161.859665,606.171561 160.615374,606.330971 L160.311889,606.349017" id="Fill-169" fill="#2F6A6E"></path>
                <path d="M172.20676,613.948736 C171.103516,613.948736 170.149359,613.120542 170.000272,611.98102 C169.940637,611.49438 163.857887,562.951331 184.312625,516.354839 C204.946266,469.416794 289.418965,441.515119 293.026871,440.351416 C294.189749,439.964522 295.44208,440.626473 295.829706,441.81738 C296.217332,443.011309 295.56135,444.286849 294.368654,444.67072 C293.503949,444.948799 208.226181,473.116463 188.397609,518.198629 C168.479584,563.586078 174.353613,610.907995 174.413247,611.382544 C174.592152,612.621812 173.727447,613.764357 172.504934,613.927578 L172.20676,613.948736" id="Fill-170" fill="#2F6A6E"></path>
                <path d="M170.680048,625.891152 C169.627771,625.891152 168.695755,625.157112 168.485299,624.089145 C167.553283,619.522458 145.695992,511.528432 162.321964,452.248742 C172.153235,417.225441 189.651094,392.298189 208.20123,365.905867 C221.399787,347.091597 235.049319,327.633539 246.925014,303.160549 C275.246291,244.834509 306.453813,163.488515 306.754463,162.673251 C307.205439,161.509016 308.498236,160.925395 309.670773,161.37364 C310.84331,161.818877 311.414546,163.124504 310.96357,164.288739 C310.66292,165.107012 279.365203,246.633507 250.983796,305.131023 C238.957776,329.931925 225.187983,349.537392 211.869166,368.499071 C193.589616,394.566491 176.302212,419.186891 166.681396,453.467127 C150.326009,511.702917 172.664341,622.073546 172.904862,623.18363 C173.145382,624.402015 172.363691,625.596333 171.161089,625.846026 L170.680048,625.891152" id="Fill-171" fill="#2F6A6E"></path>
                <path d="M65.8665589,587.096801 C56.9556652,604.907006 68.636161,739.399865 91.7262132,758.149038 C114.816265,776.89821 218.766657,776.315507 236.769071,761.672433 C254.771484,747.029359 274.489847,605.963722 265.518745,588.893219 C256.577747,571.822716 74.807557,569.286596 65.8665589,587.096801" id="Fill-172" fill="#FFFFFF"></path>
                <path d="M233.752282,606.565956 C233.190547,605.777437 232.658376,604.953077 232.03751,604.206373 C231.44621,603.477591 230.736649,602.901136 229.997523,602.324681 C229.347092,601.813935 228.371446,601.996131 227.691451,602.324681 L227.661886,602.336628 C227.188845,602.566613 226.92276,602.92503 226.8045,603.32825 C226.567979,603.827048 226.479284,604.41545 226.656675,604.923209 C227.21841,606.598811 228.075796,607.904049 229.081007,609.328759 C229.908828,610.493617 231.475775,611.156689 232.776636,610.308434 C233.929673,609.570691 234.639233,607.805484 233.752282,606.565956" id="Fill-173" fill="#FFFFFF"></path>
                <path d="M248.915493,652.165157 C248.354793,651.37679 247.823604,650.549601 247.203884,649.803041 C246.613674,649.074399 245.905422,648.501041 245.167659,647.921711 C244.518428,647.41405 243.544581,647.593224 242.86584,647.921711 L242.86584,647.936642 C242.393672,648.166582 242.098567,648.524931 241.980525,648.928073 C241.744441,649.426775 241.655909,650.012078 241.832972,650.522725 C242.393672,652.198005 243.278987,653.500006 244.252834,654.924442 C245.079128,656.092061 246.672695,656.755006 247.971157,655.906914 C249.092556,655.169313 249.830318,653.40146 248.915493,652.165157" id="Fill-174" fill="#FFFFFF"></path>
                <path d="M185.982652,597.881664 C185.341853,597.093337 184.734779,596.266192 184.026527,595.519671 C183.352002,594.791067 182.542571,594.217739 181.699414,593.641425 C180.957435,593.127818 179.844468,593.309969 179.068763,593.641425 L179.035037,593.653369 C178.529142,593.883297 178.19188,594.238641 178.056974,594.644749 C177.787164,595.143425 177.685985,595.728697 177.888343,596.239317 C178.529142,597.911524 179.540931,599.216443 180.653899,600.640805 C181.598235,601.808364 183.385728,602.471274 184.903411,601.623226 C186.18501,600.882678 187.028167,599.120888 185.982652,597.881664" id="Fill-176" fill="#FFFFFF"></path>
                <path d="M137.280429,628.278615 C136.720439,627.493225 136.160448,626.666027 135.570984,625.919459 C134.952048,625.190808 134.274164,624.617443 133.507862,624.038106 C132.859452,623.527453 131.886837,623.709616 131.238427,624.038106 L131.208953,624.053038 C130.737382,624.279994 130.442651,624.638347 130.324758,625.04448 C130.088972,625.540202 130.000553,626.128498 130.177392,626.639151 C130.737382,628.311464 131.621578,629.616465 132.594193,631.040918 C133.419442,632.208551 135.010994,632.868517 136.307814,632.023402 C137.427795,631.282806 138.164624,629.517918 137.280429,628.278615" id="Fill-177" fill="#FFFFFF"></path>
                <path d="M179.55774,660.849628 C178.997749,660.061287 178.437759,659.237112 177.818822,658.490577 C177.229358,657.758973 176.551475,657.185634 175.785173,656.609309 C175.136763,656.098679 174.164148,656.277848 173.515737,656.609309 L173.486264,656.621254 C173.014693,656.851187 172.719962,657.209523 172.602069,657.612652 C172.366283,658.111337 172.277864,658.696621 172.454703,659.210237 C173.014693,660.882475 173.898889,662.187418 174.871504,663.611807 C175.696753,664.776402 177.288305,665.439325 178.585125,664.594247 C179.705106,663.853684 180.441935,662.088876 179.55774,660.849628" id="Fill-179" fill="#FFFFFF"></path>
                <path d="M259.146084,286.07514 C258.16722,286.07514 257.307007,285.429064 257.010382,284.424736 C256.654431,283.209132 257.33667,281.932288 258.523171,281.574037 L325.619811,261.199657 C326.806312,260.838344 328.022476,261.539536 328.378426,262.758202 C328.704714,263.973806 328.052138,265.250649 326.865637,265.6089 L259.768997,285.983281 L259.146084,286.07514" id="Fill-184" fill="#2F6A6E"></path>
                <path d="M289.377948,216.591994 C288.425793,216.591994 287.562902,216.014494 287.265353,215.101577 L278.725706,190.16406 C278.309138,189.01781 278.93399,187.778226 280.124184,187.393225 C281.284624,187.008225 282.564084,187.626559 282.950897,188.769893 L291.490544,213.707409 C291.877357,214.85366 291.252505,216.093244 290.092065,216.478244 L289.377948,216.591994" id="Fill-185" fill="#2F6A6E"></path>
                <path d="M158.433789,131.90941 C157.560366,131.90941 156.718137,131.412427 156.312619,130.561342 C155.782327,129.396537 156.281426,128.011195 157.435591,127.467619 L189.627454,112.586066 C190.781619,112.042491 192.185334,112.545686 192.74682,113.71981 C193.277112,114.884616 192.778014,116.269957 191.592655,116.813533 L159.431986,131.695086 C159.088856,131.841075 158.776919,131.90941 158.433789,131.90941" id="Fill-186" fill="#2F6A6E"></path>
                <path d="M90.0286374,419.613062 C89.587218,419.613062 89.1457985,419.484877 88.763235,419.219563 C87.7626843,418.521998 87.4978326,417.129847 88.2041037,416.110328 L108.715394,385.84075 C109.421665,384.824212 110.775351,384.564861 111.775902,385.265407 C112.776453,385.962973 113.041305,387.355123 112.364462,388.371661 L91.8237432,418.64124 C91.4117517,419.273222 90.7054806,419.613062 90.0286374,419.613062" id="Fill-187" fill="#2F6A6E"></path>
                <path d="M286.017357,471.725421 L285.489401,471.669913 L248.936236,463.89037 C247.693988,463.623929 246.917582,462.502653 247.228145,461.384153 C247.507651,460.265653 248.780955,459.571795 250.023204,459.841012 L286.576369,467.620554 C287.818617,467.886996 288.595023,469.008271 288.28446,470.126771 C288.036011,471.084296 287.073268,471.725421 286.017357,471.725421" id="Fill-189" fill="#2F6A6E"></path>
            </g>
            <g id="Illustration-7" fill-rule="nonzero">
                <g id="Group-15">
                    <path d="M736,729.547212 C735.993515,746.869074 721.582715,760.907865 703.808336,760.907865 L412.94414,760.907865 C395.16976,760.907865 380.75896,746.869074 380.752475,729.547212 L380.752475,31.3720982 C380.752475,14.0457668 395.165174,0 412.94414,0 L456.469243,0 L657.405831,0.0572274684 L703.808336,0.0572274684 C721.564394,0.0571986786 735.96761,14.0681197 736,31.3720982 L736,729.547212 Z" id="Path" fill="#F5F1ED"></path>
                    <rect id="Rectangle" fill="#E0B69E" x="402.613861" y="149.626966" width="105.663366" height="23.7213483" rx="4"></rect>
                    <rect id="Rectangle" fill="#E0B69E" opacity="0.121847098" x="398.970297" y="187.946067" width="327.920792" height="12.7730337" rx="3.5"></rect>
                    <rect id="Rectangle" fill="#E0B69E" opacity="0.121847098" x="398.970297" y="215.316854" width="129.346535" height="12.7730337" rx="3.5"></rect>
                    <rect id="Rectangle" fill="#E0B69E" x="402.613861" y="430.633708" width="105.663366" height="23.7213483" rx="4"></rect>
                    <rect id="Rectangle" fill="#E0B69E" opacity="0.121847098" x="398.970297" y="465.303371" width="327.920792" height="12.7730337" rx="3.5"></rect>
                    <rect id="Rectangle" fill="#E0B69E" opacity="0.121847098" x="398.970297" y="496.323596" width="129.346535" height="12.7730337" rx="3.5"></rect>
                    <rect id="Rectangle" fill="#E0B69E" x="402.613861" y="567.48764" width="105.663366" height="23.7213483" rx="4"></rect>
                    <rect id="Rectangle" fill="#E0B69E" opacity="0.121847098" x="398.970297" y="609.45618" width="327.920792" height="12.7730337" rx="3.5"></rect>
                    <rect id="Rectangle" fill="#E0B69E" opacity="0.121847098" x="398.970297" y="633.177528" width="129.346535" height="12.7730337" rx="3.5"></rect>
                    <ellipse id="Oval" fill="#E0B69E" cx="670.415842" cy="696.130337" rx="40.0792079" ry="39.2314607"></ellipse>
                    <path d="M726.891089,299.489487 L726.891089,395.798161 C726.891089,407.982951 717.147344,417.860674 705.127958,417.860674 L391.683168,417.860674 L391.683168,277.357303 L705.127958,277.357303 C710.911798,277.357303 716.457748,279.691272 720.541088,283.843877 C724.624428,287.996481 726.909245,293.626083 726.891089,299.489487 L726.891089,299.489487 Z" id="Path" fill="#F5F1ED"></path>
                    <g id="Rectangle">
                        <use fill="black" fill-opacity="1" filter="url(#filter-2)" xlink:href="#path-1"></use>
                        <use fill="#F5F1ED" xlink:href="#path-1"></use>
                    </g>
                    <rect id="Rectangle" fill="#E0B69E" x="286.019802" y="286.480899" width="105.663366" height="23.7213483" rx="4"></rect>
                    <rect id="Rectangle" fill="#E0B69E" opacity="0.121847098" x="286.019802" y="328.449438" width="327.920792" height="12.7730337" rx="3.5"></rect>
                    <rect id="Rectangle" fill="#E0B69E" opacity="0.121847098" x="286.019802" y="352.170787" width="129.346535" height="12.7730337" rx="3.5"></rect>
                    <ellipse id="Oval" fill="#333333" cx="98.3762376" cy="201.631461" rx="40.0792079" ry="42.8808989"></ellipse>
                    <path d="M71.4861885,522.789965 C75.5962927,552.64362 70.5839705,583.085354 62.7758864,612.131842 C61.3167437,617.539862 59.7462161,622.994006 57.0172851,627.84854 C54.2883542,632.703074 50.4901278,636.877281 47.2822416,641.443542 C40.5991454,650.968114 36.6783956,662.199269 33.0138312,673.315114 C22.9107495,704.073291 14.4256211,735.3758 7.59578852,767.08488 C7.18424211,768.384604 7.18424211,769.786399 7.59578852,771.086123 C8.56483747,773.392315 11.5053998,773.69212 13.9224529,773.680899 L45.1770663,773.507624 C46.2909157,771.29368 44.2302944,768.89524 42.9493676,766.773544 C38.4939701,759.601287 42.7711517,750.284271 46.70304,742.777616 C56.2591441,724.546116 63.6565305,705.188092 68.7349805,685.122817 C70.8735713,676.670624 72.6111763,668.033935 76.0863864,660.066042 C80.2855985,650.403097 86.8684483,642.089275 92.2149253,633.049003 C98.4302048,622.544298 102.963572,611.140179 107.463523,599.689936 C113.745634,583.800273 120.083437,567.714585 122.556182,550.741012 C124.884127,534.805225 123.736863,518.569634 122.222027,502.530069 C122.364869,501.562102 122.049213,500.582095 121.373793,499.896587 C120.698374,499.21108 119.745658,498.903769 118.813648,499.070781 L76.8772194,496.833775 C68.2337483,496.372536 66.1842655,494.412273 67.4986077,503.198864 C68.4119642,509.759981 70.572832,516.148132 71.4861885,522.789965 Z" id="Path" fill="#3F3D56"></path>
                    <path d="M71.4861885,522.789965 C75.5962927,552.64362 70.5839705,583.085354 62.7758864,612.131842 C61.3167437,617.539862 59.7462161,622.994006 57.0172851,627.84854 C54.2883542,632.703074 50.4901278,636.877281 47.2822416,641.443542 C40.5991454,650.968114 36.6783956,662.199269 33.0138312,673.315114 C22.9107495,704.073291 14.4256211,735.3758 7.59578852,767.08488 C7.18424211,768.384604 7.18424211,769.786399 7.59578852,771.086123 C8.56483747,773.392315 11.5053998,773.69212 13.9224529,773.680899 L45.1770663,773.507624 C46.2909157,771.29368 44.2302944,768.89524 42.9493676,766.773544 C38.4939701,759.601287 42.7711517,750.284271 46.70304,742.777616 C56.2591441,724.546116 63.6565305,705.188092 68.7349805,685.122817 C70.8735713,676.670624 72.6111763,668.033935 76.0863864,660.066042 C80.2855985,650.403097 86.8684483,642.089275 92.2149253,633.049003 C98.4302048,622.544298 102.963572,611.140179 107.463523,599.689936 C113.745634,583.800273 120.083437,567.714585 122.556182,550.741012 C124.884127,534.805225 123.736863,518.569634 122.222027,502.530069 C122.364869,501.562102 122.049213,500.582095 121.373793,499.896587 C120.698374,499.21108 119.745658,498.903769 118.813648,499.070781 L76.8772194,496.833775 C68.2337483,496.372536 66.1842655,494.412273 67.4986077,503.198864 C68.4119642,509.759981 70.572832,516.148132 71.4861885,522.789965 Z" id="Path" fill="#333333"></path>
                    <path d="M83.049878,450.238602 C74.2561488,462.773804 65.0371019,477.200681 67.9568499,492.208737 C70.1753986,503.604375 78.9346426,512.435994 87.1995986,520.697832 C120.236432,553.585643 152.721503,590.120058 163.963682,635.189806 C166.86044,646.836148 168.262839,658.790173 170.757269,670.516284 C175.286327,691.826127 183.401847,712.201528 191.448397,732.451576 L212.96717,786.444109 C226.668009,786.77785 239.116476,778.581018 244.118812,765.931961 C241.291024,765.715444 237.601107,763.003282 235.945816,760.724154 C226.74976,748.109183 224.864568,731.881795 222.508079,716.497683 C219.898697,699.495391 216.415691,682.629847 212.921189,665.775699 L197.517794,591.225435 C195.736058,582.621728 193.954322,574.006626 191.632318,565.539667 C182.643173,532.686043 165.607477,501.724094 162.975106,467.753697 C162.584274,462.762408 162.342877,457.281106 158.928841,453.577524 C155.342379,449.66882 149.456903,449.019269 144.134685,448.711586 C122.604417,447.298527 104.028382,445.213126 83.049878,450.238602 Z" id="Path" fill="#333333"></path>
                    <path d="M26.0912343,766.74418 C23.7594277,766.195265 21.3758025,765.891315 18.9797861,765.837357 C14.3237364,766.000878 10.0183705,768.332584 7.36365852,772.128438 C6.02794499,774.25053 4.97858409,776.537066 4.2423959,778.929606 L1.14399967,787.748453 C0.229343951,790.332897 -0.66244537,793.314076 0.698105004,795.683149 C1.70294207,797.171908 3.16096148,798.303713 4.8597885,798.913704 C12.3599654,802.223606 20.8090975,802.40497 28.983833,803.19844 C36.9184713,803.969239 44.7845104,805.352143 52.61625,806.814394 C55.3144843,807.313146 58.0012855,807.823234 60.7338194,808.09528 C66.8391463,808.707386 72.990206,808.09528 79.0955329,807.551187 L85.3952241,806.950417 C87.5039544,806.860251 89.5896719,806.478728 91.5920166,805.816889 C93.6133328,805.137107 95.265889,803.66664 96.1652952,801.747524 C97.7202099,797.927534 94.3817165,793.404758 90.3000654,792.6793 C88.6422519,792.350577 86.9272725,792.497935 85.2465926,792.282565 C83.3417312,791.95879 81.4835749,791.406878 79.7129255,790.63895 C71.652522,787.499077 63.5120862,784.325199 56.4235044,779.383017 C54.4569946,778.011448 52.3990192,776.095786 52.61625,773.715377 C52.8206441,772.695828 53.1629194,771.708299 53.6338045,770.779539 C54.5949625,768.347204 54.6274867,765.650664 53.72527,763.196237 C53.3365414,762.153391 52.5819504,761.053869 51.5186631,760.929181 C48.5002993,760.566452 48.8661616,764.930535 48.4202669,766.596821 C47.8143075,768.863877 46.7167206,769.067912 44.5672797,768.863877 C38.3933536,768.206431 32.2194276,767.900378 26.0912343,766.74418 Z" id="Path" fill="#E0B69E"></path>
                    <path d="M205.984999,796.751669 C206.040498,801.081921 207.587473,805.272017 210.383374,808.664999 C211.238171,809.677171 212.305393,810.504209 213.515201,811.091993 C215.31879,811.805238 217.270014,812.104964 219.214667,811.967484 C224.695623,811.852715 230.111403,810.79818 235.207712,808.853396 C237.003107,808.07079 238.849212,807.400768 240.734466,806.847523 C243.107114,806.380367 245.506146,806.047332 247.919247,805.850128 C257.441384,804.53135 265.8006,799.123253 275.000343,796.385958 C277.749078,795.730424 280.443172,794.878426 283.060193,793.837059 C286.698639,792.185816 289.646242,789.404193 292.536274,786.711226 C294.237385,785.25875 295.70425,783.570516 296.888593,781.702087 C298.581161,778.665573 298.684788,775.052786 298.753872,771.617315 C298.815971,771.081813 298.720206,770.540301 298.477534,770.054729 C298.214612,769.705028 297.855821,769.432599 297.441268,769.267895 C294.643349,767.938035 291.327296,768.602965 288.230011,769.123827 C277.038333,771.041042 265.581832,770.686413 254.217444,770.331783 C252.000655,770.625066 249.855919,769.447423 248.990055,767.461502 L244.672279,760.812202 C243.440273,758.906069 241.482881,756.722882 239.249151,757.37673 C237.46447,757.897592 236.739083,760.003204 236.808168,761.809597 C236.877252,763.61599 237.452956,765.411301 237.09602,767.173366 C236.581508,769.133648 235.24808,770.80208 233.411517,771.783547 C231.597776,772.732775 229.662151,773.448174 227.654481,773.911323 C221.298714,775.640141 213.90668,777.601685 208.990171,782.101045 C205.432323,785.337037 205.766231,792.485035 205.984999,796.751669 Z" id="Path" fill="#E0B69E"></path>
                    <path d="M201.80914,339.428513 C204.228169,337.562902 206.304157,335.283424 207.942704,332.693734 C209.354427,329.771809 210.240673,326.620014 210.56014,323.385226 L212.323821,312.137919 C213.301147,305.936026 214.446978,299.371317 218.547254,294.643366 C222.64753,289.915415 230.814382,288.226052 234.98206,292.897312 C236.801909,294.926817 237.520861,297.715967 237.970207,300.425752 C240.566162,316.791818 235.684744,333.464489 224.692052,345.7778 C219.64815,351.356102 213.458418,355.789264 208.122442,361.06144 C203.471717,365.596644 199.438843,370.800792 195.147595,375.732827 C184.770178,387.646699 172.883985,398.129935 159.79535,406.91236 C159.952621,398.476879 161.019816,389.429145 159.79535,381.050355 C158.885425,374.995856 156.42526,371.730509 162.233048,367.773543 C175.713409,358.521725 189.317339,350.154272 201.80914,339.428513 Z" id="Path" fill="#FF9A75"></path>
                    <path d="M88.1019797,257.243668 C87.6594097,263.436839 85.1515131,269.769706 80.1584158,273.343584 C94.2979596,278.419191 108.244588,284.014775 121.998302,290.130337 C119.342882,287.511045 118.537177,283.494797 118.41235,279.723016 C118.060564,269.862836 121.385512,260.165634 126.242434,251.667486 C127.015092,250.589528 127.461093,249.301964 127.524752,247.965553 C127.365881,245.218207 124.188456,243.949305 121.578428,243.309034 C112.673687,241.093059 103.585621,239.740601 94.4341349,239.269503 C90.5190927,239.141449 85.8777818,237.872548 86.7629218,242.983078 C87.60267,247.75601 88.4537661,252.41253 88.1019797,257.243668 Z" id="Path" fill="#FF9A75"></path>
                    <ellipse id="Oval" fill="#FF9A75" cx="113.861386" cy="227.177528" rx="33.7029703" ry="33.7573034"></ellipse>
                    <path d="M147.662412,312.918748 C146.488827,310.381318 145.059177,307.971735 143.395952,305.727905 C137.301011,296.930104 131.04507,288.143864 123.225145,280.860534 C117.301549,275.549805 110.890422,270.815651 104.077828,266.721625 C100.401984,264.188547 96.360434,262.238945 92.0949431,260.941204 C89.5638115,260.377294 86.9905147,260.025409 84.4015167,259.889167 L75.6731002,259.172395 C74.9077513,259.070383 74.1310117,259.093808 73.3731222,259.24176 C71.0041448,259.842924 69.9231552,262.802499 70.4291503,265.195593 C70.9351455,267.588688 72.7291283,269.530909 74.3161131,271.345961 C74.7071094,289.253705 66.7836852,306.918672 65.7141954,324.803294 C63.8397134,356.017567 82.8260317,385.162449 84.3440172,416.457647 C84.5005116,417.871824 84.3514505,419.303297 83.9070214,420.654233 C83.6540238,421.30164 83.2745274,421.891243 82.9870302,422.527089 C82.0900388,424.492432 82.1245384,426.723675 81.96354,428.885552 C81.3369806,436.595903 77.9785998,443.82413 72.4991305,449.255756 C73.9231942,451.032835 75.7539684,452.436993 77.8350795,453.348294 C81.5035444,454.955251 85.8850025,455.093981 89.7834652,456.215382 C99.9493679,459.19808 110.368268,462.203898 120.936667,461.568052 C122.249628,458.695798 123.062583,455.618348 123.340144,452.46967 C124.83513,451.533241 126.560113,453.533267 126.790111,455.290515 C127.020109,457.047763 126.686612,459.094032 127.9401,460.365725 C129.193588,461.637417 130.780573,461.440883 132.310058,461.244349 C138.761497,460.423529 144.959937,458.23853 151.284877,456.770303 C157.609816,455.302076 164.371752,454.596865 170.524193,456.700938 C171.766181,455.117102 171.237186,452.770252 170.225196,451.036125 C169.213205,449.301999 167.775719,447.775968 167.200725,445.845307 C166.911376,444.732966 166.787367,443.5837 166.832728,442.434859 C166.832728,432.550339 168.856709,422.561772 166.936227,412.862226 C166.372733,410.018259 165.475741,407.243657 164.900747,404.388129 C163.750758,398.850485 163.923256,393.13943 164.072755,387.486178 C164.222253,381.832926 163.54376,375.717241 163.428761,369.983063 C163.425197,367.613378 163.271554,365.246324 162.968765,362.896267 C162.577769,360.433808 161.818776,358.029153 161.611778,355.543572 C160.990784,349.231352 163.52076,342.965376 163.141263,336.630035 C162.508769,327.011415 151.388376,321.785914 147.662412,312.918748 Z" id="Path" fill="#D96249"></path>
                    <path d="M69.278447,312.320674 C61.0964385,333.97385 57.0978863,356.941436 53.0993341,379.747603 L43.8541268,433.315576 C41.2307992,448.454351 38.5959151,463.685366 38.6999237,479.043209 C38.6999237,483.355397 38.9772799,487.748293 37.844742,491.910592 C36.3655089,497.37577 32.690539,501.930086 29.9054203,506.899478 C24.2542313,517.047556 22.3718041,528.85914 24.589426,540.255515 C25.5370598,545.040429 28.1257178,550.471018 32.9910082,551.024453 C36.9895604,551.46259 40.4449566,548.291864 42.7793715,545.017369 C48.1415917,537.511396 50.7995888,528.448885 53.1802297,519.524732 C60.8440891,490.360353 66.2034819,460.641194 69.2091079,430.640637 C69.4947941,426.843039 70.0314121,423.068396 70.8154627,419.341322 C71.8360965,415.498838 73.1417303,411.737401 74.7215628,408.088128 C78.2578546,399.340767 81.7979985,390.593407 85.3419947,381.846047 C93.5124466,361.63411 101.729125,341.329934 112.950495,322.628416 C101.856246,319.44616 90.3112936,315.710468 79.2170448,312.562802 C76.0158918,311.61735 72.5836086,312.182315 69.278447,312.320674 Z" id="Path" fill="#FF9A75"></path>
                    <path d="M88.4697797,328.803339 C81.0829036,327.111661 73.4432028,327.636664 65.9024333,327.43833 C64.831536,327.520984 63.7649245,327.225667 62.8685378,326.598324 C61.3405976,325.209981 61.9891478,322.608296 62.758614,320.636616 L66.4080826,311.303219 C67.0070756,309.373842 68.0062686,307.61167 69.3320544,306.146517 C71.1897658,304.396505 73.8059511,303.964836 76.2682432,303.649833 C84.2816848,302.669827 92.5259662,302.343158 100.297575,304.641507 C108.069185,306.939856 115.379114,312.166558 118.852705,319.901611 C120.303698,323.121633 120.974233,327.181661 119.050568,330.110014 C116.19255,334.461711 109.783995,339.326744 105.002312,336.946728 C99.2752846,334.100042 94.8893269,330.285016 88.4697797,328.803339 Z" id="Path" fill="#D96249"></path>
                    <path d="M129.203758,174.866313 C122.582974,174.796511 116.08678,176.66437 110.517934,180.239071 C99.7735841,170.077495 84.3786785,166.479104 70.2309304,170.822425 C68.1782958,159.114092 57.658539,150.800809 45.7696271,151.491775 C33.8807153,152.182742 24.3988069,161.658492 23.7216045,173.525479 C23.0444021,185.392466 31.3869988,195.881495 43.1204169,197.915332 C38.3755666,212.135416 41.7924278,227.806605 52.0287556,238.772786 C62.2650833,249.738968 77.6856271,254.248299 92.2327376,250.529379 C106.779848,246.810459 118.129628,235.457385 121.823546,220.929983 C124.244621,221.424598 126.70953,221.674071 129.180802,221.674608 C145.364471,221.674608 158.49505,211.192574 158.49505,198.270461 C158.49505,185.348347 145.364471,174.866313 129.203758,174.866313 Z" id="Path" fill="#333333"></path>
                    <path d="M137.397431,205.895141 C134.772905,205.901564 132.154738,205.661851 129.585067,205.179859 C128.364451,209.204742 126.438846,213.027493 123.881188,216.503322 C126.291184,216.922641 128.739525,217.136333 131.193853,217.141573 C147.257341,217.141573 160.444513,208.338104 162.138614,197.069663 C156.422547,202.439779 147.464533,205.895141 137.397431,205.895141 Z" id="Path" fill="#000000" opacity="0.1"></path>
                    <path d="M92.8219888,236.421257 C79.9654454,236.402246 67.8783554,230.144879 60.240429,219.554106 C52.6025027,208.963333 50.3175338,195.292357 54.0811426,182.703076 C43.0107598,180.708512 34.9379386,170.860364 34.9374068,159.349364 C34.9350877,157.924555 35.0602893,156.502528 35.3114407,155.101124 C29.5528039,161.472296 27.6542006,170.55676 30.3619378,178.783575 C33.069675,187.01039 39.9508586,193.06431 48.3006185,194.565647 C41.804269,216.409769 53.7627337,239.524223 75.0598878,246.288499 C96.3570419,253.052775 118.988957,240.924713 125.70297,219.149724 C118.102205,229.998329 105.860226,236.428725 92.8219888,236.421257 L92.8219888,236.421257 Z" id="Path" fill="#000000" opacity="0.1"></path>
                </g>
            </g>
        </g>
    </g>
</svg>